<?xml version="1.0" encoding="utf-8"?>
<!-- Generator: Adobe Illustrator 16.0.0, SVG Export Plug-In . SVG Version: 6.00 Build 0)  -->
<!DOCTYPE svg PUBLIC "-//W3C//DTD SVG 1.1//EN" "http://www.w3.org/Graphics/SVG/1.1/DTD/svg11.dtd">
<svg version="1.1" id="Layer_1" xmlns="http://www.w3.org/2000/svg" xmlns:xlink="http://www.w3.org/1999/xlink" x="0px" y="0px"
	 width="27px" height="24px" viewBox="0 0 27 24" enable-background="new 0 0 27 24" xml:space="preserve">
<rect fill="none" width="27" height="24"/>
<g>
	<path fill-rule="evenodd" clip-rule="evenodd" d="M15.172,23c-0.364-0.065-0.735-0.11-1.093-0.202
		c-1.822-0.468-3.231-1.505-4.181-3.128c-1.438-2.456-2.852-4.928-4.273-7.395c-0.318-0.551-0.154-1.095,0.408-1.395
		c1.098-0.585,2.513-0.233,3.184,0.819c0.403,0.633,0.76,1.296,1.139,1.944c0.036,0.062,0.059,0.147,0.113,0.179
		c0.097,0.056,0.224,0.121,0.319,0.1c0.084-0.019,0.16-0.143,0.208-0.236c0.032-0.063,0.01-0.154,0.01-0.233
		c0-2.928-0.001-5.857,0.001-8.786c0-0.921,0.582-1.606,1.477-1.752c0.915-0.149,1.855,0.554,1.913,1.483
		c0.046,0.749,0.021,1.503,0.025,2.254c0.002,0.407,0,0.813,0,1.26c0.492-0.275,0.98-0.354,1.489-0.183
		c0.505,0.168,0.845,0.518,1.064,1.019c0.496-0.341,1.026-0.455,1.593-0.261c0.56,0.19,0.916,0.59,1.099,1.133
		c0.248-0.085,0.482-0.199,0.729-0.242c1.029-0.18,1.977,0.582,1.986,1.625c0.018,1.861,0.05,3.725-0.01,5.585
		c-0.104,3.255-2.62,5.952-5.854,6.361c-0.104,0.014-0.209,0.033-0.313,0.05C15.859,23,15.516,23,15.172,23z M11.769,9.1
		c0,1.482-0.001,2.964,0,4.446c0,0.346-0.092,0.651-0.353,0.89c-0.501,0.457-1.269,0.342-1.625-0.254
		c-0.392-0.657-0.759-1.33-1.155-1.984c-0.469-0.778-1.416-1.057-2.204-0.67c-0.225,0.109-0.255,0.192-0.135,0.4
		c1.435,2.484,2.854,4.977,4.311,7.447c1.213,2.059,3.628,3.168,5.976,2.801c2.871-0.449,4.997-2.883,5.033-5.795
		c0.022-1.762,0.007-3.523,0.005-5.285c-0.001-0.573-0.397-0.986-0.937-0.989c-0.547-0.003-0.951,0.417-0.957,0.995
		c-0.002,0.236,0.005,0.473-0.003,0.709c-0.008,0.222-0.157,0.367-0.364,0.372c-0.208,0.005-0.358-0.13-0.386-0.352
		c-0.008-0.063-0.006-0.129-0.006-0.193c-0.001-0.501,0.004-1.002-0.002-1.503c-0.006-0.443-0.235-0.779-0.613-0.92
		c-0.624-0.233-1.266,0.217-1.281,0.909c-0.011,0.501,0.002,1.002-0.007,1.503c-0.003,0.219-0.164,0.368-0.366,0.371
		c-0.203,0.003-0.359-0.146-0.377-0.361c-0.006-0.064-0.004-0.129-0.004-0.193c0-0.673,0-1.346,0-2.019
		c0.001-0.259-0.061-0.496-0.232-0.696c-0.256-0.298-0.665-0.408-1.034-0.278c-0.374,0.131-0.621,0.461-0.628,0.887
		c-0.012,0.702-0.004,1.403-0.006,2.105c0,0.086,0.001,0.173-0.016,0.257c-0.04,0.194-0.173,0.292-0.366,0.299
		c-0.183,0.006-0.344-0.139-0.368-0.325c-0.01-0.077-0.005-0.157-0.005-0.236c0-2.248-0.001-4.497,0.001-6.745
		c0-0.318-0.087-0.597-0.334-0.804c-0.301-0.252-0.645-0.307-1.003-0.146c-0.367,0.166-0.557,0.462-0.558,0.867
		C11.768,6.106,11.77,7.603,11.769,9.1z"/>
	<path fill-rule="evenodd" clip-rule="evenodd" d="M13.109,1c0.315,0.086,0.641,0.145,0.943,0.264
		c2.003,0.788,2.859,3.188,1.818,5.071c-0.145,0.262-0.349,0.351-0.555,0.242c-0.212-0.112-0.254-0.329-0.115-0.594
		c0.931-1.778-0.062-3.823-2.03-4.186c-1.714-0.316-3.336,1.091-3.299,2.857c0.011,0.49,0.143,0.942,0.374,1.372
		c0.146,0.27,0.009,0.555-0.27,0.585C9.781,6.632,9.66,6.524,9.567,6.36c-0.79-1.393-0.541-3.173,0.61-4.31
		c0.567-0.561,1.246-0.901,2.038-1.013C12.256,1.032,12.295,1.013,12.336,1C12.594,1,12.852,1,13.109,1z"/>
</g>
</svg>
