<?xml version="1.0" encoding="utf-8"?>
<!-- Generator: Adobe Illustrator 16.0.0, SVG Export Plug-In . SVG Version: 6.00 Build 0)  -->
<!DOCTYPE svg PUBLIC "-//W3C//DTD SVG 1.1//EN" "http://www.w3.org/Graphics/SVG/1.1/DTD/svg11.dtd">
<svg version="1.1" id="Layer_1" xmlns:inkscape="http://www.inkscape.org/namespaces/inkscape"
	 xmlns="http://www.w3.org/2000/svg" xmlns:xlink="http://www.w3.org/1999/xlink" x="0px" y="0px" width="28px" height="24px"
	 viewBox="0 0 28 24" enable-background="new 0 0 28 24" xml:space="preserve">
<rect fill="none" width="28" height="24"/>
<g inkscape:groupmode="layer" inkscape:label="Layer 1">
	<g>
		<g>
			<path d="M24.422,1.333c-0.908-0.909-2.404-0.909-5.119-0.909H8.534c-2.684,0-4.031,0-5.099,0.89
				c-1.093,0.91-1.093,2.16-1.093,4.649v1.305c0,0.505,0.302,0.807,0.807,0.807c0.52,0,0.807-0.477,0.807-0.807V6.126
				c0-2.038,0-2.969,0.559-3.529c0.56-0.559,1.715-0.559,4.019-0.559h4.577V8.41c0,0.505,0.302,0.807,0.807,0.807
				c0.501,0,0.711-0.632,0.791-0.87l0.018-6.472h4.576c2.303,0,3.459,0,4.051,0.588c0.526,0.395,0.526,1.498,0.526,3.5v1.142
				c0,0.505,0.302,0.807,0.808,0.807c0.52,0,0.808-0.477,0.808-0.807V5.963C25.494,3.474,25.494,2.224,24.422,1.333"/>
			<path d="M13.918,18.68c0.439,0,0.689-0.5,0.771-0.662l0.035-2.592c0-0.498-0.31-0.807-0.808-0.807
				c-0.519,0-0.808,0.477-0.808,0.807v2.447C13.109,18.379,13.413,18.68,13.918,18.68"/>
			<path d="M20.607,21.963h-5.899l0.017-0.988c0-0.506-0.301-0.807-0.808-0.807c-0.519,0-0.806,0.477-0.806,0.807v0.988H7.064
				c-0.52,0-0.807,0.477-0.807,0.807c0,0.498,0.309,0.808,0.807,0.808h13.543c0.498,0,0.807-0.31,0.807-0.808
				S21.105,21.963,20.607,21.963"/>
			<path d="M24.688,11.193H2.986c-0.52,0-0.807,0.477-0.807,0.807c0,0.506,0.301,0.807,0.807,0.807h21.702
				c0.504,0,0.807-0.301,0.807-0.807C25.494,11.496,25.191,11.193,24.688,11.193"/>
		</g>
	</g>
</g>
</svg>
