<?xml version="1.0" encoding="utf-8"?>
<!-- Generator: Adobe Illustrator 16.0.0, SVG Export Plug-In . SVG Version: 6.00 Build 0)  -->
<!DOCTYPE svg PUBLIC "-//W3C//DTD SVG 1.1//EN" "http://www.w3.org/Graphics/SVG/1.1/DTD/svg11.dtd">
<svg version="1.1" id="Layer_1" xmlns="http://www.w3.org/2000/svg" xmlns:xlink="http://www.w3.org/1999/xlink" x="0px" y="0px"
	 width="20px" height="20px" viewBox="-2 -2 20 20" enable-background="new -2 -2 20 20" xml:space="preserve">
<g>
	<path fill="#E41D00" d="M8-2c5.525,0,10,4.475,10,10c0,5.521-4.475,10-10,10C2.475,18-2,13.521-2,8C-2,2.475,2.475-2,8-2"/>
	<path fill="#FFFFFF" d="M3.582,9.041H1.934v3.674h-2.066V2.687h3.726c1.183,0,2.101,0.267,2.74,0.793
		C6.979,4.008,7.3,4.755,7.3,5.719c0,0.684-0.145,1.251-0.446,1.709C6.565,7.887,6.11,8.247,5.51,8.521l2.172,4.096v0.098h-2.22
		L3.582,9.041z M1.934,7.37h1.667c0.519,0,0.924-0.131,1.205-0.396C5.09,6.708,5.235,6.349,5.235,5.881
		c0-0.471-0.131-0.843-0.405-1.114C4.566,4.494,4.153,4.361,3.595,4.361H1.934V7.37z"/>
	<path fill="#FFFFFF" d="M8.869,12.715V2.687h3.515c1.22,0,2.142,0.236,2.767,0.701c0.628,0.465,0.943,1.15,0.943,2.048
		c0,0.493-0.123,0.924-0.38,1.299c-0.253,0.374-0.604,0.645-1.054,0.82c0.518,0.127,0.918,0.387,1.219,0.779
		c0.289,0.39,0.442,0.867,0.442,1.432c0,0.963-0.309,1.693-0.924,2.188c-0.61,0.497-1.494,0.748-2.63,0.758H8.869V12.715z
		 M10.937,6.887h1.531C13.51,6.87,14.03,6.454,14.03,5.641c0-0.454-0.13-0.781-0.391-0.979c-0.271-0.2-0.685-0.301-1.256-0.301
		h-1.447V6.887z M10.937,8.346v2.708h1.772c0.491,0,0.868-0.115,1.139-0.348c0.273-0.229,0.41-0.551,0.41-0.961
		c0-0.916-0.473-1.384-1.423-1.398L10.937,8.346L10.937,8.346z"/>
</g>
</svg>
