<?xml version="1.0" encoding="utf-8"?>
<!-- Generator: Adobe Illustrator 16.0.0, SVG Export Plug-In . SVG Version: 6.00 Build 0)  -->
<!DOCTYPE svg PUBLIC "-//W3C//DTD SVG 1.1//EN" "http://www.w3.org/Graphics/SVG/1.1/DTD/svg11.dtd">
<svg version="1.1" id="Layer_1" xmlns="http://www.w3.org/2000/svg" xmlns:xlink="http://www.w3.org/1999/xlink" x="0px" y="0px"
	 width="27px" height="24px" viewBox="0 0 27 24" enable-background="new 0 0 27 24" xml:space="preserve">
<rect fill="none" width="27" height="24"/>
<g>
	<path fill-rule="evenodd" clip-rule="evenodd" d="M18.071,1.006c0.152,0.073,0.318,0.128,0.456,0.224
		c0.329,0.229,0.479,0.561,0.482,0.957c0.004,0.428,0.001,0.855,0.001,1.306c0.537,0,1.051-0.003,1.564,0.001
		c0.579,0.005,1.03,0.385,1.132,0.949c0.016,0.091,0.016,0.185,0.016,0.278c0.001,4.389,0.001,8.778,0,13.167
		c0,0.064,0.007,0.132-0.009,0.192c-0.043,0.164-0.15,0.258-0.326,0.252c-0.166-0.005-0.266-0.102-0.3-0.257
		C21.07,18,21.079,17.919,21.079,17.84c0-4.346,0-8.692,0-13.038c0-0.513-0.151-0.664-0.665-0.664c-0.457,0-0.915,0-1.403,0
		c0,0.161,0.002,0.308,0,0.455c-0.009,0.694-0.505,1.206-1.163,1.201c-0.65-0.005-1.137-0.512-1.146-1.196
		c-0.002-0.143,0-0.285,0-0.443c-0.803,0-1.594,0-2.418,0c0,0.141,0.002,0.288,0,0.435c-0.009,0.695-0.502,1.207-1.159,1.204
		c-0.658-0.003-1.145-0.516-1.15-1.213c-0.001-0.136,0-0.271,0-0.425c-0.8,0-1.591,0-2.418,0c0,0.138,0.002,0.284,0,0.431
		C9.549,5.283,9.059,5.794,8.401,5.793c-0.658,0-1.147-0.513-1.153-1.21c-0.001-0.142,0-0.283,0-0.44
		c-0.564,0-1.107-0.011-1.648,0.005c-0.25,0.007-0.416,0.23-0.418,0.512C5.178,5.155,5.181,5.649,5.18,6.143
		c0,0.271-0.114,0.415-0.324,0.414C4.646,6.555,4.536,6.413,4.536,6.138c-0.001-0.487-0.003-0.974,0-1.461
		c0.004-0.705,0.481-1.18,1.19-1.184c0.5-0.002,0.999,0,1.521,0c0-0.365,0-0.707,0-1.048c0-0.847,0.18-1.123,0.94-1.438
		c0.143,0,0.286,0,0.43,0C9.378,1.325,9.557,1.6,9.557,2.446c0.001,0.341,0,0.683,0,1.035c0.814,0,1.604,0,2.418,0
		c0-0.439-0.003-0.867,0.001-1.294c0.004-0.396,0.153-0.729,0.482-0.957c0.138-0.095,0.304-0.15,0.457-0.224c0.143,0,0.286,0,0.43,0
		c0.76,0.317,0.939,0.593,0.939,1.439c0,0.341,0,0.683,0,1.036c0.813,0,1.604,0,2.418,0c0-0.439-0.003-0.867,0.001-1.294
		c0.003-0.396,0.152-0.729,0.481-0.957c0.138-0.095,0.304-0.15,0.457-0.224C17.784,1.006,17.928,1.006,18.071,1.006z M8.913,3.404
		c0-0.386,0.002-0.772-0.001-1.158C8.91,1.887,8.709,1.654,8.405,1.652C8.101,1.65,7.895,1.884,7.893,2.241
		c-0.002,0.771-0.002,1.543,0,2.315c0.001,0.365,0.196,0.589,0.507,0.591c0.311,0.001,0.51-0.223,0.513-0.585
		C8.915,4.176,8.913,3.79,8.913,3.404z M12.619,3.391c0,0.393-0.002,0.786,0.001,1.179c0.003,0.35,0.197,0.571,0.498,0.577
		c0.313,0.006,0.52-0.218,0.521-0.577c0.003-0.779,0.003-1.558,0-2.337c-0.001-0.354-0.216-0.587-0.52-0.581
		c-0.298,0.006-0.496,0.234-0.499,0.581C12.617,2.619,12.619,3.005,12.619,3.391z M18.366,3.391c0-0.386,0.003-0.772,0-1.158
		c-0.003-0.346-0.203-0.574-0.499-0.581c-0.305-0.006-0.519,0.228-0.52,0.581c-0.003,0.779-0.003,1.558,0,2.337
		c0.001,0.35,0.197,0.571,0.498,0.577c0.312,0.006,0.517-0.219,0.521-0.577C18.369,4.177,18.366,3.784,18.366,3.391z"/>
	<path fill-rule="evenodd" clip-rule="evenodd" d="M5.438,23.006c-0.03-0.016-0.059-0.035-0.09-0.046
		c-0.523-0.187-0.812-0.584-0.813-1.138c-0.002-1.347,0-2.692,0-4.038c0-3.279,0-6.559,0-9.838c0-0.072-0.005-0.144,0.002-0.215
		c0.018-0.182,0.155-0.312,0.323-0.31C5.03,7.424,5.162,7.554,5.178,7.739C5.184,7.81,5.18,7.882,5.18,7.954
		c0.001,4.576,0.001,9.151,0.001,13.725c0,0.528,0.152,0.683,0.671,0.683c4.854,0,9.708,0.001,14.563,0
		c0.506,0,0.664-0.159,0.665-0.667c0-0.694-0.001-1.39,0-2.084c0-0.265,0.125-0.415,0.332-0.408
		c0.197,0.007,0.312,0.152,0.312,0.407c0.001,0.716,0.001,1.433,0,2.148c0,0.634-0.258,0.998-0.854,1.211
		c-0.018,0.007-0.031,0.024-0.047,0.037C15.693,23.006,10.565,23.006,5.438,23.006z"/>
	<path fill-rule="evenodd" clip-rule="evenodd" d="M15.065,14.942c-1.116,0-2.232,0.003-3.348-0.001
		c-0.565-0.002-0.959-0.322-1.054-0.844c-0.095-0.514,0.258-1.039,0.769-1.145c0.084-0.017,0.171-0.028,0.256-0.028
		c2.239-0.002,4.479-0.005,6.718,0.001c0.588,0.001,1.022,0.411,1.044,0.952c0.022,0.582-0.388,1.044-0.972,1.059
		c-0.651,0.016-1.303,0.005-1.953,0.006C16.039,14.943,15.552,14.942,15.065,14.942z M15.041,14.298c1.075,0,2.148,0,3.223,0
		c0.079,0,0.159,0.003,0.236-0.009c0.187-0.03,0.293-0.145,0.304-0.334c0.011-0.188-0.083-0.315-0.265-0.365
		c-0.074-0.021-0.155-0.021-0.234-0.021c-2.169-0.001-4.339-0.001-6.509,0c-0.078,0-0.159,0.003-0.234,0.022
		c-0.185,0.049-0.277,0.185-0.266,0.366c0.013,0.181,0.118,0.306,0.309,0.332c0.077,0.011,0.157,0.009,0.236,0.009
		C12.907,14.298,13.975,14.298,15.041,14.298z"/>
	<path fill-rule="evenodd" clip-rule="evenodd" d="M15.061,17.191c1.116,0,2.232-0.006,3.349,0.002
		c0.746,0.006,1.229,0.68,0.985,1.352c-0.151,0.415-0.527,0.663-1.026,0.665c-0.779,0.003-1.56,0.001-2.339,0.001
		c-1.432,0-2.862,0.002-4.293-0.001c-0.569-0.001-0.968-0.315-1.068-0.83c-0.113-0.578,0.306-1.146,0.895-1.178
		c0.436-0.023,0.873-0.01,1.309-0.011C13.602,17.19,14.331,17.191,15.061,17.191z M15.067,17.836c-1.074,0-2.148,0-3.223,0
		c-0.086,0-0.173-0.003-0.257,0.012c-0.179,0.03-0.277,0.152-0.292,0.324c-0.014,0.174,0.071,0.307,0.241,0.364
		c0.072,0.024,0.154,0.029,0.232,0.029c2.184,0.001,4.368,0.001,6.553,0c0.085-0.001,0.176-0.004,0.253-0.033
		c0.166-0.062,0.245-0.192,0.229-0.371c-0.017-0.168-0.113-0.277-0.278-0.312c-0.083-0.018-0.171-0.014-0.257-0.014
		C17.202,17.836,16.135,17.836,15.067,17.836z"/>
	<path fill-rule="evenodd" clip-rule="evenodd" d="M15.047,10.679c-1.131,0-2.262,0.006-3.392-0.002
		c-0.676-0.005-1.138-0.616-0.973-1.263c0.116-0.458,0.521-0.752,1.047-0.752c1.988-0.001,3.978,0,5.967,0
		c0.251,0,0.501-0.005,0.751,0.001c0.575,0.015,1.006,0.454,1.004,1.015c-0.001,0.561-0.434,0.997-1.013,1
		C17.308,10.684,16.177,10.679,15.047,10.679z M15.049,10.035c0.937,0,1.874,0,2.811,0c0.2,0,0.401,0.005,0.602-0.004
		c0.202-0.01,0.336-0.149,0.345-0.34c0.008-0.19-0.114-0.344-0.309-0.378c-0.063-0.011-0.128-0.008-0.192-0.008
		c-2.167,0-4.334-0.001-6.502,0c-0.084,0-0.174,0.001-0.253,0.025c-0.181,0.055-0.271,0.192-0.252,0.375
		c0.019,0.182,0.129,0.299,0.318,0.324c0.07,0.009,0.143,0.005,0.214,0.005C12.903,10.035,13.976,10.035,15.049,10.035z"/>
	<path fill-rule="evenodd" clip-rule="evenodd" d="M8.075,9.656c0.479-0.575,0.943-1.135,1.408-1.695
		C9.584,7.841,9.681,7.716,9.786,7.6c0.136-0.149,0.32-0.167,0.459-0.053c0.141,0.115,0.166,0.301,0.037,0.458
		c-0.664,0.806-1.33,1.61-2.003,2.407c-0.157,0.186-0.389,0.16-0.524-0.048c-0.206-0.318-0.403-0.641-0.596-0.967
		C7.056,9.221,7.102,9.039,7.254,8.946c0.151-0.093,0.337-0.052,0.447,0.113C7.828,9.248,7.943,9.445,8.075,9.656z"/>
	<path fill-rule="evenodd" clip-rule="evenodd" d="M8.075,13.91c0.553-0.665,1.083-1.302,1.613-1.939
		c0.031-0.038,0.061-0.079,0.096-0.115c0.139-0.147,0.319-0.169,0.458-0.057c0.142,0.113,0.162,0.295,0.042,0.458
		c-0.085,0.115-0.181,0.222-0.272,0.331c-0.553,0.666-1.104,1.332-1.659,1.996c-0.24,0.287-0.454,0.269-0.654-0.054
		c-0.174-0.279-0.348-0.559-0.517-0.84c-0.122-0.203-0.093-0.388,0.07-0.489c0.163-0.103,0.346-0.049,0.471,0.146
		C7.839,13.525,7.95,13.708,8.075,13.91z"/>
	<path fill-rule="evenodd" clip-rule="evenodd" d="M8.074,18.193c0.534-0.643,1.051-1.264,1.567-1.884
		c0.063-0.077,0.125-0.158,0.2-0.224c0.123-0.107,0.263-0.11,0.393-0.01c0.136,0.105,0.164,0.246,0.091,0.401
		c-0.024,0.051-0.064,0.095-0.101,0.138c-0.612,0.738-1.224,1.476-1.838,2.212c-0.284,0.342-0.479,0.328-0.709-0.045
		c-0.164-0.268-0.331-0.534-0.493-0.804c-0.127-0.212-0.095-0.403,0.079-0.504C7.432,17.379,7.6,17.436,7.73,17.64
		C7.842,17.813,7.948,17.99,8.074,18.193z"/>
</g>
</svg>
