<?xml version="1.0" encoding="utf-8"?>
<!-- Generator: Adobe Illustrator 16.0.0, SVG Export Plug-In . SVG Version: 6.00 Build 0)  -->
<!DOCTYPE svg PUBLIC "-//W3C//DTD SVG 1.1//EN" "http://www.w3.org/Graphics/SVG/1.1/DTD/svg11.dtd">
<svg version="1.1" id="Layer_1" xmlns="http://www.w3.org/2000/svg" xmlns:xlink="http://www.w3.org/1999/xlink" x="0px" y="0px"
	 width="27px" height="24px" viewBox="0.5 0 27 24" enable-background="new 0.5 0 27 24" xml:space="preserve">
<rect x="0.5" fill="none" width="27" height="24"/>
<g>
	<path d="M1.737,21.089c0-5.938,0-11.879,0-17.818c0.012-0.02,0.033-0.039,0.036-0.06c0.17-1.225,1.281-2.428,3.003-2.404
		c2.178,0.029,4.357,0.007,6.536,0.007c4.09,0,8.183-0.002,12.275,0.001c1.134,0.001,2.013,0.479,2.574,1.47
		c0.171,0.301,0.247,0.656,0.366,0.987c0,5.939,0,11.878,0,17.818c-0.014,0.02-0.032,0.038-0.036,0.061
		c-0.351,1.551-1.409,2.396-3.003,2.396c-2.977,0.001-5.954,0-8.932,0c-3.292,0-6.585,0.003-9.877-0.001
		c-1.133-0.001-2.012-0.479-2.575-1.469C1.932,21.775,1.856,21.42,1.737,21.089z M3.286,5.994c0,0.099,0,0.186,0,0.272
		c0,4.76,0,9.52,0,14.28c0,0.931,0.521,1.45,1.456,1.45c6.261,0.001,12.521,0.001,18.781,0c0.934,0,1.455-0.521,1.455-1.451
		c0-4.761,0-9.521,0-14.28c0-0.086,0-0.173,0-0.271C17.745,5.994,10.536,5.994,3.286,5.994z M24.966,4.423
		c0-0.328,0.033-0.645-0.007-0.952c-0.089-0.681-0.643-1.107-1.393-1.107c-6.293-0.001-12.584,0-18.875,0
		c-0.097,0-0.194,0.006-0.289,0.02C3.83,2.469,3.384,2.883,3.309,3.455C3.268,3.769,3.302,4.093,3.302,4.423
		C10.522,4.423,17.73,4.423,24.966,4.423z"/>
	<path d="M9.213,10.639c-0.946,0-1.872,0-2.828,0c0,0.238,0.001,0.469,0,0.7c-0.004,0.491-0.328,0.84-0.775,0.84
		c-0.448,0-0.771-0.351-0.773-0.842c-0.002-0.477-0.003-0.952,0-1.428c0.003-0.511,0.32-0.827,0.835-0.827
		c2.887-0.001,5.775-0.002,8.663,0c0.503,0,0.817,0.311,0.824,0.81c0.007,0.492,0.007,0.984,0,1.476
		c-0.005,0.465-0.322,0.802-0.752,0.811c-0.439,0.009-0.777-0.328-0.793-0.8c-0.008-0.24-0.001-0.48-0.001-0.734
		c-0.946,0-1.87,0-2.813,0c0,2.39,0,4.78,0,7.212c0.142,0,0.291-0.002,0.439,0.002c0.493,0.012,0.829,0.336,0.822,0.791
		c-0.006,0.445-0.339,0.754-0.829,0.756c-0.822,0.004-1.645,0.005-2.468,0c-0.48-0.002-0.823-0.322-0.828-0.76
		c-0.005-0.451,0.337-0.776,0.83-0.787c0.144-0.004,0.288-0.002,0.449-0.002C9.213,15.443,9.213,13.055,9.213,10.639z"/>
	<path d="M20.33,10.631c-0.75,0-1.5,0.001-2.251-0.001c-0.494-0.001-0.845-0.321-0.847-0.769c-0.004-0.451,0.344-0.779,0.834-0.779
		c1.509-0.002,3.018-0.002,4.525,0c0.488,0,0.84,0.331,0.835,0.78c-0.003,0.448-0.353,0.767-0.847,0.768
		C21.83,10.632,21.08,10.631,20.33,10.631z"/>
	<path d="M20.309,14.757c-0.774,0-1.55,0.005-2.324-0.002c-0.332-0.003-0.565-0.181-0.692-0.479
		c-0.128-0.303-0.08-0.608,0.168-0.818c0.153-0.13,0.384-0.234,0.581-0.238c1.523-0.019,3.05-0.014,4.574-0.008
		c0.478,0.002,0.816,0.34,0.813,0.779c-0.002,0.439-0.342,0.763-0.82,0.766C21.84,14.762,21.074,14.758,20.309,14.757L20.309,14.757
		z"/>
	<path d="M20.339,17.35c0.742,0,1.483-0.002,2.228,0c0.516,0.002,0.865,0.317,0.861,0.773c-0.002,0.456-0.353,0.773-0.869,0.773
		c-1.492,0.004-2.983,0.004-4.477,0c-0.396,0-0.682-0.188-0.801-0.51c-0.114-0.306-0.043-0.662,0.229-0.848
		c0.155-0.105,0.366-0.178,0.555-0.184C18.822,17.337,19.58,17.35,20.339,17.35z"/>
</g>
</svg>
