<?xml version="1.0" encoding="utf-8"?>
<!-- Generator: Adobe Illustrator 16.0.0, SVG Export Plug-In . SVG Version: 6.00 Build 0)  -->
<!DOCTYPE svg PUBLIC "-//W3C//DTD SVG 1.1//EN" "http://www.w3.org/Graphics/SVG/1.1/DTD/svg11.dtd">
<svg version="1.1" id="Layer_1" xmlns="http://www.w3.org/2000/svg" xmlns:xlink="http://www.w3.org/1999/xlink" x="0px" y="0px"
	 width="27px" height="24px" viewBox="0 0 27 24" enable-background="new 0 0 27 24" xml:space="preserve">
<rect fill="none" width="27" height="24"/>
<g>
	<path fill-rule="evenodd" clip-rule="evenodd" d="M16.117,18.254c0.036,0.118,0.06,0.201,0.088,0.282
		c0.438,1.262,0.878,2.522,1.316,3.784c0.164,0.47,0.02,0.679-0.472,0.679c-2.862,0.001-5.724,0.001-8.586,0
		c-0.478,0-0.627-0.211-0.473-0.659c0.435-1.263,0.87-2.525,1.305-3.789c0.033-0.096,0.06-0.194,0.098-0.317
		c-0.131,0-0.227,0-0.322,0c-1.958,0-3.918,0-5.877-0.001c-1.077-0.001-1.712-0.637-1.712-1.713c0-4.604,0-9.207,0-13.81
		C1.483,1.638,2.123,1,3.2,1C9.577,1,15.953,1,22.33,1c1.062,0,1.696,0.639,1.696,1.703c0,3.628-0.003,7.255,0.004,10.883
		c0,0.156,0.05,0.334,0.134,0.467c0.857,1.369,0.668,3.147-0.479,4.291c-0.12,0.12-0.16,0.238-0.159,0.401
		c0.006,1.169,0.003,2.338,0.003,3.507c0,0.057,0.001,0.113-0.001,0.17c-0.009,0.445-0.296,0.611-0.676,0.387
		c-0.485-0.286-0.97-0.575-1.447-0.875c-0.136-0.085-0.233-0.086-0.369,0c-0.442,0.279-0.895,0.543-1.344,0.813
		c-0.179,0.107-0.354,0.243-0.578,0.11c-0.221-0.132-0.194-0.352-0.194-0.561c-0.001-1.169-0.001-2.338-0.001-3.507
		c0-0.411-0.128-0.537-0.549-0.537c-0.652,0-1.306,0-1.959,0C16.325,18.254,16.238,18.254,16.117,18.254z M2.256,14.545
		c0.104,0,0.182,0,0.26,0c5.094,0,10.189-0.001,15.283,0.003c0.154,0,0.24-0.037,0.315-0.185c0.946-1.837,3.164-2.46,4.939-1.394
		c0.051,0.03,0.105,0.051,0.185,0.088c0-0.129,0-0.225,0-0.32c0-3.313-0.01-6.626,0.008-9.939c0.003-0.616-0.289-1.035-1.02-1.033
		C15.948,1.78,9.668,1.774,3.389,1.774c-0.073,0-0.145,0.002-0.217,0C2.556,1.754,2.257,2.048,2.257,2.676c0,3.861,0,7.722,0,11.583
		C2.256,14.347,2.256,14.433,2.256,14.545z M17.795,15.336c-5.193,0-10.347,0-15.522,0c0,0.403,0,0.789,0,1.175
		c0.001,0.673,0.297,0.969,0.975,0.969c4.861,0.001,9.722,0.001,14.582,0.001c0.084,0,0.169,0,0.289,0
		C17.787,16.771,17.652,16.079,17.795,15.336z M16.646,22.23c-0.029-0.099-0.052-0.184-0.08-0.266
		c-0.399-1.156-0.804-2.31-1.196-3.468c-0.06-0.176-0.139-0.229-0.322-0.229c-1.531,0.008-3.063,0.005-4.594,0.005
		c-0.08,0-0.159,0-0.245,0C9.75,19.599,9.297,20.909,8.84,22.23C11.459,22.23,14.043,22.23,16.646,22.23z M18.511,15.898
		c-0.004,1.479,1.202,2.703,2.673,2.714c1.517,0.01,2.742-1.203,2.743-2.717c0.002-1.487-1.214-2.698-2.709-2.699
		C19.727,13.194,18.514,14.405,18.511,15.898z M22.766,19.038c-1.026,0.468-2.03,0.456-3.034,0.003c0,0.938,0,1.845,0,2.779
		c0.088-0.047,0.159-0.079,0.226-0.119c0.338-0.201,0.679-0.401,1.013-0.61c0.186-0.116,0.356-0.117,0.542-0.003
		c0.356,0.219,0.717,0.432,1.076,0.646c0.05,0.029,0.105,0.049,0.178,0.081C22.766,20.881,22.766,19.979,22.766,19.038z"/>
	<path fill-rule="evenodd" clip-rule="evenodd" d="M5.735,8.002C3.892,6.66,4.272,4.474,5.304,3.494
		C6.466,2.389,8.295,2.419,9.41,3.577c1.066,1.107,1.183,3.208-0.517,4.425c0.64,0.29,1.176,0.702,1.595,1.259
		c0.53,0.706,0.79,1.505,0.807,2.384c0.007,0.354,0.004,0.709,0.001,1.063c-0.002,0.352-0.136,0.489-0.479,0.49
		c-2.337,0.001-4.675,0.001-7.012,0c-0.274-0.001-0.442-0.107-0.447-0.337c-0.017-0.819-0.086-1.645,0.186-2.443
		c0.361-1.058,1.041-1.837,2.041-2.338C5.634,8.056,5.683,8.029,5.735,8.002z M4.12,12.414c2.131,0,4.254,0,6.385,0
		c0.125-1.38-0.25-2.549-1.44-3.321c-1.148-0.745-2.355-0.744-3.503,0C4.369,9.866,3.994,11.033,4.12,12.414z M7.315,3.467
		C6.15,3.466,5.207,4.403,5.207,5.563c0,1.172,0.947,2.118,2.119,2.116c1.155,0,2.094-0.949,2.093-2.114
		C9.418,4.4,8.483,3.468,7.315,3.467z"/>
	<path fill-rule="evenodd" clip-rule="evenodd" d="M18.145,10.901c0.935,0,1.869-0.001,2.804,0.001
		c0.285,0.001,0.436,0.108,0.468,0.319c0.033,0.218-0.093,0.398-0.313,0.439c-0.078,0.015-0.16,0.015-0.241,0.015
		c-1.813,0-3.625,0.001-5.438,0c-0.089,0-0.179-0.001-0.265-0.018c-0.204-0.04-0.31-0.182-0.306-0.378
		c0.004-0.196,0.113-0.334,0.319-0.366c0.087-0.013,0.177-0.011,0.265-0.011C16.34,10.901,17.242,10.901,18.145,10.901z"/>
	<path fill-rule="evenodd" clip-rule="evenodd" d="M18.144,4.985c-0.911,0-1.82,0-2.731,0c-0.081,0-0.162,0.003-0.241-0.008
		c-0.194-0.03-0.299-0.159-0.316-0.344c-0.017-0.177,0.067-0.316,0.237-0.38c0.08-0.03,0.173-0.039,0.261-0.039
		c1.854-0.002,3.706-0.002,5.56,0c0.095,0,0.196,0.009,0.283,0.044c0.167,0.068,0.241,0.208,0.223,0.389
		c-0.02,0.181-0.124,0.294-0.303,0.329c-0.077,0.015-0.16,0.01-0.24,0.01C19.965,4.985,19.054,4.985,18.144,4.985z"/>
	<path fill-rule="evenodd" clip-rule="evenodd" d="M18.131,7.219c-0.902,0-1.804,0-2.707,0c-0.096,0-0.195,0.001-0.288-0.021
		c-0.189-0.045-0.285-0.186-0.283-0.372c0.003-0.175,0.094-0.309,0.272-0.356c0.077-0.021,0.159-0.023,0.239-0.023
		c1.854-0.001,3.706-0.001,5.56,0c0.087,0,0.182,0.004,0.261,0.035c0.168,0.065,0.249,0.199,0.233,0.381
		c-0.014,0.182-0.114,0.3-0.291,0.338c-0.094,0.02-0.192,0.018-0.288,0.018C19.937,7.219,19.033,7.219,18.131,7.219z"/>
	<path fill-rule="evenodd" clip-rule="evenodd" d="M18.164,8.67c0.927,0,1.854-0.001,2.779,0c0.294,0.001,0.451,0.118,0.475,0.34
		c0.022,0.211-0.101,0.382-0.311,0.418c-0.087,0.015-0.176,0.014-0.265,0.014c-1.805,0.001-3.61,0-5.414,0c-0.024,0-0.049,0-0.073,0
		c-0.326-0.005-0.508-0.145-0.507-0.389c0.002-0.244,0.184-0.384,0.512-0.385C16.295,8.669,17.229,8.67,18.164,8.67z"/>
	<path fill-rule="evenodd" clip-rule="evenodd" d="M12.998,10.903c0.202,0,0.403-0.007,0.604,0.002
		c0.236,0.011,0.393,0.162,0.399,0.37c0.007,0.206-0.147,0.384-0.378,0.391c-0.418,0.014-0.838,0.014-1.256,0
		c-0.231-0.008-0.383-0.187-0.375-0.393c0.008-0.207,0.165-0.357,0.401-0.368C12.595,10.896,12.797,10.903,12.998,10.903z"/>
	<path fill-rule="evenodd" clip-rule="evenodd" d="M12.986,4.983c-0.201,0-0.403,0.006-0.604-0.002
		c-0.222-0.009-0.373-0.154-0.388-0.354c-0.015-0.204,0.135-0.396,0.362-0.405c0.426-0.017,0.854-0.017,1.28,0
		c0.228,0.008,0.378,0.2,0.364,0.404c-0.015,0.209-0.171,0.35-0.411,0.357C13.389,4.989,13.187,4.984,12.986,4.983L12.986,4.983z"/>
	<path fill-rule="evenodd" clip-rule="evenodd" d="M12.975,7.214c-0.201,0-0.403,0.01-0.604-0.002
		c-0.232-0.015-0.384-0.182-0.378-0.39c0.006-0.199,0.155-0.363,0.374-0.37c0.418-0.012,0.838-0.012,1.256,0
		c0.228,0.007,0.384,0.186,0.378,0.391c-0.007,0.199-0.154,0.355-0.375,0.369C13.41,7.224,13.192,7.213,12.975,7.214z"/>
	<path fill-rule="evenodd" clip-rule="evenodd" d="M13.005,8.672c0.202,0,0.403-0.008,0.604,0.002
		C13.841,8.687,14,8.848,14.002,9.053c0.003,0.207-0.151,0.376-0.385,0.383c-0.41,0.012-0.822,0.012-1.232,0.001
		c-0.236-0.006-0.39-0.168-0.393-0.376c-0.002-0.214,0.161-0.377,0.409-0.388C12.602,8.664,12.804,8.671,13.005,8.672z"/>
	<path fill-rule="evenodd" clip-rule="evenodd" d="M3.999,16.056c0.207-0.006,0.384,0.167,0.389,0.38
		c0.005,0.214-0.16,0.387-0.373,0.391c-0.208,0.004-0.391-0.17-0.396-0.375C3.614,16.249,3.795,16.062,3.999,16.056z"/>
	<path fill-rule="evenodd" clip-rule="evenodd" d="M8.6,16.457c-0.005,0.212-0.179,0.375-0.393,0.367
		c-0.209-0.008-0.382-0.191-0.374-0.396c0.009-0.203,0.2-0.38,0.401-0.371C8.445,16.065,8.605,16.24,8.6,16.457z"/>
	<path fill-rule="evenodd" clip-rule="evenodd" d="M6.504,16.445c-0.002,0.223-0.183,0.4-0.402,0.396
		c-0.212-0.006-0.375-0.18-0.368-0.396c0.006-0.205,0.166-0.364,0.37-0.368C6.314,16.073,6.506,16.25,6.504,16.445z"/>
	<path fill-rule="evenodd" clip-rule="evenodd" d="M21.289,13.922c0.261,0.072,0.528,0.127,0.781,0.223
		c0.27,0.102,0.364,0.315,0.277,0.528c-0.096,0.23-0.309,0.296-0.586,0.179c-0.702-0.293-1.423,0.027-1.627,0.725
		c-0.131,0.45,0.03,0.944,0.403,1.233c0.375,0.292,0.883,0.326,1.293,0.088c0.404-0.234,0.627-0.685,0.566-1.144
		c-0.006-0.048-0.015-0.095-0.019-0.144c-0.018-0.235,0.088-0.398,0.281-0.44c0.211-0.046,0.384,0.063,0.454,0.296
		c0.213,0.707-0.004,1.308-0.5,1.811c-0.618,0.626-1.584,0.729-2.338,0.28c-0.747-0.445-1.105-1.33-0.88-2.168
		C19.625,14.545,20.396,13.962,21.289,13.922z"/>
</g>
</svg>
