<?xml version="1.0" encoding="utf-8"?>
<!-- Generator: Adobe Illustrator 16.0.0, SVG Export Plug-In . SVG Version: 6.00 Build 0)  -->
<!DOCTYPE svg PUBLIC "-//W3C//DTD SVG 1.1//EN" "http://www.w3.org/Graphics/SVG/1.1/DTD/svg11.dtd">
<svg version="1.1" id="Layer_1" xmlns="http://www.w3.org/2000/svg" xmlns:xlink="http://www.w3.org/1999/xlink" x="0px" y="0px"
	 width="27px" height="24px" viewBox="0 0 27 24" enable-background="new 0 0 27 24" xml:space="preserve">
<rect fill="none" width="27" height="24"/>
<g>
	<path fill-rule="evenodd" clip-rule="evenodd" d="M2.644,13.617c0.082-0.175,0.14-0.363,0.248-0.517
		c0.26-0.369,0.642-0.508,1.082-0.508c0.844,0.002,1.689-0.001,2.534,0.002c0.369,0.001,0.706,0.094,0.975,0.368
		c0.032,0.032,0.113,0.06,0.145,0.041c0.644-0.354,1.352-0.629,1.797-1.251c0.239-0.333,0.444-0.702,0.595-1.083
		c0.316-0.789,0.587-1.596,0.875-2.396c0.16-0.445,0.314-0.524,0.762-0.388c0.185,0.057,0.371,0.11,0.552,0.173
		c0.646,0.229,1.118,0.654,1.407,1.275c0.057,0.123,0.123,0.162,0.257,0.161c1.002-0.007,2.004,0.001,3.006-0.007
		c0.24-0.002,0.424,0.076,0.591,0.247c0.416,0.431,0.845,0.853,1.306,1.314c0.124-0.136,0.235-0.265,0.354-0.385
		c0.307-0.311,0.621-0.613,0.924-0.929c0.164-0.172,0.347-0.25,0.589-0.248c0.858,0.009,1.717,0.004,2.576,0.003
		c0.411,0,0.564-0.15,0.564-0.554c0-2.298,0-4.597,0-6.895C23.783,1.654,23.626,1.5,23.231,1.5c-5.62,0-11.241,0-16.861,0
		c-0.39,0-0.545,0.157-0.547,0.549c0,2.298,0,4.597,0,6.894C5.825,9.335,5.98,9.49,6.372,9.492C6.58,9.494,6.787,9.486,6.994,9.494
		c0.268,0.009,0.453,0.183,0.458,0.417c0.007,0.241-0.185,0.429-0.46,0.438c-0.25,0.007-0.501,0.009-0.751,0
		c-0.723-0.027-1.248-0.553-1.275-1.276C4.958,8.872,4.964,8.671,4.964,8.471c0-2.069,0-4.139,0-6.208
		c0-0.971,0.192-1.262,1.074-1.623c5.844,0,11.688,0,17.531,0c0.111,0.043,0.227,0.081,0.337,0.13
		c0.408,0.186,0.611,0.535,0.737,0.943c0,2.521,0,5.042,0,7.563c-0.361,0.881-0.652,1.074-1.623,1.074
		c-0.724,0-1.445,0.004-2.168-0.003c-0.142-0.001-0.239,0.043-0.337,0.142c-0.445,0.455-0.897,0.904-1.349,1.354
		c-0.299,0.297-0.509,0.299-0.805,0.005c-0.456-0.455-0.906-0.916-1.37-1.362c-0.077-0.075-0.207-0.128-0.313-0.13
		c-0.822-0.01-1.645-0.006-2.469-0.006c-0.112,0-0.225,0-0.337,0c0.019,0.013,0.037,0.027,0.057,0.04
		c-0.216,0.729-0.433,1.458-0.654,2.202c0.078,0,0.155,0,0.234,0c1.022,0,2.046-0.002,3.07,0.002
		c0.829,0.003,1.426,0.438,1.633,1.189c0.111,0.401,0.053,0.791-0.143,1.169c0.687,0.271,1.096,0.75,1.113,1.488
		c0.017,0.739-0.387,1.227-1.037,1.529c0.242,0.452,0.281,0.9,0.105,1.363c-0.178,0.471-0.535,0.761-0.985,0.948
		c0.283,0.561,0.269,1.095-0.043,1.615c-0.257,0.426-0.662,0.635-1.13,0.743c-2.148,0-4.297,0-6.445,0
		c-0.665-0.09-1.309-0.261-1.929-0.517c-0.037-0.016-0.115,0.01-0.14,0.041c-0.207,0.271-0.494,0.396-0.81,0.476
		c-1.031,0-2.063,0-3.094,0c-0.113-0.043-0.229-0.078-0.338-0.129C2.95,22.331,2.758,22,2.644,21.609
		C2.644,18.945,2.644,16.281,2.644,13.617z M11.625,8.788c-0.276,0.758-0.546,1.502-0.815,2.249
		c-0.306,0.847-0.817,1.542-1.567,2.042c-0.399,0.263-0.834,0.47-1.246,0.717c-0.07,0.041-0.147,0.144-0.147,0.218
		c-0.008,2.363-0.008,4.727-0.001,7.088c0,0.065,0.06,0.161,0.117,0.187c0.733,0.323,1.498,0.504,2.309,0.497
		c1.811-0.012,3.623-0.003,5.434-0.003c0.072,0,0.144,0.002,0.215-0.003c0.391-0.025,0.687-0.336,0.685-0.718
		c-0.001-0.376-0.283-0.675-0.668-0.707c-0.086-0.008-0.172-0.007-0.257-0.007c-0.416-0.001-0.832,0.005-1.247-0.003
		c-0.295-0.005-0.465-0.144-0.491-0.377c-0.032-0.285,0.156-0.476,0.494-0.479c0.724-0.005,1.447-0.001,2.17-0.003
		c0.101,0,0.202-0.002,0.3-0.019c0.288-0.05,0.477-0.223,0.56-0.5c0.144-0.475-0.201-0.914-0.729-0.918
		c-0.773-0.007-1.547,0.001-2.32-0.003c-0.291-0.002-0.472-0.165-0.478-0.414c-0.006-0.258,0.174-0.428,0.474-0.443
		c0.057-0.004,0.114-0.001,0.171-0.001c0.989,0,1.977-0.001,2.966,0.002c0.233,0,0.438-0.063,0.595-0.242
		c0.195-0.226,0.243-0.486,0.123-0.76c-0.124-0.281-0.352-0.428-0.661-0.429c-1.024-0.003-2.049,0-3.072-0.003
		c-0.1,0-0.201-0.009-0.297-0.033c-0.189-0.049-0.306-0.221-0.297-0.419c0.008-0.194,0.142-0.357,0.334-0.393
		c0.084-0.015,0.172-0.012,0.256-0.014c0.674-0.001,1.348,0.002,2.021-0.001c0.1-0.001,0.202-0.006,0.299-0.028
		c0.377-0.08,0.614-0.443,0.543-0.822c-0.07-0.374-0.36-0.591-0.804-0.592c-1.274-0.003-2.549,0-3.824-0.002
		c-0.465,0-0.634-0.237-0.484-0.681c0.202-0.604,0.412-1.205,0.608-1.81C13.219,9.945,12.678,9.004,11.625,8.788z M4.813,13.454
		c-0.31,0-0.583-0.005-0.853,0.001c-0.32,0.005-0.457,0.142-0.457,0.462c-0.001,2.471-0.002,4.941,0,7.412
		c0,0.312,0.137,0.45,0.445,0.451c0.866,0.002,1.732,0.003,2.6,0c0.294-0.001,0.434-0.142,0.434-0.438
		c0.002-2.485,0.001-4.97,0-7.455c0-0.282-0.137-0.422-0.42-0.432c-0.214-0.007-0.431,0.013-0.644-0.006
		c-0.203-0.017-0.249,0.059-0.249,0.251c0.007,1.612,0.005,3.224,0.003,4.835c0,0.1-0.002,0.2-0.021,0.299
		c-0.037,0.202-0.207,0.337-0.411,0.334c-0.204,0-0.371-0.135-0.406-0.34c-0.018-0.098-0.02-0.2-0.021-0.3
		c-0.001-1.59,0-3.18,0-4.77C4.813,13.668,4.813,13.575,4.813,13.454z"/>
	<path fill-rule="evenodd" clip-rule="evenodd" d="M20.404,3.167c0.255,0.003,0.458,0.109,0.585,0.333
		c0.109,0.193,0.192,0.399,0.308,0.588c0.044,0.072,0.138,0.138,0.22,0.157c0.187,0.046,0.381,0.06,0.572,0.091
		c0.275,0.044,0.478,0.187,0.575,0.454c0.101,0.279,0.023,0.522-0.175,0.729c-0.123,0.129-0.246,0.263-0.384,0.375
		C21.973,6,21.956,6.119,21.985,6.271c0.041,0.196,0.08,0.394,0.095,0.593c0.037,0.521-0.45,0.879-0.933,0.683
		c-0.212-0.085-0.405-0.214-0.615-0.304c-0.07-0.031-0.177-0.031-0.249-0.001c-0.189,0.081-0.368,0.188-0.553,0.282
		C19.476,7.652,19.226,7.631,19,7.465c-0.225-0.167-0.31-0.403-0.263-0.683c0.021-0.134,0.023-0.275,0.068-0.401
		c0.095-0.259-0.009-0.43-0.201-0.589c-0.127-0.104-0.244-0.224-0.346-0.352c-0.306-0.382-0.133-0.935,0.338-1.066
		c0.233-0.064,0.48-0.077,0.717-0.129c0.071-0.016,0.153-0.072,0.189-0.134c0.107-0.185,0.191-0.384,0.293-0.572
		C19.925,3.3,20.126,3.17,20.404,3.167z M21.167,6.584c-0.222-0.613-0.037-1.067,0.465-1.444c-0.655,0.018-1.038-0.291-1.227-0.897
		c-0.186,0.622-0.587,0.911-1.233,0.905c0.538,0.367,0.67,0.839,0.479,1.442C20.164,6.208,20.653,6.21,21.167,6.584z"/>
	<path fill-rule="evenodd" clip-rule="evenodd" d="M7.799,6.825c0.026-0.162,0.075-0.393,0.097-0.627
		c0.007-0.083-0.028-0.191-0.082-0.255C7.689,5.796,7.539,5.672,7.402,5.535c-0.208-0.21-0.287-0.462-0.186-0.746
		c0.099-0.275,0.312-0.447,0.598-0.448C8.34,4.34,8.671,4.129,8.832,3.614c0.09-0.286,0.326-0.447,0.642-0.446
		c0.317,0,0.553,0.163,0.642,0.448c0.158,0.506,0.481,0.718,0.999,0.722c0.305,0.002,0.53,0.18,0.624,0.474
		c0.091,0.284,0.025,0.564-0.214,0.735c-0.443,0.315-0.558,0.694-0.389,1.208c0.089,0.275-0.017,0.541-0.265,0.718
		c-0.237,0.172-0.492,0.169-0.75,0.04c-0.216-0.11-0.432-0.305-0.647-0.305C9.256,7.207,9.043,7.407,8.825,7.512
		C8.314,7.758,7.792,7.444,7.799,6.825z M9.509,4.271C9.326,4.525,9.211,4.79,9.011,4.935C8.814,5.076,8.529,5.096,8.229,5.186
		c0.57,0.33,0.665,0.813,0.492,1.407c0.513-0.398,1.001-0.369,1.513-0.006c-0.204-0.605-0.049-1.069,0.467-1.444
		C10.057,5.158,9.665,4.864,9.509,4.271z"/>
	<path fill-rule="evenodd" clip-rule="evenodd" d="M14.937,3.167c0.287,0,0.489,0.142,0.622,0.385
		c0.091,0.169,0.18,0.342,0.256,0.519c0.052,0.118,0.119,0.177,0.254,0.186c0.185,0.013,0.368,0.05,0.552,0.079
		c0.275,0.043,0.48,0.186,0.577,0.451c0.1,0.276,0.027,0.522-0.171,0.73c-0.143,0.15-0.302,0.285-0.439,0.439
		c-0.047,0.054-0.078,0.148-0.071,0.22c0.021,0.234,0.085,0.465,0.095,0.7c0.027,0.538-0.465,0.873-0.961,0.659
		c-0.203-0.088-0.391-0.209-0.593-0.298c-0.065-0.029-0.165-0.03-0.229-0.001c-0.191,0.083-0.369,0.189-0.554,0.284
		c-0.26,0.132-0.517,0.115-0.747-0.06c-0.232-0.176-0.335-0.433-0.249-0.705c0.159-0.499,0.075-0.883-0.373-1.194
		c-0.249-0.172-0.325-0.455-0.231-0.749c0.098-0.305,0.332-0.452,0.645-0.483c0.035-0.002,0.071-0.02,0.105-0.018
		c0.458,0.034,0.689-0.213,0.83-0.619C14.363,3.384,14.576,3.168,14.937,3.167z M16.167,5.143c-0.647,0.018-1.035-0.288-1.196-0.871
		c-0.172,0.244-0.282,0.511-0.482,0.655c-0.2,0.146-0.49,0.169-0.784,0.26c0.554,0.33,0.655,0.811,0.49,1.404
		c0.517-0.407,1.006-0.357,1.512-0.002C15.488,5.981,15.652,5.52,16.167,5.143z"/>
	<path fill-rule="evenodd" clip-rule="evenodd" d="M9.272,9.912c0.005,0.232-0.18,0.429-0.41,0.436
		c-0.227,0.007-0.425-0.185-0.43-0.417c-0.005-0.231,0.18-0.43,0.41-0.436C9.069,9.488,9.267,9.68,9.272,9.912z"/>
	<path fill-rule="evenodd" clip-rule="evenodd" d="M5.265,20.718c-0.237,0.011-0.429-0.16-0.441-0.396
		c-0.013-0.244,0.169-0.447,0.409-0.455c0.229-0.007,0.423,0.179,0.432,0.413C5.672,20.517,5.499,20.708,5.265,20.718z"/>
</g>
</svg>
