<?xml version="1.0" encoding="utf-8"?>
<!-- Generator: Adobe Illustrator 16.0.0, SVG Export Plug-In . SVG Version: 6.00 Build 0)  -->
<!DOCTYPE svg PUBLIC "-//W3C//DTD SVG 1.1//EN" "http://www.w3.org/Graphics/SVG/1.1/DTD/svg11.dtd">
<svg version="1.1" id="Layer_1" xmlns="http://www.w3.org/2000/svg" xmlns:xlink="http://www.w3.org/1999/xlink" x="0px" y="0px"
	 width="27px" height="24px" viewBox="0 0 27 24" enable-background="new 0 0 27 24" xml:space="preserve">
<rect fill="none" width="27" height="24"/>
<g>
	<path fill-rule="evenodd" clip-rule="evenodd" d="M26.228,7.831c0,0.52,0,1.039,0,1.558c-0.26,0.736-0.885,0.703-1.507,0.671
		c0,0.138,0,0.238,0,0.338c0,3.761,0,7.521,0,11.283c0,0.904-0.471,1.371-1.384,1.371c-6.649,0-13.299,0-19.951,0
		c-0.913,0-1.382-0.467-1.382-1.371c0-3.77,0-7.539,0-11.308c0-0.096,0-0.192,0-0.316c-0.643,0.042-1.25,0.057-1.508-0.667
		c0-1.491,0-2.982,0-4.473c0.272-0.721,0.896-0.684,1.508-0.658c0-0.694-0.003-1.347,0.001-2C2.01,1.726,2.339,1.265,2.833,1.122
		c0.18-0.053,0.379-0.066,0.57-0.066c6.64-0.003,13.28-0.002,19.92-0.002c0.083,0,0.168-0.003,0.251,0.004
		c0.513,0.047,0.885,0.3,1.066,0.786c0.059,0.159,0.075,0.343,0.077,0.516c0.009,0.625,0.004,1.251,0.004,1.908
		c0.633-0.047,1.234-0.057,1.507,0.649c0,0.469,0,0.938,0,1.407c-0.111,0.189-0.265,0.315-0.494,0.24
		c-0.23-0.075-0.268-0.271-0.262-0.488c0.008-0.259-0.01-0.52,0.006-0.778c0.014-0.22-0.063-0.288-0.284-0.288
		c-7.889,0.005-15.776,0.005-23.664,0c-0.226,0-0.285,0.076-0.283,0.291C1.255,6.505,1.25,7.711,1.25,8.917
		c0,0.394,0,0.394,0.402,0.394c7.805,0,15.608,0,23.413,0c0.058,0,0.117-0.003,0.176,0c0.17,0.011,0.241-0.061,0.235-0.236
		c-0.009-0.318,0.001-0.636-0.004-0.955c-0.003-0.212,0.016-0.406,0.247-0.498C25.955,7.53,26.095,7.675,26.228,7.831z M2.758,10.08
		c0,0.099,0,0.182,0,0.265c0,3.776,0,7.555,0,11.332c0,0.485,0.138,0.621,0.631,0.621c6.65,0,13.3,0,19.95,0
		c0.49,0,0.627-0.136,0.627-0.627c0-3.769,0-7.537,0-11.306c0-0.091,0-0.181,0-0.285C16.889,10.08,9.832,10.08,2.758,10.08z
		 M2.759,4.24c7.086,0,14.14,0,21.208,0c0-0.604,0-1.189,0-1.775c0-0.539-0.123-0.659-0.671-0.659c-6.623,0-13.247,0-19.871,0
		c-0.093,0-0.186-0.006-0.275,0.01C2.916,1.859,2.766,2.001,2.763,2.242C2.753,2.903,2.759,3.563,2.759,4.24z"/>
	<path fill-rule="evenodd" clip-rule="evenodd" d="M14.473,7.835c0-0.11,0-0.184,0-0.258c0-0.351,0-0.703,0-1.074
		c-2.195,0-4.375,0-6.577,0c0,0.434,0,0.87,0,1.332c0.447,0,0.89-0.001,1.331,0c0.083,0,0.17-0.009,0.25,0.01
		c0.194,0.043,0.314,0.171,0.31,0.372c-0.004,0.21-0.128,0.36-0.34,0.364c-0.595,0.012-1.19,0.016-1.784-0.004
		c-0.296-0.01-0.526-0.266-0.533-0.569C7.116,7.447,7.117,6.886,7.127,6.325c0.006-0.299,0.208-0.518,0.501-0.576
		C7.718,5.731,7.811,5.73,7.903,5.73c2.178-0.001,4.355-0.001,6.533,0c0.565,0,0.79,0.224,0.79,0.788
		c0.001,0.461,0.003,0.921,0,1.382c-0.004,0.438-0.248,0.686-0.686,0.688c-1.097,0.004-2.194,0.002-3.291,0
		c-0.28,0-0.443-0.139-0.45-0.364c-0.007-0.236,0.163-0.388,0.452-0.388c0.972-0.002,1.943,0,2.914,0
		C14.257,7.835,14.348,7.835,14.473,7.835z"/>
	<path fill-rule="evenodd" clip-rule="evenodd" d="M21.012,6.853c-0.002,0.034,0.007,0.072-0.007,0.1
		c-0.162,0.349,0.056,0.55,0.285,0.75c0.082,0.072,0.159,0.15,0.231,0.231c0.159,0.183,0.163,0.386,0.012,0.539
		c-0.146,0.151-0.36,0.15-0.539-0.004c-0.057-0.049-0.11-0.103-0.159-0.159c-0.238-0.274-0.461-0.458-0.9-0.37
		c-0.574,0.115-1.12-0.44-1.145-1.037c-0.025-0.639,0.482-1.174,1.111-1.174C20.516,5.731,21.014,6.235,21.012,6.853z M19.9,7.206
		c0.191,0,0.349-0.151,0.355-0.345c0.007-0.202-0.155-0.374-0.354-0.374c-0.197,0-0.364,0.173-0.358,0.372
		C19.551,7.05,19.71,7.206,19.9,7.206z"/>
	<path fill-rule="evenodd" clip-rule="evenodd" d="M4.437,6.914c-0.351,0-0.701,0.003-1.052,0C3.096,6.91,2.919,6.761,2.918,6.534
		c0-0.227,0.175-0.372,0.466-0.373c0.701-0.002,1.402-0.003,2.104,0.001c0.291,0.001,0.44,0.126,0.447,0.359
		C5.941,6.76,5.78,6.908,5.489,6.913C5.139,6.918,4.788,6.914,4.437,6.914z"/>
	<path fill-rule="evenodd" clip-rule="evenodd" d="M4.432,7.417c0.36,0,0.718-0.003,1.077,0.001C5.78,7.422,5.925,7.547,5.935,7.773
		C5.944,8.006,5.79,8.166,5.518,8.167c-0.726,0.006-1.453,0.006-2.179,0c-0.251-0.001-0.417-0.162-0.42-0.373
		C2.915,7.575,3.087,7.421,3.354,7.418C3.714,7.413,4.073,7.417,4.432,7.417z"/>
	<path fill-rule="evenodd" clip-rule="evenodd" d="M23.436,6.163c0.201,0.003,0.367,0.167,0.371,0.364
		c0.003,0.204-0.18,0.386-0.384,0.382c-0.21-0.004-0.374-0.181-0.364-0.395C23.067,6.311,23.229,6.16,23.436,6.163z"/>
	<path fill-rule="evenodd" clip-rule="evenodd" d="M23.438,8.167c-0.198,0.005-0.368-0.154-0.38-0.354
		c-0.012-0.217,0.146-0.387,0.362-0.392c0.202-0.004,0.372,0.149,0.385,0.348C23.819,7.969,23.644,8.16,23.438,8.167z"/>
	<path fill-rule="evenodd" clip-rule="evenodd" d="M4.981,12.369c0,1.071,0,2.125,0,3.205c0.107,0,0.206,0,0.303,0
		c3.518,0,7.036,0,10.554,0c0.084,0,0.169-0.005,0.251,0.005c0.215,0.027,0.356,0.187,0.343,0.392
		c-0.015,0.216-0.141,0.332-0.353,0.354c-0.075,0.009-0.15,0.004-0.226,0.004c-3.603,0-7.204,0-10.805,0
		c-0.625,0-0.833-0.206-0.833-0.821c0-1.056-0.001-2.11,0-3.166c0.001-0.505,0.235-0.744,0.732-0.744
		c5.612-0.001,11.224-0.001,16.836,0c0.486,0,0.724,0.237,0.724,0.725c0.002,1.098,0.002,2.194,0,3.292
		c-0.001,0.467-0.245,0.713-0.713,0.713c-1.289,0.003-2.58,0.002-3.869,0.001c-0.31,0-0.489-0.147-0.481-0.386
		c0.008-0.228,0.184-0.367,0.479-0.367c1.265-0.001,2.529-0.001,3.813-0.001c0-1.068,0-2.127,0-3.205
		C16.162,12.369,10.581,12.369,4.981,12.369z"/>
	<path fill-rule="evenodd" clip-rule="evenodd" d="M18.21,20.764c-1.172,0-2.344,0.001-3.515,0
		c-0.549-0.002-0.772-0.229-0.773-0.781c-0.001-0.645-0.001-1.289,0-1.933c0.002-0.512,0.242-0.76,0.752-0.76
		c2.358-0.003,4.718-0.003,7.078,0c0.515,0,0.756,0.241,0.757,0.75c0.001,0.67,0.003,1.339-0.001,2.008
		c-0.001,0.471-0.237,0.713-0.709,0.714C20.603,20.767,19.405,20.764,18.21,20.764z M21.742,18.058c-2.359,0-4.698,0-7.049,0
		c0,0.653,0,1.293,0,1.938c2.357,0,4.697,0,7.049,0C21.742,19.348,21.742,18.714,21.742,18.058z"/>
	<path fill-rule="evenodd" clip-rule="evenodd" d="M4.983,18.059c0,0.658,0,1.292,0,1.952c0.422,0,0.83-0.003,1.238,0.001
		c0.1,0,0.204,0.001,0.297,0.029c0.183,0.057,0.298,0.206,0.246,0.381c-0.039,0.128-0.184,0.312-0.289,0.316
		c-0.593,0.028-1.189,0.027-1.782-0.001c-0.263-0.013-0.468-0.285-0.472-0.572c-0.009-0.754-0.01-1.508,0-2.262
		c0.003-0.321,0.219-0.546,0.539-0.599c0.099-0.018,0.2-0.016,0.301-0.016c2.294,0,4.589,0,6.885,0c0.646,0,0.857,0.211,0.857,0.857
		c0,0.628,0.002,1.257-0.001,1.885c-0.002,0.487-0.238,0.729-0.722,0.73c-1.272,0.004-2.546,0.003-3.819,0.002
		c-0.301-0.002-0.47-0.135-0.474-0.366c-0.004-0.238,0.172-0.386,0.483-0.386c1.148-0.004,2.296-0.001,3.443-0.002
		c0.099,0,0.2,0,0.317,0c0-0.658,0-1.297,0-1.951C9.681,18.059,7.341,18.059,4.983,18.059z"/>
	<path fill-rule="evenodd" clip-rule="evenodd" d="M7.548,3.408c-0.201,0-0.365-0.16-0.371-0.362
		C7.171,2.833,7.339,2.657,7.548,2.658c0.197,0,0.369,0.167,0.377,0.363C7.932,3.226,7.756,3.408,7.548,3.408z"/>
	<path fill-rule="evenodd" clip-rule="evenodd" d="M6.21,3.021c0.007,0.196-0.154,0.372-0.352,0.385
		C5.648,3.421,5.47,3.258,5.464,3.045C5.458,2.84,5.609,2.672,5.81,2.658C6.015,2.645,6.202,2.815,6.21,3.021z"/>
	<path fill-rule="evenodd" clip-rule="evenodd" d="M4.122,2.658C4.33,2.661,4.5,2.84,4.491,3.049
		C4.483,3.25,4.316,3.409,4.116,3.408C3.904,3.406,3.742,3.233,3.75,3.018C3.756,2.816,3.922,2.656,4.122,2.658z"/>
</g>
</svg>
