<?xml version="1.0" encoding="utf-8"?>
<!-- Generator: Adobe Illustrator 16.0.0, SVG Export Plug-In . SVG Version: 6.00 Build 0)  -->
<!DOCTYPE svg PUBLIC "-//W3C//DTD SVG 1.1//EN" "http://www.w3.org/Graphics/SVG/1.1/DTD/svg11.dtd">
<svg version="1.1" id="Layer_1" xmlns="http://www.w3.org/2000/svg" xmlns:xlink="http://www.w3.org/1999/xlink" x="0px" y="0px"
	 width="27px" height="24px" viewBox="0 0 27 24" enable-background="new 0 0 27 24" xml:space="preserve">
<rect fill="none" width="27" height="24"/>
<g>
	<path fill-rule="evenodd" clip-rule="evenodd" d="M22.778,8.44c-6.012,0-11.999,0-18.019,0c0,0.083,0,0.158,0,0.233
		c0,3.335,0,6.67,0,10.005c0,0.441,0.135,0.577,0.573,0.577c0.849,0.001,1.7-0.002,2.549,0.002C8.24,19.26,8.521,19.41,8.68,19.737
		c0.15,0.308,0.125,0.61-0.079,0.889c-0.161,0.219-0.384,0.342-0.659,0.342c-0.964,0.002-1.929,0.015-2.892-0.007
		c-1.042-0.024-1.949-0.947-1.998-1.99c-0.004-0.092-0.006-0.186-0.006-0.277c0-5.049,0.002-10.098-0.003-15.147
		c0-0.865,0.339-1.532,1.081-1.982C4.467,1.354,4.849,1.275,5.25,1.275c5.678,0.001,11.355-0.002,17.031,0.003
		c1.299,0.001,2.208,0.921,2.21,2.22c0.003,5.085,0.004,10.169-0.001,15.253c-0.001,1.306-0.924,2.213-2.233,2.219
		c-0.2,0-0.399,0.003-0.6-0.001c-0.497-0.01-0.862-0.365-0.866-0.845c-0.003-0.479,0.354-0.849,0.848-0.867
		c0.198-0.008,0.399-0.001,0.601-0.002c0.394-0.002,0.538-0.146,0.538-0.547c0.001-2.319,0.001-4.641,0.001-6.962
		c0-1.021,0-2.042,0-3.063C22.778,8.607,22.778,8.53,22.778,8.44z M22.766,6.7c0.005-0.074,0.012-0.137,0.012-0.199
		c0.001-0.993,0.002-1.986,0-2.978c0-0.383-0.148-0.533-0.533-0.533c-5.646-0.001-11.295-0.001-16.942,0
		c-0.397,0-0.541,0.147-0.542,0.545c-0.001,0.985,0,1.971,0,2.956c0,0.069,0,0.137,0,0.208C10.779,6.7,16.767,6.7,22.766,6.7z"/>
	<path fill-rule="evenodd" clip-rule="evenodd" d="M14.576,19.194c-0.294,0.51-0.45,1.031-0.508,1.583
		c-0.026,0.254-0.093,0.485-0.277,0.678c-0.52,0.537-1.225,0.414-1.516-0.278c-0.66-1.571-1.316-3.142-1.975-4.714
		c-0.379-0.908-0.755-1.816-1.141-2.722c-0.161-0.379-0.149-0.729,0.148-1.027c0.297-0.301,0.648-0.313,1.026-0.153
		c2.478,1.039,4.958,2.074,7.438,3.113c0.437,0.184,0.664,0.536,0.607,0.924c-0.062,0.441-0.441,0.809-0.891,0.854
		c-0.507,0.054-0.996,0.175-1.459,0.398c-0.075,0.036-0.147,0.079-0.27,0.146c0.137,0.117,0.256,0.21,0.361,0.315
		c0.703,0.699,1.406,1.401,2.104,2.107c0.283,0.285,0.336,0.671,0.162,1.005c-0.173,0.334-0.539,0.527-0.914,0.435
		c-0.185-0.046-0.371-0.159-0.508-0.291c-0.747-0.728-1.478-1.471-2.215-2.207C14.699,19.31,14.646,19.264,14.576,19.194z
		 M15.063,16.398c-1.18-0.494-2.342-0.98-3.554-1.487c0.511,1.219,0.999,2.381,1.493,3.563
		C13.687,17.463,13.687,17.463,15.063,16.398z"/>
	<path fill-rule="evenodd" clip-rule="evenodd" d="M9.677,5.623c-0.878,0-1.755,0.001-2.633,0c-0.498-0.001-0.847-0.318-0.85-0.767
		C6.19,4.408,6.542,4.082,7.036,4.081c1.755-0.001,3.511-0.001,5.266,0c0.498,0,0.846,0.318,0.849,0.767
		c0.003,0.449-0.347,0.774-0.841,0.775C11.432,5.625,10.555,5.623,9.677,5.623z"/>
	<path fill-rule="evenodd" clip-rule="evenodd" d="M19.716,4.846c0.003-0.454,0.364-0.811,0.816-0.808
		c0.447,0.003,0.815,0.375,0.813,0.82c-0.005,0.447-0.375,0.811-0.823,0.809C20.069,5.664,19.713,5.301,19.716,4.846z"/>
	<path fill-rule="evenodd" clip-rule="evenodd" d="M16.603,4.847c0.002,0.453-0.357,0.817-0.806,0.819
		c-0.447,0.001-0.818-0.363-0.822-0.81c-0.003-0.445,0.364-0.816,0.812-0.819C16.238,4.035,16.601,4.394,16.603,4.847z"/>
	<circle fill-rule="evenodd" clip-rule="evenodd" cx="18.159" cy="4.852" r="0.814"/>
</g>
</svg>
