<?xml version="1.0" encoding="utf-8"?>
<!-- Generator: Adobe Illustrator 16.0.0, SVG Export Plug-In . SVG Version: 6.00 Build 0)  -->
<!DOCTYPE svg PUBLIC "-//W3C//DTD SVG 1.1//EN" "http://www.w3.org/Graphics/SVG/1.1/DTD/svg11.dtd">
<svg version="1.1" id="Layer_1" xmlns="http://www.w3.org/2000/svg" xmlns:xlink="http://www.w3.org/1999/xlink" x="0px" y="0px"
	 width="27px" height="24px" viewBox="0 0 27 24" enable-background="new 0 0 27 24" xml:space="preserve">
<rect fill="none" width="27" height="24"/>
<g>
	<path fill-rule="evenodd" clip-rule="evenodd" d="M12.486,4.661c2.043,0,4.086,0.002,6.129-0.007c0.105,0,0.232-0.078,0.313-0.157
		c0.997-0.988,1.986-1.984,2.979-2.978c0.689-0.69,1.505-0.693,2.195-0.008c0.131,0.129,0.261,0.26,0.39,0.391
		c0.617,0.63,0.622,1.468,0.003,2.092c-0.963,0.968-1.928,1.934-2.898,2.894c-0.133,0.131-0.164,0.241-0.125,0.426
		c0.064,0.301,0.104,0.612,0.105,0.919c0.006,4.725,0.004,9.451,0.006,14.175c0,0.232-0.008,0.454-0.264,0.559
		c-0.258,0.104-0.416-0.057-0.578-0.22c-0.806-0.811-1.617-1.614-2.418-2.429c-0.154-0.157-0.309-0.224-0.531-0.224
		c-3.669,0.007-7.339,0.007-11.009,0.003c-1.572-0.001-2.883-0.898-3.367-2.331c-0.125-0.369-0.189-0.775-0.191-1.165
		c-0.016-2.817-0.013-5.636-0.007-8.453c0.004-1.983,1.503-3.493,3.488-3.505c1.927-0.012,3.854-0.002,5.78-0.002
		C12.486,4.647,12.486,4.654,12.486,4.661z M20.74,21.607c0-4.635,0-9.197,0-13.815c-0.11,0.102-0.182,0.164-0.248,0.23
		c-0.774,0.773-1.542,1.554-2.327,2.315c-0.167,0.161-0.386,0.295-0.605,0.369c-0.797,0.268-1.603,0.51-2.408,0.751
		c-0.164,0.049-0.342,0.074-0.513,0.075c-2.537,0.004-5.075,0.003-7.612,0.002c-0.077,0-0.155,0.002-0.232-0.008
		c-0.238-0.03-0.368-0.176-0.369-0.408c0-0.235,0.141-0.375,0.372-0.41c0.095-0.015,0.193-0.006,0.29-0.006
		c2.402,0,4.804-0.002,7.206,0.004c0.196,0,0.283-0.049,0.341-0.247C14.845,9.728,15.075,9,15.313,8.273
		c0.046-0.141,0.129-0.283,0.232-0.389c0.726-0.74,1.462-1.469,2.193-2.203c0.057-0.057,0.106-0.122,0.184-0.209
		c-0.107-0.008-0.173-0.017-0.238-0.017C14.032,5.454,10.381,5.446,6.73,5.458C5.143,5.464,4.034,6.596,4.031,8.183
		c-0.006,2.789-0.004,5.579,0.002,8.368c0.001,0.268,0.029,0.544,0.1,0.802c0.33,1.199,1.365,1.932,2.713,1.933
		c3.428,0.002,6.857,0.035,10.285-0.022c0.931-0.016,1.626,0.195,2.21,0.927C19.743,20.691,20.245,21.112,20.74,21.607z
		 M16.152,8.45c0.179,0.121,0.333,0.276,0.519,0.338c0.262,0.086,0.388,0.23,0.47,0.489c0.061,0.191,0.227,0.35,0.313,0.476
		c1.877-1.855,3.704-3.663,5.489-5.427c-0.445-0.453-0.89-0.904-1.323-1.345C19.829,4.772,18.024,6.578,16.152,8.45z M23.618,3.719
		c0.12-0.125,0.254-0.251,0.373-0.39c0.205-0.24,0.215-0.533,0.01-0.765c-0.192-0.217-0.398-0.424-0.617-0.613
		c-0.226-0.195-0.513-0.186-0.744,0.005c-0.146,0.12-0.28,0.255-0.409,0.374C22.711,2.811,23.155,3.255,23.618,3.719z M15.844,9.352
		c-0.111,0.361-0.225,0.729-0.354,1.144c0.425-0.135,0.788-0.25,1.138-0.362C16.494,9.727,16.246,9.469,15.844,9.352z"/>
	<path fill-rule="evenodd" clip-rule="evenodd" d="M12.748,16.349c1.888,0,3.777-0.001,5.666,0.001c0.114,0,0.235,0.003,0.342,0.038
		c0.196,0.065,0.328,0.227,0.266,0.422c-0.044,0.141-0.19,0.263-0.317,0.357c-0.065,0.049-0.188,0.025-0.284,0.025
		c-3.796,0.001-7.592,0.001-11.389,0c-0.096,0-0.195-0.002-0.288-0.023c-0.206-0.047-0.315-0.189-0.318-0.396
		c-0.003-0.209,0.113-0.35,0.312-0.402c0.101-0.026,0.211-0.021,0.317-0.021C8.951,16.349,10.849,16.349,12.748,16.349z"/>
	<path fill-rule="evenodd" clip-rule="evenodd" d="M12.737,14.358c-1.887,0-3.775,0-5.662-0.001c-0.097,0-0.197,0.01-0.29-0.012
		c-0.22-0.051-0.369-0.184-0.36-0.424c0.009-0.235,0.152-0.369,0.383-0.399c0.096-0.013,0.193-0.009,0.29-0.009
		c3.746-0.001,7.492-0.001,11.238-0.001c0.477,0,0.693,0.139,0.683,0.435c-0.01,0.286-0.214,0.411-0.677,0.411
		C16.474,14.358,14.604,14.358,12.737,14.358z"/>
	<path fill-rule="evenodd" clip-rule="evenodd" d="M9.788,7.849c0.939,0,1.877-0.001,2.816,0c0.338,0.001,0.522,0.144,0.53,0.402
		c0.007,0.27-0.183,0.425-0.535,0.425c-1.887,0.001-3.774-0.001-5.661,0.002c-0.224,0-0.428-0.05-0.48-0.28
		C6.429,8.271,6.47,8.081,6.555,7.984c0.078-0.09,0.255-0.128,0.389-0.129C7.892,7.844,8.84,7.849,9.788,7.849z"/>
</g>
</svg>
