<?xml version="1.0" encoding="utf-8"?>
<!-- Generator: Adobe Illustrator 16.0.0, SVG Export Plug-In . SVG Version: 6.00 Build 0)  -->
<!DOCTYPE svg PUBLIC "-//W3C//DTD SVG 1.1//EN" "http://www.w3.org/Graphics/SVG/1.1/DTD/svg11.dtd">
<svg version="1.1" id="Layer_1" xmlns="http://www.w3.org/2000/svg" xmlns:xlink="http://www.w3.org/1999/xlink" x="0px" y="0px"
	 width="27px" height="24px" viewBox="0 0 27 24" enable-background="new 0 0 27 24" xml:space="preserve">
<rect fill="none" width="27" height="24"/>
<g>
	<path fill-rule="evenodd" clip-rule="evenodd" d="M25.657,3.614c0,5.591,0,11.182,0,16.773c-0.052,0.186-0.095,0.374-0.155,0.558
		c-0.411,1.239-1.558,2.051-2.915,2.053c-2.303,0.005-4.606,0.002-6.909,0.002c-3.639,0-7.277,0.002-10.916-0.002
		c-1.211-0.001-2.137-0.527-2.726-1.586c-0.174-0.313-0.248-0.682-0.368-1.024c0-5.591,0-11.182,0-16.773
		c0.012-0.02,0.03-0.038,0.035-0.059C2.05,1.922,3.185,1.002,4.855,1.001c4.419,0,8.839,0,13.258,0c1.499,0,2.998-0.005,4.497,0.001
		c1.465,0.006,2.659,0.961,2.979,2.369C25.608,3.453,25.635,3.533,25.657,3.614z M3.671,6.016c0,0.101,0,0.185,0,0.27
		c0,4.521,0,9.042,0,13.562c0,0.767,0.384,1.148,1.152,1.148c5.895,0,11.789,0,17.685,0c0.764,0,1.146-0.385,1.146-1.154
		c0.001-4.521,0.001-9.042,0.001-13.562c0-0.084,0-0.168,0-0.264C16.99,6.016,10.349,6.016,3.671,6.016z"/>
	<path fill-rule="evenodd" clip-rule="evenodd" d="M16.661,11.509c-2.006,0-3.985,0-5.997,0c0,0.23,0.001,0.453,0,0.676
		c-0.004,0.502-0.298,0.807-0.798,0.809c-1.132,0.004-2.264,0.004-3.396,0c-0.5-0.002-0.803-0.303-0.805-0.804
		c-0.005-1.125-0.005-2.249,0-3.373c0.002-0.515,0.303-0.809,0.822-0.811c1.116-0.003,2.233-0.002,3.349,0
		c0.529,0.001,0.826,0.3,0.829,0.826c0.001,0.216,0,0.433,0,0.661c2.006,0,3.985,0,5.997,0c0-0.23-0.001-0.453,0-0.677
		c0.004-0.504,0.296-0.807,0.797-0.809c1.132-0.004,2.264-0.004,3.396,0c0.499,0.001,0.804,0.302,0.807,0.803
		c0.005,1.124,0.005,2.249,0,3.373c-0.002,0.515-0.304,0.81-0.821,0.812c-1.117,0.003-2.233,0.003-3.35,0
		c-0.533-0.002-0.826-0.297-0.829-0.826C16.66,11.953,16.661,11.737,16.661,11.509z"/>
	<path fill-rule="evenodd" clip-rule="evenodd" d="M12.67,16.498c0-0.539-0.014-1.046,0.003-1.551
		c0.023-0.687,0.728-1.138,1.359-0.874c0.387,0.16,0.609,0.459,0.621,0.884c0.012,0.421,0.004,0.843,0.005,1.265
		c0,0.083,0,0.167,0,0.276c0.327,0,0.629-0.001,0.931,0c0.377,0.003,0.646,0.165,0.764,0.47c0.127,0.328,0.04,0.61-0.203,0.854
		c-0.64,0.641-1.277,1.283-1.922,1.919c-0.354,0.352-0.779,0.347-1.137-0.007c-0.638-0.632-1.27-1.27-1.905-1.903
		c-0.25-0.249-0.35-0.536-0.208-0.871c0.141-0.333,0.414-0.468,0.768-0.462C12.042,16.502,12.338,16.498,12.67,16.498z"/>
</g>
</svg>
