<?xml version="1.0" encoding="utf-8"?>
<!-- Generator: Adobe Illustrator 16.0.0, SVG Export Plug-In . SVG Version: 6.00 Build 0)  -->
<!DOCTYPE svg PUBLIC "-//W3C//DTD SVG 1.1//EN" "http://www.w3.org/Graphics/SVG/1.1/DTD/svg11.dtd">
<svg version="1.1" id="Layer_1" xmlns="http://www.w3.org/2000/svg" xmlns:xlink="http://www.w3.org/1999/xlink" x="0px" y="0px"
	 width="27px" height="24px" viewBox="0 0 27 24" enable-background="new 0 0 27 24" xml:space="preserve">
<rect fill="none" width="27" height="24"/>
<g>
	<path fill-rule="evenodd" clip-rule="evenodd" d="M1.5,11.771c0.137-0.223,0.245-0.47,0.417-0.661
		c0.218-0.244,0.533-0.308,0.856-0.308c0.359,0,0.718,0,1.077,0c6.715,0,13.429,0.005,20.144-0.008
		c0.746-0.001,1.269,0.242,1.506,0.977c0,0.155,0,0.313,0,0.468c-0.026,0.063-0.055,0.126-0.08,0.189
		c-0.177,0.434-0.495,0.691-0.959,0.76c-0.085,0.013-0.171,0.02-0.256,0.02c-7.137,0-14.272,0-21.408,0.001
		c-0.678,0-1.087-0.349-1.297-0.97C1.5,12.084,1.5,11.927,1.5,11.771z"/>
	<path fill-rule="evenodd" clip-rule="evenodd" d="M25.5,5.021c-0.151,0.486-0.434,0.844-0.956,0.955
		c-0.105,0.022-0.217,0.028-0.325,0.028C19.07,6.005,13.923,6.005,8.775,6.005c-0.644,0-1.112-0.361-1.247-0.953
		c-0.12-0.528,0.146-1.101,0.653-1.319c0.2-0.085,0.438-0.119,0.658-0.119c3.319-0.007,6.639-0.005,9.959-0.005
		c1.727,0,3.454,0.021,5.179-0.009c0.748-0.014,1.269,0.23,1.522,0.953C25.5,4.708,25.5,4.865,25.5,5.021z"/>
	<path fill-rule="evenodd" clip-rule="evenodd" d="M25.5,19.458c-0.066,0.139-0.12,0.286-0.206,0.411
		c-0.239,0.354-0.58,0.532-1.011,0.532c-1.054,0-2.107,0.001-3.161,0.001c-2.522,0-5.044,0-7.566-0.002
		c-0.657,0-1.146-0.406-1.237-1.013c-0.107-0.721,0.422-1.361,1.15-1.38c0.39-0.01,0.781-0.002,1.171-0.002c3.131,0,6.261,0,9.392,0
		c0.856,0,1.146,0.192,1.468,0.984C25.5,19.146,25.5,19.303,25.5,19.458z"/>
</g>
</svg>
