<?xml version="1.0" encoding="utf-8"?>
<!-- Generator: Adobe Illustrator 16.0.0, SVG Export Plug-In . SVG Version: 6.00 Build 0)  -->
<!DOCTYPE svg PUBLIC "-//W3C//DTD SVG 1.1//EN" "http://www.w3.org/Graphics/SVG/1.1/DTD/svg11.dtd">
<svg version="1.1" id="Layer_1" xmlns="http://www.w3.org/2000/svg" xmlns:xlink="http://www.w3.org/1999/xlink" x="0px" y="0px"
	 width="27px" height="24px" viewBox="0 0 27 24" enable-background="new 0 0 27 24" xml:space="preserve">
<rect fill="none" width="27" height="24"/>
<g>
	<path fill-rule="evenodd" clip-rule="evenodd" d="M1.519,2.328c0.015-0.035,0.034-0.069,0.045-0.105
		c0.191-0.635,0.689-1.015,1.351-1.017c1.029-0.003,2.059-0.001,3.088-0.001c6.005,0,12.011,0,18.017,0
		c0.761,0,1.313,0.434,1.44,1.137c0.022,0.129,0.021,0.264,0.021,0.396c0.001,5.288,0.001,10.576,0.001,15.864
		c0,0.984-0.523,1.521-1.504,1.543c-0.054,0.001-0.107,0.008-0.122,0.009c0.053,0.298,0.147,0.592,0.146,0.885
		c-0.001,0.436-0.223,0.786-0.571,1.052c-0.347,0.264-0.692,0.531-1.042,0.792c-0.699,0.519-1.53,0.403-2.063-0.29
		c-0.562-0.729-1.123-1.459-1.668-2.199c-0.141-0.19-0.289-0.255-0.521-0.254c-2.099,0.009-4.196,0.006-6.294,0.006
		c-0.063,0-0.125,0.001-0.187-0.001c-0.295-0.007-0.452-0.134-0.449-0.361s0.156-0.35,0.458-0.35
		c2.004-0.002,4.009-0.001,6.013-0.001c0.093,0,0.185,0,0.31,0c-0.116-0.41-0.099-0.787,0.083-1.15
		c0.017-0.034-0.01-0.105-0.039-0.144c-0.397-0.528-0.8-1.055-1.209-1.592c-0.063,0.029-0.119,0.052-0.172,0.08
		c-4.132,2.145-9.151,0.131-10.646-4.276c-0.056-0.165-0.134-0.212-0.299-0.208c-0.46,0.01-0.92,0.006-1.38,0.002
		c-0.609-0.004-0.97-0.368-0.972-0.981c-0.002-0.866-0.002-1.731,0-2.597c0.001-0.614,0.357-0.973,0.974-0.979
		C4.816,7.582,5.308,7.59,5.799,7.581C5.874,7.58,5.995,7.531,6.015,7.476c0.306-0.842,0.736-1.612,1.326-2.337
		c-1.719,0-3.402,0-5.117,0c0,0.081,0,0.164,0,0.247c0,4.407,0,8.813,0,13.22c0,0.592,0.23,0.825,0.817,0.825
		c2.207,0.001,4.414,0.001,6.622,0.001c0.375,0,0.552,0.112,0.554,0.352c0.002,0.241-0.178,0.36-0.548,0.36
		c-2.145,0.001-4.29-0.017-6.434,0.009c-0.851,0.011-1.45-0.272-1.716-1.116C1.519,13.467,1.519,7.897,1.519,2.328z M18.979,6.482
		c-0.786-1.532-2.938-3.398-5.95-3.356c-2.313,0.033-5.206,1.716-5.723,3.356c0.089,0,0.173,0,0.257,0c1.591,0,3.182,0,4.772,0
		c0.29,0,0.457,0.134,0.454,0.353s-0.173,0.35-0.461,0.354c-0.055,0.001-0.109,0-0.164,0c-1.685,0-3.369,0.002-5.054-0.004
		C6.944,7.185,6.866,7.238,6.806,7.394c-0.649,1.696-0.665,3.39-0.012,5.089c0.068,0.178,0.153,0.243,0.351,0.242
		c4-0.006,8.001-0.005,12.002-0.005c0.077,0,0.155,0,0.228,0c0.022-0.038,0.041-0.064,0.053-0.093
		c0.714-1.756,0.731-3.516,0.031-5.282c-0.063-0.157-0.161-0.156-0.29-0.156c-1.622,0.002-3.244,0.002-4.866,0
		c-0.1,0-0.226,0.014-0.293-0.039c-0.1-0.076-0.215-0.207-0.216-0.314c-0.001-0.109,0.112-0.24,0.208-0.323
		c0.057-0.049,0.179-0.029,0.271-0.029c1.481-0.001,2.964-0.001,4.445-0.001C18.801,6.482,18.883,6.482,18.979,6.482z
		 M18.751,14.991c0.426,0.56,0.834,1.101,1.251,1.635c0.037,0.047,0.131,0.079,0.193,0.072c0.617-0.07,1.09,0.158,1.454,0.655
		c0.374,0.51,0.799,0.984,1.135,1.516c0.289,0.459,0.634,0.621,1.167,0.573c0.587-0.052,0.825-0.244,0.825-0.828
		c0-4.405,0-8.812,0-13.217c0-0.084,0-0.167,0-0.257c-1.948,0-3.871,0-5.812,0c0.022,0.046,0.029,0.068,0.043,0.085
		c0.536,0.668,0.957,1.402,1.235,2.213c0.046,0.134,0.128,0.15,0.246,0.149c0.726-0.003,1.451-0.005,2.176,0
		c0.628,0.004,0.982,0.363,0.983,0.993c0.002,0.858,0.002,1.716,0,2.573c-0.001,0.627-0.361,0.989-0.985,0.992
		c-0.569,0.002-1.139-0.001-1.708,0.001c-0.193,0.001-0.429-0.054-0.569,0.036c-0.126,0.081-0.149,0.325-0.216,0.497
		C19.842,13.53,19.367,14.293,18.751,14.991z M24.744,4.408c0.019-0.051,0.027-0.065,0.027-0.079
		c0.002-0.522,0.004-1.045,0.005-1.567c0-0.621-0.228-0.851-0.841-0.851c-3.104,0-6.208,0-9.313,0c-3.853,0-7.706,0-11.559,0
		c-0.614,0-0.84,0.229-0.841,0.85c0,0.468,0,0.936,0,1.404c0,0.075,0,0.15,0,0.226c0.071,0.008,0.109,0.017,0.148,0.017
		C4.212,4.408,6.053,4.41,7.894,4.401c0.108,0,0.235-0.073,0.322-0.149c2.784-2.439,7.078-2.437,9.869,0.002
		c0.099,0.087,0.259,0.146,0.391,0.147c2.012,0.009,4.024,0.006,6.036,0.006C24.588,4.408,24.665,4.408,24.744,4.408z M7.294,13.433
		c1.085,1.95,3.551,3.626,6.622,3.311c2.005-0.206,4.733-1.972,5.054-3.311C15.085,13.433,11.202,13.433,7.294,13.433z
		 M20.422,17.356c-0.146,0.064-0.308,0.107-0.435,0.198c-0.362,0.257-0.713,0.529-1.063,0.804c-0.359,0.281-0.412,0.681-0.134,1.049
		c0.699,0.927,1.402,1.851,2.108,2.772c0.28,0.365,0.675,0.42,1.047,0.146c0.353-0.258,0.699-0.522,1.043-0.792
		c0.361-0.282,0.424-0.682,0.149-1.048c-0.707-0.94-1.423-1.874-2.137-2.81C20.861,17.492,20.674,17.395,20.422,17.356z
		 M20.502,8.301c0.226,1.058,0.222,2.085,0.038,3.135c0.754,0,1.477,0.006,2.198-0.01c0.069-0.002,0.193-0.147,0.194-0.228
		c0.014-0.888,0.009-1.776,0.009-2.665c0-0.135-0.056-0.231-0.203-0.231C22.007,8.299,21.276,8.301,20.502,8.301z M5.787,8.302
		c-0.531,0-1.035-0.008-1.539,0.01C4.182,8.314,4.068,8.45,4.067,8.525c-0.013,0.896-0.013,1.792,0,2.689
		c0.001,0.075,0.119,0.209,0.187,0.212c0.487,0.018,0.976,0.01,1.497,0.01C5.542,10.379,5.566,9.353,5.787,8.302z M17.424,16.169
		c0.393,0.516,0.777,1.021,1.176,1.545c0.292-0.223,0.566-0.431,0.846-0.643c-0.411-0.539-0.801-1.049-1.191-1.563
		C17.97,15.735,17.709,15.942,17.424,16.169z"/>
	<path fill-rule="evenodd" clip-rule="evenodd" d="M16.339,10.138c0.126-0.387,0.231-0.711,0.337-1.035
		c0.02-0.059,0.035-0.12,0.059-0.177c0.063-0.151,0.152-0.276,0.337-0.277c0.191,0,0.302,0.117,0.359,0.283
		c0.101,0.294,0.191,0.592,0.287,0.887c0.028,0.087,0.062,0.173,0.109,0.308c0.138-0.437,0.255-0.828,0.385-1.215
		c0.07-0.21,0.248-0.302,0.436-0.248c0.199,0.057,0.293,0.237,0.239,0.463c-0.007,0.03-0.016,0.061-0.026,0.089
		c-0.204,0.546-0.406,1.093-0.615,1.638c-0.036,0.092-0.089,0.186-0.158,0.254c-0.219,0.216-0.524,0.129-0.646-0.189
		c-0.123-0.326-0.228-0.66-0.358-1.043c-0.067,0.191-0.118,0.333-0.167,0.475c-0.065,0.191-0.125,0.384-0.196,0.573
		c-0.062,0.162-0.163,0.287-0.354,0.296c-0.195,0.009-0.319-0.101-0.405-0.263c-0.025-0.048-0.048-0.098-0.066-0.149
		c-0.195-0.524-0.391-1.049-0.585-1.574c-0.02-0.051-0.037-0.103-0.046-0.156c-0.032-0.198,0.072-0.375,0.254-0.414
		c0.203-0.043,0.358,0.033,0.426,0.233C16.073,9.286,16.193,9.679,16.339,10.138z"/>
	<path fill-rule="evenodd" clip-rule="evenodd" d="M9.063,9.917c-0.126,0.369-0.23,0.669-0.332,0.97
		c-0.065,0.193-0.151,0.369-0.388,0.377c-0.243,0.009-0.365-0.153-0.441-0.352c-0.216-0.567-0.428-1.136-0.634-1.707
		C7.185,8.978,7.28,8.779,7.482,8.714C7.676,8.652,7.86,8.748,7.935,8.971c0.128,0.382,0.244,0.768,0.385,1.216
		c0.119-0.369,0.217-0.674,0.316-0.979C8.663,9.126,8.69,9.045,8.722,8.965C8.783,8.811,8.888,8.662,9.06,8.706
		C9.19,8.74,9.348,8.852,9.4,8.97c0.131,0.297,0.21,0.618,0.311,0.929c0.023,0.071,0.051,0.14,0.1,0.273
		c0.135-0.435,0.253-0.808,0.369-1.182c0.053-0.172,0.156-0.287,0.347-0.292c0.254-0.006,0.431,0.227,0.338,0.487
		c-0.212,0.602-0.442,1.197-0.672,1.792c-0.07,0.18-0.205,0.296-0.411,0.288c-0.201-0.008-0.302-0.141-0.363-0.314
		C9.306,10.629,9.196,10.305,9.063,9.917z"/>
	<path fill-rule="evenodd" clip-rule="evenodd" d="M13.794,10.181c0.134-0.429,0.245-0.794,0.36-1.157
		c0.086-0.27,0.269-0.382,0.482-0.305c0.21,0.075,0.289,0.268,0.196,0.523c-0.202,0.556-0.413,1.109-0.622,1.663
		c-0.076,0.202-0.192,0.363-0.434,0.36c-0.239-0.003-0.33-0.178-0.396-0.37c-0.106-0.307-0.209-0.616-0.332-0.977
		c-0.105,0.305-0.193,0.561-0.282,0.816c-0.031,0.088-0.04,0.197-0.098,0.26c-0.098,0.106-0.224,0.249-0.344,0.254
		c-0.123,0.006-0.289-0.108-0.37-0.219c-0.107-0.146-0.153-0.337-0.22-0.512c-0.16-0.422-0.319-0.845-0.473-1.269
		c-0.094-0.261-0.009-0.468,0.208-0.535c0.207-0.063,0.387,0.049,0.469,0.305c0.119,0.369,0.23,0.741,0.363,1.173
		c0.121-0.375,0.223-0.689,0.325-1.004c0.024-0.074,0.047-0.149,0.076-0.221c0.063-0.154,0.167-0.304,0.34-0.259
		c0.13,0.034,0.287,0.146,0.34,0.264c0.129,0.29,0.206,0.603,0.304,0.907C13.715,9.957,13.743,10.035,13.794,10.181z"/>
	<path fill-rule="evenodd" clip-rule="evenodd" d="M5.552,3.262C5.553,3.462,5.402,3.614,5.2,3.614
		c-0.199,0-0.357-0.154-0.358-0.349C4.841,3.07,4.999,2.913,5.197,2.912C5.398,2.91,5.551,3.062,5.552,3.262z"/>
	<path fill-rule="evenodd" clip-rule="evenodd" d="M7.041,3.283c-0.006,0.192-0.173,0.35-0.365,0.345
		C6.479,3.622,6.328,3.462,6.332,3.264c0.004-0.201,0.156-0.343,0.362-0.338C6.894,2.93,7.047,3.087,7.041,3.283z"/>
	
		<ellipse transform="matrix(-0.0146 0.9999 -0.9999 -0.0146 7.0308 -0.4033)" fill-rule="evenodd" clip-rule="evenodd" cx="3.714" cy="3.263" rx="0.351" ry="0.36"/>
</g>
</svg>
