<?xml version="1.0" encoding="utf-8"?>
<!-- Generator: Adobe Illustrator 16.0.0, SVG Export Plug-In . SVG Version: 6.00 Build 0)  -->
<!DOCTYPE svg PUBLIC "-//W3C//DTD SVG 1.1//EN" "http://www.w3.org/Graphics/SVG/1.1/DTD/svg11.dtd">
<svg version="1.1" id="Layer_1" xmlns="http://www.w3.org/2000/svg" xmlns:xlink="http://www.w3.org/1999/xlink" x="0px" y="0px"
	 width="27px" height="24px" viewBox="0 0 27 24" enable-background="new 0 0 27 24" xml:space="preserve">
<rect fill="none" width="27" height="24"/>
<g>
	<path fill-rule="evenodd" clip-rule="evenodd" d="M2.424,17.499c0-3.668,0-7.333,0-11C2.503,6.501,2.581,6.506,2.66,6.506
		c7.177,0,14.354,0,21.529,0c0.079,0,0.157-0.005,0.236-0.008c0,3.667,0,7.333,0,11c-0.079-0.003-0.157-0.007-0.236-0.007
		c-7.176-0.001-14.353-0.001-21.529,0C2.581,17.492,2.503,17.496,2.424,17.499z M3.807,10.625c0,1.845,0,3.668,0,5.495
		c6.419,0,12.824,0,19.232,0c0-1.84,0-3.667,0-5.495C16.62,10.625,10.221,10.625,3.807,10.625z"/>
	<path fill-rule="evenodd" clip-rule="evenodd" d="M2.424,5.123c0-1.374,0-2.748,0-4.123c7.333,0,14.667,0,22.001,0
		c0,1.375,0,2.749,0,4.123c-0.079-0.002-0.157-0.007-0.236-0.007c-7.176,0-14.353,0-21.529,0C2.581,5.116,2.503,5.121,2.424,5.123z"
		/>
	<path fill-rule="evenodd" clip-rule="evenodd" d="M24.426,18.874c0,1.375,0,2.751,0,4.126c-7.334,0-14.668,0-22.001,0
		c0-1.375,0-2.751,0-4.126c0.079,0.003,0.157,0.008,0.236,0.008c7.177,0,14.354,0,21.529,0
		C24.269,18.882,24.347,18.877,24.426,18.874z"/>
</g>
</svg>
