<?xml version="1.0" encoding="utf-8"?>
<!-- Generator: Adobe Illustrator 16.0.0, SVG Export Plug-In . SVG Version: 6.00 Build 0)  -->
<!DOCTYPE svg PUBLIC "-//W3C//DTD SVG 1.1//EN" "http://www.w3.org/Graphics/SVG/1.1/DTD/svg11.dtd">
<svg version="1.1" id="Layer_1" xmlns="http://www.w3.org/2000/svg" xmlns:xlink="http://www.w3.org/1999/xlink" x="0px" y="0px"
	 width="27px" height="24px" viewBox="0 0 27 24" enable-background="new 0 0 27 24" xml:space="preserve">
<rect fill="none" width="27" height="24"/>
<g>
	<path d="M21.855,1.167c-2.261-0.001-4.521-0.002-6.781-0.002l-5.385,0c-1.512,0-3.024,0-4.538,0c-0.709,0-1.367,0.27-1.854,0.76
		C2.809,2.418,2.531,3.1,2.537,3.796c0.016,1.972,0.012,3.978,0.009,5.917c-0.001,0.811-0.002,1.622-0.002,2.433l0.001,0.089v2.338
		c0,1.96,0,3.92,0,5.881c0,1.62,1.084,2.709,2.696,2.71c2.095,0,4.19,0.001,6.285,0.001c3.413,0,6.827-0.001,10.24-0.003
		c0.261,0,0.483-0.022,0.683-0.066c1.223-0.275,2.013-1.294,2.013-2.597c0.002-5.575,0.002-11.15,0.002-16.726
		C24.463,2.288,23.342,1.167,21.855,1.167z M3.077,3.662C3.09,2.599,3.999,1.7,5.061,1.699c5.628-0.002,11.257-0.002,16.885,0
		c1.063,0,1.971,0.899,1.984,1.961c0.006,0.437,0.004,0.866,0.003,1.32c-0.001,0.175-0.001,0.351-0.002,0.528H3.081
		C3.077,5.477,3.074,5.448,3.074,5.42c0-0.148,0-0.297-0.001-0.446C3.072,4.544,3.071,4.099,3.077,3.662z M5.217,22.643
		c-1.099,0-1.909-0.632-2.115-1.648c-0.033-0.162-0.038-0.332-0.038-0.491c-0.001-4.158-0.001-8.316-0.001-12.475V6.033h20.873
		c0.004,0.052,0.008,0.102,0.008,0.15v2.265c0,3.951,0.001,8.038-0.001,12.057c-0.001,1.105-0.678,1.936-1.726,2.115
		c-0.136,0.023-0.28,0.023-0.42,0.023h-0.009C16.265,22.644,10.741,22.645,5.217,22.643z"/>
	<path d="M5.042,14.796h0.165c1.304,0,2.607,0,3.912,0c1.304-0.001,2.607-0.001,3.911-0.001c2.451,0,5.68,0.001,8.936,0.009h0.004
		c0.343,0,0.633-0.11,0.839-0.317c0.209-0.211,0.321-0.512,0.319-0.849c-0.017-1.914-0.017-3.809,0-5.632
		c0.003-0.33-0.109-0.626-0.315-0.834c-0.207-0.208-0.492-0.318-0.825-0.318h-0.011c-1.15,0.008-2.364,0.012-3.938,0.012
		c-0.754,0-1.508-0.001-2.262-0.002c-0.754,0-1.508-0.001-2.262-0.001h-2.252H5.03c-0.749,0-1.145,0.396-1.145,1.144
		c0,1.878-0.001,3.755,0,5.633C3.886,14.396,4.286,14.796,5.042,14.796z M22.597,7.875c0.004,2.008,0.003,4.022,0,5.901
		c0,0.039-0.009,0.082-0.021,0.131c-0.063-0.042-0.118-0.079-0.174-0.116l-4.817-3.324c-0.268-0.185-0.452-0.26-0.637-0.26
		c-0.183,0-0.367,0.074-0.637,0.256l-0.46,0.312c-0.517,0.35-1.032,0.699-1.549,1.047c-0.128,0.087-0.209,0.122-0.28,0.122
		c-0.072,0-0.154-0.038-0.283-0.131c-0.527-0.379-1.054-0.758-1.581-1.137c-0.479-0.345-0.958-0.689-1.437-1.034
		c-0.251-0.181-0.449-0.261-0.641-0.261c-0.213,0-0.423,0.101-0.68,0.326c-1.606,1.41-3.212,2.82-4.819,4.23
		c-0.033,0.029-0.067,0.057-0.115,0.095c-0.003-0.012-0.006-0.023-0.009-0.034C4.431,13.904,4.411,13.83,4.41,13.76
		c-0.005-1.817-0.005-3.732-0.002-5.857c0-0.329,0.186-0.519,0.523-0.535c0.016,0,0.031-0.001,0.047-0.001l0.06,0h6.195h10.73
		l0.073,0c0.025,0,0.05,0,0.075,0.002C22.415,7.395,22.597,7.583,22.597,7.875z M11.597,14.265H4.99l0.565-0.497
		c0.521-0.459,1.027-0.903,1.532-1.347c0.893-0.784,1.786-1.567,2.679-2.35c0.146-0.128,0.234-0.178,0.315-0.178
		c0.077,0,0.168,0.043,0.317,0.15c0.523,0.376,1.046,0.752,1.569,1.128c0.483,0.348,0.966,0.696,1.45,1.042
		c0.23,0.166,0.417,0.241,0.603,0.241c0.181,0,0.364-0.07,0.597-0.228l0.039-0.026c0.665-0.448,1.353-0.912,2.025-1.373
		c0.186-0.127,0.339-0.129,0.516-0.007c1.166,0.806,2.333,1.611,3.5,2.417l1.465,1.011c-0.072,0.008-0.134,0.014-0.195,0.014
		C18.511,14.265,15.054,14.265,11.597,14.265z M21.969,14.715L21.969,14.715L21.969,14.715L21.969,14.715z"/>
	<path d="M23.12,20.874c0.003-1.377,0.003-2.651,0-3.896c-0.001-0.586-0.357-0.937-0.953-0.938c-0.273,0-0.547-0.001-0.82-0.001
		l-1.294,0.001l-1.309-0.001c-0.283,0-0.567,0.001-0.851,0.001c-0.582,0.001-0.932,0.34-0.934,0.906
		c-0.007,1.302-0.007,2.635-0.001,3.963c0.003,0.559,0.354,0.906,0.915,0.909c0.71,0.002,1.438,0.004,2.165,0.004
		c0.718,0,1.436-0.001,2.153-0.004C22.764,21.817,23.119,21.455,23.12,20.874z M22.601,20.86c-0.001,0.334-0.111,0.441-0.457,0.442
		c-0.296,0-0.591,0-0.886,0h-1.251l-1.214,0.001c-0.293,0-0.585-0.001-0.878-0.001c-0.324-0.001-0.444-0.119-0.445-0.436
		c-0.001-1.2-0.001-2.467,0-3.872c0-0.319,0.123-0.444,0.438-0.445c0.709-0.001,1.417-0.001,2.125-0.001
		c0.709,0,1.417,0,2.126,0.001c0.325,0.001,0.44,0.115,0.44,0.438C22.602,18.244,22.602,19.547,22.601,20.86z"/>
	<path d="M9.134,17.79c-0.012,0-0.025-0.001-0.039-0.002c-0.018-0.002-0.037-0.003-0.054-0.003c-0.029,0-0.072,0.003-0.11,0.029
		c-0.121,0.082-0.182,0.163-0.18,0.24c0.002,0.11,0.129,0.203,0.196,0.236c0.044,0.022,0.091,0.025,0.122,0.025
		c0.021,0,0.043-0.002,0.065-0.003c0.017-0.002,0.035-0.003,0.051-0.003c0.539,0,1.077,0,1.616,0h2.173c0.547,0,1.095,0,1.642,0
		c0.014,0,0.029,0,0.044,0.001c0.019,0.001,0.036,0.002,0.054,0.002c0.041,0,0.093-0.004,0.142-0.03
		c0.069-0.038,0.166-0.138,0.164-0.238c-0.002-0.104-0.106-0.192-0.169-0.229c-0.044-0.026-0.094-0.029-0.127-0.029
		c-0.018,0-0.034,0.001-0.052,0.002c-0.014,0-0.027,0.001-0.04,0.001c-0.994,0-1.989,0-2.983,0H9.134z"/>
	<path d="M10.686,19.572c-0.042-0.021-0.085-0.024-0.114-0.024c-0.019,0-0.038,0.002-0.057,0.003
		c-0.015,0.001-0.03,0.002-0.044,0.002H7.385H4.301c-0.014,0-0.029-0.001-0.044-0.002c-0.019-0.001-0.038-0.002-0.056-0.002
		c-0.03,0-0.075,0.002-0.117,0.024c-0.002,0.001-0.201,0.106-0.182,0.234c0.014,0.099,0.105,0.189,0.185,0.231
		c0.044,0.023,0.09,0.026,0.122,0.026c0.021,0,0.044-0.002,0.066-0.004c0.018-0.001,0.035-0.002,0.052-0.002h1.692h4.433
		c0.017,0,0.034,0.001,0.052,0.003c0.022,0.001,0.045,0.003,0.067,0.003c0.031,0,0.078-0.003,0.122-0.027
		c0.08-0.044,0.166-0.14,0.177-0.236C10.882,19.673,10.688,19.573,10.686,19.572z"/>
	<path d="M9.41,21.329C9.362,21.303,9.31,21.3,9.274,21.3c-0.019,0-0.038,0.001-0.057,0.002c-0.016,0.001-0.031,0.002-0.047,0.002
		c-0.449-0.001-0.898-0.001-1.348-0.001h-0.54H5.359H4.317c-0.015,0-0.031-0.001-0.046-0.002c-0.021-0.002-0.042-0.004-0.062-0.004
		c-0.044,0-0.079,0.008-0.109,0.024c-0.046,0.024-0.195,0.113-0.199,0.229c-0.004,0.123,0.15,0.226,0.182,0.245
		c0.042,0.026,0.091,0.029,0.123,0.029c0.018,0,0.037-0.001,0.056-0.002c0.014-0.001,0.029-0.002,0.042-0.002H6.44
		c0.913,0,1.826,0,2.74-0.001l0.066,0.001c0.053,0,0.114-0.004,0.169-0.031c0.072-0.037,0.167-0.138,0.157-0.231
		C9.563,21.463,9.481,21.368,9.41,21.329z"/>
	<path d="M11.628,16.063c-0.042-0.024-0.087-0.027-0.118-0.027c-0.019,0-0.038,0.001-0.057,0.003
		c-0.015,0.001-0.03,0.002-0.044,0.002h-1.28H6.804c-0.015,0-0.03-0.001-0.045-0.002c-0.02-0.002-0.04-0.003-0.06-0.003
		c-0.028,0-0.07,0.002-0.111,0.022C6.586,16.06,6.39,16.161,6.405,16.29c0.012,0.104,0.112,0.189,0.171,0.231
		c0.04,0.028,0.086,0.031,0.117,0.031c0.017,0,0.033-0.001,0.05-0.002c0.013-0.001,0.025-0.002,0.037-0.002h2.157
		c0.831,0,1.661,0,2.491,0c0.011,0,0.023,0.001,0.035,0.001c0.015,0.001,0.031,0.002,0.046,0.002c0.032,0,0.079-0.003,0.12-0.03
		c0.05-0.032,0.167-0.12,0.167-0.227C11.797,16.189,11.687,16.098,11.628,16.063z"/>
	<path d="M4.254,18.312L4.254,18.312h0.009c0.24-0.001,0.481-0.001,0.721-0.001h2.367c0.096,0,0.216,0,0.294-0.08
		c0.045-0.047,0.067-0.111,0.064-0.192C7.702,17.79,7.473,17.79,7.363,17.79H6.12c-0.617,0-1.235,0-1.856,0H4.255
		c-0.115,0-0.355,0-0.359,0.257c0,0.076,0.021,0.138,0.066,0.183C4.042,18.311,4.169,18.312,4.254,18.312z"/>
	<path d="M14.704,19.553H14.69h-0.803h-2.417c-0.104,0-0.322,0-0.331,0.24c-0.002,0.079,0.018,0.144,0.063,0.188
		c0.075,0.078,0.192,0.078,0.274,0.078c0,0,0,0,0.001,0c1.067,0,2.131,0,3.206,0h0.008c0.083,0,0.195,0,0.27-0.074
		c0.044-0.044,0.065-0.104,0.065-0.181C15.025,19.553,14.801,19.553,14.704,19.553z"/>
	<path d="M14.697,16.04C14.696,16.04,14.696,16.04,14.697,16.04c-0.595,0.002-1.182,0.002-1.786,0c-0.08,0-0.324,0-0.33,0.245
		c-0.002,0.076,0.02,0.138,0.064,0.183c0.07,0.071,0.173,0.081,0.275,0.081h0.005c0.132,0,0.264,0,0.396,0h0.421h0.636h0.328
		c0.09,0,0.19-0.01,0.258-0.079c0.044-0.045,0.065-0.106,0.063-0.183C15.021,16.042,14.791,16.04,14.697,16.04z M12.92,16.46
		L12.92,16.46L12.92,16.46L12.92,16.46z"/>
	<path d="M3.981,16.422c0.053,0.05,0.113,0.107,0.192,0.118c0.066,0.009,0.138,0.014,0.226,0.014c0.049,0,0.099-0.002,0.148-0.003
		c0.048-0.001,0.096-0.003,0.147-0.003c0,0,0,0,0,0c0.048,0.001,0.096,0.002,0.145,0.003c0.051,0.002,0.103,0.004,0.153,0.004
		c0.087,0,0.158-0.005,0.223-0.015c0.082-0.012,0.146-0.068,0.203-0.119c0.022-0.02,0.042-0.037,0.062-0.052l0.097-0.07
		l-0.094-0.072c-0.019-0.015-0.039-0.034-0.061-0.055c-0.057-0.056-0.122-0.119-0.207-0.123c-0.342-0.018-0.689-0.018-1.027,0
		c-0.085,0.005-0.149,0.069-0.206,0.127c-0.021,0.021-0.041,0.041-0.059,0.056l-0.088,0.07l0.09,0.069
		C3.943,16.385,3.961,16.402,3.981,16.422z"/>
	<path d="M14.978,4.429c0.141,0.041,0.29,0.044,0.442,0.044c1.136,0.001,2.271,0.002,3.405,0.002c0.896,0,1.791,0,2.686,0h0.057
		c0.093,0,0.197,0,0.299-0.011c0.352-0.039,0.65-0.309,0.727-0.658c0.059-0.267,0.002-0.524-0.158-0.725
		c-0.165-0.206-0.426-0.325-0.716-0.327c-0.751-0.004-1.501-0.003-2.252-0.002c-0.305,0-0.609,0-0.913,0h-0.31h-0.201
		c-0.241,0-0.482,0-0.724,0c-0.241,0-0.482,0-0.724,0c-0.546,0-0.965,0.001-1.359,0.004c-0.435,0.003-0.79,0.309-0.846,0.726
		C14.333,3.922,14.573,4.312,14.978,4.429z M14.89,3.61c0.002-0.218,0.169-0.348,0.445-0.349c0.479,0,0.957-0.001,1.435-0.001
		l1.747,0l1.322,0c0.59,0,1.18,0,1.771,0.002c0.083,0,0.178,0.002,0.257,0.028c0.159,0.052,0.238,0.165,0.233,0.335
		c-0.005,0.162-0.084,0.267-0.237,0.312c-0.086,0.025-0.187,0.029-0.281,0.029C20.21,3.967,18.84,3.967,17.47,3.967h-2.052h-0.054
		c-0.012,0-0.022,0-0.034,0C15.061,3.962,14.888,3.822,14.89,3.61z"/>
	<path d="M5.297,4.627c0.013,0,0.025,0.001,0.038,0.001c0.493,0,0.91-0.408,0.929-0.91c0.01-0.248-0.079-0.485-0.25-0.667
		c-0.172-0.184-0.406-0.29-0.657-0.296C4.829,2.741,4.411,3.134,4.391,3.658C4.371,4.17,4.777,4.605,5.297,4.627z M5.328,3.263
		V3.173l0,0L5.33,3.263C5.556,3.264,5.749,3.457,5.75,3.685c0.001,0.229-0.185,0.419-0.416,0.423H5.328
		c-0.23,0-0.417-0.179-0.423-0.408C4.902,3.587,4.947,3.475,5.028,3.392C5.109,3.309,5.216,3.263,5.328,3.263z"/>
	<path d="M7.687,4.628h0.005c0.506,0,0.935-0.429,0.938-0.936C8.631,3.445,8.536,3.211,8.36,3.033
		C8.183,2.854,7.947,2.755,7.691,2.754c-0.522,0-0.933,0.408-0.936,0.93C6.753,4.202,7.171,4.625,7.687,4.628z M7.268,3.672
		C7.277,3.45,7.469,3.263,7.689,3.263c0.01,0,0.021,0,0.03,0.001c0.229,0.018,0.406,0.219,0.393,0.448
		C8.099,3.944,7.907,4.116,7.67,4.107C7.439,4.097,7.259,3.902,7.268,3.672z M7.692,4.539L7.692,4.539L7.692,4.539L7.692,4.539z"/>
	<path d="M10.053,4.628h0.007c0.51-0.004,0.939-0.437,0.936-0.945c-0.003-0.513-0.425-0.93-0.944-0.93
		C9.798,2.755,9.563,2.853,9.389,3.028C9.215,3.204,9.12,3.439,9.121,3.692C9.123,4.208,9.541,4.628,10.053,4.628z M9.631,3.692
		c-0.001-0.108,0.044-0.218,0.125-0.3s0.19-0.129,0.298-0.129h0.01c0.229,0.006,0.414,0.198,0.411,0.429
		c-0.002,0.233-0.187,0.415-0.42,0.415C9.824,4.107,9.634,3.921,9.631,3.692z"/>
	<path d="M14.161,8.415h-0.007c-0.542,0-0.973,0.423-0.981,0.963c-0.004,0.266,0.097,0.517,0.285,0.708
		c0.187,0.188,0.433,0.292,0.693,0.292h0.006c0.529-0.003,0.979-0.453,0.981-0.983C15.141,8.858,14.702,8.419,14.161,8.415z
		 M14.15,8.922l0.003-0.089l0,0v0.089c0.123,0,0.239,0.049,0.328,0.139c0.09,0.091,0.139,0.211,0.137,0.338
		c-0.002,0.256-0.206,0.457-0.465,0.458c-0.127,0-0.246-0.05-0.336-0.141c-0.088-0.089-0.136-0.207-0.133-0.331
		C13.688,9.136,13.901,8.924,14.15,8.922z M14.151,10.29L14.151,10.29L14.151,10.29L14.151,10.29z"/>
	<path d="M21.004,18.396c-0.347-0.227-0.705-0.449-1.095-0.683c-0.118-0.071-0.246-0.108-0.368-0.108
		c-0.333,0-0.582,0.27-0.594,0.641c-0.006,0.156-0.004,0.314-0.003,0.467c0.001,0.067,0.001,0.135,0.001,0.202
		c0,0.074,0,0.149-0.001,0.224c-0.002,0.161-0.004,0.327,0.004,0.491c0.015,0.359,0.267,0.621,0.598,0.621
		c0.115,0,0.233-0.034,0.342-0.098c0.36-0.211,0.735-0.444,1.116-0.694c0.2-0.132,0.315-0.326,0.315-0.532
		S21.204,18.527,21.004,18.396z M19.468,19.597c-0.005-0.152-0.004-0.31-0.002-0.461c0-0.067,0.001-0.136,0.001-0.203
		c0-0.066-0.001-0.133-0.001-0.199c-0.002-0.152-0.003-0.311,0.002-0.466c0.002-0.066,0.017-0.146,0.075-0.146
		c0.021,0,0.058,0.007,0.113,0.041c0.35,0.209,0.704,0.43,1.054,0.656c0.059,0.038,0.095,0.079,0.095,0.109s-0.033,0.068-0.09,0.104
		c-0.363,0.235-0.724,0.46-1.072,0.668c-0.048,0.029-0.081,0.035-0.1,0.035C19.481,19.736,19.47,19.649,19.468,19.597z"/>
</g>
</svg>
