<?xml version="1.0" encoding="utf-8"?>
<!-- Generator: Adobe Illustrator 16.0.0, SVG Export Plug-In . SVG Version: 6.00 Build 0)  -->
<!DOCTYPE svg PUBLIC "-//W3C//DTD SVG 1.1//EN" "http://www.w3.org/Graphics/SVG/1.1/DTD/svg11.dtd">
<svg version="1.1" id="Layer_1" xmlns="http://www.w3.org/2000/svg" xmlns:xlink="http://www.w3.org/1999/xlink" x="0px" y="0px"
	 width="27px" height="24px" viewBox="0 0 27 24" enable-background="new 0 0 27 24" xml:space="preserve">
<rect fill="none" width="27" height="24"/>
<g>
	<path fill-rule="evenodd" clip-rule="evenodd" d="M24.501,12.353c-0.07,0.415-0.116,0.835-0.213,1.243
		c-0.492,2.063-1.649,3.654-3.446,4.777c-0.585,0.366-1.212,0.645-1.879,0.825c-0.143,0.038-0.186,0.104-0.185,0.252
		c0.008,0.967,0.003,1.934,0.005,2.9c0,0.189-0.04,0.356-0.214,0.463c-0.188,0.115-0.381,0.079-0.579-0.115
		c-0.297-0.29-0.589-0.586-0.882-0.88c-0.72-0.719-1.44-1.436-2.155-2.159c-0.113-0.115-0.227-0.166-0.393-0.166
		c-1.575,0.003-3.152,0.049-4.725-0.02c-2.66-0.114-4.716-1.345-6.166-3.572c-0.679-1.045-1.046-2.203-1.139-3.447
		c-0.004-0.049-0.021-0.097-0.032-0.145c0-0.33,0-0.659,0-0.988c0.065-0.387,0.119-0.776,0.199-1.16
		C2.835,9.5,3.076,8.874,3.395,8.277c0.164-0.306,0.399-0.415,0.637-0.289c0.232,0.123,0.288,0.375,0.132,0.671
		c-0.374,0.709-0.625,1.457-0.733,2.251c-0.207,1.519,0.056,2.953,0.814,4.283c0.861,1.511,2.129,2.542,3.776,3.102
		c0.732,0.249,1.488,0.345,2.26,0.344c1.496-0.003,2.993,0.002,4.49-0.004c0.261-0.002,0.461,0.079,0.646,0.267
		c0.763,0.777,1.536,1.543,2.306,2.312c0.054,0.054,0.11,0.103,0.202,0.188c0-0.296,0-0.544,0-0.791c0-0.516-0.001-1.031,0-1.547
		c0-0.391,0.087-0.512,0.466-0.601c0.876-0.204,1.684-0.558,2.406-1.09c1.536-1.131,2.481-2.634,2.762-4.526
		c0.286-1.935-0.193-3.684-1.41-5.209c-1.087-1.364-2.508-2.197-4.239-2.457c-0.493-0.074-0.998-0.068-1.498-0.093
		c-0.271-0.014-0.447-0.123-0.498-0.325c-0.066-0.273,0.113-0.521,0.408-0.532c1.009-0.035,2.001,0.062,2.962,0.391
		c1.609,0.551,2.903,1.527,3.872,2.922c0.675,0.973,1.096,2.051,1.261,3.227c0.029,0.211,0.058,0.423,0.087,0.635
		C24.501,11.722,24.501,12.038,24.501,12.353z"/>
	<path fill-rule="evenodd" clip-rule="evenodd" d="M7.913,0.879C8.177,0.984,8.262,1.19,8.255,1.46
		c-0.009,0.344,0,0.688-0.002,1.031C8.25,2.832,8.127,2.973,7.797,3.03C7.34,3.108,7.066,3.451,7.07,3.96
		c0.228,0,0.455-0.003,0.683,0C8.231,3.969,8.495,4.227,8.5,4.709c0.007,0.645,0.007,1.29,0,1.934
		c-0.005,0.47-0.267,0.737-0.734,0.743c-0.737,0.009-1.475,0.009-2.213,0c-0.469-0.005-0.737-0.278-0.732-0.74
		C4.83,5.681,4.812,4.712,4.874,3.749C4.93,2.875,5.241,2.087,5.955,1.516c0.425-0.34,0.917-0.519,1.452-0.593
		c0.069-0.01,0.137-0.029,0.205-0.044C7.712,0.879,7.813,0.879,7.913,0.879z M7.627,4.836C7.568,4.83,7.52,4.821,7.471,4.82
		C7.207,4.819,6.942,4.824,6.677,4.818C6.305,4.81,6.141,4.634,6.158,4.267C6.165,4.131,6.173,3.995,6.192,3.86
		c0.103-0.712,0.383-1.3,1.103-1.586c0.044-0.018,0.087-0.087,0.094-0.138C7.403,2.033,7.393,1.925,7.393,1.8
		c-0.09,0.019-0.16,0.029-0.227,0.048C6.323,2.093,5.861,2.703,5.78,3.526C5.684,4.504,5.71,5.495,5.685,6.48
		c0,0.011,0.015,0.023,0.025,0.037c0.634,0,1.269,0,1.917,0C7.627,5.951,7.627,5.397,7.627,4.836z"/>
	<path fill-rule="evenodd" clip-rule="evenodd" d="M12.339,0.879c0.244,0.131,0.318,0.338,0.307,0.606
		c-0.015,0.35,0,0.702-0.005,1.052c-0.004,0.288-0.132,0.435-0.411,0.488c-0.514,0.098-0.749,0.376-0.772,0.934
		c0.235,0,0.471-0.004,0.706,0.001c0.463,0.01,0.727,0.278,0.73,0.744c0.004,0.645,0.003,1.289,0,1.933
		c-0.002,0.466-0.262,0.742-0.728,0.748c-0.744,0.01-1.489,0.009-2.234,0C9.513,7.381,9.217,7.134,9.219,6.739
		c0.005-1.08-0.021-2.166,0.085-3.238c0.141-1.412,1.021-2.301,2.36-2.56c0.11-0.021,0.221-0.042,0.332-0.063
		C12.11,0.879,12.225,0.879,12.339,0.879z M11.783,1.801c-0.393,0.068-0.717,0.215-0.993,0.472c-0.47,0.439-0.648,1.011-0.679,1.621
		c-0.042,0.842-0.031,1.687-0.041,2.531c0,0.027,0.012,0.054,0.02,0.088c0.645,0,1.285,0,1.93,0c0-0.569,0-1.123,0-1.694
		c-0.329,0-0.643,0.005-0.957-0.001c-0.345-0.007-0.532-0.18-0.512-0.493c0.018-0.277,0.045-0.558,0.109-0.827
		c0.126-0.534,0.416-0.959,0.937-1.178c0.157-0.066,0.208-0.145,0.187-0.299C11.776,1.959,11.783,1.894,11.783,1.801z"/>
	<path fill-rule="evenodd" clip-rule="evenodd" d="M13.478,9.366c-1.682,0-3.364,0-5.047-0.001c-0.1,0-0.201-0.002-0.299-0.019
		C7.931,9.312,7.788,9.138,7.786,8.941C7.783,8.744,7.924,8.564,8.122,8.527C8.213,8.51,8.307,8.507,8.399,8.507
		c3.4-0.001,6.801-0.001,10.201,0c0.41,0,0.617,0.148,0.613,0.436c-0.005,0.285-0.21,0.424-0.625,0.424
		C16.885,9.366,15.182,9.366,13.478,9.366z"/>
	<path fill-rule="evenodd" clip-rule="evenodd" d="M13.508,10.8c1.675,0,3.351,0,5.025,0c0.05,0,0.1,0,0.15,0
		c0.333,0.003,0.532,0.166,0.529,0.43c-0.002,0.263-0.203,0.428-0.536,0.428c-3.45,0.001-6.9,0.001-10.351,0
		c-0.078,0-0.157-0.01-0.232-0.03c-0.189-0.052-0.314-0.226-0.308-0.415c0.007-0.187,0.145-0.36,0.333-0.397
		c0.09-0.018,0.185-0.016,0.278-0.016C10.101,10.8,11.804,10.8,13.508,10.8z"/>
	<path fill-rule="evenodd" clip-rule="evenodd" d="M13.49,13.946c-1.675,0-3.35,0-5.025,0c-0.05,0-0.101,0.001-0.15,0
		c-0.332-0.004-0.532-0.166-0.529-0.431c0.003-0.263,0.205-0.428,0.537-0.428c3.45-0.001,6.901-0.001,10.351,0
		c0.077,0,0.157,0.01,0.232,0.03c0.188,0.053,0.313,0.228,0.307,0.416c-0.007,0.195-0.156,0.369-0.354,0.401
		c-0.084,0.014-0.172,0.011-0.257,0.011C16.897,13.946,15.194,13.946,13.49,13.946z"/>
	<path fill-rule="evenodd" clip-rule="evenodd" d="M15.948,16.242c-0.866,0-1.732,0-2.599,0c-0.416-0.001-0.62-0.14-0.624-0.425
		c-0.004-0.288,0.201-0.436,0.612-0.436c1.754,0,3.508,0,5.262,0.001c0.093,0,0.187,0.003,0.277,0.021
		c0.198,0.037,0.339,0.217,0.337,0.413c-0.003,0.197-0.146,0.371-0.347,0.405c-0.091,0.017-0.185,0.02-0.277,0.02
		C17.709,16.242,16.828,16.242,15.948,16.242z"/>
	<path fill-rule="evenodd" clip-rule="evenodd" d="M14.436,5.082c-0.225-0.006-0.423-0.214-0.417-0.437
		c0.006-0.228,0.207-0.42,0.436-0.415c0.228,0.005,0.423,0.208,0.417,0.433C14.865,4.888,14.657,5.088,14.436,5.082z"/>
	<path fill-rule="evenodd" clip-rule="evenodd" d="M10.733,16.234c-0.233,0.002-0.425-0.182-0.43-0.413
		c-0.005-0.241,0.189-0.435,0.433-0.432c0.234,0.003,0.421,0.191,0.421,0.423C11.156,16.043,10.967,16.231,10.733,16.234z"/>
</g>
</svg>
