<?xml version="1.0" encoding="utf-8"?>
<!-- Generator: Adobe Illustrator 16.0.0, SVG Export Plug-In . SVG Version: 6.00 Build 0)  -->
<!DOCTYPE svg PUBLIC "-//W3C//DTD SVG 1.1//EN" "http://www.w3.org/Graphics/SVG/1.1/DTD/svg11.dtd">
<svg version="1.1" id="Layer_1" xmlns="http://www.w3.org/2000/svg" xmlns:xlink="http://www.w3.org/1999/xlink" x="0px" y="0px"
	 width="27px" height="24px" viewBox="0 0 27 24" enable-background="new 0 0 27 24" xml:space="preserve">
<rect fill="none" width="27" height="24"/>
<g>
	<path fill-rule="evenodd" clip-rule="evenodd" d="M13.671,23c-0.627-0.13-1.07-0.528-1.49-0.983
		c-0.709-0.768-1.441-1.515-2.162-2.272c-0.619-0.651-0.633-1.589-0.038-2.178c0.628-0.62,1.588-0.62,2.235,0.018
		c0.381,0.376,0.742,0.772,1.111,1.159c0.021-0.016,0.042-0.031,0.063-0.047c0-1.446,0-2.894,0-4.374c-0.081,0-0.163,0-0.246,0
		c-1.282,0-2.563,0-3.845,0c-0.072,0-0.146,0.007-0.214-0.009c-0.167-0.038-0.263-0.151-0.26-0.321
		c0.003-0.16,0.098-0.268,0.255-0.305c0.068-0.016,0.143-0.01,0.214-0.01c1.282,0,2.563,0,3.845,0c0.078,0,0.157,0,0.25,0
		c0-0.28,0-0.548,0-0.847c-0.093,0-0.184,0-0.274,0c-1.948,0-3.896,0.003-5.843-0.001c-1.005-0.002-1.777-0.542-2.035-1.431
		c-0.061-0.209-0.083-0.437-0.084-0.656C5.147,9.705,5.148,8.667,5.153,7.628C5.158,6.4,6.007,5.555,7.235,5.547
		c0.136,0,0.272-0.003,0.408,0.002c0.184,0.006,0.294,0.104,0.315,0.287C7.979,6.013,7.866,6.16,7.68,6.182
		C7.524,6.2,7.365,6.19,7.208,6.192c-0.833,0.009-1.406,0.572-1.41,1.402c-0.005,1.067-0.006,2.134,0,3.201
		c0.005,0.792,0.552,1.376,1.338,1.382c2.048,0.016,4.096,0.008,6.144,0.008c0.034,0,0.069-0.01,0.128-0.019
		c0-0.417-0.002-0.83,0.001-1.244c0.001-0.157-0.003-0.317,0.027-0.47c0.157-0.783,0.881-1.317,1.665-1.239
		c0.795,0.08,1.394,0.728,1.403,1.53c0.007,0.471,0.002,0.941,0.002,1.423c0.693,0,1.366,0.035,2.034-0.01
		c0.615-0.041,1.142-0.685,1.144-1.311c0.004-1.074,0.003-2.148,0.001-3.223c-0.001-0.852-0.575-1.43-1.428-1.431
		C15.3,6.19,12.343,6.192,9.385,6.191c-0.093,0-0.188,0.002-0.277-0.02c-0.167-0.042-0.256-0.164-0.24-0.333
		C8.885,5.671,8.988,5.565,9.164,5.55c0.05-0.004,0.1-0.003,0.15-0.003c2.972,0,5.944-0.001,8.916,0
		c1.013,0.001,1.803,0.587,2.035,1.515c0.043,0.171,0.063,0.353,0.063,0.53c0.006,1.103,0.006,2.206,0.002,3.309
		c-0.003,0.977-0.945,1.915-1.925,1.919c-0.622,0.003-1.244,0.001-1.883,0.001c0,0.285,0,0.559,0,0.856
		c0.395,0,0.786,0.005,1.178-0.001c0.5-0.009,1.009,0.029,1.499-0.051c1.056-0.173,2.061-1.313,2.035-2.469
		c-0.029-1.339-0.002-2.678-0.008-4.018c-0.007-1.251-0.861-2.26-2.086-2.469c-0.146-0.025-0.299-0.028-0.449-0.028
		c-3.938-0.001-7.877-0.003-11.815,0c-1.313,0.001-2.295,0.839-2.509,2.13C4.345,6.906,4.344,7.044,4.344,7.18
		c-0.002,1.368-0.004,2.735-0.002,4.103c0.002,1.176,1.182,2.373,2.359,2.394c0.293,0.005,0.587-0.001,0.881,0.002
		c0.237,0.002,0.376,0.121,0.378,0.316c0.002,0.197-0.136,0.323-0.369,0.326c-0.336,0.003-0.673,0.01-1.01-0.003
		c-0.469-0.018-0.897-0.177-1.289-0.427c-0.813-0.52-1.375-1.223-1.565-2.187c-0.025-0.125-0.031-0.256-0.031-0.384
		C3.695,9.932,3.695,8.542,3.699,7.153c0.005-1.587,1.059-2.842,2.62-3.117C6.501,4.003,6.69,3.999,6.875,3.999
		c3.938-0.002,7.877-0.002,11.816-0.001c1.813,0.001,3.174,1.361,3.18,3.179c0.005,1.382,0.017,2.765-0.001,4.146
		c-0.013,0.962-0.502,1.698-1.217,2.296c-0.562,0.469-1.205,0.737-1.952,0.703c-0.048-0.002-0.096,0-0.144,0
		c0.126,0.255,0.245,0.494,0.372,0.753c0.46-0.284,0.973-0.373,1.505-0.145c0.527,0.227,0.828,0.641,0.928,1.172
		c0.27-0.068,0.531-0.176,0.799-0.194c0.707-0.05,1.318,0.407,1.513,1.088c0.016,0.054,0.034,0.107,0.053,0.16
		c0,1.519,0,3.037,0,4.556c-0.108,0.381-0.269,0.738-0.609,0.962c-0.209,0.137-0.452,0.22-0.68,0.326c-0.56,0-1.118,0-1.676,0
		c-0.151-0.103-0.27-0.227-0.198-0.426c0.069-0.196,0.235-0.223,0.42-0.22c0.365,0.006,0.73,0.002,1.096,0.001
		c0.639-0.001,1.002-0.36,1.002-0.994c0.001-0.716,0-1.432,0-2.147c0-0.602,0.004-1.203-0.001-1.805
		c-0.004-0.48-0.348-0.845-0.805-0.864c-0.477-0.021-0.85,0.308-0.896,0.795c-0.01,0.099-0.001,0.2-0.01,0.3
		c-0.016,0.173-0.114,0.277-0.287,0.292c-0.184,0.015-0.299-0.081-0.34-0.259c-0.014-0.062-0.012-0.128-0.013-0.192
		c-0.001-0.379,0.021-0.761-0.01-1.138c-0.017-0.194-0.093-0.408-0.206-0.566c-0.22-0.307-0.629-0.399-0.986-0.276
		c-0.356,0.121-0.6,0.442-0.606,0.829c-0.009,0.422,0.003,0.845-0.002,1.268c-0.002,0.192-0.125,0.321-0.295,0.332
		c-0.18,0.013-0.32-0.112-0.344-0.311c-0.008-0.063-0.004-0.128-0.004-0.192c-0.002-0.688,0-1.375-0.006-2.063
		c-0.004-0.404-0.255-0.728-0.64-0.845c-0.573-0.174-1.124,0.225-1.124,0.814c0,0.709,0,1.418,0,2.126
		c0,0.058,0.003,0.115-0.004,0.172c-0.021,0.183-0.16,0.31-0.332,0.297c-0.183-0.013-0.285-0.12-0.306-0.3
		c-0.009-0.071-0.003-0.144-0.003-0.215c0-2.205,0.001-4.41-0.001-6.616c-0.001-0.568-0.425-0.977-0.967-0.942
		c-0.497,0.032-0.841,0.419-0.842,0.956c-0.001,2.857-0.001,5.713,0.001,8.571c0,0.181-0.014,0.353-0.206,0.431
		c-0.191,0.077-0.322-0.035-0.45-0.163c-0.538-0.535-1.078-1.068-1.621-1.599c-0.399-0.389-0.957-0.401-1.327-0.038
		c-0.363,0.355-0.345,0.884,0.048,1.298c0.819,0.861,1.641,1.72,2.46,2.581c0.297,0.312,0.651,0.469,1.088,0.467
		c1.718-0.006,3.437-0.001,5.154-0.004c0.185,0,0.35,0.021,0.422,0.218c0.073,0.201-0.048,0.321-0.193,0.428
		C17.51,23,15.591,23,13.671,23z"/>
	<path fill-rule="evenodd" clip-rule="evenodd" d="M1.726,13.547c0.112-0.079,0.213-0.188,0.338-0.232
		c0.314-0.115,0.638-0.203,0.959-0.298c0.222-0.065,0.399,0.011,0.456,0.19c0.058,0.183-0.041,0.351-0.26,0.421
		c-0.319,0.103-0.643,0.188-0.959,0.298c-0.229,0.08-0.402,0.039-0.535-0.164C1.726,13.69,1.726,13.619,1.726,13.547z"/>
	<path fill-rule="evenodd" clip-rule="evenodd" d="M23.727,4.524c-0.075,0.167-0.204,0.256-0.382,0.303
		c-0.311,0.082-0.614,0.186-0.922,0.276c-0.243,0.072-0.411-0.001-0.467-0.198c-0.056-0.196,0.043-0.344,0.288-0.42
		c0.306-0.095,0.613-0.187,0.92-0.28c0.32-0.098,0.414-0.06,0.563,0.232C23.727,4.467,23.727,4.495,23.727,4.524z"/>
	<path fill-rule="evenodd" clip-rule="evenodd" d="M23.383,1c0.275,0.204,0.293,0.349,0.075,0.617
		c-0.117,0.143-0.234,0.287-0.356,0.426c-0.157,0.178-0.336,0.201-0.485,0.07c-0.139-0.122-0.149-0.31-0.011-0.476
		C22.787,1.42,22.979,1.212,23.167,1C23.239,1,23.311,1,23.383,1z"/>
	<path fill-rule="evenodd" clip-rule="evenodd" d="M4.484,14.385c-0.061,0.121-0.089,0.212-0.145,0.279
		c-0.636,0.772-1.275,1.542-1.917,2.31c-0.138,0.165-0.331,0.189-0.472,0.076c-0.148-0.118-0.16-0.317-0.015-0.493
		c0.637-0.771,1.277-1.54,1.916-2.311c0.101-0.121,0.234-0.192,0.376-0.12C4.328,14.178,4.396,14.292,4.484,14.385z"/>
	<path fill-rule="evenodd" clip-rule="evenodd" d="M20.411,1.754c-0.026,0.399-0.051,0.799-0.079,1.198
		c-0.016,0.217-0.146,0.342-0.339,0.333c-0.19-0.009-0.313-0.146-0.302-0.367c0.021-0.429,0.053-0.856,0.081-1.285
		c0.016-0.229,0.149-0.369,0.341-0.358c0.192,0.011,0.306,0.159,0.303,0.392c0,0.028,0,0.057,0,0.085
		C20.414,1.754,20.412,1.754,20.411,1.754z"/>
	<path fill-rule="evenodd" clip-rule="evenodd" d="M5.726,15.493c-0.021,0.343-0.034,0.686-0.066,1.027
		c-0.025,0.262-0.252,0.411-0.447,0.288c-0.091-0.058-0.183-0.199-0.182-0.303c0.004-0.442,0.038-0.885,0.072-1.326
		c0.019-0.239,0.154-0.36,0.35-0.345c0.195,0.017,0.3,0.162,0.288,0.401c-0.005,0.086-0.012,0.171-0.018,0.257
		C5.724,15.493,5.725,15.493,5.726,15.493z"/>
	<path fill-rule="evenodd" clip-rule="evenodd" d="M22.168,2.999c-0.008,0.233-0.632,1.002-0.793,1.004
		c-0.107,0-0.26-0.043-0.311-0.121c-0.057-0.086-0.071-0.267-0.017-0.347c0.171-0.253,0.37-0.492,0.587-0.707
		c0.069-0.068,0.246-0.083,0.347-0.047C22.073,2.814,22.128,2.949,22.168,2.999z"/>
</g>
</svg>
