<?xml version="1.0" encoding="utf-8"?>
<!-- Generator: Adobe Illustrator 16.0.0, SVG Export Plug-In . SVG Version: 6.00 Build 0)  -->
<!DOCTYPE svg PUBLIC "-//W3C//DTD SVG 1.1//EN" "http://www.w3.org/Graphics/SVG/1.1/DTD/svg11.dtd">
<svg version="1.1" id="Layer_1" xmlns="http://www.w3.org/2000/svg" xmlns:xlink="http://www.w3.org/1999/xlink" x="0px" y="0px"
	 width="27px" height="24px" viewBox="0 0 27 24" enable-background="new 0 0 27 24" xml:space="preserve">
<rect fill="none" width="27" height="24"/>
<g>
	<path fill-rule="evenodd" clip-rule="evenodd" d="M6.111,19.264c-0.42,0-0.802,0.006-1.183-0.002
		c-0.325-0.007-0.544-0.204-0.563-0.487c-0.021-0.311,0.202-0.552,0.531-0.558c0.395-0.006,0.791-0.001,1.199-0.001
		c0-1.149,0-2.276,0-3.438c-0.224,0-0.449,0-0.675,0c-0.161,0-0.321,0.003-0.481-0.001c-0.346-0.007-0.573-0.215-0.575-0.521
		c-0.002-0.308,0.225-0.523,0.567-0.527c0.381-0.005,0.762-0.001,1.16-0.001c0-1.145,0-2.277,0-3.436
		c-0.397,0-0.792,0.005-1.187-0.001c-0.348-0.006-0.583-0.273-0.537-0.597c0.038-0.27,0.256-0.445,0.575-0.449
		c0.38-0.005,0.76-0.001,1.152-0.001c0-1.148,0-2.275,0-3.437c-0.293,0-0.588,0-0.883,0c-0.107,0-0.214,0.002-0.321-0.001
		c-0.3-0.011-0.515-0.213-0.527-0.494C4.352,5.021,4.556,4.787,4.866,4.769c0.282-0.016,0.565-0.005,0.847-0.006
		c0.122,0,0.243,0,0.398,0c0-0.271,0.005-0.528-0.001-0.785C6.098,3.461,6.138,2.954,6.383,2.486
		c0.464-0.889,1.193-1.383,2.198-1.459C8.68,1.019,8.779,1.016,8.878,1.016c4.032,0,8.064,0.002,12.096-0.002
		c1.039,0,1.846,0.413,2.39,1.305c0.27,0.443,0.354,0.933,0.354,1.448c-0.003,5.499,0,10.997-0.003,16.496
		c0,1.636-1.112,2.746-2.748,2.747c-3.322,0.003-6.645,0.002-9.966,0c-0.824,0-1.65,0.021-2.473-0.021
		c-1.314-0.066-2.366-1.167-2.415-2.487C6.098,20.099,6.111,19.695,6.111,19.264z M7.161,19.264c0,0.358,0,0.686,0,1.013
		c0.002,1.024,0.665,1.688,1.694,1.688c4.04,0.001,8.08,0.001,12.12,0c1.042,0,1.706-0.66,1.707-1.701
		c0.001-5.498,0.001-10.997-0.003-16.495c0-0.182-0.017-0.369-0.063-0.543c-0.195-0.737-0.81-1.166-1.657-1.166
		c-4.024-0.001-8.049,0-12.073,0c-0.122,0-0.244,0.008-0.365,0.023C7.894,2.161,7.328,2.625,7.224,3.241
		c-0.083,0.49-0.061,0.998-0.086,1.521c0.131,0,0.214,0,0.296,0c0.305,0,0.611-0.005,0.916,0.002
		C8.638,4.771,8.84,4.927,8.895,5.166c0.075,0.328-0.159,0.63-0.508,0.638C7.985,5.812,7.583,5.806,7.178,5.806
		c0,1.162,0,2.294,0,3.438c0.399,0,0.78-0.005,1.162,0.001c0.344,0.006,0.568,0.221,0.565,0.53
		c-0.002,0.302-0.222,0.513-0.551,0.517c-0.394,0.005-0.787,0.001-1.181,0.001c0,1.161,0,2.287,0,3.436
		c0.4,0,0.788-0.005,1.175,0.001c0.341,0.005,0.563,0.225,0.557,0.535c-0.006,0.299-0.227,0.508-0.559,0.512
		c-0.388,0.006-0.775,0.002-1.17,0.002c0,1.155,0,2.287,0,3.438c0.411,0,0.807-0.006,1.203,0.002
		c0.344,0.006,0.573,0.28,0.521,0.607c-0.042,0.259-0.254,0.432-0.563,0.437C7.955,19.269,7.574,19.264,7.161,19.264z"/>
	<path fill-rule="evenodd" clip-rule="evenodd" d="M14.903,17.251c-1.069,0-2.138,0-3.207-0.001c-0.487,0-0.68-0.202-0.659-0.688
		c0.08-1.877,1.281-3.364,3.042-3.766c2.193-0.501,4.384,1.031,4.672,3.27c0.022,0.174,0.041,0.349,0.046,0.523
		c0.012,0.463-0.182,0.661-0.641,0.661C17.072,17.251,15.987,17.251,14.903,17.251z M17.685,16.193
		c-0.005-1.255-1.321-2.422-2.745-2.441c-1.419-0.019-2.764,1.155-2.789,2.441C13.996,16.193,15.84,16.193,17.685,16.193z"/>
	<path fill-rule="evenodd" clip-rule="evenodd" d="M14.923,11.854c-1.4,0.003-2.539-1.127-2.542-2.523
		c-0.004-1.411,1.139-2.558,2.542-2.552c1.396,0.006,2.535,1.147,2.536,2.541C17.46,10.715,16.323,11.853,14.923,11.854z
		 M14.913,10.802c0.83,0.001,1.502-0.67,1.498-1.495c-0.004-0.814-0.676-1.483-1.489-1.486c-0.825-0.002-1.494,0.671-1.492,1.501
		C13.432,10.145,14.089,10.8,14.913,10.802z"/>
</g>
</svg>
