<?xml version="1.0" encoding="utf-8"?>
<!-- Generator: Adobe Illustrator 16.0.0, SVG Export Plug-In . SVG Version: 6.00 Build 0)  -->
<!DOCTYPE svg PUBLIC "-//W3C//DTD SVG 1.1//EN" "http://www.w3.org/Graphics/SVG/1.1/DTD/svg11.dtd">
<svg version="1.1" id="Layer_1" xmlns="http://www.w3.org/2000/svg" xmlns:xlink="http://www.w3.org/1999/xlink" x="0px" y="0px"
	 width="27px" height="24px" viewBox="0 0 27 24" enable-background="new 0 0 27 24" xml:space="preserve">
<rect fill="none" width="27" height="24"/>
<g>
	<path fill-rule="evenodd" clip-rule="evenodd" d="M16.021,1.006c0.13,0.037,0.259,0.071,0.388,0.11
		c1.049,0.316,1.779,1.268,1.789,2.393c0.015,1.847,0.006,3.695,0.003,5.542c-0.001,0.435-0.299,0.748-0.691,0.747
		c-0.396,0-0.681-0.31-0.682-0.751c-0.002-1.775,0-3.551-0.001-5.327c0-0.891-0.443-1.338-1.327-1.338c-3.408,0-6.816,0-10.224,0
		c-0.828,0-1.285,0.459-1.285,1.291c0,4.64,0,9.279,0,13.919c0,0.831,0.458,1.29,1.285,1.29c1.905,0.001,3.809-0.001,5.714,0.001
		c0.526,0.001,0.867,0.463,0.692,0.928c-0.106,0.281-0.355,0.446-0.69,0.446c-1.582,0.001-3.165,0.003-4.747-0.001
		c-0.486-0.001-0.979,0.029-1.458-0.035c-1.119-0.15-1.916-0.946-2.133-2.058c-0.007-0.033-0.025-0.064-0.038-0.098
		c0-4.955,0-9.911,0-14.867c0.015-0.046,0.033-0.092,0.043-0.139c0.187-0.86,0.676-1.481,1.481-1.84
		c0.212-0.094,0.444-0.143,0.667-0.212C8.544,1.006,12.283,1.006,16.021,1.006z"/>
	<path fill-rule="evenodd" clip-rule="evenodd" d="M18.169,23.006c-0.411-0.085-0.83-0.145-1.233-0.26
		c-2.208-0.629-3.928-2.667-4.185-4.938c-0.356-3.148,1.591-5.891,4.68-6.59c3.239-0.733,6.593,1.552,7.1,4.836
		c0.025,0.169,0.057,0.338,0.085,0.506c0,0.33,0,0.659,0,0.988c-0.014,0.048-0.031,0.094-0.038,0.143
		c-0.357,2.49-1.721,4.169-4.088,5.015c-0.425,0.152-0.887,0.203-1.332,0.3C18.828,23.006,18.499,23.006,18.169,23.006z
		 M14.078,17.042c-0.004,2.525,2.039,4.58,4.562,4.589c2.529,0.009,4.597-2.048,4.6-4.577c0.004-2.523-2.038-4.573-4.566-4.585
		C16.139,12.457,14.081,14.505,14.078,17.042z"/>
	<path fill-rule="evenodd" clip-rule="evenodd" d="M10.42,8.343c1.431,0,2.863-0.002,4.295,0.001
		c0.504,0.001,0.833,0.408,0.704,0.865c-0.076,0.271-0.262,0.438-0.54,0.489c-0.092,0.017-0.186,0.018-0.278,0.019
		c-2.798,0-5.597,0-8.396,0c-0.085,0-0.172,0-0.256-0.015C5.583,9.641,5.338,9.329,5.367,8.97C5.395,8.622,5.675,8.35,6.04,8.347
		c0.816-0.007,1.632-0.003,2.448-0.003C9.131,8.343,9.776,8.343,10.42,8.343z"/>
	<path fill-rule="evenodd" clip-rule="evenodd" d="M8.589,12.006c0.808,0,1.616-0.001,2.424,0c0.456,0,0.763,0.279,0.763,0.688
		c0,0.408-0.307,0.687-0.763,0.687c-1.631,0.001-3.261,0.001-4.892,0c-0.439,0-0.75-0.281-0.755-0.678
		c-0.006-0.407,0.305-0.696,0.756-0.696C6.944,12.005,7.767,12.006,8.589,12.006z"/>
	<path fill-rule="evenodd" clip-rule="evenodd" d="M8.108,6.042c-0.694,0-1.389,0.006-2.083-0.002
		C5.708,6.036,5.451,5.811,5.38,5.508C5.313,5.221,5.453,4.899,5.721,4.762c0.093-0.048,0.204-0.086,0.306-0.086
		c1.389-0.006,2.778-0.009,4.167-0.001c0.322,0.002,0.559,0.209,0.645,0.507c0.079,0.273-0.016,0.58-0.27,0.731
		c-0.133,0.079-0.307,0.123-0.463,0.126C9.44,6.052,8.774,6.044,8.108,6.044C8.108,6.043,8.108,6.043,8.108,6.042z"/>
	<path fill-rule="evenodd" clip-rule="evenodd" d="M19.34,17.732c0,0.593,0.002,1.15-0.001,1.707
		c-0.001,0.113-0.002,0.232-0.033,0.339c-0.086,0.296-0.381,0.493-0.688,0.477c-0.299-0.017-0.562-0.233-0.625-0.528
		c-0.022-0.104-0.026-0.213-0.026-0.319c-0.003-0.55-0.001-1.099-0.001-1.675c-0.3,0-0.576,0-0.854,0
		c-0.314-0.001-0.63,0.003-0.944-0.002c-0.417-0.006-0.708-0.281-0.715-0.668c-0.006-0.399,0.281-0.696,0.706-0.703
		c0.558-0.009,1.116-0.002,1.674-0.003c0.034,0,0.069-0.006,0.132-0.012c0-0.082,0-0.158,0-0.234
		c0.001-0.508-0.003-1.016,0.002-1.523c0.004-0.443,0.286-0.742,0.688-0.742c0.404,0,0.682,0.297,0.684,0.742
		c0.004,0.578,0.001,1.157,0.001,1.757c0.093,0.005,0.168,0.013,0.243,0.013c0.522,0.001,1.045-0.004,1.567,0.003
		c0.348,0.005,0.597,0.197,0.688,0.509c0.079,0.273-0.016,0.578-0.269,0.731c-0.127,0.077-0.292,0.122-0.441,0.126
		c-0.508,0.016-1.016,0.006-1.524,0.007C19.526,17.732,19.449,17.732,19.34,17.732z"/>
</g>
</svg>
