<?xml version="1.0" encoding="utf-8"?>
<!-- Generator: Adobe Illustrator 16.0.0, SVG Export Plug-In . SVG Version: 6.00 Build 0)  -->
<!DOCTYPE svg PUBLIC "-//W3C//DTD SVG 1.1//EN" "http://www.w3.org/Graphics/SVG/1.1/DTD/svg11.dtd">
<svg version="1.1" id="Layer_1" xmlns="http://www.w3.org/2000/svg" xmlns:xlink="http://www.w3.org/1999/xlink" x="0px" y="0px"
	 width="27px" height="24px" viewBox="0 0 27 24" enable-background="new 0 0 27 24" xml:space="preserve">
<rect fill="none" width="27" height="24"/>
<g>
	<path fill-rule="evenodd" clip-rule="evenodd" d="M-179.25,5.257c0.879-3.608,1.573-7.273,2.667-10.815
		c7.635-24.739,29.49-41.181,55.936-42.182c1.123-0.042,2.247-0.056,3.371-0.056c86.668-0.003,173.337-0.074,260.007,0.041
		c26.524,0.035,45.852,12.085,57.031,36.279c2.414,5.223,3.333,11.137,4.94,16.733c0,4.5,0,8.999,0,13.499
		c-0.608,2.646-1.161,5.305-1.835,7.935c-6.695,26.115-29.137,43.919-56.775,45.06c-1.121,0.047-2.246,0.059-3.369,0.059
		c-86.666,0.003-173.332,0.079-259.998-0.044c-26.508-0.038-45.852-12.082-57.034-36.273c-2.415-5.224-3.333-11.139-4.941-16.735
		C-179.25,14.256-179.25,9.756-179.25,5.257z M12.717-39.12c-44.106,0-88.213-0.16-132.319,0.051
		c-35.446,0.169-59.757,34.509-48.323,67.808c7.22,21.023,26.497,34.383,49.833,34.389c87.213,0.023,174.427,0.01,261.641,0.006
		c1.374,0,2.749-0.019,4.122-0.066c30.286-1.061,53.544-30.437,47.667-60.2c-4.924-24.943-25.229-41.897-50.677-41.958
		C100.68-39.198,56.698-39.122,12.717-39.12z"/>
	<path fill-rule="evenodd" clip-rule="evenodd" d="M150.295,31.684c-11.264,7.123-22.303,8.107-33.416,1.596
		C102.785,25.02,98.177,6.884,106.353-7.18c8.286-14.255,26.449-19.151,40.667-10.962c14.158,8.154,19.281,26.106,11.148,40.253
		c-1.768,3.075-1.339,4.644,1.107,6.778c3.285,2.865,6.223,6.129,9.314,9.217c2.012,2.011,2.861,4.348,0.717,6.581
		c-2.306,2.403-4.729,1.529-6.838-0.616C158.451,39.984,154.438,35.898,150.295,31.684z M110.912,7.534
		c-0.054,8.822,4.984,17.013,13.257,19.773c3.95,1.318,8.538,1.379,12.761,1.043c3.969-0.318,7.662-2.137,9.357-6.375
		c0.158-0.395,0.795-0.576,1.148-0.918c1.288-1.25,2.959-2.313,3.756-3.829c4.104-7.809,2.653-17.382-3.388-23.96
		c-5.862-6.383-15.169-8.536-23.3-5.388C116.299-8.945,110.966-1.232,110.912,7.534z"/>
</g>
<g>
	<path fill-rule="evenodd" clip-rule="evenodd" d="M-178.25,6.257c0.879-3.608,1.573-7.273,2.667-10.815
		c7.635-24.739,29.49-41.181,55.936-42.182c1.123-0.042,2.247-0.056,3.371-0.056c86.668-0.003,173.337-0.074,260.007,0.041
		c26.524,0.035,45.852,12.085,57.031,36.279c2.414,5.223,3.333,11.137,4.94,16.733c0,4.5,0,8.999,0,13.499
		c-0.608,2.646-1.161,5.305-1.835,7.935c-6.695,26.115-29.137,43.919-56.775,45.06c-1.121,0.047-2.246,0.059-3.369,0.059
		c-86.666,0.003-173.332,0.079-259.998-0.044c-26.508-0.038-45.852-12.082-57.034-36.273c-2.415-5.224-3.333-11.139-4.941-16.735
		C-178.25,15.256-178.25,10.756-178.25,6.257z M13.717-38.12c-44.106,0-88.213-0.16-132.319,0.051
		c-35.446,0.169-59.757,34.509-48.323,67.808c7.22,21.023,26.497,34.383,49.833,34.389c87.213,0.023,174.427,0.01,261.641,0.006
		c1.374,0,2.749-0.019,4.122-0.066c30.286-1.061,53.544-30.437,47.667-60.2c-4.924-24.943-25.229-41.897-50.677-41.958
		C101.68-38.198,57.698-38.122,13.717-38.12z"/>
	<path fill-rule="evenodd" clip-rule="evenodd" d="M151.295,32.684c-11.264,7.123-22.303,8.107-33.416,1.596
		C103.785,26.02,99.177,7.884,107.353-6.18c8.286-14.255,26.449-19.151,40.667-10.962c14.158,8.154,19.281,26.106,11.148,40.253
		c-1.768,3.075-1.339,4.644,1.107,6.778c3.285,2.865,6.223,6.129,9.314,9.217c2.012,2.011,2.861,4.348,0.717,6.581
		c-2.306,2.403-4.729,1.529-6.838-0.616C159.451,40.984,155.438,36.898,151.295,32.684z M111.912,8.534
		c-0.054,8.822,4.984,17.013,13.257,19.773c3.95,1.318,8.538,1.379,12.761,1.043c3.969-0.318,7.662-2.137,9.357-6.375
		c0.158-0.395,0.795-0.576,1.148-0.918c1.288-1.25,2.959-2.313,3.756-3.829c4.104-7.809,2.653-17.382-3.388-23.96
		c-5.862-6.383-15.169-8.536-23.3-5.388C117.299-7.945,111.966-0.232,111.912,8.534z"/>
</g>
<g>
	<path fill-rule="evenodd" clip-rule="evenodd" d="M1.5,4.195c0.03-0.061,0.06-0.122,0.087-0.184c0.209-0.474,0.573-0.744,1.09-0.75
		C3.966,3.25,5.255,3.257,6.544,3.259c0.256,0,0.406,0.138,0.404,0.354c-0.001,0.214-0.151,0.347-0.41,0.347
		C5.304,3.962,4.069,3.96,2.835,3.961c-0.468,0-0.632,0.166-0.632,0.637c0,1.688,0,3.375,0,5.063c0,0.455,0.169,0.628,0.617,0.628
		c5.53,0,11.062,0,16.592,0c0.067,0,0.137,0,0.229,0c0-0.496-0.001-0.97,0-1.444c0-0.936,0.568-1.508,1.497-1.509
		c0.844-0.001,1.688-0.008,2.532,0.004c0.368,0.005,0.736,0.051,1.127,0.081c0-0.127,0-0.311,0-0.496c0-0.781,0-1.563-0.001-2.343
		c0-0.45-0.171-0.621-0.624-0.621c-5.258,0-10.515,0-15.772,0c-0.381,0-0.551-0.109-0.551-0.353c0-0.243,0.17-0.35,0.553-0.35
		c5.21,0,10.421,0,15.632,0c0.857,0,1.141,0.19,1.466,0.984c0,2.609,0,5.219,0,7.828c-0.118,0.246-0.236,0.491-0.343,0.71
		c0.113,0.233,0.229,0.464,0.343,0.696c0,1.922,0,3.844,0,5.766c-0.148,0.486-0.431,0.844-0.954,0.955
		c-0.099,0.021-0.201,0.027-0.302,0.027c-2,0.002-4,0.002-6,0.002c-0.038,0-0.078,0.002-0.117-0.002
		c-0.2-0.02-0.343-0.16-0.346-0.346c-0.003-0.184,0.14-0.334,0.337-0.354c0.07-0.006,0.142-0.002,0.212-0.002
		c1.944,0,3.89,0,5.835,0c0.467,0,0.632-0.168,0.632-0.637c0.001-1.688,0.001-3.375,0-5.063c0-0.465-0.168-0.629-0.64-0.629
		c-7.101,0-14.202,0-21.303,0c-0.487,0-0.651,0.16-0.651,0.641c0,1.68,0,3.359,0,5.039c0,0.486,0.162,0.648,0.645,0.648
		c4.445,0,8.89,0,13.333,0c0.087,0,0.174-0.008,0.258,0.006c0.195,0.029,0.311,0.148,0.31,0.348
		c-0.002,0.201-0.119,0.316-0.315,0.346c-0.076,0.012-0.156,0.004-0.234,0.004c-4.382,0-8.765-0.01-13.146,0.01
		C2.302,20.24,1.764,20.021,1.5,19.289c0-1.953,0-3.906,0-5.859c0.263-0.732,0.802-0.949,1.552-0.947
		c5.483,0.018,10.966,0.011,16.449,0.011c0.093,0,0.186,0,0.227,0c-0.041-0.503-0.081-0.993-0.123-1.501c-0.083,0-0.176,0-0.267,0
		c-4.882,0-9.764,0-14.645,0c-0.656,0-1.313,0.003-1.969-0.001c-0.55-0.003-0.969-0.302-1.165-0.817
		c-0.015-0.041-0.04-0.079-0.06-0.119C1.5,8.102,1.5,6.148,1.5,4.195z M22.583,8.039c-0.492,0-0.984-0.001-1.477,0
		c-0.485,0.002-0.76,0.271-0.761,0.75c-0.004,0.984-0.004,1.968,0,2.953c0.001,0.478,0.277,0.749,0.761,0.75
		c0.976,0.001,1.952,0.001,2.929,0c0.484-0.001,0.761-0.273,0.762-0.75c0.002-0.984,0.002-1.968,0-2.953
		c-0.001-0.478-0.276-0.747-0.761-0.75C23.552,8.037,23.066,8.039,22.583,8.039z"/>
	<path fill-rule="evenodd" clip-rule="evenodd" d="M23.365,16.355c0.002,1.355-1.102,2.463-2.456,2.463
		c-1.354,0.002-2.458-1.1-2.46-2.457c-0.002-1.355,1.102-2.461,2.455-2.463C22.259,13.898,23.361,15,23.365,16.355z M22.393,17.258
		c0.475-0.646,0.312-1.676-0.352-2.24c-0.696-0.592-1.733-0.547-2.383,0.105c-0.57,0.574-0.682,1.607-0.23,2.131
		c0.182-0.119,0.363-0.238,0.553-0.363c-0.218-0.523-0.172-0.998,0.291-1.369c0.351-0.279,0.838-0.299,1.204-0.045
		c0.525,0.365,0.583,0.865,0.36,1.418C22.03,17.021,22.211,17.141,22.393,17.258z M21.892,17.793
		c-0.571-0.506-1.478-0.5-1.955,0.002C20.44,18.221,21.32,18.225,21.892,17.793z M20.905,16.709c0.187,0,0.34-0.15,0.347-0.338
		c0.007-0.197-0.148-0.361-0.345-0.363c-0.186,0-0.34,0.15-0.346,0.338C20.555,16.545,20.71,16.707,20.905,16.709z"/>
	<path fill-rule="evenodd" clip-rule="evenodd" d="M9.467,16.711c-1.561,0-3.122,0-4.683,0c-0.078,0-0.159,0.008-0.233-0.008
		c-0.18-0.039-0.29-0.152-0.289-0.344c0-0.193,0.109-0.305,0.29-0.344C4.626,16,4.707,16.008,4.785,16.008c3.122,0,6.244,0,9.366,0
		c0.07,0,0.142-0.006,0.21,0.004c0.195,0.031,0.313,0.146,0.313,0.348s-0.118,0.314-0.313,0.346c-0.068,0.012-0.14,0.006-0.21,0.006
		C12.589,16.711,11.028,16.711,9.467,16.711z"/>
	<path fill-rule="evenodd" clip-rule="evenodd" d="M9.493,17.414c1.553,0,3.106,0,4.66,0c0.07,0,0.141-0.006,0.21,0.004
		c0.194,0.033,0.312,0.148,0.31,0.35s-0.121,0.314-0.314,0.346c-0.068,0.01-0.141,0.004-0.211,0.004c-3.121,0-6.243,0-9.365,0
		c-0.078,0-0.159,0.008-0.233-0.01c-0.181-0.039-0.288-0.152-0.287-0.344c0.001-0.193,0.111-0.305,0.291-0.342
		c0.076-0.016,0.155-0.008,0.234-0.008C6.356,17.414,7.925,17.414,9.493,17.414z"/>
	<path fill-rule="evenodd" clip-rule="evenodd" d="M7.337,14.602c0.874,0,1.748,0,2.622-0.002c0.211,0,0.37,0.07,0.411,0.295
		c0.043,0.234-0.118,0.406-0.389,0.408C9.52,15.307,9.06,15.305,8.6,15.305c-1.295,0-2.591,0.004-3.886-0.006
		c-0.127-0.002-0.286-0.053-0.37-0.141c-0.067-0.068-0.093-0.254-0.046-0.336c0.059-0.102,0.208-0.203,0.323-0.211
		c0.436-0.023,0.874-0.01,1.311-0.01C6.4,14.602,6.868,14.602,7.337,14.602z"/>
	<path fill-rule="evenodd" clip-rule="evenodd" d="M8.035,7.15C8.013,8.525,6.898,9.608,5.529,9.585
		C4.188,9.562,3.099,8.437,3.122,7.1c0.022-1.375,1.136-2.458,2.506-2.434C6.968,4.688,8.058,5.812,8.035,7.15z M4.647,7.66
		C4.441,7.035,4.535,6.6,4.933,6.293c0.363-0.28,0.845-0.297,1.226-0.046c0.443,0.294,0.546,0.701,0.356,1.419
		c0.183,0.119,0.368,0.24,0.554,0.359c0.464-0.703,0.3-1.691-0.366-2.25C6.022,5.205,5.02,5.237,4.372,5.849
		C3.768,6.421,3.64,7.417,4.093,8.023C4.274,7.905,4.456,7.786,4.647,7.66z M6.563,8.565C6.009,8.046,4.985,8.061,4.609,8.578
		C5.202,8.987,5.972,8.986,6.563,8.565z M5.568,6.775C5.372,6.781,5.222,6.948,5.234,7.147C5.245,7.334,5.403,7.48,5.588,7.475
		C5.783,7.469,5.934,7.3,5.922,7.104C5.912,6.916,5.754,6.77,5.568,6.775z"/>
	<path fill-rule="evenodd" clip-rule="evenodd" d="M16.437,5.367c1.849,0,3.699,0,5.549,0c0.079,0,0.159-0.009,0.233,0.008
		c0.181,0.04,0.289,0.153,0.287,0.345c-0.001,0.192-0.11,0.303-0.289,0.343c-0.068,0.015-0.141,0.007-0.211,0.007
		c-3.708,0-7.416,0-11.124,0c-0.07,0-0.142,0.007-0.21-0.006c-0.194-0.037-0.307-0.162-0.3-0.358
		c0.006-0.185,0.119-0.302,0.304-0.333c0.076-0.013,0.155-0.005,0.233-0.005C12.751,5.367,14.594,5.367,16.437,5.367z"/>
	<path fill-rule="evenodd" clip-rule="evenodd" d="M14.32,7.477c-1.14,0-2.28,0-3.42,0c-0.062,0-0.125,0.003-0.187-0.002
		c-0.202-0.018-0.344-0.162-0.347-0.345c-0.002-0.183,0.14-0.333,0.337-0.354c0.047-0.005,0.094-0.002,0.141-0.002
		c2.319,0,4.639,0,6.957,0c0.063,0,0.127-0.007,0.188,0.007c0.18,0.039,0.291,0.149,0.294,0.34c0.002,0.191-0.106,0.305-0.285,0.347
		c-0.076,0.017-0.156,0.009-0.234,0.009C16.616,7.477,15.468,7.477,14.32,7.477z"/>
	<path fill-rule="evenodd" clip-rule="evenodd" d="M14.319,8.883c-1.14,0-2.28,0-3.42,0c-0.07,0-0.142,0.005-0.21-0.004
		c-0.197-0.028-0.316-0.149-0.318-0.344c-0.002-0.195,0.115-0.318,0.312-0.35c0.053-0.009,0.109-0.005,0.164-0.005
		c2.318,0,4.637,0,6.958,0c0.062,0,0.126-0.007,0.186,0.007c0.181,0.039,0.292,0.15,0.294,0.34c0.002,0.192-0.107,0.306-0.286,0.347
		c-0.075,0.017-0.156,0.008-0.234,0.008C16.615,8.883,15.467,8.883,14.319,8.883z"/>
	<path fill-rule="evenodd" clip-rule="evenodd" d="M22.242,10.895c0.068,0.092,0.109,0.144,0.147,0.199
		c0.123,0.18,0.103,0.385-0.05,0.504c-0.15,0.118-0.356,0.098-0.499-0.069c-0.213-0.248-0.419-0.504-0.622-0.761
		c-0.115-0.146-0.115-0.304,0.001-0.451c0.209-0.262,0.418-0.524,0.639-0.777c0.14-0.161,0.328-0.173,0.479-0.054
		c0.146,0.114,0.175,0.311,0.066,0.482c-0.041,0.063-0.088,0.123-0.155,0.216c0.225,0,0.416,0.017,0.604-0.004
		c0.257-0.028,0.431-0.232,0.445-0.493c0.009-0.155-0.004-0.313,0.007-0.468c0.013-0.217,0.16-0.361,0.354-0.36
		c0.197,0.001,0.34,0.144,0.344,0.364c0.003,0.226,0.018,0.457-0.021,0.676c-0.104,0.577-0.603,0.981-1.194,0.995
		C22.619,10.898,22.452,10.895,22.242,10.895z"/>
</g>
</svg>
