<?xml version="1.0" encoding="utf-8"?>
<!-- Generator: Adobe Illustrator 16.0.0, SVG Export Plug-In . SVG Version: 6.00 Build 0)  -->
<!DOCTYPE svg PUBLIC "-//W3C//DTD SVG 1.1//EN" "http://www.w3.org/Graphics/SVG/1.1/DTD/svg11.dtd">
<svg version="1.1" id="Layer_1" xmlns="http://www.w3.org/2000/svg" xmlns:xlink="http://www.w3.org/1999/xlink" x="0px" y="0px"
	 width="27px" height="24px" viewBox="0 0 27 24" enable-background="new 0 0 27 24" xml:space="preserve">
<rect fill="none" width="27" height="24"/>
<g>
	<path fill-rule="evenodd" clip-rule="evenodd" d="M13.546,1.006c2.22,0,4.44,0,6.66,0c0.025,0.012,0.049,0.03,0.075,0.035
		C21.236,1.226,21.92,1.9,22.059,2.86c0.056,0.385,0.01,0.784,0.01,1.152c0.056,0.038,0.072,0.053,0.092,0.061
		c0.965,0.428,1.406,1.176,1.401,2.224c-0.011,1.897-0.015,3.794,0.002,5.691c0.008,0.764-0.25,1.379-0.791,1.917
		c-2.706,2.69-5.403,5.388-8.094,8.094c-0.473,0.477-0.962,0.896-1.648,1.007c-0.187,0-0.372,0-0.559,0
		c-0.701-0.119-1.194-0.558-1.675-1.044c-1.523-1.544-3.063-3.071-4.597-4.604c-0.354-0.354-0.709-0.707-1.063-1.063
		c-0.416-0.42-0.706-0.931-0.638-1.514c0.057-0.497-0.145-0.784-0.476-1.065c-0.152-0.129-0.295-0.272-0.421-0.428
		c-0.135-0.165-0.267-0.339-0.361-0.528c-0.431-0.872-0.243-1.836,0.493-2.572c2.722-2.724,5.449-5.442,8.164-8.173
		C12.371,1.539,12.859,1.118,13.546,1.006z M22.098,9.156c0-0.974,0.001-1.948,0-2.922c0-0.569-0.274-0.846-0.839-0.846
		c-1.948,0-3.896,0.003-5.844-0.004c-0.301-0.001-0.532,0.093-0.745,0.305c-2.812,2.819-5.628,5.633-8.443,8.45
		c-0.391,0.391-0.393,0.788-0.004,1.177c1.98,1.98,3.96,3.96,5.94,5.939c0.391,0.392,0.791,0.396,1.178,0.009
		c2.826-2.824,5.65-5.651,8.479-8.475c0.195-0.195,0.283-0.414,0.281-0.69C22.094,11.118,22.098,10.137,22.098,9.156z M5.352,12.998
		c0.075-0.096,0.122-0.17,0.182-0.229c2.698-2.7,5.399-5.396,8.093-8.1c0.504-0.506,1.09-0.751,1.806-0.746
		c1.646,0.012,3.293,0.004,4.94,0.004c0.083,0,0.166,0,0.266,0c0-0.219,0-0.411,0-0.603c-0.001-0.583-0.271-0.856-0.851-0.856
		c-1.934,0-3.867,0.005-5.8-0.004c-0.325-0.001-0.571,0.099-0.801,0.329C10.392,5.597,7.59,8.395,4.79,11.195
		c-0.035,0.035-0.072,0.07-0.105,0.107c-0.275,0.299-0.281,0.71-0.005,1.008C4.884,12.53,5.099,12.74,5.352,12.998z"/>
	<path fill-rule="evenodd" clip-rule="evenodd" d="M18.441,6.849c1.209-0.002,2.189,0.968,2.195,2.173
		c0.006,1.212-0.981,2.206-2.19,2.205c-1.195-0.001-2.187-0.993-2.188-2.189C16.257,7.837,17.241,6.851,18.441,6.849z M18.459,8.309
		c-0.408-0.004-0.741,0.324-0.74,0.728c0,0.393,0.328,0.724,0.722,0.73c0.4,0.007,0.736-0.328,0.736-0.732
		C19.176,8.633,18.858,8.313,18.459,8.309z"/>
</g>
</svg>
