<?xml version="1.0" encoding="utf-8"?>
<!-- Generator: Adobe Illustrator 16.0.0, SVG Export Plug-In . SVG Version: 6.00 Build 0)  -->
<!DOCTYPE svg PUBLIC "-//W3C//DTD SVG 1.1//EN" "http://www.w3.org/Graphics/SVG/1.1/DTD/svg11.dtd">
<svg version="1.1" id="Layer_1" xmlns="http://www.w3.org/2000/svg" xmlns:xlink="http://www.w3.org/1999/xlink" x="0px" y="0px"
	 width="27px" height="24px" viewBox="0 0 27 24" enable-background="new 0 0 27 24" xml:space="preserve">
<rect fill="none" width="27" height="24"/>
<g>
	<path fill-rule="evenodd" clip-rule="evenodd" d="M2.683,12.688c0-0.459,0-0.917,0-1.375c0.07-0.487,0.123-0.978,0.213-1.461
		c0.818-4.38,4.477-7.959,8.87-8.682C12.174,1.103,12.585,1.057,12.996,1c0.458,0,0.917,0,1.375,0
		c0.055,0.012,0.109,0.027,0.165,0.036c0.564,0.087,1.138,0.14,1.693,0.267c4.236,0.969,7.57,4.516,8.287,8.801
		c0.066,0.401,0.111,0.806,0.167,1.209c0,0.458,0,0.917,0,1.375c-0.013,0.055-0.028,0.109-0.036,0.166
		c-0.075,0.509-0.122,1.023-0.227,1.526c-0.882,4.265-4.528,7.754-8.821,8.45c-0.408,0.066-0.819,0.113-1.229,0.169
		c-0.459,0-0.917,0-1.375,0c-0.048-0.011-0.095-0.026-0.144-0.034c-0.502-0.073-1.009-0.121-1.505-0.221
		c-4.265-0.854-7.795-4.519-8.492-8.807C2.788,13.523,2.74,13.105,2.683,12.688z M23.394,11.993
		c-0.006-5.366-4.356-9.709-9.717-9.704c-5.365,0.006-9.71,4.356-9.705,9.717c0.005,5.363,4.358,9.71,9.717,9.704
		C19.055,21.705,23.4,17.354,23.394,11.993z"/>
	<path fill-rule="evenodd" clip-rule="evenodd" d="M8.424,11.986c0-0.443-0.017-0.887,0.003-1.33
		c0.048-1.048,0.836-1.849,1.833-1.882c1.064-0.035,1.946,0.678,2.012,1.749c0.063,1.018,0.055,2.047-0.017,3.064
		c-0.068,0.973-0.974,1.669-1.979,1.639c-0.959-0.028-1.782-0.802-1.839-1.76c-0.029-0.492-0.005-0.986-0.005-1.48
		C8.429,11.986,8.427,11.986,8.424,11.986z M9.709,12.001c0,0.407-0.012,0.815,0.006,1.223c0.007,0.156,0.054,0.327,0.136,0.459
		c0.145,0.232,0.447,0.313,0.703,0.228c0.283-0.093,0.455-0.329,0.456-0.655c0.004-0.822,0.003-1.645,0.001-2.467
		c-0.001-0.433-0.264-0.724-0.647-0.727c-0.386-0.003-0.65,0.283-0.654,0.717C9.706,11.186,9.709,11.593,9.709,12.001z"/>
	<path fill-rule="evenodd" clip-rule="evenodd" d="M17.92,11.988c0-0.443-0.017-0.888,0.003-1.33
		c0.048-1.049,0.836-1.85,1.831-1.884c1.064-0.036,1.947,0.676,2.014,1.748c0.064,1.018,0.055,2.046-0.016,3.064
		c-0.068,0.974-0.973,1.67-1.979,1.641c-0.959-0.027-1.783-0.801-1.84-1.758c-0.029-0.492-0.005-0.987-0.005-1.48
		C17.926,11.988,17.923,11.988,17.92,11.988z M19.205,12.003c0,0.407-0.013,0.815,0.006,1.223c0.008,0.155,0.056,0.327,0.138,0.459
		c0.146,0.231,0.447,0.311,0.703,0.226c0.282-0.094,0.453-0.33,0.455-0.657c0.004-0.822,0.003-1.645,0-2.467
		c-0.001-0.433-0.265-0.723-0.648-0.725c-0.386-0.002-0.648,0.283-0.652,0.719C19.202,11.187,19.205,11.595,19.205,12.003z"/>
	<path fill-rule="evenodd" clip-rule="evenodd" d="M17.038,10.697c-0.433,0-0.845,0-1.257,0c-0.037-0.104-0.063-0.208-0.11-0.3
		c-0.133-0.257-0.427-0.387-0.709-0.324c-0.276,0.063-0.499,0.306-0.501,0.597c-0.008,0.888-0.011,1.776,0,2.664
		c0.006,0.35,0.308,0.61,0.654,0.606c0.349-0.005,0.622-0.27,0.635-0.626c0.008-0.214,0.001-0.428,0.001-0.665
		c-0.216,0-0.419,0-0.635,0c0-0.436,0-0.848,0-1.277c0.631,0,1.264,0,1.926,0c0,0.124,0,0.25,0,0.375
		c-0.001,0.529,0.008,1.06-0.004,1.589c-0.021,0.963-0.74,1.763-1.679,1.881c-0.967,0.121-1.87-0.481-2.121-1.425
		c-0.043-0.164-0.067-0.338-0.068-0.508c-0.007-0.859-0.009-1.718-0.002-2.577c0.008-0.999,0.771-1.845,1.726-1.929
		c1.05-0.092,1.942,0.585,2.123,1.613C17.034,10.488,17.031,10.588,17.038,10.697z"/>
	<path fill-rule="evenodd" clip-rule="evenodd" d="M9.169,7.454c0-0.426,0-0.838,0-1.263c3.013,0,6.015,0,9.027,0
		c0,0.426,0,0.838,0,1.263C15.184,7.454,12.182,7.454,9.169,7.454z"/>
	<path fill-rule="evenodd" clip-rule="evenodd" d="M9.17,17.809c0-0.427,0-0.839,0-1.262c3.014,0,6.016,0,9.026,0
		c0,0.427,0,0.839,0,1.262C15.183,17.809,12.181,17.809,9.17,17.809z"/>
	<path fill-rule="evenodd" clip-rule="evenodd" d="M8.138,15.22c-0.858,0-1.7,0-2.556,0c0-2.147,0-4.284,0-6.435
		c0.419,0,0.832,0,1.267,0c0,1.707,0,3.414,0,5.15c0.44,0,0.857,0,1.289,0C8.138,14.375,8.138,14.786,8.138,15.22z"/>
	<path fill-rule="evenodd" clip-rule="evenodd" d="M15.609,3.602c0,0.426,0,0.838,0,1.262c-1.287,0-2.563,0-3.851,0
		c0-0.421,0-0.833,0-1.262C13.036,3.602,14.312,3.602,15.609,3.602z"/>
	<path fill-rule="evenodd" clip-rule="evenodd" d="M15.604,20.403c-1.284,0-2.56,0-3.847,0c0-0.424,0-0.835,0-1.262
		c1.28,0,2.557,0,3.847,0C15.604,19.558,15.604,19.975,15.604,20.403z"/>
</g>
</svg>
