<?xml version="1.0" encoding="utf-8"?>
<!-- Generator: Adobe Illustrator 16.0.0, SVG Export Plug-In . SVG Version: 6.00 Build 0)  -->
<!DOCTYPE svg PUBLIC "-//W3C//DTD SVG 1.1//EN" "http://www.w3.org/Graphics/SVG/1.1/DTD/svg11.dtd">
<svg version="1.1" id="Layer_1" xmlns="http://www.w3.org/2000/svg" xmlns:xlink="http://www.w3.org/1999/xlink" x="0px" y="0px"
	 width="27px" height="24px" viewBox="0 0 27 24" enable-background="new 0 0 27 24" xml:space="preserve">
<rect fill="none" width="27" height="24"/>
<g>
	<path fill-rule="evenodd" clip-rule="evenodd" d="M19.685,12c0,0.396,0,0.767,0,1.138c0.768-0.078,1.114,0.102,1.423,0.746
		c0.681-0.15,1.187,0.074,1.464,0.723c0.186-0.01,0.362-0.045,0.532-0.023c0.582,0.074,0.968,0.523,0.969,1.117
		c0.003,1.543,0.004,3.086-0.004,4.627c-0.001,0.129-0.069,0.258-0.11,0.385c-0.012,0.035-0.038,0.066-0.063,0.096
		c-0.438,0.506-0.65,1.076-0.563,1.76c0.038,0.291-0.131,0.43-0.433,0.43c-1.664,0.002-3.329,0.002-4.994,0
		c-0.297,0-0.458-0.139-0.426-0.438c0.067-0.607-0.122-1.094-0.572-1.502c-0.389-0.352-0.589-0.814-0.752-1.309
		c-0.398-1.217-0.828-2.424-1.243-3.635c-0.202-0.588-0.006-0.955,0.598-1.121c0.782-0.215,1.228-0.002,1.557,0.738
		c0.114,0.256,0.24,0.508,0.39,0.822c0-1.553,0-3.041,0-4.543C17.39,12.007,17.323,12,17.257,12
		c-0.534-0.001-1.068,0.004-1.604-0.002c-0.63-0.007-1.11-0.474-1.11-1.099c-0.004-2.932-0.004-5.865,0-8.797
		c0-0.625,0.48-1.099,1.109-1.1c2.681-0.003,5.361-0.003,8.042,0c0.629,0.001,1.108,0.473,1.109,1.099
		c0.005,2.933,0.005,5.865,0,8.797c-0.001,0.627-0.479,1.097-1.11,1.1C22.449,12.003,21.204,12,19.959,12
		C19.876,12,19.792,12,19.685,12z M19.667,11.267c0.102,0,0.176,0,0.25,0c1.215,0,2.429,0,3.643,0c0.403,0,0.514-0.111,0.514-0.519
		c0-2.825,0-5.651,0-8.477c0-0.436-0.103-0.538-0.54-0.538c-2.573,0-5.146,0-7.721,0c-0.438,0-0.539,0.101-0.539,0.538
		c0,2.818,0,5.636,0,8.454c0,0.069-0.005,0.138,0.004,0.206c0.025,0.189,0.138,0.324,0.326,0.328
		c0.616,0.013,1.232,0.005,1.868,0.005c-0.006-0.361-0.008-0.707,0.216-0.998c0.222-0.29,0.511-0.455,0.879-0.463
		c0.27-0.006,0.507,0.088,0.715,0.26C19.656,10.374,19.705,10.798,19.667,11.267z M22.649,22.258
		c-0.25-0.74,0.217-1.219,0.562-1.744c0.018-0.025,0.041-0.047,0.051-0.076c0.028-0.084,0.074-0.168,0.075-0.254
		c0.004-1.48,0.004-2.963,0.002-4.443c0-0.27-0.144-0.436-0.362-0.439c-0.223-0.002-0.367,0.162-0.369,0.432
		c-0.003,0.344,0.005,0.688-0.004,1.029c-0.006,0.219-0.162,0.367-0.36,0.369c-0.2,0.002-0.351-0.145-0.368-0.361
		c-0.004-0.053-0.002-0.107-0.002-0.16c0-0.496,0-0.994,0-1.49c0-0.045,0.001-0.092,0-0.137c-0.008-0.25-0.151-0.412-0.364-0.414
		c-0.216-0.002-0.365,0.158-0.367,0.408c-0.004,0.588,0.002,1.176-0.004,1.764c-0.002,0.234-0.155,0.389-0.362,0.391
		s-0.355-0.152-0.368-0.385c-0.003-0.061-0.001-0.123-0.001-0.184c0-0.756,0.001-1.512,0-2.268
		c-0.001-0.287-0.139-0.459-0.364-0.459c-0.229-0.002-0.367,0.166-0.368,0.453c-0.001,0.727,0,1.451-0.001,2.178
		c0,0.098,0.005,0.197-0.002,0.297c-0.014,0.219-0.163,0.365-0.362,0.367s-0.35-0.146-0.366-0.363
		c-0.006-0.068-0.002-0.137-0.002-0.205c0-1.855,0-3.711-0.001-5.567c0-0.288-0.14-0.462-0.362-0.461
		c-0.219,0.001-0.366,0.185-0.37,0.461c-0.001,0.053,0,0.107,0,0.16c0,2.299,0,4.598,0,6.895c0,0.344-0.088,0.498-0.305,0.539
		c-0.189,0.037-0.332-0.072-0.465-0.354c-0.347-0.74-0.692-1.479-1.039-2.217c-0.194-0.418-0.38-0.477-0.819-0.25
		c0.022,0.076,0.043,0.156,0.069,0.234c0.311,0.9,0.655,1.791,0.922,2.705c0.281,0.965,0.718,1.818,1.437,2.529
		c0.105,0.104,0.15,0.291,0.175,0.449c0.03,0.184,0.007,0.375,0.007,0.57C19.679,22.258,21.128,22.258,22.649,22.258z"/>
	<path fill-rule="evenodd" clip-rule="evenodd" d="M2.808,6.477c0-1.42,0-2.841,0-4.261c0-0.765,0.446-1.214,1.204-1.214
		c2.62,0,5.239,0,7.858,0c0.75,0,1.203,0.449,1.203,1.193c0.001,2.871,0.001,5.743,0,8.614c0,0.735-0.453,1.192-1.181,1.192
		C9.257,12,6.623,12,3.988,12c-0.726,0-1.18-0.46-1.18-1.193C2.807,9.363,2.808,7.92,2.808,6.477z M12.34,6.504
		c0-1.421,0-2.841,0-4.262c0-0.393-0.113-0.507-0.5-0.507c-2.597,0-5.194,0-7.791,0c-0.393,0-0.507,0.112-0.508,0.5
		c0,2.841,0,5.683,0,8.524c0,0.392,0.114,0.508,0.5,0.508c2.597,0,5.194,0,7.791,0c0.392,0,0.508-0.114,0.508-0.5
		C12.341,9.345,12.34,7.924,12.34,6.504z"/>
	<path fill-rule="evenodd" clip-rule="evenodd" d="M13.074,17.867c0,1.297,0,2.596,0,3.895c0,0.797-0.436,1.238-1.227,1.238
		c-2.604,0-5.208,0-7.812,0c-0.781,0-1.227-0.441-1.227-1.217c0-2.611,0-5.223,0-7.834c0-0.775,0.445-1.215,1.227-1.215
		c2.604-0.002,5.208-0.002,7.813,0c0.791,0,1.226,0.439,1.227,1.238C13.074,15.27,13.074,16.568,13.074,17.867z M3.541,17.867
		c0,1.297,0,2.596,0,3.895c0,0.391,0.114,0.504,0.504,0.504c2.597,0,5.194,0,7.791,0c0.389,0,0.504-0.115,0.504-0.504
		c0-2.598,0-5.193,0-7.791c0-0.391-0.114-0.504-0.504-0.504c-2.597,0-5.194,0-7.791,0c-0.39,0-0.503,0.113-0.504,0.504
		C3.541,15.27,3.541,16.568,3.541,17.867z"/>
	<path fill-rule="evenodd" clip-rule="evenodd" d="M20.667,7.216c-0.4,0.32-0.842,0.46-1.348,0.341
		c-0.753-0.176-1.228-0.89-1.114-1.68c0.103-0.714,0.787-1.274,1.508-1.233c0.783,0.044,1.392,0.643,1.425,1.405
		c0.007,0.16-0.006,0.321,0.007,0.48c0.017,0.2,0.179,0.345,0.369,0.334c0.201-0.012,0.334-0.126,0.354-0.325
		c0.138-1.417-0.688-2.291-1.637-2.528c-0.88-0.22-1.645,0.018-2.229,0.705c-0.586,0.688-0.7,1.486-0.331,2.312
		c0.365,0.816,1.028,1.251,1.921,1.299c0.487,0.026,0.978,0.004,1.466,0.007c0.283,0.001,0.453,0.147,0.447,0.375
		c-0.006,0.22-0.171,0.36-0.443,0.356c-0.617-0.009-1.241,0.026-1.852-0.049c-1.408-0.174-2.47-1.445-2.47-2.884
		c0-1.438,1.063-2.681,2.472-2.892c1.804-0.27,3.382,1.08,3.394,2.904c0.001,0.176,0.013,0.354-0.016,0.526
		c-0.069,0.415-0.307,0.712-0.704,0.859c-0.398,0.147-0.765,0.067-1.092-0.201C20.753,7.295,20.715,7.259,20.667,7.216z
		 M19.672,5.401c-0.398,0-0.729,0.328-0.73,0.728c-0.003,0.409,0.335,0.743,0.744,0.737c0.396-0.005,0.725-0.342,0.72-0.739
		C20.4,5.727,20.072,5.402,19.672,5.401z"/>
	<path fill-rule="evenodd" clip-rule="evenodd" d="M3.884,5.367c0.02-0.886,0.334-1.65,0.953-2.286
		c0.245-0.252,0.494-0.5,0.745-0.745c0.209-0.205,0.393-0.21,0.597-0.008c0.586,0.58,1.169,1.162,1.749,1.748
		c0.193,0.195,0.189,0.381-0.003,0.581C7.691,4.898,7.448,5.13,7.213,5.371C6.734,5.861,6.74,6.513,7.226,6.999
		C7.711,7.485,8.36,7.494,8.854,7.016C9.09,6.788,9.317,6.551,9.552,6.322c0.216-0.212,0.404-0.216,0.614-0.007
		c0.58,0.575,1.157,1.152,1.732,1.732c0.191,0.192,0.194,0.39,0.008,0.582c-0.271,0.279-0.542,0.56-0.829,0.822
		C9.744,10.674,7.78,10.64,6.489,9.373c-0.55-0.54-1.094-1.086-1.635-1.635C4.21,7.086,3.869,6.243,3.884,5.367z M5.117,3.897
		C4.394,4.809,4.456,6.234,5.285,7.118c0.564,0.601,1.153,1.18,1.746,1.753c0.628,0.607,1.386,0.84,2.25,0.695
		c0.391-0.065,0.752-0.211,1.075-0.475C9.964,8.701,9.588,8.333,9.222,7.954c-0.111-0.115-0.191-0.138-0.347-0.06
		C8.235,8.215,7.596,8.177,7.01,7.77C6.398,7.346,6.056,6.758,6.148,5.992c0.034-0.288,0.153-0.564,0.229-0.835
		C5.967,4.748,5.547,4.327,5.117,3.897z M9.845,7.073C9.773,7.138,9.691,7.212,9.621,7.275c0.446,0.444,0.87,0.866,1.301,1.296
		c0.067-0.064,0.148-0.14,0.214-0.202C10.697,7.928,10.275,7.505,9.845,7.073z M7.139,4.387C6.707,3.956,6.285,3.534,5.877,3.127
		C5.812,3.187,5.73,3.26,5.674,3.311c0.428,0.427,0.85,0.847,1.267,1.264C7.001,4.518,7.077,4.445,7.139,4.387z"/>
	<path fill-rule="evenodd" clip-rule="evenodd" d="M7.918,20.434c-1.054,0-2.108,0-3.162-0.002c-0.359,0-0.481-0.121-0.481-0.48
		c-0.001-1.391-0.001-2.779,0-4.17c0-0.359,0.121-0.48,0.48-0.48c2.124-0.002,4.247-0.002,6.37,0c0.359,0,0.481,0.121,0.481,0.48
		c0.001,1.389,0.001,2.779,0,4.17c0,0.359-0.123,0.48-0.481,0.48C10.057,20.434,8.987,20.434,7.918,20.434z M7.942,18.105
		c0.773-0.688,1.529-1.359,2.306-2.051c-1.56,0-3.069,0-4.617,0C6.417,16.752,7.169,17.42,7.942,18.105z M10.262,19.689
		c-0.523-0.463-1.005-0.891-1.485-1.316c-0.847,0.615-0.847,0.615-1.663-0.004c-0.483,0.428-0.969,0.857-1.492,1.32
		C7.186,19.689,8.693,19.689,10.262,19.689z M5.02,19.24c0.532-0.469,1.032-0.912,1.551-1.371c-0.517-0.459-1.02-0.904-1.551-1.375
		C5.02,17.422,5.02,18.309,5.02,19.24z M9.315,17.871c0.527,0.467,1.025,0.906,1.542,1.365c0-0.93,0-1.816,0-2.738
		C10.332,16.967,9.833,17.41,9.315,17.871z"/>
</g>
</svg>
