<?xml version="1.0" encoding="utf-8"?>
<!-- Generator: Adobe Illustrator 16.0.0, SVG Export Plug-In . SVG Version: 6.00 Build 0)  -->
<!DOCTYPE svg PUBLIC "-//W3C//DTD SVG 1.1//EN" "http://www.w3.org/Graphics/SVG/1.1/DTD/svg11.dtd">
<svg version="1.1" id="Layer_1" xmlns="http://www.w3.org/2000/svg" xmlns:xlink="http://www.w3.org/1999/xlink" x="0px" y="0px"
	 width="27px" height="24px" viewBox="0 0 27 24" enable-background="new 0 0 27 24" xml:space="preserve">
<rect fill="none" width="27" height="24"/>
<g>
	<path fill-rule="evenodd" clip-rule="evenodd" d="M8.719,22.208c0,0.253,0,0.479,0,0.726c-0.072,0.004-0.146,0.012-0.218,0.012
		c-1.123,0.001-2.245,0.002-3.367,0c-1.517-0.003-2.632-1.116-2.631-2.632c0-0.618-0.031-1.242,0.044-1.853
		c0.198-1.601,1.54-2.805,3.154-2.837c1.144-0.022,2.289,0.018,3.434,0.023c0.069,0,0.163-0.042,0.203-0.096
		c0.709-0.967,1.668-1.414,2.857-1.404c0.886,0.007,1.772,0.001,2.657,0.001c1.162,0.001,2.099,0.452,2.799,1.389
		c0.049,0.064,0.173,0.104,0.263,0.104c1.228,0.007,2.461-0.062,3.684,0.022c1.565,0.108,2.821,1.481,2.886,3.054
		c0.029,0.692,0.043,1.395-0.04,2.08c-0.148,1.218-1.226,2.132-2.452,2.145c-1.19,0.012-2.382,0.003-3.573,0.003
		c-0.044,0-0.088-0.006-0.143-0.01c0-0.238,0-0.464,0-0.723c0.549,0,1.096,0,1.642,0c0.54,0,1.081,0,1.64,0c0-1.347,0-2.673,0-4.015
		c0.25,0,0.48,0,0.736,0c0,1.32,0,2.637,0,3.955c0.652-0.068,1.288-0.676,1.417-1.374c0.052-0.281,0.049-0.576,0.049-0.865
		c0-0.457,0.026-0.921-0.038-1.371c-0.175-1.226-1.145-2.129-2.375-2.181c-1.045-0.044-2.092-0.011-3.138-0.01
		c-0.036,0-0.071,0.013-0.129,0.024c0.262,0.728,0.175,1.472,0.183,2.208c0.009,0.824,0.005,1.648,0.001,2.474
		c-0.004,1.092-0.784,1.876-1.874,1.887c-0.343,0.003-0.685,0-1.042,0c0-1.957,0-3.898,0-5.853c0.233,0,0.459,0,0.713,0
		c0,1.701,0,3.398,0,5.092c0.903,0.145,1.471-0.333,1.471-1.212c0.001-1.146,0.002-2.291,0-3.436
		c-0.002-1.529-1.115-2.649-2.64-2.655c-0.925-0.003-1.848-0.003-2.772,0.001c-1.545,0.006-2.649,1.115-2.652,2.664
		c-0.002,1.123,0.029,2.246-0.011,3.367c-0.026,0.748,0.453,1.431,1.473,1.28c0-1.693,0-3.391,0-5.101c0.252,0,0.478,0,0.72,0
		c0,1.944,0,3.886,0,5.813c-0.49,0-0.984,0.062-1.458-0.014c-0.852-0.136-1.449-0.888-1.455-1.752
		c-0.009-1.244-0.012-2.489,0.004-3.733c0.004-0.339,0.086-0.676,0.136-1.042c-0.061-0.005-0.147-0.017-0.234-0.017
		c-0.932-0.001-1.863-0.005-2.794,0c-1.497,0.009-2.614,1.134-2.611,2.635c0.001,0.594-0.021,1.194,0.054,1.781
		c0.09,0.703,0.708,1.275,1.4,1.395c0-1.318,0-2.633,0-3.963c0.257,0,0.488,0,0.739,0c0,1.334,0,2.659,0,4.012
		C6.533,22.208,7.62,22.208,8.719,22.208z"/>
	<path fill-rule="evenodd" clip-rule="evenodd" d="M20.29,7.156c0.192,0.486,0.362,0.934,0.55,1.374
		c0.025,0.059,0.133,0.113,0.204,0.115c0.39,0.011,0.779,0.003,1.169,0.006c0.717,0.004,1.178,0.461,1.18,1.172
		c0.003,0.71,0.006,1.42-0.001,2.13c-0.007,0.614-0.478,1.084-1.082,1.084c0-0.232,0-0.465,0-0.699
		c0.3-0.12,0.351-0.194,0.351-0.527c0-0.657,0.001-1.313,0-1.97c-0.002-0.325-0.133-0.456-0.462-0.458
		c-0.558-0.002-1.114-0.005-1.672,0.002c-0.152,0.002-0.227-0.029-0.266-0.196c-0.167-0.702-0.448-1.36-0.827-1.975
		c-0.027-0.044-0.049-0.093-0.081-0.154c0.436-0.433,0.869-0.862,1.302-1.293c0.275-0.275,0.275-0.437,0.001-0.712
		c-0.453-0.455-0.905-0.909-1.359-1.361c-0.272-0.272-0.438-0.271-0.715,0.005c-0.432,0.431-0.861,0.864-1.257,1.261
		c-0.585-0.255-1.135-0.495-1.686-0.733c-0.056-0.024-0.115-0.04-0.174-0.057c-0.502-0.151-0.502-0.151-0.502-0.664
		c0-0.45,0.001-0.901-0.001-1.352c-0.001-0.332-0.128-0.466-0.451-0.468c-0.679-0.003-1.358-0.003-2.038,0
		c-0.31,0.002-0.44,0.139-0.442,0.454c-0.002,0.565-0.005,1.13,0.002,1.695c0.002,0.143-0.028,0.213-0.184,0.25
		c-0.755,0.177-1.457,0.49-2.142,0.923C9.449,4.745,9.196,4.482,8.939,4.223C8.741,4.022,8.543,3.82,8.339,3.625
		c-0.178-0.169-0.384-0.179-0.55-0.016C7.271,4.117,6.758,4.629,6.25,5.147C6.074,5.327,6.09,5.515,6.282,5.71
		c0.397,0.402,0.799,0.8,1.198,1.2c0.053,0.053,0.103,0.109,0.164,0.173C7.212,7.764,6.9,8.488,6.706,9.264
		c-0.013,0.053-0.13,0.113-0.2,0.115C5.949,9.388,5.391,9.383,4.833,9.384c-0.385,0.001-0.5,0.119-0.5,0.51c0,0.634,0,1.268,0,1.901
		c0,0.351,0.042,0.416,0.366,0.555c0,0.186,0,0.376,0,0.567c0,0.037-0.006,0.074-0.009,0.109c-0.548,0.046-1.071-0.428-1.083-1.01
		c-0.017-0.779-0.018-1.558,0.001-2.336c0.014-0.577,0.506-1.018,1.11-1.028C5.13,8.645,5.542,8.655,5.955,8.646
		c0.066-0.001,0.17-0.047,0.192-0.1C6.336,8.098,6.51,7.644,6.7,7.163C6.415,6.879,6.106,6.574,5.8,6.266
		c-0.541-0.543-0.542-1.169-0.003-1.71c0.463-0.465,0.928-0.93,1.393-1.393c0.537-0.534,1.184-0.537,1.718-0.009
		c0.271,0.269,0.545,0.535,0.808,0.813c0.091,0.096,0.161,0.096,0.275,0.044c0.382-0.171,0.768-0.335,1.159-0.485
		c0.114-0.043,0.152-0.094,0.15-0.211c-0.006-0.413-0.005-0.825-0.001-1.237c0.006-0.643,0.468-1.115,1.113-1.123
		c0.725-0.009,1.451-0.01,2.176,0c0.643,0.009,1.102,0.483,1.108,1.128c0.004,0.405,0.005,0.81-0.002,1.214
		c-0.002,0.124,0.028,0.183,0.155,0.231c0.398,0.15,0.787,0.33,1.184,0.484c0.063,0.024,0.179,0.005,0.228-0.04
		c0.289-0.272,0.563-0.559,0.847-0.837c0.505-0.498,1.162-0.5,1.669-0.001c0.489,0.482,0.976,0.968,1.457,1.458
		c0.487,0.495,0.489,1.134,0.005,1.628C20.922,6.542,20.597,6.854,20.29,7.156z"/>
	<path fill-rule="evenodd" clip-rule="evenodd" d="M18.641,10.839c-0.264,0-0.489,0-0.735,0c-0.054-1.45-0.628-2.642-1.793-3.519
		c-0.836-0.629-1.791-0.912-2.833-0.86c-2.214,0.11-4.125,1.877-4.195,4.374c-0.23,0-0.462,0-0.726,0
		c0.061-1.76,0.758-3.191,2.209-4.181c1.727-1.178,3.577-1.282,5.409-0.278C17.702,7.318,18.543,8.854,18.641,10.839z"/>
	<path fill-rule="evenodd" clip-rule="evenodd" d="M13.482,13.781c-1.212-0.006-2.19-0.996-2.184-2.21
		c0.006-1.207,1.009-2.197,2.213-2.187c1.209,0.01,2.191,1.006,2.184,2.215C15.688,12.811,14.698,13.787,13.482,13.781z
		 M13.487,13.048c0.816,0.003,1.474-0.646,1.475-1.458c0.002-0.808-0.662-1.473-1.468-1.472c-0.797,0.001-1.457,0.657-1.463,1.453
		C12.024,12.384,12.675,13.045,13.487,13.048z"/>
	<path fill-rule="evenodd" clip-rule="evenodd" d="M7.254,15.247c-1.212-0.004-2.192-0.992-2.188-2.206
		c0.005-1.207,1.005-2.198,2.21-2.19c1.209,0.007,2.193,1.002,2.188,2.211C9.458,14.273,8.47,15.251,7.254,15.247z M7.244,14.514
		c0.818,0.008,1.48-0.636,1.487-1.445s-0.648-1.478-1.456-1.484C6.48,11.577,5.812,12.23,5.8,13.024
		C5.788,13.84,6.434,14.506,7.244,14.514z"/>
	<path fill-rule="evenodd" clip-rule="evenodd" d="M19.728,15.247c-1.214,0-2.198-0.982-2.198-2.195
		c0-1.208,0.991-2.201,2.198-2.201c1.207,0,2.199,0.992,2.199,2.2C21.927,14.264,20.942,15.246,19.728,15.247z M19.714,14.514
		c0.817,0.006,1.476-0.643,1.479-1.453c0.004-0.809-0.657-1.475-1.463-1.477c-0.797-0.001-1.46,0.653-1.468,1.448
		C18.254,13.847,18.903,14.509,19.714,14.514z"/>
	<path fill-rule="evenodd" clip-rule="evenodd" d="M12.042,22.93c0-0.241,0-0.467,0-0.704c0.974,0,1.936,0,2.91,0
		c0,0.237,0,0.462,0,0.704C13.985,22.93,13.023,22.93,12.042,22.93z"/>
</g>
</svg>
