<?xml version="1.0" encoding="utf-8"?>
<!-- Generator: Adobe Illustrator 16.0.0, SVG Export Plug-In . SVG Version: 6.00 Build 0)  -->
<!DOCTYPE svg PUBLIC "-//W3C//DTD SVG 1.1//EN" "http://www.w3.org/Graphics/SVG/1.1/DTD/svg11.dtd">
<svg version="1.1" id="Layer_1" xmlns="http://www.w3.org/2000/svg" xmlns:xlink="http://www.w3.org/1999/xlink" x="0px" y="0px"
	 width="27px" height="24px" viewBox="0 0 27 24" enable-background="new 0 0 27 24" xml:space="preserve">
<rect fill="none" width="27" height="24"/>
<g>
	<path fill-rule="evenodd" clip-rule="evenodd" d="M22.159,9.335c0.268,0,0.511-0.001,0.752,0c2.044,0.01,3.224,2.017,2.23,3.8
		c-1.047,1.881-2.092,3.761-3.146,5.638c-0.834,1.483-2.117,2.237-3.812,2.241c-4.684,0.012-9.368,0.006-14.052,0.002
		c-1.334,0-2.35-0.809-2.589-2.057c-0.041-0.213-0.042-0.435-0.042-0.651C1.5,14.54,1.498,10.772,1.503,7.003
		c0-0.494-0.025-1,0.071-1.48c0.371-1.854,2.144-3.097,4.031-2.955c1.032,0.077,2.075,0.04,3.113,0.014
		c0.476-0.012,0.829,0.134,1.151,0.482c0.509,0.55,1.051,1.071,1.59,1.592c0.088,0.085,0.237,0.153,0.357,0.153
		c2.164,0.004,4.327,0.007,6.489-0.012c2.301-0.021,4.062,1.865,3.854,4.151C22.15,9.06,22.159,9.174,22.159,9.335z M15.778,11.016
		c0-0.002,0-0.003,0-0.005c-1.134,0-2.268,0-3.402,0c-1.178-0.001-2.355-0.003-3.533-0.007C7.77,11,6.974,11.462,6.451,12.404
		c-1.035,1.867-2.077,3.731-3.112,5.599c-0.066,0.119-0.13,0.251-0.15,0.384c-0.082,0.545,0.305,0.956,0.904,0.958
		c1.221,0.006,2.442,0.002,3.664,0.002c3.463,0,6.927,0,10.39,0.001c1.036,0,1.843-0.418,2.356-1.33
		c1.056-1.876,2.1-3.758,3.144-5.64c0.074-0.135,0.141-0.287,0.16-0.438c0.071-0.538-0.32-0.923-0.936-0.924
		C20.507,11.014,18.143,11.016,15.778,11.016z M20.457,9.335c0-0.309,0.019-0.57-0.002-0.829c-0.092-1.148-0.666-1.784-1.777-1.958
		c-0.291-0.045-0.591-0.054-0.887-0.055c-2.127-0.004-4.256-0.006-6.384,0.001c-0.337,0.001-0.601-0.104-0.837-0.346
		C9.999,5.562,9.416,4.985,8.831,4.41C8.763,4.343,8.658,4.274,8.57,4.273C7.445,4.27,6.319,4.248,5.195,4.293
		C4.113,4.337,3.46,4.894,3.261,5.872C3.197,6.185,3.18,6.512,3.179,6.833c-0.007,2.564-0.004,5.128-0.003,7.692
		c0,0.071,0.011,0.144,0.021,0.272c0.074-0.127,0.118-0.2,0.16-0.273c0.532-0.95,1.07-1.896,1.593-2.853
		c0.864-1.576,2.189-2.349,3.986-2.345c3.725,0.008,7.448,0.006,11.173,0.009C20.22,9.335,20.331,9.335,20.457,9.335z"/>
</g>
</svg>
