<?xml version="1.0" encoding="utf-8"?>
<!-- Generator: Adobe Illustrator 16.0.0, SVG Export Plug-In . SVG Version: 6.00 Build 0)  -->
<!DOCTYPE svg PUBLIC "-//W3C//DTD SVG 1.1//EN" "http://www.w3.org/Graphics/SVG/1.1/DTD/svg11.dtd">
<svg version="1.1" id="Layer_1" xmlns="http://www.w3.org/2000/svg" xmlns:xlink="http://www.w3.org/1999/xlink" x="0px" y="0px"
	 width="27px" height="24px" viewBox="0 0 27 24" enable-background="new 0 0 27 24" xml:space="preserve">
<rect fill="none" width="27" height="24"/>
<g>
	<path fill-rule="evenodd" clip-rule="evenodd" d="M12.239,21.234c0-0.162,0-0.259,0-0.355c0-2.871,0-5.742,0.001-8.613
		c0-0.122,0.002-0.247,0.03-0.365c0.056-0.234,0.272-0.39,0.506-0.385c0.226,0.005,0.431,0.157,0.484,0.381
		c0.028,0.117,0.032,0.243,0.032,0.364c0.001,2.872,0.001,5.743,0.001,8.613c0,0.098,0,0.195,0,0.357
		c0.099-0.092,0.161-0.146,0.219-0.204c0.978-0.978,1.955-1.955,2.933-2.933c0.058-0.058,0.114-0.118,0.178-0.169
		c0.215-0.172,0.501-0.161,0.692,0.021c0.193,0.185,0.218,0.468,0.053,0.691c-0.048,0.065-0.108,0.122-0.166,0.18
		c-1.313,1.313-2.625,2.627-3.938,3.939c-0.379,0.379-0.616,0.378-0.995,0c-1.313-1.313-2.626-2.626-3.938-3.939
		c-0.058-0.058-0.118-0.114-0.166-0.181c-0.163-0.224-0.134-0.506,0.063-0.688c0.185-0.173,0.469-0.186,0.674-0.027
		c0.064,0.05,0.121,0.11,0.179,0.168c0.972,0.972,1.944,1.943,2.916,2.914C12.061,21.066,12.125,21.126,12.239,21.234z"/>
	<path fill-rule="evenodd" clip-rule="evenodd" d="M12.759,8.368C10.725,8.356,9.085,6.71,9.099,4.694
		c0.014-2.037,1.667-3.663,3.712-3.652c1.997,0.011,3.633,1.676,3.625,3.691C16.428,6.737,14.766,8.38,12.759,8.368z M15.379,4.716
		c0.005-1.451-1.155-2.62-2.609-2.63c-1.426-0.009-2.612,1.168-2.616,2.599c-0.004,1.466,1.161,2.64,2.622,2.641
		C14.208,7.327,15.375,6.157,15.379,4.716z"/>
	<path fill-rule="evenodd" clip-rule="evenodd" fill="#FFFFFF" d="M15.379,4.716c-0.004,1.441-1.171,2.61-2.603,2.609
		c-1.461-0.001-2.626-1.175-2.622-2.641c0.004-1.431,1.19-2.608,2.616-2.599C14.224,2.096,15.384,3.265,15.379,4.716z"/>
</g>
</svg>
