<?xml version="1.0" encoding="utf-8"?>
<!-- Generator: Adobe Illustrator 16.0.0, SVG Export Plug-In . SVG Version: 6.00 Build 0)  -->
<!DOCTYPE svg PUBLIC "-//W3C//DTD SVG 1.1//EN" "http://www.w3.org/Graphics/SVG/1.1/DTD/svg11.dtd">
<svg version="1.1" id="Layer_1" xmlns="http://www.w3.org/2000/svg" xmlns:xlink="http://www.w3.org/1999/xlink" x="0px" y="0px"
	 width="27px" height="24px" viewBox="0 0 27 24" enable-background="new 0 0 27 24" xml:space="preserve">
<rect fill="none" width="27" height="24"/>
<g>
	<path fill-rule="evenodd" clip-rule="evenodd" d="M24.877,11.533c0,0.43,0,0.859,0,1.289c-0.014,0.076-0.029,0.151-0.039,0.228
		c-0.053,0.396-0.083,0.798-0.158,1.19c-0.416,2.19-1.413,4.084-2.981,5.666c-1.644,1.66-3.618,2.704-5.926,3.103
		c-0.414,0.071-0.834,0.113-1.251,0.169c-0.43,0-0.859,0-1.29,0c-0.29-0.034-0.581-0.063-0.87-0.104
		c-2.169-0.307-4.087-1.173-5.729-2.623c-1.933-1.707-3.143-3.832-3.587-6.38c-0.072-0.413-0.114-0.831-0.169-1.248
		c0-0.43,0-0.859,0-1.289c0.013-0.076,0.029-0.151,0.039-0.227c0.052-0.397,0.083-0.798,0.158-1.19
		C3.49,7.925,4.487,6.032,6.055,4.449c1.644-1.659,3.619-2.704,5.926-3.102c0.415-0.071,0.834-0.113,1.251-0.169
		c0.43,0,0.86,0,1.29,0c0.29,0.035,0.581,0.064,0.87,0.105c2.169,0.307,4.087,1.173,5.729,2.623c1.934,1.708,3.143,3.832,3.588,6.38
		C24.78,10.699,24.821,11.117,24.877,11.533z M11.279,13.26c-2.515-1.815-2.522-5.019-0.916-6.85
		c1.693-1.931,4.562-2.173,6.478-0.543c0.939,0.799,1.512,1.813,1.629,3.043c0.173,1.808-0.53,3.241-1.988,4.345
		c1.186,0.45,2.183,1.125,3.011,2.045c0.831,0.924,1.393,1.994,1.715,3.207c3.18-3.567,3.43-9.68-0.828-13.525
		C16.11,1.129,9.598,1.757,6.129,6.342c-3.279,4.335-1.975,9.645,0.425,12.144c0.315-1.203,0.878-2.268,1.709-3.186
		C9.092,14.383,10.092,13.709,11.279,13.26z M14.053,21.89c0.229-0.02,0.645-0.039,1.057-0.09c1.646-0.203,3.137-0.803,4.474-1.78
		c0.566-0.413,0.558-0.425,0.39-1.114c-0.788-3.232-3.879-5.273-7.152-4.723c-2.671,0.45-4.78,2.627-5.144,5.318
		c-0.009,0.064,0.036,0.164,0.088,0.206C9.546,21.141,11.584,21.859,14.053,21.89z M13.883,12.755
		c1.841-0.009,3.332-1.499,3.337-3.333c0.004-1.835-1.512-3.349-3.35-3.344c-1.84,0.004-3.357,1.531-3.336,3.357
		C10.555,11.278,12.053,12.763,13.883,12.755z"/>
</g>
</svg>
