<?xml version="1.0" encoding="utf-8"?>
<!-- Generator: Adobe Illustrator 16.0.0, SVG Export Plug-In . SVG Version: 6.00 Build 0)  -->
<!DOCTYPE svg PUBLIC "-//W3C//DTD SVG 1.1//EN" "http://www.w3.org/Graphics/SVG/1.1/DTD/svg11.dtd">
<svg version="1.1" id="Layer_1" xmlns="http://www.w3.org/2000/svg" xmlns:xlink="http://www.w3.org/1999/xlink" x="0px" y="0px"
	 width="27px" height="24px" viewBox="0 0 27 24" enable-background="new 0 0 27 24" xml:space="preserve">
<rect fill="none" width="27" height="24"/>
<g>
	<path fill-rule="evenodd" clip-rule="evenodd" d="M20.795,14.356c0.767,0,1.506,0,2.245,0c0.076,0,0.153-0.001,0.229,0
		c0.329,0.003,0.459,0.129,0.459,0.457c0.002,0.985,0,1.971,0,2.956c0,1.031,0.002,2.063,0,3.094
		c-0.002,1.146-0.783,1.928-1.929,1.928c-3.957,0.002-7.914,0-11.87,0c-0.39,0-0.503-0.113-0.503-0.504c0-4.92,0-9.838,0-14.757
		c0-0.393,0.113-0.508,0.5-0.508c3.46,0,6.919,0,10.38,0c0.371,0,0.488,0.119,0.488,0.497c0,2.177,0,4.354,0,6.53
		C20.795,14.141,20.795,14.231,20.795,14.356z M10.176,7.766c0,4.772,0,9.527,0,14.275c3.417,0,6.818,0,10.25,0
		c-0.326-0.439-0.368-0.916-0.367-1.414c0.006-4.195,0.003-8.389,0.003-12.583c0-0.089,0-0.179,0-0.278
		C16.756,7.766,13.474,7.766,10.176,7.766z M20.818,15.096c-0.012,0.035-0.02,0.049-0.02,0.063
		c-0.001,1.957-0.006,3.912,0.002,5.868c0.002,0.45,0.341,0.852,0.771,0.982c0.718,0.219,1.421-0.308,1.423-1.08
		c0.004-1.888,0.002-3.774,0-5.661c0-0.059-0.011-0.115-0.017-0.172C22.248,15.096,21.538,15.096,20.818,15.096z"/>
	<path fill-rule="evenodd" clip-rule="evenodd" d="M5.759,9.222c0-0.248-0.025-0.472,0.009-0.686
		c0.021-0.132,0.106-0.282,0.209-0.368c0.132-0.11,0.291-0.04,0.417,0.065c0.71,0.59,1.421,1.18,2.128,1.774
		c0.231,0.194,0.235,0.431,0.006,0.623c-0.707,0.595-1.418,1.184-2.128,1.774c-0.125,0.104-0.261,0.157-0.422,0.082
		c-0.167-0.079-0.223-0.217-0.22-0.392c0.003-0.213,0.001-0.426,0.001-0.672c-0.092,0-0.172,0-0.252,0c-1.099,0-2.199,0-3.298,0
		c-0.361,0-0.483-0.121-0.484-0.478c-0.001-0.397,0-0.794,0-1.191c0-0.424,0.104-0.531,0.522-0.531c1.076,0,2.153,0,3.229,0
		C5.559,9.222,5.642,9.222,5.759,9.222z M6.507,9.283C6.499,9.35,6.493,9.378,6.493,9.407C6.479,9.876,6.396,9.956,5.918,9.956
		c-1.069,0-2.138,0-3.207,0c-0.08,0-0.161,0-0.242,0c0,0.259,0,0.485,0,0.733c0.092,0,0.174,0,0.256,0
		c1.046,0,2.092,0.007,3.138-0.003c0.432-0.004,0.66,0.027,0.635,0.611c0,0.008,0.018,0.018,0.041,0.038
		c0.397-0.332,0.797-0.666,1.213-1.013C7.333,9.973,6.936,9.641,6.507,9.283z"/>
	<path fill-rule="evenodd" clip-rule="evenodd" d="M13.02,3.551c-0.154,0.158-0.312,0.32-0.458,0.47
		c-0.51-0.51-1.021-1.02-1.536-1.536c0.148-0.146,0.315-0.31,0.477-0.468C12.009,2.529,12.516,3.041,13.02,3.551z"/>
	<path fill-rule="evenodd" clip-rule="evenodd" d="M14.94,0.792c0.245,0,0.465,0,0.703,0c0,0.724,0,1.444,0,2.18
		c-0.227,0-0.458,0-0.703,0C14.94,2.25,14.94,1.53,14.94,0.792z"/>
	<path fill-rule="evenodd" clip-rule="evenodd" d="M9.069,5.905c0-0.241,0-0.467,0-0.705c0.724,0,1.438,0,2.172,0
		c0,0.225,0,0.457,0,0.705C10.528,5.905,9.809,5.905,9.069,5.905z"/>
	<path fill-rule="evenodd" clip-rule="evenodd" d="M21.519,5.204c0,0.241,0,0.467,0,0.705c-0.729,0-1.449,0-2.18,0
		c0-0.236,0-0.462,0-0.705C20.059,5.204,20.779,5.204,21.519,5.204z"/>
	<path fill-rule="evenodd" clip-rule="evenodd" d="M17.644,3.545c0.499-0.494,1.013-1,1.526-1.509
		c0.139,0.148,0.293,0.314,0.43,0.461c-0.488,0.488-0.998,0.997-1.516,1.514C17.955,3.875,17.795,3.706,17.644,3.545z"/>
	<path fill-rule="evenodd" clip-rule="evenodd" d="M15.088,11.789c-1.108,0-2.216,0-3.324,0c-0.39,0-0.504-0.114-0.504-0.504
		c0-0.657-0.001-1.314,0-1.971c0.001-0.33,0.128-0.458,0.458-0.458c2.262-0.001,4.522-0.001,6.784,0c0.33,0,0.458,0.128,0.459,0.458
		c0.002,0.672,0.002,1.345,0,2.017c-0.001,0.329-0.129,0.458-0.458,0.458C17.364,11.79,16.227,11.789,15.088,11.789z M12.003,11.04
		c2.083,0,4.148,0,6.206,0c0-0.492,0-0.968,0-1.438c-2.078,0-4.137,0-6.206,0C12.003,10.083,12.003,10.554,12.003,11.04z"/>
	<path fill-rule="evenodd" clip-rule="evenodd" d="M18.951,16.573c0,0.241,0,0.467,0,0.705c-2.563,0-5.116,0-7.681,0
		c0-0.236,0-0.462,0-0.705C13.825,16.573,16.378,16.573,18.951,16.573z"/>
	<path fill-rule="evenodd" clip-rule="evenodd" d="M18.95,18.406c0,0.243,0,0.469,0,0.707c-2.559,0-5.106,0-7.672,0
		c0-0.229,0-0.46,0-0.707C13.827,18.406,16.38,18.406,18.95,18.406z"/>
	<path fill-rule="evenodd" clip-rule="evenodd" d="M18.951,20.24c0,0.242,0,0.469,0,0.706c-1.58,0-3.15,0-4.738,0
		c0-0.227,0-0.458,0-0.706C15.781,20.24,17.357,20.24,18.951,20.24z"/>
	<path fill-rule="evenodd" clip-rule="evenodd" d="M11.27,15.441c0-0.242,0-0.469,0-0.706c1.458,0,2.906,0,4.373,0
		c0,0.226,0,0.458,0,0.706C14.195,15.441,12.742,15.441,11.27,15.441z"/>
	<path fill-rule="evenodd" clip-rule="evenodd" d="M18.951,12.906c0,0.24,0,0.467,0,0.705c-1.336,0-2.66,0-4.005,0
		c0-0.227,0-0.457,0-0.705C16.27,12.906,17.602,12.906,18.951,12.906z"/>
	<path fill-rule="evenodd" clip-rule="evenodd" d="M11.27,13.607c0-0.242,0-0.469,0-0.706c0.969,0,1.928,0,2.906,0
		c0,0.226,0,0.458,0,0.706C13.217,13.607,12.253,13.607,11.27,13.607z"/>
	<path fill-rule="evenodd" clip-rule="evenodd" d="M18.951,14.738c0,0.243,0,0.469,0,0.707c-0.848,0-1.684,0-2.539,0
		c0-0.227,0-0.459,0-0.707C17.249,14.738,18.091,14.738,18.951,14.738z"/>
	<path fill-rule="evenodd" clip-rule="evenodd" d="M11.27,20.941c0-0.241,0-0.467,0-0.705c0.724,0,1.438,0,2.171,0
		c0,0.227,0,0.457,0,0.705C12.729,20.941,12.009,20.941,11.27,20.941z"/>
</g>
</svg>
