<?xml version="1.0" encoding="utf-8"?>
<!-- Generator: Adobe Illustrator 16.0.0, SVG Export Plug-In . SVG Version: 6.00 Build 0)  -->
<!DOCTYPE svg PUBLIC "-//W3C//DTD SVG 1.1//EN" "http://www.w3.org/Graphics/SVG/1.1/DTD/svg11.dtd">
<svg version="1.1" id="Layer_1" xmlns="http://www.w3.org/2000/svg" xmlns:xlink="http://www.w3.org/1999/xlink" x="0px" y="0px"
	 width="27px" height="24px" viewBox="0 0 27 24" enable-background="new 0 0 27 24" xml:space="preserve">
<rect fill="none" width="27" height="24"/>
<g>
	<path fill-rule="evenodd" clip-rule="evenodd" d="M21.36,23c-2.577,0-5.156,0-7.733,0c-0.073-0.026-0.145-0.054-0.218-0.079
		c-0.584-0.199-0.978-0.727-0.989-1.345c-0.008-0.406-0.001-0.812-0.001-1.195c-0.496-0.104-0.962-0.181-1.417-0.3
		c-4.409-1.153-7.656-5.398-7.16-10.36C4.067,7.48,4.98,5.542,6.556,3.93c1.437-1.471,3.168-2.401,5.196-2.765
		c0.379-0.068,0.763-0.11,1.145-0.164c0.4,0,0.802,0,1.203,0c0.269,0.033,0.538,0.06,0.806,0.1c1.927,0.29,3.625,1.075,5.069,2.382
		c1.86,1.684,2.927,3.784,3.182,6.28c0.176,1.722-0.105,3.379-0.82,4.958c-0.05,0.11-0.03,0.184,0.015,0.291
		c0.095,0.228,0.211,0.47,0.213,0.707c0.017,1.961,0.017,3.922,0.004,5.883c-0.005,0.59-0.324,1.008-0.849,1.266
		C21.604,22.924,21.48,22.957,21.36,23z M15.376,14.317c0-0.22-0.01-0.412,0.003-0.604c0.01-0.156-0.042-0.265-0.154-0.374
		c-0.613-0.603-1.198-1.234-1.833-1.813c-0.404-0.369-0.566-0.765-0.551-1.315c0.037-1.324,0.012-2.649,0.013-3.974
		c0-0.35,0.181-0.604,0.476-0.682c0.428-0.113,0.811,0.196,0.812,0.664c0.004,1.188,0.023,2.378-0.01,3.566
		c-0.013,0.466,0.103,0.805,0.459,1.113c0.441,0.382,0.834,0.819,1.262,1.247c0.05-0.058,0.083-0.104,0.124-0.144
		c0.579-0.561,1.261-0.774,2.048-0.575c0.966,0.244,1.576,1.058,1.596,2.107c0.005,0.256,0.001,0.512,0.001,0.782
		c0.458,0,0.887-0.006,1.315,0.004c0.132,0.003,0.195-0.045,0.235-0.161c0.159-0.458,0.35-0.908,0.475-1.376
		c0.123-0.458,0.181-0.934,0.271-1.432c-0.247,0-0.438,0.004-0.63-0.001c-0.387-0.01-0.662-0.281-0.662-0.645
		c-0.001-0.366,0.273-0.635,0.659-0.643c0.192-0.003,0.384,0,0.572,0c0.14-1.175-1.062-4.067-2.001-4.818
		c-0.132,0.137-0.262,0.281-0.401,0.414c-0.281,0.264-0.673,0.263-0.925,0.005c-0.25-0.256-0.241-0.648,0.025-0.926
		c0.132-0.138,0.272-0.269,0.424-0.417c-1.411-1.181-2.999-1.852-4.837-2.006c0,0.206,0.002,0.39,0,0.574
		c-0.004,0.405-0.267,0.688-0.638,0.691c-0.379,0.003-0.646-0.283-0.65-0.698c-0.002-0.184,0-0.367,0-0.568
		c-1.841,0.16-3.433,0.826-4.846,2.018c0.159,0.148,0.307,0.273,0.44,0.413c0.264,0.277,0.265,0.674,0.011,0.926
		c-0.255,0.254-0.646,0.25-0.924-0.019c-0.138-0.133-0.26-0.284-0.388-0.425c-1.024,0.943-2.191,3.781-2,4.837
		c0.175,0,0.353-0.002,0.531,0c0.408,0.004,0.688,0.26,0.693,0.631c0.005,0.381-0.279,0.651-0.694,0.657
		c-0.184,0.002-0.367,0-0.571,0c0.16,1.839,0.827,3.431,2.013,4.838c0.137-0.143,0.257-0.274,0.384-0.4
		c0.295-0.291,0.692-0.31,0.956-0.048c0.266,0.264,0.251,0.656-0.041,0.955c-0.127,0.131-0.265,0.251-0.407,0.386
		c1.299,1.092,2.743,1.741,4.407,1.969c0-0.096,0-0.172,0-0.249c0-0.988-0.003-1.977,0.001-2.965
		c0.003-0.906,0.619-1.517,1.527-1.521C14.411,14.316,14.876,14.317,15.376,14.317z M13.706,18.575c0,0.961,0,1.897,0,2.834
		c0.001,0.277,0.027,0.302,0.313,0.302c2.319,0.001,4.638,0.001,6.956,0c0.283,0,0.312-0.026,0.312-0.304
		c0.001-0.88,0.001-1.761,0-2.641c0-0.062-0.01-0.123-0.015-0.185c-1.05,0-2.083,0-3.132,0c0,0.258,0.001,0.499,0,0.741
		c-0.002,0.426-0.255,0.71-0.634,0.715c-0.387,0.005-0.652-0.284-0.655-0.716c-0.001-0.248,0-0.496,0-0.747
		C15.792,18.575,14.764,18.575,13.706,18.575z M21.261,17.266c0.01-0.032,0.021-0.052,0.022-0.071
		c0.002-0.415,0.003-0.83,0.003-1.245c0-0.331-0.011-0.343-0.335-0.343c-2.306,0-4.611,0-6.916,0c-0.058,0-0.125-0.017-0.17,0.008
		c-0.061,0.032-0.147,0.096-0.148,0.148c-0.012,0.498-0.007,0.996-0.007,1.503C16.243,17.266,18.752,17.266,21.261,17.266z
		 M18.32,14.307c0-0.324,0.018-0.624-0.004-0.921c-0.028-0.396-0.351-0.7-0.74-0.737c-0.389-0.037-0.79,0.198-0.863,0.582
		c-0.066,0.349-0.044,0.714-0.061,1.076C17.234,14.307,17.768,14.307,18.32,14.307z"/>
</g>
</svg>
