<?xml version="1.0" encoding="utf-8"?>
<!-- Generator: Adobe Illustrator 16.0.0, SVG Export Plug-In . SVG Version: 6.00 Build 0)  -->
<!DOCTYPE svg PUBLIC "-//W3C//DTD SVG 1.1//EN" "http://www.w3.org/Graphics/SVG/1.1/DTD/svg11.dtd">
<svg version="1.1" id="Layer_1" xmlns="http://www.w3.org/2000/svg" xmlns:xlink="http://www.w3.org/1999/xlink" x="0px" y="0px"
	 width="27px" height="24px" viewBox="0 0 27 24" enable-background="new 0 0 27 24" xml:space="preserve">
<rect fill="none" width="27" height="24"/>
<g>
	<path fill-rule="evenodd" clip-rule="evenodd" d="M13.447,9.819c0-1.919,0-3.808,0-5.735c-0.074,0.066-0.129,0.111-0.178,0.16
		c-0.552,0.551-1.101,1.105-1.659,1.652c-0.087,0.086-0.201,0.165-0.315,0.198c-0.247,0.072-0.48-0.025-0.592-0.212
		c-0.124-0.209-0.102-0.482,0.065-0.671c0.125-0.14,0.264-0.267,0.396-0.4c0.819-0.825,1.638-1.65,2.457-2.477
		c0.259-0.262,0.569-0.263,0.83,0c0.919,0.927,1.837,1.854,2.76,2.778c0.177,0.177,0.278,0.37,0.213,0.624
		c-0.11,0.43-0.554,0.567-0.868,0.258c-0.576-0.568-1.146-1.145-1.718-1.718c-0.058-0.058-0.106-0.125-0.203-0.239
		c0,1.966,0,3.857,0,5.783c0.09,0,0.186,0,0.279,0c2.213,0,4.427-0.003,6.641,0.005c0.164,0,0.346,0.042,0.487,0.123
		c0.212,0.121,0.288,0.373,0.229,0.586c-0.063,0.225-0.289,0.412-0.523,0.432c-0.061,0.005-0.12,0.003-0.181,0.003
		c-5.021,0-10.04,0-15.059-0.002c-0.131,0-0.274-0.015-0.392-0.066c-0.245-0.107-0.37-0.368-0.324-0.607
		c0.046-0.234,0.269-0.436,0.519-0.464c0.089-0.01,0.18-0.008,0.27-0.008c2.19-0.001,4.382,0,6.573,0
		C13.242,9.819,13.331,9.819,13.447,9.819z"/>
	<path fill-rule="evenodd" clip-rule="evenodd" d="M13.447,20.506c0-1.889,0-3.777,0-5.695c-0.104,0-0.2,0-0.296,0
		c-2.213,0-4.427,0.003-6.641-0.007c-0.174,0-0.37-0.062-0.518-0.155C5.79,14.52,5.731,14.271,5.81,14.07
		c0.088-0.225,0.251-0.37,0.498-0.404c0.074-0.01,0.149-0.005,0.225-0.005c5.004,0,10.01,0,15.014,0.002
		c0.105,0,0.214-0.003,0.313,0.023c0.262,0.07,0.447,0.336,0.428,0.59c-0.021,0.265-0.253,0.496-0.532,0.525
		c-0.09,0.011-0.18,0.008-0.27,0.008c-2.191,0.001-4.383,0.001-6.574,0.001c-0.089,0-0.177,0-0.28,0c0,1.914,0,3.807,0,5.731
		c0.071-0.066,0.127-0.111,0.177-0.162c0.546-0.546,1.091-1.095,1.642-1.636c0.093-0.091,0.213-0.175,0.334-0.21
		c0.25-0.071,0.48,0.03,0.588,0.219c0.12,0.213,0.098,0.481-0.073,0.671c-0.161,0.178-0.338,0.341-0.507,0.512
		c-0.781,0.787-1.563,1.577-2.345,2.364c-0.269,0.271-0.556,0.267-0.825-0.003c-0.892-0.902-1.786-1.802-2.679-2.701
		c-0.042-0.042-0.086-0.083-0.127-0.127c-0.236-0.249-0.255-0.596-0.044-0.81c0.203-0.206,0.574-0.193,0.81,0.039
		c0.555,0.549,1.105,1.102,1.655,1.654c0.058,0.058,0.098,0.133,0.145,0.199C13.403,20.537,13.425,20.521,13.447,20.506z"/>
</g>
</svg>
