<?xml version="1.0" encoding="utf-8"?>
<!-- Generator: Adobe Illustrator 16.0.0, SVG Export Plug-In . SVG Version: 6.00 Build 0)  -->
<!DOCTYPE svg PUBLIC "-//W3C//DTD SVG 1.1//EN" "http://www.w3.org/Graphics/SVG/1.1/DTD/svg11.dtd">
<svg version="1.1" id="Layer_1" xmlns="http://www.w3.org/2000/svg" xmlns:xlink="http://www.w3.org/1999/xlink" x="0px" y="0px"
	 width="27px" height="24px" viewBox="0 0 27 24" enable-background="new 0 0 27 24" xml:space="preserve">
<rect fill="none" width="27" height="24"/>
<g>
	<path fill-rule="evenodd" clip-rule="evenodd" d="M2.773,12.389c0-0.057,0-0.114,0-0.172c0.208-0.542,0.697-0.271,1.08-0.373
		c0.145-2.538,1.105-4.74,2.903-6.542c1.804-1.808,4.011-2.773,6.583-2.921c0-0.181,0.009-0.346-0.002-0.508
		c-0.019-0.278,0.087-0.47,0.351-0.57c0.058,0,0.115,0,0.172,0c0.264,0.1,0.354,0.294,0.352,0.571
		c-0.009,1.045-0.004,2.091-0.004,3.136c0,0.078,0,0.155,0,0.25c1.609,0.121,3.014,0.699,4.269,1.789
		c0.047-0.07,0.08-0.146,0.135-0.201C19.404,6.051,20.195,5.252,21,4.467c0.112-0.109,0.293-0.208,0.439-0.205
		c0.122,0.002,0.28,0.136,0.354,0.254c0.104,0.166,0.032,0.35-0.104,0.487c-0.194,0.197-0.398,0.385-0.606,0.584
		c1.621,1.804,2.477,3.887,2.608,6.28c0.188,0,0.352,0.008,0.515-0.001c0.276-0.018,0.471,0.084,0.568,0.35c0,0.058,0,0.115,0,0.172
		c-0.207,0.543-0.696,0.271-1.079,0.373c-0.146,2.538-1.105,4.74-2.903,6.542c-1.804,1.808-4.011,2.773-6.583,2.921
		c0,0.182-0.009,0.346,0.002,0.509c0.019,0.277-0.086,0.471-0.35,0.569c-0.058,0-0.115,0-0.172,0c-0.263-0.1-0.37-0.292-0.351-0.57
		c0.011-0.162,0.002-0.326,0.002-0.509c-2.564-0.145-4.766-1.106-6.567-2.904C4.964,17.515,4,15.308,3.852,12.737
		c-0.183,0-0.347-0.008-0.51,0.002C3.066,12.757,2.872,12.654,2.773,12.389z M7.631,12.737c0.161,3.139,2.874,5.609,5.709,5.7
		c0-0.135-0.004-0.269,0.001-0.402c0.012-0.279,0.188-0.456,0.442-0.451c0.244,0.004,0.412,0.178,0.423,0.447
		c0.006,0.134,0.001,0.269,0.001,0.403c2.947-0.081,5.614-2.735,5.698-5.698c-0.134,0-0.269,0.005-0.403-0.001
		c-0.27-0.013-0.443-0.18-0.447-0.423c-0.005-0.254,0.172-0.43,0.451-0.442c0.134-0.005,0.268,0,0.428,0
		c-0.108-1.383-0.607-2.569-1.496-3.613c-0.318,0.319-0.626,0.629-0.936,0.937c-0.244,0.243-0.505,0.271-0.697,0.083
		c-0.193-0.191-0.166-0.453,0.074-0.697c0.11-0.112,0.22-0.225,0.334-0.333c0.205-0.195,0.412-0.387,0.629-0.589
		c-1.077-0.908-2.259-1.409-3.634-1.511c0,0.165,0.004,0.292-0.001,0.42c-0.012,0.281-0.184,0.458-0.436,0.458
		c-0.253-0.001-0.421-0.179-0.431-0.462c-0.005-0.133,0-0.266,0-0.399c-3.071,0.148-5.593,2.798-5.704,5.707
		c0.084,0,0.168,0,0.252,0c0.409,0.001,0.608,0.146,0.604,0.44c-0.003,0.287-0.199,0.428-0.594,0.429
		C7.814,12.737,7.73,12.737,7.631,12.737z M13.331,3.286C8.529,3.438,4.814,7.61,4.769,11.858c0.648,0,1.297,0,1.965,0
		c0.136-1.764,0.81-3.288,2.055-4.535c1.25-1.251,2.78-1.925,4.543-2.062C13.331,4.588,13.331,3.946,13.331,3.286z M4.755,12.746
		c0.168,4.883,4.41,8.53,8.573,8.56c0-0.648,0-1.297,0-1.92c-3.864-0.579-6.068-2.784-6.638-6.64
		C6.057,12.746,5.415,12.746,4.755,12.746z M14.216,21.319c4.783-0.147,8.515-4.305,8.563-8.582c-0.571,0-1.143,0-1.713,0
		c-0.078,0-0.155,0-0.207,0c-0.583,3.871-2.785,6.078-6.644,6.648C14.216,20.017,14.216,20.659,14.216,21.319z M19.073,7.654
		c0.516,0.585,0.92,1.24,1.221,1.958c0.299,0.716,0.462,1.468,0.522,2.245c0.669,0,1.317,0,1.993,0
		c-0.125-2.158-0.899-4.023-2.324-5.62C20.007,6.717,19.548,7.178,19.073,7.654z"/>
	<path fill-rule="evenodd" clip-rule="evenodd" d="M13.065,14.695c1.095,0,2.136,0,3.188,0c0,0.426,0,0.83,0,1.249
		c-1.652,0-3.302,0-4.964,0c-0.007-0.845,0.267-1.575,0.88-2.14c0.515-0.474,1.082-0.89,1.619-1.339
		c0.257-0.215,0.52-0.43,0.741-0.68c0.291-0.332,0.356-0.743,0.265-1.171c-0.102-0.476-0.497-0.771-1.004-0.762
		c-0.486,0.009-0.857,0.335-0.958,0.853c-0.031,0.161-0.041,0.326-0.062,0.507c-0.451,0-0.911,0-1.371,0
		c-0.148-0.77,0.292-1.789,1.008-2.194c0.937-0.53,1.917-0.542,2.838,0.017c1.242,0.754,1.403,2.633,0.321,3.625
		c-0.43,0.395-0.934,0.706-1.4,1.062c-0.278,0.212-0.553,0.43-0.821,0.654C13.251,14.455,13.181,14.563,13.065,14.695z"/>
</g>
</svg>
