<?xml version="1.0" encoding="utf-8"?>
<!-- Generator: Adobe Illustrator 16.0.0, SVG Export Plug-In . SVG Version: 6.00 Build 0)  -->
<!DOCTYPE svg PUBLIC "-//W3C//DTD SVG 1.1//EN" "http://www.w3.org/Graphics/SVG/1.1/DTD/svg11.dtd">
<svg version="1.1" id="Layer_1" xmlns="http://www.w3.org/2000/svg" xmlns:xlink="http://www.w3.org/1999/xlink" x="0px" y="0px"
	 width="27px" height="24px" viewBox="0 0 27 24" enable-background="new 0 0 27 24" xml:space="preserve">
<rect fill="none" width="27" height="24"/>
<g>
	<path fill-rule="evenodd" clip-rule="evenodd" d="M8.942,13.165c0-0.251,0-0.487,0-0.75c-0.085,0-0.164,0-0.242,0
		c-0.954,0-1.907,0.002-2.861,0c-1.097-0.003-1.857-0.758-1.857-1.852c-0.002-2.55-0.002-5.1,0-7.65
		c0-1.095,0.759-1.853,1.856-1.853c5.625-0.001,11.249-0.001,16.874,0c1.093,0,1.848,0.761,1.849,1.859
		c0.002,2.491-0.022,4.982,0.013,7.472c0.014,0.999-0.539,1.931-1.786,2.039c0,0.477,0,0.956,0,1.434
		c0,0.074-0.003,0.147,0.001,0.222c0.007,0.173-0.026,0.324-0.194,0.414c-0.171,0.09-0.31,0.021-0.447-0.082
		c-0.589-0.446-1.182-0.888-1.772-1.332c-0.019-0.012-0.035-0.026-0.053-0.039c-0.939-0.71-0.939-0.71-2.121-0.63
		c-0.021,0.002-0.041,0.012-0.026,0.007c0,0.234,0,0.456,0,0.676c0,1.863-0.002,3.726,0.001,5.588
		c0.003,1.204-0.43,2.216-1.313,3.038c-0.06,0.055-0.097,0.159-0.103,0.244c-0.015,0.197-0.005,0.398-0.005,0.598
		c-0.001,0.38-0.11,0.491-0.484,0.491c-2.122,0-4.243,0-6.364,0c-0.414,0-0.828,0.002-1.242-0.001
		c-0.292-0.001-0.446-0.131-0.419-0.415c0.048-0.524-0.082-0.926-0.477-1.327c-0.67-0.683-0.945-1.571-0.948-2.531
		c-0.004-1.301-0.007-2.602,0.001-3.902c0.007-0.971,0.797-1.755,1.75-1.755C8.689,13.127,8.806,13.15,8.942,13.165z M10.374,3.415
		c0.063-0.047,0.121-0.091,0.18-0.135c0.916-0.67,2.12-0.726,3.087-0.143c0.963,0.582,1.474,1.677,1.305,2.8
		c-0.123,0.811-0.543,1.475-1.053,2.089c-0.566,0.681-1.241,1.243-1.95,1.768c-0.064,0.047-0.137,0.123-0.148,0.194
		c-0.022,0.149-0.007,0.305-0.007,0.477c0.79-0.351,1.427-0.176,1.933,0.503c0.387-0.288,0.809-0.404,1.277-0.276
		c0.472,0.128,0.778,0.449,0.969,0.889c0.578-0.32,1.118-0.312,1.646,0.063c0.064,0.045,0.163,0.059,0.247,0.059
		c0.531,0.005,1.064-0.009,1.596,0.01c0.157,0.006,0.335,0.065,0.462,0.157c0.583,0.417,1.151,0.854,1.725,1.283
		c0.133,0.101,0.268,0.199,0.427,0.317c0.005-0.094,0.009-0.15,0.009-0.207c0.001-0.377-0.002-0.754,0.001-1.13
		c0.003-0.294,0.128-0.42,0.415-0.426c0.066-0.002,0.134,0,0.2-0.001c0.722-0.002,1.158-0.438,1.158-1.161
		c0.001-2.535,0.001-5.07,0-7.605c0-0.738-0.433-1.169-1.172-1.169c-5.609,0-11.219,0-16.828,0c-0.723,0-1.161,0.436-1.161,1.158
		c0,2.542-0.001,5.084,0,7.627c0,0.708,0.44,1.149,1.146,1.15c0.968,0.002,1.936,0.001,2.904,0c0.064,0,0.128-0.008,0.207-0.013
		c0-0.538-0.005-1.061,0.003-1.584C8.955,9.961,8.91,9.872,8.79,9.779C8.386,9.469,7.981,9.157,7.604,8.815
		c-0.7-0.636-1.31-1.346-1.65-2.247C5.444,5.217,5.95,3.754,7.185,3.091C8.298,2.494,9.36,2.648,10.374,3.415z M16.045,22.339
		c0-0.184,0.011-0.354-0.002-0.521c-0.019-0.234,0.063-0.399,0.249-0.552c0.576-0.467,0.948-1.07,1.094-1.8
		c0.05-0.252,0.075-0.513,0.076-0.77c0.006-1.929,0.003-3.858,0.002-5.788c0-0.096,0.003-0.193-0.017-0.286
		c-0.076-0.357-0.414-0.598-0.77-0.559c-0.358,0.04-0.627,0.334-0.631,0.711c-0.005,0.695,0.001,1.39-0.003,2.084
		c-0.001,0.241-0.151,0.396-0.359,0.393c-0.2-0.004-0.337-0.154-0.349-0.382c-0.002-0.059,0-0.118,0-0.178
		c0-0.872,0.003-1.744-0.002-2.617c-0.002-0.415-0.314-0.725-0.71-0.724c-0.396,0.001-0.703,0.31-0.706,0.727
		c-0.005,0.584-0.001,1.168-0.001,1.751c0,0.348,0.004,0.696-0.002,1.043c-0.003,0.227-0.149,0.377-0.349,0.379
		c-0.201,0.002-0.345-0.146-0.357-0.372c-0.003-0.06-0.001-0.118-0.001-0.178c0-0.976,0.001-1.951,0-2.927
		c-0.001-0.455-0.292-0.774-0.702-0.779c-0.42-0.003-0.716,0.317-0.717,0.785c-0.001,0.982,0,1.966,0,2.949
		c0,0.06,0.003,0.118-0.002,0.178c-0.019,0.207-0.17,0.349-0.362,0.344c-0.184-0.006-0.325-0.144-0.342-0.341
		c-0.006-0.066-0.003-0.133-0.003-0.2c0-2.129,0-4.257,0-6.386c0-0.082,0.004-0.163-0.005-0.244c-0.035-0.324-0.3-0.591-0.622-0.629
		c-0.335-0.04-0.654,0.161-0.752,0.489C9.666,8.051,9.66,8.173,9.66,8.29c-0.001,2.964-0.001,5.928-0.001,8.893
		c0,0.081,0.008,0.164-0.006,0.243c-0.034,0.191-0.153,0.307-0.349,0.307s-0.314-0.114-0.349-0.306
		c-0.012-0.064-0.005-0.133-0.005-0.2c0-0.982,0-1.966-0.001-2.948c0-0.338-0.178-0.486-0.509-0.435
		c-0.528,0.083-0.906,0.521-0.908,1.069c-0.004,1.234,0.009,2.469-0.004,3.703c-0.012,1.106,0.385,2.011,1.241,2.72
		c0.098,0.08,0.155,0.245,0.174,0.379c0.029,0.201,0.007,0.409,0.007,0.624C11.318,22.339,13.666,22.339,16.045,22.339z
		 M11.787,9.018c0.703-0.54,1.325-1.087,1.807-1.77c0.207-0.293,0.392-0.613,0.521-0.946c0.377-0.965,0.039-1.997-0.795-2.531
		c-0.82-0.526-1.894-0.408-2.586,0.284c-0.297,0.296-0.432,0.295-0.735-0.004c-1.019-1.01-2.727-0.714-3.335,0.581
		C6.359,5.281,6.419,5.923,6.72,6.555c0.381,0.798,0.986,1.413,1.639,1.985c0.18,0.157,0.37,0.301,0.59,0.479
		c0-0.31-0.002-0.567,0-0.824c0.006-0.824,0.618-1.455,1.412-1.458c0.805-0.003,1.42,0.628,1.426,1.466
		C11.789,8.46,11.787,8.715,11.787,9.018z"/>
	<path fill-rule="evenodd" clip-rule="evenodd" d="M19.594,6.949c-1.403,0.077-2.735,1.212-3.103,2.62
		c-0.024,0.092-0.043,0.188-0.082,0.274c-0.073,0.156-0.206,0.234-0.377,0.215c-0.181-0.021-0.322-0.132-0.33-0.309
		c-0.036-0.991-0.056-1.979,0.408-2.904c0.432-0.86,1.055-1.539,1.924-1.947c0.481-0.226,1.01-0.351,1.56-0.535
		c0-0.188,0.003-0.445-0.001-0.701c-0.002-0.178,0.052-0.323,0.22-0.4c0.165-0.077,0.313-0.035,0.448,0.082
		c0.779,0.669,1.56,1.335,2.337,2.006c0.234,0.202,0.238,0.442,0.007,0.642c-0.782,0.676-1.564,1.353-2.36,2.012
		c-0.099,0.082-0.291,0.104-0.424,0.076c-0.174-0.038-0.229-0.208-0.228-0.387C19.597,7.45,19.594,7.207,19.594,6.949z
		 M21.888,5.673c-0.532-0.455-1.041-0.891-1.584-1.356c0,0.153,0,0.248-0.001,0.344c-0.001,0.363-0.108,0.464-0.474,0.483
		C18.7,5.202,17.786,5.681,17.101,6.58c-0.3,0.394-0.506,0.834-0.619,1.382c0.076-0.093,0.112-0.139,0.15-0.182
		c0.853-1,1.933-1.528,3.247-1.572c0.287-0.009,0.419,0.127,0.424,0.415c0.003,0.12,0,0.241,0,0.407
		C20.85,6.562,21.354,6.131,21.888,5.673z"/>
</g>
</svg>
