<?xml version="1.0" encoding="utf-8"?>
<!-- Generator: Adobe Illustrator 16.0.0, SVG Export Plug-In . SVG Version: 6.00 Build 0)  -->
<!DOCTYPE svg PUBLIC "-//W3C//DTD SVG 1.1//EN" "http://www.w3.org/Graphics/SVG/1.1/DTD/svg11.dtd">
<svg version="1.1" id="Layer_1" xmlns="http://www.w3.org/2000/svg" xmlns:xlink="http://www.w3.org/1999/xlink" x="0px" y="0px"
	 width="27px" height="24px" viewBox="0 0 27 24" enable-background="new 0 0 27 24" xml:space="preserve">
<rect fill="none" width="27" height="24"/>
<g>
	<path fill-rule="evenodd" clip-rule="evenodd" d="M13.507,16.134c3.162,0,6.323-0.002,9.484,0.001
		c1.217,0.001,2.148,0.697,2.435,1.807c0.374,1.45-0.702,2.906-2.198,2.974c-0.074,0.003-0.149,0.003-0.224,0.003
		c-6.339,0-12.678,0.001-19.017,0c-1.177,0-2.112-0.697-2.403-1.785c-0.396-1.482,0.703-2.98,2.241-2.989
		c3.227-0.02,6.455-0.006,9.682-0.006C13.507,16.137,13.507,16.135,13.507,16.134z M15.973,16.731c-0.304,0-0.574,0.012-0.844-0.004
		c-0.179-0.011-0.279,0.048-0.371,0.207c-0.602,1.061-1.214,2.112-1.822,3.169c-0.036,0.061-0.063,0.127-0.108,0.218
		c0.305,0,0.578-0.01,0.85,0.003c0.168,0.008,0.266-0.043,0.352-0.196c0.602-1.06,1.215-2.112,1.823-3.168
		C15.889,16.898,15.92,16.833,15.973,16.731z M19.572,16.731c-0.324,0-0.599,0.01-0.87-0.004c-0.171-0.009-0.266,0.05-0.352,0.2
		c-0.597,1.052-1.206,2.099-1.81,3.146c-0.04,0.069-0.075,0.143-0.13,0.247c0.304,0,0.575-0.012,0.844,0.004
		c0.181,0.011,0.281-0.05,0.371-0.21c0.497-0.88,1.007-1.753,1.512-2.63C19.272,17.251,19.409,17.016,19.572,16.731z M3.839,20.321
		c0.339,0,0.628-0.009,0.916,0.003c0.147,0.006,0.22-0.054,0.29-0.175c0.613-1.071,1.232-2.14,1.849-3.209
		c0.033-0.059,0.059-0.123,0.1-0.209c-0.331,0-0.622-0.013-0.91,0.008c-0.092,0.006-0.212,0.08-0.261,0.159
		c-0.261,0.423-0.502,0.858-0.751,1.288C4.671,18.881,4.269,19.577,3.839,20.321z M5.634,20.321c0.338,0,0.627-0.009,0.915,0.003
		c0.146,0.006,0.22-0.051,0.29-0.174c0.612-1.07,1.231-2.139,1.847-3.207c0.034-0.06,0.059-0.123,0.101-0.21
		c-0.33,0-0.621-0.013-0.909,0.008c-0.092,0.007-0.212,0.08-0.26,0.158c-0.265,0.431-0.512,0.871-0.764,1.309
		C6.456,18.896,6.06,19.584,5.634,20.321z M14.617,20.321c0.313,0,0.591-0.01,0.869,0.004c0.161,0.007,0.25-0.044,0.332-0.188
		c0.605-1.066,1.223-2.127,1.836-3.189c0.034-0.061,0.063-0.126,0.107-0.216c-0.308,0-0.581,0.01-0.854-0.004
		c-0.171-0.009-0.266,0.05-0.351,0.2c-0.599,1.052-1.206,2.098-1.811,3.146C14.707,20.144,14.672,20.216,14.617,20.321z
		 M23.146,16.733c-0.312,0-0.591,0.011-0.868-0.004c-0.162-0.008-0.25,0.047-0.331,0.189c-0.605,1.065-1.222,2.125-1.834,3.187
		c-0.034,0.061-0.062,0.126-0.105,0.216c0.309,0,0.581-0.012,0.853,0.004c0.173,0.009,0.266-0.053,0.35-0.201
		c0.602-1.058,1.213-2.11,1.82-3.165C23.065,16.897,23.096,16.831,23.146,16.733z M7.429,20.321c0.338,0,0.627-0.009,0.915,0.003
		c0.147,0.006,0.22-0.055,0.289-0.176c0.613-1.071,1.232-2.139,1.848-3.208c0.034-0.058,0.058-0.122,0.099-0.209
		c-0.314,0-0.588,0.009-0.861-0.004c-0.162-0.008-0.251,0.045-0.332,0.188c-0.377,0.672-0.768,1.336-1.153,2.003
		C7.976,19.37,7.717,19.821,7.429,20.321z M9.233,20.321c0.316,0,0.59-0.012,0.862,0.004c0.174,0.01,0.265-0.056,0.349-0.203
		c0.602-1.059,1.214-2.11,1.821-3.166c0.036-0.062,0.064-0.126,0.113-0.225c-0.314,0-0.594,0.012-0.872-0.004
		c-0.167-0.01-0.249,0.057-0.328,0.195c-0.603,1.057-1.213,2.11-1.821,3.165C9.321,20.151,9.289,20.217,9.233,20.321z
		 M14.174,16.731c-0.314,0-0.592,0.01-0.87-0.004c-0.165-0.009-0.25,0.051-0.33,0.191c-0.606,1.065-1.222,2.125-1.834,3.188
		c-0.036,0.062-0.063,0.127-0.106,0.215c0.306,0,0.58-0.011,0.852,0.004c0.171,0.009,0.266-0.049,0.351-0.2
		c0.601-1.058,1.213-2.11,1.821-3.166C14.094,16.898,14.123,16.833,14.174,16.731z M18.208,20.321c0.32,0,0.594-0.011,0.866,0.004
		c0.162,0.008,0.251-0.044,0.332-0.188c0.606-1.065,1.222-2.125,1.835-3.187c0.035-0.062,0.063-0.128,0.108-0.219
		c-0.306,0-0.579,0.009-0.851-0.003c-0.168-0.008-0.265,0.043-0.353,0.196c-0.597,1.052-1.206,2.097-1.81,3.145
		C18.297,20.138,18.264,20.211,18.208,20.321z M21.781,20.321c0.328,0,0.605-0.011,0.883,0.004c0.161,0.008,0.25-0.044,0.331-0.188
		c0.422-0.749,0.856-1.491,1.287-2.236c0.297-0.516,0.276-0.596-0.245-0.91c-0.076-0.046-0.159-0.082-0.258-0.133
		C23.115,18.01,22.461,19.145,21.781,20.321z M5.22,16.733c-0.34,0-0.629,0.009-0.917-0.003c-0.147-0.007-0.221,0.053-0.29,0.173
		c-0.426,0.75-0.859,1.495-1.29,2.241c-0.308,0.535-0.294,0.59,0.239,0.913c0.077,0.047,0.159,0.084,0.259,0.136
		C3.883,19.049,4.536,17.917,5.22,16.733z M2.177,18.896c0.398-0.69,0.785-1.36,1.192-2.066C2.477,17.081,1.878,18.132,2.177,18.896
		z M23.632,20.222c0.899-0.26,1.517-1.35,1.188-2.059C24.428,18.844,24.041,19.514,23.632,20.222z"/>
	<path fill-rule="evenodd" clip-rule="evenodd" d="M13.507,14.449c-3.186,0-6.372,0.002-9.558-0.002
		c-1.251-0.001-2.208-0.815-2.418-2.038C1.301,11.063,2.366,9.74,3.738,9.67C3.83,9.666,3.921,9.666,4.012,9.666
		c6.331,0,12.661-0.001,18.992,0c1.166,0,2.101,0.674,2.399,1.723c0.44,1.546-0.688,3.053-2.313,3.058
		C19.896,14.455,16.702,14.448,13.507,14.449z M14.607,13.852c0.103,0,0.152,0,0.201,0c2.754,0,5.508,0.003,8.263-0.002
		c1.034-0.002,1.834-0.794,1.832-1.798c-0.002-1.002-0.803-1.786-1.843-1.788c-2.057-0.004-4.114,0.001-6.171-0.005
		c-0.166-0.001-0.248,0.057-0.328,0.196c-0.545,0.958-1.1,1.911-1.65,2.865C14.817,13.482,14.725,13.646,14.607,13.852z
		 M10.602,10.263c-0.339,0-0.628,0.009-0.917-0.003c-0.148-0.007-0.219,0.057-0.287,0.176c-0.617,1.077-1.239,2.15-1.859,3.224
		c-0.031,0.055-0.051,0.114-0.086,0.192c0.301,0,0.574-0.01,0.846,0.004c0.169,0.008,0.265-0.046,0.351-0.198
		c0.492-0.871,0.997-1.735,1.498-2.602C10.291,10.806,10.434,10.557,10.602,10.263z M9.234,13.852c0.326,0,0.607-0.009,0.888,0.004
		c0.153,0.006,0.234-0.049,0.31-0.182c0.615-1.077,1.238-2.15,1.858-3.225c0.03-0.052,0.049-0.11,0.082-0.187
		c-0.312,0-0.593,0.009-0.874-0.003c-0.153-0.007-0.234,0.047-0.31,0.18c-0.611,1.071-1.23,2.136-1.845,3.204
		C9.311,13.697,9.284,13.756,9.234,13.852z M11.03,13.852c0.319,0,0.606-0.01,0.892,0.004c0.156,0.007,0.233-0.057,0.307-0.187
		c0.611-1.069,1.23-2.135,1.846-3.203c0.031-0.055,0.059-0.113,0.105-0.203c-0.32,0-0.607,0.01-0.893-0.003
		c-0.156-0.008-0.233,0.055-0.307,0.185c-0.606,1.063-1.221,2.121-1.832,3.182C11.112,13.688,11.081,13.754,11.03,13.852z
		 M12.812,13.852c0.34,0,0.629-0.009,0.918,0.004c0.148,0.007,0.218-0.057,0.288-0.177c0.616-1.076,1.238-2.149,1.857-3.224
		c0.031-0.054,0.052-0.113,0.088-0.192c-0.293,0-0.559,0.012-0.821-0.004c-0.188-0.012-0.295,0.047-0.39,0.218
		c-0.398,0.715-0.813,1.421-1.223,2.13C13.299,13.007,13.068,13.406,12.812,13.852z M3.841,13.852c0.322,0,0.595-0.009,0.867,0.004
		c0.168,0.007,0.265-0.044,0.352-0.198c0.601-1.06,1.214-2.112,1.822-3.167C6.918,10.428,6.949,10.363,7,10.263
		c-0.313,0-0.592,0.01-0.869-0.003C5.97,10.251,5.88,10.303,5.8,10.446c-0.373,0.665-0.758,1.323-1.14,1.983
		C4.396,12.888,4.132,13.346,3.841,13.852z M8.806,10.263c-0.324,0-0.597,0.011-0.869-0.004c-0.172-0.01-0.265,0.051-0.35,0.2
		c-0.602,1.059-1.214,2.112-1.823,3.167c-0.036,0.063-0.066,0.128-0.117,0.226c0.303,0,0.574-0.012,0.843,0.004
		c0.181,0.011,0.281-0.049,0.371-0.209c0.522-0.924,1.057-1.839,1.587-2.758C8.559,10.696,8.668,10.503,8.806,10.263z M3.202,13.762
		c0.688-1.193,1.343-2.328,2.019-3.499c-0.339,0-0.627,0.009-0.915-0.003c-0.146-0.006-0.22,0.051-0.289,0.172
		c-0.471,0.827-0.949,1.649-1.424,2.473c-0.044,0.077-0.083,0.156-0.146,0.273C2.693,13.368,2.931,13.552,3.202,13.762z
		 M2.18,12.425c0.395-0.685,0.783-1.357,1.187-2.058C2.371,10.618,1.906,11.81,2.18,12.425z"/>
	<path fill-rule="evenodd" clip-rule="evenodd" d="M13.475,7.98c-3.161,0-6.323,0.002-9.483-0.001
		C2.794,7.978,1.862,7.275,1.578,6.178c-0.379-1.46,0.709-2.922,2.218-2.979c0.066-0.002,0.133-0.002,0.199-0.002
		c6.339,0,12.677-0.001,19.017,0c1.182,0,2.112,0.692,2.405,1.78c0.398,1.483-0.697,2.983-2.235,2.994
		c-3.027,0.022-6.056,0.008-9.084,0.01C13.89,7.98,13.682,7.98,13.475,7.98z M7.438,7.38c0.107,0,0.165,0,0.223,0
		c5.136,0,10.273,0,15.409-0.001c0.124,0,0.25-0.005,0.371-0.029c0.916-0.184,1.536-1.002,1.458-1.915
		c-0.08-0.928-0.856-1.64-1.813-1.64c-4.457-0.003-8.912,0-13.368-0.006c-0.163,0-0.25,0.05-0.33,0.191
		c-0.59,1.038-1.19,2.07-1.786,3.104C7.553,7.168,7.507,7.254,7.438,7.38z M7,3.793c-0.321,0-0.594,0.01-0.867-0.003
		c-0.161-0.008-0.25,0.043-0.332,0.187c-0.61,1.073-1.23,2.139-1.846,3.208C3.924,7.239,3.902,7.299,3.865,7.38
		c0.292,0,0.557-0.012,0.82,0.004c0.188,0.012,0.295-0.047,0.391-0.218c0.591-1.045,1.197-2.082,1.796-3.123
		C6.912,3.975,6.945,3.902,7,3.793z M5.649,7.38c0.312,0,0.59-0.009,0.867,0.003c0.16,0.007,0.25-0.041,0.333-0.186
		c0.605-1.066,1.222-2.125,1.833-3.187C8.717,3.951,8.745,3.886,8.79,3.793c-0.307,0-0.579,0.011-0.85-0.003
		c-0.17-0.009-0.265,0.048-0.35,0.198c-0.602,1.058-1.213,2.11-1.821,3.165C5.732,7.215,5.701,7.28,5.649,7.38z M3.201,7.295
		c0.692-1.2,1.346-2.333,2.02-3.501c-0.36,0-0.666-0.008-0.97,0.006C4.179,3.803,4.083,3.866,4.046,3.929
		c-0.507,0.863-1.007,1.729-1.5,2.601C2.511,6.592,2.519,6.735,2.564,6.777C2.754,6.955,2.966,7.108,3.201,7.295z M3.377,3.88
		C2.449,4.191,1.834,5.292,2.188,5.943C2.578,5.267,2.964,4.598,3.377,3.88z"/>
</g>
</svg>
