<?xml version="1.0" encoding="utf-8"?>
<!-- Generator: Adobe Illustrator 16.0.0, SVG Export Plug-In . SVG Version: 6.00 Build 0)  -->
<!DOCTYPE svg PUBLIC "-//W3C//DTD SVG 1.1//EN" "http://www.w3.org/Graphics/SVG/1.1/DTD/svg11.dtd">
<svg version="1.1" id="Layer_1" xmlns="http://www.w3.org/2000/svg" xmlns:xlink="http://www.w3.org/1999/xlink" x="0px" y="0px"
	 width="27px" height="24px" viewBox="0 0 27 24" enable-background="new 0 0 27 24" xml:space="preserve">
<rect fill="none" width="27" height="24"/>
<g>
	<path fill-rule="evenodd" clip-rule="evenodd" d="M25.801,21.416c-0.071,0.186-0.12,0.383-0.219,0.553
		c-0.313,0.544-0.8,0.821-1.423,0.829c-1.017,0.011-2.034,0.005-3.051,0.002c-0.278-0.001-0.445-0.145-0.443-0.365
		c0.001-0.219,0.167-0.354,0.448-0.354c0.985-0.002,1.97,0.001,2.955-0.002c0.643-0.001,1.012-0.371,1.012-1.015
		c0.001-5.229,0-10.458,0-15.687c0-0.071,0-0.142,0-0.245c-0.118,0-0.219,0-0.32,0c-5.572,0-11.146,0-16.718,0
		c-0.088,0-0.177,0.005-0.264-0.004C7.583,5.108,7.469,4.988,7.455,4.8C7.44,4.609,7.543,4.476,7.729,4.432
		c0.099-0.024,0.207-0.018,0.31-0.018c5.573-0.001,11.146-0.001,16.719-0.001c0.096,0,0.19,0,0.352,0
		c-0.033-0.6-0.005-1.197-0.115-1.768c-0.126-0.65-0.746-1.073-1.433-1.109c-0.064-0.003-0.128-0.002-0.192-0.002
		c-6.582,0-13.164,0-19.746-0.002c-0.505,0-0.971,0.12-1.285,0.525C2.155,2.292,1.989,2.594,1.952,2.884
		C1.889,3.378,1.935,3.886,1.935,4.413c0.095,0,0.181,0,0.266,0c1.177,0,2.354,0,3.531,0.001c0.095,0,0.195,0.004,0.283,0.034
		c0.173,0.06,0.275,0.21,0.217,0.374c-0.043,0.121-0.179,0.22-0.293,0.299C5.884,5.16,5.783,5.133,5.703,5.133
		c-1.161,0-2.322,0-3.483,0c-0.087,0-0.174,0-0.299,0c0,0.098,0,0.182,0,0.266c0,5.212,0,10.425,0,15.638
		c0,0.687,0.36,1.043,1.057,1.043c5.292,0,10.585,0,15.878,0c0.096,0,0.193-0.004,0.288,0.007c0.183,0.021,0.291,0.133,0.312,0.312
		c0.021,0.191-0.072,0.328-0.26,0.378c-0.098,0.026-0.205,0.023-0.309,0.023c-5.229,0.001-10.458-0.012-15.686,0.012
		c-1.068,0.005-1.784-0.449-2.001-1.396c0-6.214,0-12.429,0-18.643C1.241,2.637,1.278,2.5,1.324,2.366
		c0.331-0.969,1.192-1.554,2.297-1.554c6.587,0,13.173,0,19.76,0c0.071,0,0.145-0.001,0.216,0.004
		c0.956,0.07,1.638,0.539,2.028,1.416c0.076,0.172,0.118,0.36,0.176,0.541C25.801,8.987,25.801,15.202,25.801,21.416z"/>
	<path fill-rule="evenodd" clip-rule="evenodd" d="M22.024,15.655c-0.373-0.015-0.733-0.235-0.948-0.665
		c-0.065-0.131-0.139-0.165-0.273-0.165c-4.868,0.003-9.737,0.003-14.605,0c-0.136,0-0.208,0.036-0.273,0.166
		c-0.245,0.492-0.749,0.741-1.273,0.652c-0.507-0.087-0.892-0.49-0.977-1.023c-0.078-0.488,0.183-0.987,0.661-1.224
		c0.128-0.063,0.17-0.133,0.17-0.271c-0.005-1.377-0.005-2.754,0-4.131c0-0.131-0.042-0.196-0.16-0.255
		c-0.491-0.247-0.752-0.742-0.669-1.24c0.088-0.532,0.469-0.924,0.985-1.015c0.512-0.09,1.026,0.165,1.266,0.665
		c0.083,0.173,0.199,0.153,0.33,0.153c4.564,0,9.128,0,13.693,0c0.288,0,0.576-0.006,0.864,0.002
		c0.129,0.004,0.195-0.036,0.256-0.156c0.25-0.497,0.757-0.754,1.269-0.664c0.524,0.092,0.909,0.496,0.99,1.038
		c0.072,0.477-0.189,0.977-0.652,1.207c-0.135,0.067-0.182,0.14-0.181,0.29c0.006,1.361,0.006,2.722,0,4.083
		c-0.001,0.159,0.048,0.233,0.192,0.306c0.506,0.253,0.746,0.808,0.611,1.355C23.171,15.288,22.688,15.658,22.024,15.655z
		 M13.476,14.106c0.593,0,1.185,0,1.777,0c1.842,0,3.683-0.002,5.524,0.004c0.156,0.001,0.222-0.061,0.313-0.184
		c0.153-0.204,0.368-0.362,0.55-0.547c0.058-0.06,0.133-0.141,0.133-0.213c0.008-1.4,0.008-2.802,0-4.203
		c0-0.072-0.073-0.154-0.132-0.213c-0.178-0.178-0.4-0.323-0.536-0.526c-0.105-0.157-0.197-0.207-0.374-0.206
		c-2.186,0.005-4.371,0.003-6.557,0.003c-2.634,0-5.268,0.001-7.902-0.003c-0.175,0-0.269,0.046-0.375,0.204
		C5.761,8.427,5.539,8.573,5.361,8.75C5.303,8.809,5.229,8.891,5.228,8.963c-0.008,1.401-0.008,2.802,0,4.203
		c0,0.072,0.074,0.154,0.132,0.213c0.177,0.179,0.4,0.323,0.537,0.526c0.105,0.158,0.198,0.205,0.374,0.205
		C8.672,14.105,11.074,14.106,13.476,14.106z M4.852,13.993c-0.259,0.003-0.475,0.222-0.471,0.478
		c0.004,0.258,0.221,0.466,0.482,0.463c0.263-0.003,0.47-0.213,0.467-0.475C5.328,14.2,5.112,13.989,4.852,13.993z M22.139,13.992
		c-0.26,0.002-0.472,0.217-0.469,0.477c0.002,0.262,0.212,0.467,0.477,0.465c0.26-0.002,0.475-0.217,0.473-0.473
		C22.616,14.204,22.397,13.99,22.139,13.992z M5.331,7.673c0.004-0.26-0.206-0.476-0.466-0.479C4.607,7.19,4.386,7.402,4.382,7.658
		C4.377,7.912,4.596,8.137,4.851,8.141C5.104,8.146,5.327,7.929,5.331,7.673z M22.618,7.671c0.005-0.254-0.213-0.475-0.47-0.478
		C21.888,7.191,21.673,7.4,21.67,7.66c-0.003,0.256,0.212,0.479,0.467,0.482C22.39,8.145,22.614,7.925,22.618,7.671z"/>
	<path fill-rule="evenodd" clip-rule="evenodd" d="M18.432,20.039c-1.081,0-2.162,0.001-3.243-0.001
		c-0.572,0-0.815-0.246-0.816-0.82c-0.001-0.376-0.003-0.753,0.001-1.129c0.006-0.477,0.272-0.749,0.746-0.749
		c2.211-0.003,4.421-0.003,6.631-0.001c0.481,0.001,0.742,0.262,0.748,0.742c0.005,0.392,0.003,0.784,0.001,1.177
		c-0.003,0.536-0.243,0.779-0.776,0.78C20.625,20.04,19.528,20.039,18.432,20.039z M15.106,19.303c2.224,0,4.436,0,6.654,0
		c0-0.418,0-0.82,0-1.225c-2.229,0-4.439,0-6.654,0C15.106,18.494,15.106,18.891,15.106,19.303z"/>
	<path fill-rule="evenodd" clip-rule="evenodd" d="M8.721,18.155c-1.225,0-2.45,0-3.675-0.001c-0.08,0-0.162,0.006-0.24-0.007
		c-0.167-0.027-0.274-0.127-0.296-0.299c-0.023-0.181,0.048-0.319,0.222-0.379c0.088-0.03,0.188-0.034,0.283-0.034
		c2.482-0.002,4.964-0.002,7.446-0.001c0.08,0,0.163-0.005,0.238,0.016c0.184,0.049,0.289,0.17,0.276,0.367
		c-0.012,0.194-0.125,0.306-0.316,0.332c-0.071,0.01-0.144,0.005-0.216,0.005C11.203,18.155,9.961,18.155,8.721,18.155z"/>
	<path fill-rule="evenodd" clip-rule="evenodd" d="M8.739,19.942c-1.233,0-2.466,0.001-3.699,0c-0.088,0-0.178,0.004-0.263-0.014
		c-0.168-0.036-0.262-0.148-0.271-0.321c-0.009-0.171,0.065-0.301,0.23-0.352c0.097-0.03,0.205-0.032,0.308-0.032
		c2.466-0.002,4.932-0.002,7.397,0c0.103,0,0.237-0.017,0.302,0.038c0.103,0.088,0.201,0.224,0.223,0.352
		c0.027,0.165-0.097,0.282-0.266,0.315c-0.085,0.018-0.175,0.014-0.263,0.014C11.205,19.943,9.972,19.942,8.739,19.942z"/>
	<path fill-rule="evenodd" clip-rule="evenodd" d="M20.965,2.765c0.688,0,1.376-0.001,2.063,0c0.298,0.001,0.469,0.138,0.462,0.364
		c-0.005,0.219-0.172,0.355-0.453,0.355c-1.392,0.002-2.783,0.002-4.176,0c-0.278,0-0.447-0.141-0.451-0.359
		c-0.003-0.218,0.166-0.359,0.443-0.36C19.557,2.763,20.261,2.765,20.965,2.765z"/>
	<path fill-rule="evenodd" clip-rule="evenodd" d="M18.767,9.931c0,0.276,0,0.513,0,0.772c0.165,0,0.314,0,0.465,0
		c0.508,0,0.688,0.092,0.692,0.355c0.006,0.271-0.175,0.366-0.703,0.366c-0.144,0-0.287,0-0.449,0c0,0.256,0,0.498,0,0.773
		c0.266,0,0.526-0.003,0.787,0c0.291,0.003,0.465,0.149,0.456,0.376c-0.008,0.222-0.166,0.343-0.456,0.344
		c-0.368,0.002-0.736,0.003-1.104-0.001c-0.285-0.002-0.419-0.123-0.42-0.406c-0.007-0.959-0.006-1.919-0.001-2.879
		c0.002-0.295,0.136-0.418,0.433-0.42c0.376-0.003,0.752-0.003,1.128,0c0.26,0.002,0.422,0.143,0.422,0.357
		c0,0.213-0.164,0.357-0.422,0.361C19.324,9.934,19.054,9.931,18.767,9.931z"/>
	<path fill-rule="evenodd" clip-rule="evenodd" d="M7.818,9.919c-0.167,0-0.302,0.006-0.437-0.001
		c-0.243-0.014-0.397-0.16-0.396-0.364c0-0.208,0.153-0.35,0.399-0.353c0.528-0.004,1.056-0.004,1.584,0
		c0.25,0.002,0.398,0.138,0.4,0.349c0.002,0.21-0.144,0.352-0.391,0.367c-0.134,0.008-0.27,0.002-0.439,0.002
		c0,0.104,0,0.188,0,0.273c0,0.728,0,1.456,0,2.185c0,0.063,0.003,0.128-0.003,0.191c-0.023,0.228-0.166,0.366-0.37,0.361
		c-0.207-0.005-0.342-0.144-0.345-0.379c-0.006-0.552-0.003-1.104-0.003-1.657C7.818,10.583,7.818,10.272,7.818,9.919z"/>
	<path fill-rule="evenodd" clip-rule="evenodd" d="M12.776,9.918c-0.166,0-0.308,0.008-0.449-0.002
		C12.082,9.9,11.942,9.754,11.95,9.539c0.008-0.208,0.143-0.335,0.385-0.337c0.536-0.005,1.072-0.005,1.608,0
		c0.239,0.002,0.375,0.133,0.381,0.342c0.006,0.206-0.128,0.348-0.357,0.373c-0.071,0.008-0.144,0.003-0.216,0.004s-0.144,0-0.254,0
		c0,0.095,0,0.179,0,0.263c0,0.776,0.003,1.553-0.001,2.329c-0.001,0.291-0.187,0.462-0.433,0.409
		c-0.218-0.047-0.288-0.201-0.287-0.409c0.002-0.769,0-1.537,0-2.305C12.776,10.12,12.776,10.034,12.776,9.918z"/>
	<path fill-rule="evenodd" clip-rule="evenodd" d="M15.959,12.212c0.227,0,0.433-0.004,0.638,0.001
		c0.271,0.008,0.417,0.138,0.417,0.36c0,0.224-0.144,0.353-0.418,0.357c-0.312,0.006-0.624,0.007-0.936,0
		c-0.294-0.007-0.42-0.137-0.421-0.435c-0.003-0.953-0.003-1.905,0-2.857c0.001-0.284,0.137-0.439,0.365-0.437
		c0.231,0.001,0.353,0.149,0.354,0.443c0.002,0.76,0.001,1.521,0.001,2.281C15.959,12.012,15.959,12.098,15.959,12.212z"/>
	<path fill-rule="evenodd" clip-rule="evenodd" d="M11.058,11.081c0,0.472,0.002,0.944,0,1.417
		c-0.001,0.282-0.138,0.439-0.365,0.434c-0.214-0.006-0.353-0.165-0.353-0.429c-0.003-0.96-0.003-1.921,0-2.881
		c0.001-0.266,0.139-0.417,0.359-0.418c0.226-0.001,0.356,0.144,0.358,0.414C11.061,10.104,11.058,10.592,11.058,11.081z"/>
</g>
</svg>
