<?xml version="1.0" encoding="utf-8"?>
<!-- Generator: Adobe Illustrator 16.0.0, SVG Export Plug-In . SVG Version: 6.00 Build 0)  -->
<!DOCTYPE svg PUBLIC "-//W3C//DTD SVG 1.1//EN" "http://www.w3.org/Graphics/SVG/1.1/DTD/svg11.dtd">
<svg version="1.1" id="Layer_1" xmlns="http://www.w3.org/2000/svg" xmlns:xlink="http://www.w3.org/1999/xlink" x="0px" y="0px"
	 width="27px" height="24px" viewBox="0 0 27 24" enable-background="new 0 0 27 24" xml:space="preserve">
<rect fill="none" width="27" height="24"/>
<g>
	<path fill-rule="evenodd" clip-rule="evenodd" d="M22.688,8.266c-6.263,0-12.491,0-18.734,0c-0.004,0.088-0.01,0.164-0.01,0.24
		c0,3.554-0.001,7.107,0,10.661c0,0.923,0.35,1.67,1.19,2.098c0.3,0.152,0.67,0.216,1.011,0.229
		c0.858,0.031,1.718,0.007,2.577,0.013c0.431,0.002,0.748,0.271,0.787,0.649c0.043,0.423-0.215,0.816-0.646,0.821
		c-1.177,0.013-2.367,0.073-3.528-0.073c-1.516-0.192-2.709-1.596-2.854-3.124c-0.023-0.24-0.035-0.483-0.035-0.725
		c-0.002-4.74-0.003-9.481,0-14.221c0.001-1.374,0.529-2.487,1.684-3.267C4.7,1.18,5.344,1.004,6.031,1.003
		c4.834-0.002,9.668-0.008,14.502,0.002c1.854,0.004,3.495,1.355,3.848,3.131c0.045,0.228,0.061,0.465,0.061,0.698
		c0.005,2.03-0.001,4.061,0.006,6.091c0.002,0.399-0.162,0.674-0.519,0.837c-0.35,0.159-0.67,0.089-0.961-0.146
		c-0.202-0.164-0.283-0.382-0.282-0.64c0.004-0.812,0.002-1.624,0.002-2.437C22.688,8.455,22.688,8.37,22.688,8.266z M3.964,6.741
		c6.237,0,12.469,0,18.722,0c0-0.667,0.007-1.322-0.001-1.976c-0.017-1.314-0.979-2.263-2.294-2.263
		c-4.738-0.001-9.477-0.001-14.215,0c-1.069,0-1.901,0.653-2.158,1.689C3.994,4.289,3.967,4.389,3.967,4.489
		C3.962,5.236,3.964,5.983,3.964,6.741z"/>
	<path fill-rule="evenodd" clip-rule="evenodd" d="M16.721,22.959c-3.241-0.031-5.462-1.445-6.964-4.041
		c-0.303-0.522-0.515-1.099-0.753-1.657c-0.04-0.093-0.029-0.234,0.013-0.328c1.302-2.884,3.503-4.638,6.643-5.063
		c3.673-0.496,7.175,1.55,8.665,4.938c0.087,0.199,0.107,0.376,0.034,0.58c-1.079,3.038-3.146,4.921-6.369,5.443
		C17.506,22.91,17.013,22.931,16.721,22.959z M16.747,21.423c2.736-0.148,4.78-1.384,6.045-3.854
		c0.076-0.149,0.068-0.27-0.007-0.413c-1.272-2.445-3.282-3.799-6.038-3.799c-2.745,0-4.751,1.347-6.028,3.778
		c-0.09,0.172-0.082,0.311,0.006,0.478C11.992,20.047,14.021,21.269,16.747,21.423z"/>
	<path fill-rule="evenodd" clip-rule="evenodd" d="M14.466,5.758c-0.534,0-0.92-0.367-0.924-0.875
		C13.539,4.369,13.931,4,14.479,4.001c0.533,0,0.921,0.367,0.925,0.874C15.408,5.388,15.014,5.759,14.466,5.758z"/>
	<path fill-rule="evenodd" clip-rule="evenodd" d="M17.264,4.001c0.545,0,0.916,0.351,0.921,0.869
		c0.004,0.529-0.37,0.889-0.927,0.888c-0.544,0-0.916-0.352-0.921-0.87C16.332,4.36,16.708,4,17.264,4.001z"/>
	<path fill-rule="evenodd" clip-rule="evenodd" d="M19.874,5.758c-0.535-0.002-0.908-0.368-0.905-0.887
		c0.004-0.525,0.381-0.873,0.944-0.871c0.532,0.002,0.91,0.372,0.905,0.886C20.813,5.41,20.434,5.76,19.874,5.758z"/>
	<path fill-rule="evenodd" clip-rule="evenodd" d="M16.715,20.374c-1.664-0.031-3.007-1.407-2.974-3.046
		c0.034-1.663,1.412-3.004,3.052-2.967c1.656,0.038,2.987,1.4,2.962,3.033C19.729,19.057,18.354,20.405,16.715,20.374z
		 M15.292,17.353c-0.012,0.798,0.643,1.462,1.446,1.47c0.8,0.007,1.463-0.649,1.466-1.451c0.003-0.791-0.637-1.441-1.436-1.458
		C15.973,15.896,15.305,16.547,15.292,17.353z"/>
</g>
</svg>
