<?xml version="1.0" encoding="UTF-8" standalone="no"?>
<!-- Created with Inkscape (http://www.inkscape.org/) -->

<svg
   version="1.1"
   id="svg1"
   width="36"
   height="32"
   viewBox="0 0 36 32"
   sodipodi:docname="0948f0ce-d3ab-4895-9d04-47824fcfe55d.ai"
   xmlns:inkscape="http://www.inkscape.org/namespaces/inkscape"
   xmlns:sodipodi="http://sodipodi.sourceforge.net/DTD/sodipodi-0.dtd"
   xmlns="http://www.w3.org/2000/svg"
   xmlns:svg="http://www.w3.org/2000/svg">
  <defs
     id="defs1">
    <clipPath
       clipPathUnits="userSpaceOnUse"
       id="clipPath2">
      <path
         d="M 0,24 H 27 V 0 H 0 Z"
         transform="translate(-11.5684,-2.1912998)"
         id="path2" />
    </clipPath>
    <clipPath
       clipPathUnits="userSpaceOnUse"
       id="clipPath4">
      <path
         d="M 0,24 H 27 V 0 H 0 Z"
         transform="translate(-3.1288001,-19.5895)"
         id="path4" />
    </clipPath>
    <clipPath
       clipPathUnits="userSpaceOnUse"
       id="clipPath6">
      <path
         d="M 0,24 H 27 V 0 H 0 Z"
         transform="translate(-13.2297,-16.8273)"
         id="path6" />
    </clipPath>
    <clipPath
       clipPathUnits="userSpaceOnUse"
       id="clipPath8">
      <path
         d="M 0,24 H 27 V 0 H 0 Z"
         transform="translate(-7.0853002,-13.650501)"
         id="path8" />
    </clipPath>
    <clipPath
       clipPathUnits="userSpaceOnUse"
       id="clipPath10">
      <path
         d="M 0,24 H 27 V 0 H 0 Z"
         transform="translate(-20.021701,-16.3156)"
         id="path10" />
    </clipPath>
    <clipPath
       clipPathUnits="userSpaceOnUse"
       id="clipPath12">
      <path
         d="M 0,24 H 27 V 0 H 0 Z"
         transform="translate(-13.223001,-7.8708999)"
         id="path12" />
    </clipPath>
    <clipPath
       clipPathUnits="userSpaceOnUse"
       id="clipPath14">
      <path
         d="M 0,24 H 27 V 0 H 0 Z"
         id="path14" />
    </clipPath>
    <clipPath
       clipPathUnits="userSpaceOnUse"
       id="clipPath16">
      <path
         d="M 0,24 H 27 V 0 H 0 Z"
         transform="translate(-6.2647001,-13.689201)"
         id="path16" />
    </clipPath>
    <clipPath
       clipPathUnits="userSpaceOnUse"
       id="clipPath18">
      <path
         d="M 0,24 H 27 V 0 H 0 Z"
         transform="translate(-5.5242001,-11.988501)"
         id="path18" />
    </clipPath>
    <clipPath
       clipPathUnits="userSpaceOnUse"
       id="clipPath20">
      <path
         d="M 0,24 H 27 V 0 H 0 Z"
         id="path20" />
    </clipPath>
    <clipPath
       clipPathUnits="userSpaceOnUse"
       id="clipPath22">
      <path
         d="M 0,24 H 27 V 0 H 0 Z"
         transform="translate(-4.4658001,-9.6822002)"
         id="path22" />
    </clipPath>
    <clipPath
       clipPathUnits="userSpaceOnUse"
       id="clipPath24">
      <path
         d="M 0,24 H 27 V 0 H 0 Z"
         id="path24" />
    </clipPath>
    <clipPath
       clipPathUnits="userSpaceOnUse"
       id="clipPath26">
      <path
         d="M 0,24 H 27 V 0 H 0 Z"
         transform="translate(-13.0207,-18.5452)"
         id="path26" />
    </clipPath>
  </defs>
  <sodipodi:namedview
     id="namedview1"
     pagecolor="#ffffff"
     bordercolor="#000000"
     borderopacity="0.25"
     inkscape:showpageshadow="2"
     inkscape:pageopacity="0.0"
     inkscape:pagecheckerboard="0"
     inkscape:deskcolor="#d1d1d1">
    <inkscape:page
       x="0"
       y="0"
       inkscape:label="1"
       id="page1"
       width="36"
       height="32"
       margin="0"
       bleed="0" />
  </sodipodi:namedview>
  <g
     id="layer-MC0"
     inkscape:groupmode="layer"
     inkscape:label="Layer 1">
    <path
       id="path1"
       d="M 0,0 V 0.588 H 6.292 V 1.182 C 5.983,1.182 5.673,1.214 5.372,1.175 4.976,1.123 4.786,1.271 4.647,1.641 4.407,2.278 4.103,2.89 3.832,3.515 3.743,3.72 3.69,3.955 3.368,3.854 v 0.599 h 0.231 c 2.169,0 4.338,0 6.507,0 0.712,0 1.054,0.339 1.054,1.045 0,0.643 -0.002,1.286 -0.003,1.929 0,0.012 -0.007,0.024 -0.019,0.06 H -5.912 V 8.078 H 11.16 c 0,0.1 0,0.171 0,0.242 0,2.906 0,5.812 0,8.718 0,0.683 -0.345,1.026 -1.031,1.026 -1.571,0 -3.142,0 -4.713,0 H 5.167 v 0.592 h 0.234 c 1.564,0 3.128,0 4.693,0 0.899,0 1.39,-0.368 1.638,-1.224 0.004,-0.012 0.013,-0.023 0.02,-0.034 V 5.117 C 11.393,4.125 11.012,3.862 9.934,3.862 H 4.573 4.326 C 4.563,3.326 4.784,2.823 5.007,2.321 5.087,2.142 5.128,1.899 5.268,1.807 5.406,1.716 5.647,1.775 5.842,1.773 c 0.346,-0.002 0.692,0 1.06,0 L 6.902,0 Z"
       style="fill:#000000;fill-opacity:1;fill-rule:nonzero;stroke:none"
       transform="matrix(1.3333333,0,0,-1.3333333,15.424533,29.078267)"
       clip-path="url(#clipPath2)" />
    <path
       id="path3"
       d="m 0,0 c 0.024,0.074 0.048,0.149 0.072,0.223 0.186,0.581 0.705,1.02 1.312,1.026 1.721,0.016 3.444,0.005 5.166,0.004 0.005,0 0.011,-0.005 0.034,-0.015 V 0.666 h -0.23 c -1.59,0 -3.181,0 -4.772,0 -0.631,0 -0.99,-0.358 -0.99,-0.988 0,-3.871 0,-7.741 0,-11.612 0,-0.654 0.355,-1.011 1.009,-1.011 3.109,-10e-4 6.218,0 9.327,0 0.084,0 0.168,0 0.264,0 v -0.591 h -0.206 c -0.894,0 -1.788,-0.007 -2.682,0.006 -0.185,0.002 -0.262,-0.062 -0.329,-0.222 -0.237,-0.561 -0.489,-1.116 -0.735,-1.673 -0.025,-0.058 -0.046,-0.118 -0.078,-0.201 h 2.727 v -0.581 H 5.466 v -0.594 h 2.382 v -0.597 H 4.851 v 1.772 c 0.515,0 0.994,0.007 1.473,-0.003 0.142,-0.003 0.206,0.047 0.259,0.173 0.207,0.488 0.425,0.972 0.639,1.457 0.065,0.148 0.129,0.295 0.203,0.463 -0.109,0 -0.187,0 -0.265,0 -1.873,0 -3.745,-0.002 -5.617,0.002 -0.643,0.001 -1.12,0.287 -1.406,0.867 -0.06,0.122 -0.092,0.257 -0.137,0.386 z"
       style="fill:#000000;fill-opacity:1;fill-rule:nonzero;stroke:none"
       transform="matrix(1.3333333,0,0,-1.3333333,4.1717333,5.8806667)"
       clip-path="url(#clipPath4)" />
    <path
       id="path5"
       d="M 0,0 C 1.36,0.003 2.472,1.114 2.466,2.466 2.461,3.822 1.348,4.927 -0.01,4.926 -1.365,4.924 -2.479,3.809 -2.476,2.456 -2.473,1.102 -1.36,-0.003 0,0 m -0.006,-0.591 c -1.689,0 -3.061,1.366 -3.064,3.048 -0.002,1.688 1.381,3.064 3.075,3.06 C 1.687,5.514 3.064,4.134 3.06,2.456 3.055,0.772 1.684,-0.591 -0.006,-0.591"
       style="fill:#000000;fill-opacity:1;fill-rule:nonzero;stroke:none"
       transform="matrix(1.3333333,0,0,-1.3333333,17.6396,9.5636)"
       clip-path="url(#clipPath6)" />
    <path
       id="path7"
       d="M 0,0 C -0.122,0.15 -0.24,0.297 -0.359,0.444 1.45,1.977 3.587,2.209 5.524,0.899 6.456,0.269 7.149,-0.582 7.719,-1.539 7.754,-1.599 7.79,-1.658 7.843,-1.745 8.501,-0.048 9.416,1.428 10.858,2.561 10.978,2.405 11.091,2.256 11.215,2.096 11.13,2.024 11.051,1.958 10.973,1.891 9.686,0.785 8.88,-0.631 8.317,-2.204 8.282,-2.302 8.253,-2.403 8.223,-2.504 8.14,-2.787 8.04,-2.853 7.749,-2.779 7.693,-2.764 7.641,-2.679 7.612,-2.615 7.116,-1.548 6.463,-0.594 5.542,0.15 3.953,1.433 2.199,1.499 0.503,0.36 0.335,0.247 0.173,0.124 0,0"
       style="fill:#000000;fill-opacity:1;fill-rule:nonzero;stroke:none"
       transform="matrix(1.3333333,0,0,-1.3333333,9.4470667,13.799333)"
       clip-path="url(#clipPath8)" />
    <path
       id="path9"
       d="M 0,0 C 0.706,0 1.279,0.566 1.284,1.268 1.289,1.973 0.705,2.561 -0.001,2.56 -0.703,2.56 -1.277,1.987 -1.281,1.286 -1.284,0.569 -0.717,0 0,0 m -0.009,-0.592 c -1.04,0.004 -1.87,0.842 -1.864,1.883 0.006,1.026 0.845,1.86 1.871,1.861 1.031,0 1.88,-0.849 1.879,-1.878 C 1.875,0.24 1.03,-0.596 -0.009,-0.592"
       style="fill:#000000;fill-opacity:1;fill-rule:nonzero;stroke:none"
       transform="matrix(1.3333333,0,0,-1.3333333,26.6956,10.245867)"
       clip-path="url(#clipPath10)" />
    <path
       id="path11"
       d="M 0,0 C 0.154,-0.001 0.288,0.128 0.293,0.284 0.299,0.453 0.173,0.584 0.003,0.585 -0.16,0.586 -0.284,0.469 -0.289,0.307 -0.295,0.142 -0.162,0.001 0,0 M 0.006,1.178 C 0.499,1.176 0.892,0.781 0.889,0.291 0.886,-0.195 0.482,-0.597 -0.002,-0.594 c -0.486,0.003 -0.886,0.407 -0.884,0.894 0.002,0.49 0.398,0.88 0.892,0.878"
       style="fill:#000000;fill-opacity:1;fill-rule:nonzero;stroke:none"
       transform="matrix(1.3333333,0,0,-1.3333333,17.630667,21.505467)"
       clip-path="url(#clipPath12)" />
    <path
       id="path13"
       d="M 22.1,8.509 H 20.15 V 9.074 H 22.1 Z"
       style="fill:#000000;fill-opacity:1;fill-rule:nonzero;stroke:none"
       transform="matrix(1.3333333,0,0,-1.3333333,0,32)"
       clip-path="url(#clipPath14)" />
    <path
       id="path15"
       d="M 0,0 C 0.127,-0.135 0.251,-0.267 0.386,-0.412 0.244,-0.533 0.107,-0.65 -0.052,-0.786 -0.155,-0.689 -0.295,-0.56 -0.45,-0.416 -0.297,-0.274 -0.158,-0.146 0,0"
       style="fill:#000000;fill-opacity:1;fill-rule:nonzero;stroke:none"
       transform="matrix(1.3333333,0,0,-1.3333333,8.3529333,13.747733)"
       clip-path="url(#clipPath16)" />
    <path
       id="path17"
       d="M 0,0 C -0.163,0.11 -0.318,0.214 -0.489,0.329 -0.36,0.497 -0.243,0.65 -0.111,0.822 0.045,0.694 0.189,0.576 0.345,0.448 0.227,0.295 0.117,0.152 0,0"
       style="fill:#000000;fill-opacity:1;fill-rule:nonzero;stroke:none"
       transform="matrix(1.3333333,0,0,-1.3333333,7.3656,16.015333)"
       clip-path="url(#clipPath18)" />
    <path
       id="path19"
       d="m 13.632,3.954 h 0.57 V 3.388 h -0.57 z"
       style="fill:#000000;fill-opacity:1;fill-rule:nonzero;stroke:none"
       transform="matrix(1.3333333,0,0,-1.3333333,0,32)"
       clip-path="url(#clipPath20)" />
    <path
       id="path21"
       d="M 0,0 V 0.58 H 0.581 C 0.581,0.416 0.587,0.257 0.576,0.098 0.573,0.063 0.507,0.008 0.467,0.004 0.319,-0.007 0.17,0 0,0"
       style="fill:#000000;fill-opacity:1;fill-rule:nonzero;stroke:none"
       transform="matrix(1.3333333,0,0,-1.3333333,5.9544,19.0904)"
       clip-path="url(#clipPath22)" />
    <path
       id="path23"
       d="m 19.533,8.512 h -0.564 v 0.563 h 0.564 z"
       style="fill:#000000;fill-opacity:1;fill-rule:nonzero;stroke:none"
       transform="matrix(1.3333333,0,0,-1.3333333,0,32)"
       clip-path="url(#clipPath24)" />
    <path
       id="path25"
       d="M 0,0 C 0.387,0.255 0.749,0.494 1.129,0.744 0.744,0.996 0.382,1.234 0,1.486 Z M 2.205,0.743 C 1.266,0.124 0.349,-0.48 -0.594,-1.1 V 2.587 C 0.347,1.967 1.264,1.363 2.205,0.743"
       style="fill:#000000;fill-opacity:1;fill-rule:nonzero;stroke:none"
       transform="matrix(1.3333333,0,0,-1.3333333,17.360933,7.2730667)"
       clip-path="url(#clipPath26)" />
  </g>
</svg>
