<?xml version="1.0" encoding="UTF-8" standalone="no"?>
<!-- Created with Inkscape (http://www.inkscape.org/) -->

<svg
   version="1.1"
   id="svg1"
   width="36"
   height="32"
   viewBox="0 0 36 32"
   sodipodi:docname="ee9c6461-a15f-4005-b5a8-478a6368b934.ai"
   xmlns:inkscape="http://www.inkscape.org/namespaces/inkscape"
   xmlns:sodipodi="http://sodipodi.sourceforge.net/DTD/sodipodi-0.dtd"
   xmlns="http://www.w3.org/2000/svg"
   xmlns:svg="http://www.w3.org/2000/svg">
  <defs
     id="defs1">
    <clipPath
       clipPathUnits="userSpaceOnUse"
       id="clipPath2">
      <path
         d="M 0,24 H 27 V 0 H 0 Z"
         transform="translate(-3.4921001,-8.8083002)"
         id="path2" />
    </clipPath>
    <clipPath
       clipPathUnits="userSpaceOnUse"
       id="clipPath4">
      <path
         d="M 0,24 H 27 V 0 H 0 Z"
         transform="translate(-9.4837,-16.479201)"
         id="path4" />
    </clipPath>
    <clipPath
       clipPathUnits="userSpaceOnUse"
       id="clipPath6">
      <path
         d="M 0,24 H 27 V 0 H 0 Z"
         transform="translate(-13.8055,-9.5607002)"
         id="path6" />
    </clipPath>
    <clipPath
       clipPathUnits="userSpaceOnUse"
       id="clipPath8">
      <path
         d="M 0,24 H 27 V 0 H 0 Z"
         transform="translate(-22.026901,-8.3771005)"
         id="path8" />
    </clipPath>
    <clipPath
       clipPathUnits="userSpaceOnUse"
       id="clipPath10">
      <path
         d="M 0,24 H 27 V 0 H 0 Z"
         transform="translate(-20.2468,-16.8646)"
         id="path10" />
    </clipPath>
    <clipPath
       clipPathUnits="userSpaceOnUse"
       id="clipPath12">
      <path
         d="M 0,24 H 27 V 0 H 0 Z"
         transform="translate(-5.6483002,-7.6614002)"
         id="path12" />
    </clipPath>
    <clipPath
       clipPathUnits="userSpaceOnUse"
       id="clipPath14">
      <path
         d="M 0,24 H 27 V 0 H 0 Z"
         transform="translate(-13.833,-21.323901)"
         id="path14" />
    </clipPath>
    <clipPath
       clipPathUnits="userSpaceOnUse"
       id="clipPath16">
      <path
         d="M 0,24 H 27 V 0 H 0 Z"
         transform="translate(-7.4009002,-17.36)"
         id="path16" />
    </clipPath>
    <clipPath
       clipPathUnits="userSpaceOnUse"
       id="clipPath18">
      <path
         d="M 0,24 H 27 V 0 H 0 Z"
         transform="translate(-14.0532,-11.3683)"
         id="path18" />
    </clipPath>
  </defs>
  <sodipodi:namedview
     id="namedview1"
     pagecolor="#ffffff"
     bordercolor="#000000"
     borderopacity="0.25"
     inkscape:showpageshadow="2"
     inkscape:pageopacity="0.0"
     inkscape:pagecheckerboard="0"
     inkscape:deskcolor="#d1d1d1">
    <inkscape:page
       x="0"
       y="0"
       inkscape:label="1"
       id="page1"
       width="36"
       height="32"
       margin="0"
       bleed="0" />
  </sodipodi:namedview>
  <g
     id="layer-MC0"
     inkscape:groupmode="layer"
     inkscape:label="Layer 1">
    <path
       id="path1"
       d="M 0,0 C 0.037,0.156 0.064,0.312 0.101,0.468 0.514,2.175 2,3.34 3.762,3.322 H 3.936 V 3.927 C 3.588,3.991 3.23,4.028 2.9,4.12 0.514,4.781 -0.541,7.607 0.798,9.671 0.89,9.809 1,9.91 1.156,9.845 1.248,9.809 1.349,9.699 1.367,9.598 1.386,9.515 1.321,9.396 1.275,9.313 0.973,8.818 0.817,8.267 0.807,7.689 0.789,6.056 2.046,4.707 3.716,4.56 5.248,4.423 6.735,5.56 6.983,7.111 7.194,8.405 6.772,9.478 5.689,10.222 4.615,10.965 3.468,10.974 2.321,10.341 2.294,10.323 2.257,10.304 2.221,10.286 2.055,10.203 1.899,10.249 1.817,10.378 c -0.083,0.146 -0.046,0.312 0.11,0.413 0.422,0.275 0.89,0.449 1.385,0.532 0.202,0.036 0.404,0.046 0.615,0.064 0.019,0.211 0.019,0.413 0.055,0.615 0.156,0.871 0.881,1.505 1.771,1.523 1.248,0.018 2.496,0.009 3.753,0.009 h 5.248 c 0.973,0 1.725,-0.596 1.909,-1.514 0.037,-0.202 0.037,-0.422 0.055,-0.633 2.028,0.018 3.725,-1.688 3.716,-3.735 -0.009,-1.936 -1.56,-3.67 -3.716,-3.706 V 3.331 C 17.883,3.303 18.847,2.854 19.59,1.964 20.15,1.285 20.416,0.495 20.434,-0.395 20.462,-2.11 19.021,-4.102 16.7,-4.12 V -4.771 C 16.672,-5.735 16.085,-6.469 15.167,-6.643 15.021,-6.671 14.865,-6.671 14.709,-6.671 H 5.937 c -1.202,0 -1.982,0.789 -1.982,1.991 v 0.56 C 3.588,-4.074 3.248,-4.065 2.909,-3.991 1.376,-3.652 0.266,-2.432 0.046,-0.881 0.037,-0.835 0.018,-0.789 0.009,-0.752 0,-0.514 0,-0.257 0,0 m 7.111,11.763 c -0.367,0 -0.734,0.009 -1.092,0 C 5.836,11.754 5.726,11.635 5.716,11.451 5.707,11.323 5.698,11.194 5.716,11.075 5.735,10.992 5.781,10.882 5.845,10.846 8.221,9.332 8.221,6.001 5.836,4.514 5.744,4.441 5.716,4.377 5.716,4.267 c 0.01,-0.45 0.01,-0.909 0,-1.358 0,-0.129 0.037,-0.202 0.138,-0.276 2.083,-1.495 2.083,-4.532 0.009,-6.028 -0.11,-0.083 -0.156,-0.165 -0.147,-0.294 0.01,-0.247 0,-0.504 0,-0.761 0,-0.367 0.083,-0.45 0.459,-0.45 h 6.267 2.074 c 0.303,0 0.404,0.101 0.404,0.413 0,0.23 -0.01,0.468 0,0.697 0.009,0.12 -0.037,0.193 -0.138,0.257 -0.652,0.395 -1.129,0.936 -1.441,1.634 -0.348,0.78 -0.431,1.596 -0.211,2.431 0.028,0.092 0.138,0.202 0.23,0.23 0.082,0.018 0.238,-0.037 0.284,-0.111 0.055,-0.082 0.037,-0.22 0.037,-0.339 -0.009,-0.385 -0.083,-0.771 -0.028,-1.147 0.193,-1.257 0.918,-2.11 2.12,-2.496 1.202,-0.385 2.285,-0.11 3.166,0.789 0.89,0.909 1.128,2.019 0.706,3.221 -0.404,1.138 -1.248,1.826 -2.431,2.019 -1.157,0.183 -2.138,-0.193 -2.9,-1.092 -0.174,-0.202 -0.321,-0.248 -0.477,-0.129 -0.156,0.12 -0.165,0.312 0.018,0.505 0.285,0.275 0.578,0.541 0.89,0.789 0.129,0.101 0.175,0.184 0.175,0.34 -0.01,0.376 -0.01,0.761 0,1.137 0.009,0.156 -0.055,0.23 -0.175,0.312 -1.092,0.716 -1.697,1.734 -1.734,3.037 -0.027,1.404 0.587,2.496 1.771,3.258 0.046,0.027 0.128,0.073 0.128,0.11 0.01,0.211 0.01,0.422 -0.027,0.633 -0.018,0.073 -0.147,0.174 -0.229,0.174 -0.368,0.019 -0.744,0.01 -1.111,0.01 -0.147,-0.606 -0.385,-0.845 -0.881,-0.845 H 7.974 c -0.395,0 -0.707,0.23 -0.808,0.588 -0.027,0.045 -0.037,0.128 -0.055,0.238 m 9.607,-0.982 c -1.716,0.01 -3.111,-1.376 -3.12,-3.092 -0.009,-1.725 1.377,-3.138 3.102,-3.138 1.716,-0.009 3.129,1.386 3.129,3.111 0.009,1.725 -1.377,3.119 -3.111,3.119 M 3.734,2.725 C 2.046,2.753 0.615,1.367 0.596,-0.312 0.569,-2.065 1.936,-3.496 3.67,-3.514 c 1.725,-0.019 3.129,1.33 3.157,3.028 0.018,1.78 -1.331,3.193 -3.093,3.211 m 1.386,8.469 c 0,0.129 0.009,0.248 0.018,0.358 0.037,0.395 0.322,0.743 0.707,0.771 0.449,0.037 0.899,0.027 1.349,0.009 0.275,-0.018 0.458,-0.229 0.504,-0.514 0.046,-0.275 0.092,-0.321 0.377,-0.321 h 2.587 1.89 c 0.266,0 0.331,0.046 0.367,0.312 0.046,0.312 0.276,0.532 0.615,0.541 0.367,0.01 0.734,0.019 1.092,0 0.523,-0.027 0.862,-0.394 0.881,-0.917 v -0.239 c 0.22,0.055 0.404,0.101 0.578,0.147 0.119,0.982 -0.532,1.624 -1.441,1.615 -2.89,-0.028 -5.78,-0.009 -8.671,-0.009 -0.156,0 -0.321,0 -0.477,-0.037 C 4.817,12.736 4.45,12.13 4.551,11.35 4.725,11.286 4.909,11.24 5.12,11.194 M 15.516,-3.909 V -4.45 c 0,-0.698 -0.349,-1.046 -1.037,-1.046 H 6.166 c -0.688,0 -1.028,0.348 -1.028,1.027 v 0.643 C 4.918,-3.9 4.744,-3.955 4.56,-4.01 c 0,-0.33 -0.027,-0.66 0.009,-0.982 0.065,-0.642 0.634,-1.091 1.358,-1.091 h 8.818 c 0.064,0 0.138,0 0.202,0.009 0.532,0.055 0.909,0.33 1.092,0.826 0.147,0.385 0.073,0.798 0.083,1.192 -0.23,0.055 -0.404,0.092 -0.606,0.147 M 4.551,4.001 V 3.23 C 4.744,3.175 4.918,3.111 5.12,3.055 V 4.147 C 4.918,4.092 4.744,4.056 4.551,4.001 M 16.094,3.276 v 0.725 c -0.193,0.045 -0.376,0.091 -0.56,0.137 v -1 c 0.193,0.046 0.367,0.092 0.56,0.138"
       style="fill:#000000;fill-opacity:1;fill-rule:nonzero;stroke:none"
       transform="matrix(1.3333333,0,0,-1.3333333,4.6561333,20.2556)"
       clip-path="url(#clipPath2)" />
    <path
       id="path3"
       d="m 0,0 v -1.156 c -0.009,-0.532 -0.358,-0.909 -0.89,-0.918 -0.78,-0.018 -1.569,-0.018 -2.349,0 -0.532,0.009 -0.89,0.386 -0.899,0.918 -0.009,0.761 -0.009,1.532 0,2.294 0.009,0.569 0.376,0.927 0.945,0.927 h 2.257 C -0.349,2.065 0,1.707 0.009,1.119 0,0.743 0,0.376 0,0 M -0.596,-0.009 V 1.11 c 0,0.276 -0.092,0.367 -0.377,0.367 H -3.184 C -3.459,1.477 -3.56,1.376 -3.56,1.101 V -1.11 c 0,-0.266 0.11,-0.376 0.376,-0.376 h 2.211 c 0.266,0 0.367,0.1 0.367,0.376 0.019,0.367 0.01,0.734 0.01,1.101"
       style="fill:#000000;fill-opacity:1;fill-rule:nonzero;stroke:none"
       transform="matrix(1.3333333,0,0,-1.3333333,12.644933,10.027733)"
       clip-path="url(#clipPath4)" />
    <path
       id="path5"
       d="M 0,0 C -0.56,0 -1.064,0.165 -1.532,0.477 -1.597,0.523 -1.707,0.532 -1.78,0.514 -1.945,0.477 -2.11,0.404 -2.266,0.349 -2.441,0.294 -2.597,0.321 -2.725,0.45 -2.863,0.578 -2.899,0.743 -2.844,0.927 -2.835,0.963 -2.817,1 -2.808,1.037 -2.643,1.459 -2.569,1.872 -2.633,2.349 -2.854,4.102 -1.413,5.542 0.303,5.34 1.395,5.212 2.165,4.606 2.523,3.569 2.89,2.523 2.643,1.578 1.872,0.78 1.367,0.248 0.707,-0.009 0,0 m -2.211,1.037 c 0.018,-0.009 0.046,-0.019 0.064,-0.019 0.073,0.019 0.138,0.037 0.211,0.065 0.266,0.119 0.495,0.064 0.725,-0.101 C -0.505,0.477 0.395,0.45 1.11,0.899 1.844,1.367 2.211,2.193 2.055,3.065 1.872,4.129 0.863,4.863 -0.257,4.744 -1.294,4.634 -2.165,3.634 -2.074,2.597 -2.028,2.065 -1.844,1.542 -2.211,1.037"
       style="fill:#000000;fill-opacity:1;fill-rule:nonzero;stroke:none"
       transform="matrix(1.3333333,0,0,-1.3333333,18.407333,19.2524)"
       clip-path="url(#clipPath6)" />
    <path
       id="path7"
       d="m 0,0 c -0.11,-0.138 -0.174,-0.284 -0.284,-0.358 -0.679,-0.404 -1.358,-0.798 -2.047,-1.184 -0.293,-0.165 -0.614,0.01 -0.624,0.349 -0.009,0.798 -0.009,1.597 0,2.395 0,0.33 0.322,0.514 0.606,0.349 C -1.652,1.156 -0.963,0.762 -0.284,0.349 -0.165,0.294 -0.101,0.147 0,0 m -2.349,-0.872 c 0.514,0.294 1,0.578 1.523,0.881 -0.523,0.303 -1.009,0.587 -1.532,0.881 v -1.633 c -0.009,-0.037 0,-0.064 0.009,-0.129"
       style="fill:#000000;fill-opacity:1;fill-rule:nonzero;stroke:none"
       transform="matrix(1.3333333,0,0,-1.3333333,29.3692,20.830533)"
       clip-path="url(#clipPath8)" />
    <path
       id="path9"
       d="M 0,0 H 0.459 C 0.642,-0.009 0.752,-0.11 0.771,-0.275 0.78,-0.45 0.67,-0.578 0.486,-0.587 c -0.147,-0.009 -0.302,0 -0.477,0 v -0.587 -1.239 c 0,-0.22 -0.119,-0.349 -0.303,-0.349 -0.183,0 -0.293,0.129 -0.293,0.349 v 1.817 h -0.422 c -0.221,0.009 -0.349,0.119 -0.349,0.302 0,0.184 0.128,0.294 0.349,0.294 0.128,0 0.247,0 0.376,0.009 0.009,0 0.009,0.009 0.037,0.028 v 0.752 c 0,0.606 0.367,0.964 0.972,0.973 H 0.973 C 1.165,1.753 1.285,1.642 1.294,1.477 1.303,1.303 1.174,1.174 0.973,1.174 c -0.211,-0.009 -0.422,0 -0.634,0 -0.22,0 -0.33,-0.11 -0.33,-0.33 C -0.009,0.56 0,0.294 0,0"
       style="fill:#000000;fill-opacity:1;fill-rule:nonzero;stroke:none"
       transform="matrix(1.3333333,0,0,-1.3333333,26.995733,9.5138667)"
       clip-path="url(#clipPath10)" />
    <path
       id="path11"
       d="m 0,0 c -0.633,0.56 -0.752,1.239 -0.569,2 0.092,0.367 0.45,0.468 0.707,0.193 C 0.376,1.945 0.651,1.78 1,1.716 1.019,1.771 1.037,1.826 1.055,1.881 1.275,2.56 2.065,2.844 2.652,2.432 2.78,2.34 2.9,2.34 3.019,2.395 3.221,2.487 3.404,2.477 3.579,2.331 3.744,2.184 3.771,1.991 3.698,1.78 3.643,1.615 3.597,1.431 3.496,1.285 3.349,1.064 3.267,0.835 3.184,0.587 2.854,-0.395 2.028,-1.018 0.982,-1.092 c -0.358,-0.027 -0.716,-0.027 -1.055,0.11 -0.193,0.083 -0.34,0.202 -0.395,0.413 -0.064,0.266 0.037,0.441 0.294,0.514 C -0.119,-0.037 -0.073,-0.018 0,0 M 0.459,-0.486 C 1.294,-0.569 2.386,-0.284 2.688,0.936 2.744,1.147 2.808,1.34 2.955,1.505 3.019,1.578 3.055,1.67 3.12,1.798 2.771,1.716 2.523,1.789 2.266,1.973 2.028,2.147 1.679,1.954 1.633,1.661 1.624,1.587 1.624,1.514 1.615,1.441 1.606,1.202 1.505,1.101 1.266,1.101 0.881,1.101 0.523,1.202 0.184,1.404 0.11,1.45 0.046,1.486 -0.037,1.542 -0.083,1.156 0.009,0.826 0.275,0.578 0.413,0.45 0.587,0.349 0.743,0.257 0.982,0.11 0.991,-0.128 0.762,-0.284 0.679,-0.358 0.578,-0.413 0.459,-0.486"
       style="fill:#000000;fill-opacity:1;fill-rule:nonzero;stroke:none"
       transform="matrix(1.3333333,0,0,-1.3333333,7.5310667,21.7848)"
       clip-path="url(#clipPath12)" />
    <path
       id="path13"
       d="M 0,0 C 0.156,-0.018 0.275,-0.156 0.266,-0.312 0.257,-0.477 0.101,-0.606 -0.064,-0.587 -0.22,-0.569 -0.34,-0.413 -0.321,-0.266 -0.303,-0.11 -0.147,0.018 0,0"
       style="fill:#000000;fill-opacity:1;fill-rule:nonzero;stroke:none"
       transform="matrix(1.3333333,0,0,-1.3333333,18.444,3.5681333)"
       clip-path="url(#clipPath14)" />
    <path
       id="path15"
       d="M 0,0 C 0.486,0.009 0.89,-0.385 0.899,-0.872 0.908,-1.358 0.505,-1.771 0.018,-1.771 -0.468,-1.78 -0.872,-1.376 -0.881,-0.89 -0.881,-0.404 -0.486,0 0,0 m 0.312,-0.89 c 0,0.156 -0.128,0.294 -0.284,0.303 -0.166,0.009 -0.303,-0.129 -0.312,-0.285 0,-0.165 0.128,-0.302 0.293,-0.302 0.165,0 0.294,0.128 0.303,0.284"
       style="fill:#000000;fill-opacity:1;fill-rule:nonzero;stroke:none"
       transform="matrix(1.3333333,0,0,-1.3333333,9.8678667,8.8533333)"
       clip-path="url(#clipPath16)" />
    <path
       id="path17"
       d="m 0,0 c -0.083,0.028 -0.239,0.064 -0.385,0.138 -0.156,0.073 -0.303,0.174 -0.441,0.266 -0.56,0.358 -0.468,1 -0.202,1.385 0.083,0.129 0.221,0.156 0.358,0.083 C -0.523,1.798 -0.477,1.679 -0.514,1.523 -0.532,1.468 -0.56,1.413 -0.587,1.358 -0.688,1.11 -0.651,0.982 -0.413,0.844 -0.33,0.798 -0.257,0.752 -0.174,0.697 0.083,0.541 0.211,0.569 0.404,0.807 0.44,0.863 0.486,0.945 0.541,0.945 0.661,0.954 0.817,0.973 0.881,0.908 0.954,0.844 0.991,0.661 0.954,0.578 0.762,0.248 0.477,0.028 0,0"
       style="fill:#000000;fill-opacity:1;fill-rule:nonzero;stroke:none"
       transform="matrix(1.3333333,0,0,-1.3333333,18.7376,16.842267)"
       clip-path="url(#clipPath18)" />
  </g>
</svg>
