<?xml version="1.0" encoding="utf-8"?>
<!-- Generator: Adobe Illustrator 16.0.0, SVG Export Plug-In . SVG Version: 6.00 Build 0)  -->
<!DOCTYPE svg PUBLIC "-//W3C//DTD SVG 1.1//EN" "http://www.w3.org/Graphics/SVG/1.1/DTD/svg11.dtd">
<svg version="1.1" id="Layer_1" xmlns="http://www.w3.org/2000/svg" xmlns:xlink="http://www.w3.org/1999/xlink" x="0px" y="0px"
	 width="27px" height="24px" viewBox="0 0 27 24" enable-background="new 0 0 27 24" xml:space="preserve">
<rect fill="none" width="27" height="24"/>
<g>
	<path fill-rule="evenodd" clip-rule="evenodd" d="M9.505,23c-0.805-0.121-1.383-0.605-1.909-1.181
		c-0.231-0.253-0.484-0.487-0.728-0.729c-1.174-1.175-2.349-2.35-3.523-3.524c-1.094-1.095-1.097-2.589-0.008-3.683
		c0.495-0.497,0.99-0.993,1.472-1.476c0.878,0.877,1.746,1.744,2.643,2.64c-0.248,0.241-0.513,0.498-0.777,0.758
		c-0.199,0.196-0.398,0.392-0.591,0.593c-0.141,0.148-0.167,0.352-0.037,0.485c0.397,0.408,0.809,0.804,1.231,1.22
		c0.055-0.155,0.101-0.296,0.153-0.435c0.34-0.905,0.986-1.452,1.937-1.632c0.716-0.136,1.435-0.262,2.152-0.393
		c0.055-0.01,0.109-0.026,0.234-0.058c-0.077-0.102-0.118-0.194-0.189-0.242c-0.791-0.527-1.305-1.248-1.545-2.168
		c-0.018-0.067-0.086-0.146-0.15-0.171c-0.667-0.256-1.006-0.729-1.007-1.438c-0.001-0.795-0.003-1.589,0-2.384
		c0.011-2.373,1.73-4.309,4.086-4.606c2.519-0.317,4.917,1.606,5.104,4.133c0.066,0.897,0.031,1.803,0.038,2.705
		c0.005,0.63,0.002,1.26,0.001,1.891c-0.002,0.738-0.441,1.201-1.172,1.174c-0.404-0.016-0.719,0.051-0.976,0.399
		c-0.143,0.194-0.386,0.313-0.576,0.476c-0.061,0.051-0.096,0.132-0.171,0.239c0.449,0.083,0.84,0.156,1.231,0.229
		c0.442,0.083,0.89,0.146,1.327,0.252c0.838,0.202,1.433,0.715,1.731,1.521c0.304,0.816,0.561,1.651,0.837,2.479
		c0.007,0.019,0.001,0.041,0.001,0.084c-2.508,0-5.016,0-7.522,0c-0.008,0.015-0.016,0.029-0.023,0.044
		c0.177,0.148,0.354,0.297,0.553,0.464c-0.739,0.663-1.414,1.283-2.106,1.882c-0.315,0.272-0.723,0.358-1.12,0.453
		C9.907,23,9.706,23,9.505,23z M10.654,18.067c0.421,0.422,0.828,0.824,1.226,1.235c0.103,0.105,0.207,0.148,0.355,0.148
		c2.291-0.005,4.581-0.003,6.872-0.003c0.076,0,0.152,0,0.262,0c-0.181-0.541-0.341-1.052-0.522-1.554
		c-0.233-0.646-0.704-1.03-1.373-1.162c-0.575-0.112-1.167-0.162-1.728-0.325c-0.548-0.159-0.921-0.036-1.271,0.402
		c-0.291,0.365-0.657,0.671-0.995,1.009c-0.066-0.063-0.119-0.109-0.169-0.16c-0.421-0.419-0.838-0.843-1.265-1.256
		c-0.061-0.058-0.178-0.1-0.258-0.086c-0.775,0.131-1.55,0.268-2.321,0.418c-0.67,0.132-1.13,0.527-1.369,1.169
		c-0.078,0.208-0.137,0.422-0.214,0.629c-0.04,0.107-0.027,0.182,0.061,0.263c0.199,0.186,0.386,0.383,0.579,0.575
		c0.255,0.253,0.405,0.256,0.677,0.011C9.678,18.949,10.156,18.518,10.654,18.067z M13.479,8.284c0.934,1.114,2.1,1.668,3.546,1.583
		c0,0.159,0,0.28,0,0.401c0.115,0.045,0.221,0.086,0.349,0.137c0-0.461,0.007-0.903-0.002-1.344
		c-0.057-2.837-3.098-4.667-5.633-3.391c-0.793,0.399-1.377,1.006-1.78,1.797c-0.473,0.932-0.382,1.926-0.377,2.936
		c0.129-0.05,0.234-0.091,0.358-0.14c0-0.125,0-0.25,0-0.399C11.396,9.952,12.547,9.381,13.479,8.284z M13.478,9.31
		c-0.785,0.717-1.681,1.138-2.72,1.25c-0.047,0.005-0.117,0.113-0.118,0.174c-0.009,0.558-0.019,1.117-0.001,1.675
		c0.059,1.866,1.779,3.154,3.576,2.683c0.4-0.104,0.763-0.289,1.121-0.609c-0.654,0-1.245,0-1.846,0c0-0.244,0-0.469,0-0.713
		c0.093,0,0.17,0,0.247,0c0.673,0,1.347-0.004,2.02,0.003c0.132,0.001,0.218-0.031,0.262-0.159c0.074-0.216,0.206-0.427,0.22-0.646
		c0.047-0.763,0.056-1.528,0.068-2.293c0.001-0.042-0.094-0.108-0.154-0.123c-0.222-0.052-0.451-0.074-0.672-0.13
		C14.722,10.231,14.065,9.851,13.478,9.31z M3.932,14.298c-0.934,0.784-0.863,1.988-0.18,2.672c1.604,1.605,3.203,3.215,4.816,4.811
		c0.771,0.762,1.983,0.659,2.645-0.173c-0.54-0.542-1.076-1.082-1.615-1.623c-0.543,0.423-1.072,0.391-1.572-0.108
		c-0.8-0.799-1.605-1.594-2.395-2.403c-0.145-0.147-0.265-0.342-0.332-0.537c-0.133-0.385,0.005-0.729,0.247-1.015
		C5.006,15.377,4.473,14.842,3.932,14.298z M12.222,20.705c-0.55-0.556-1.077-1.088-1.618-1.635
		c-0.137,0.125-0.282,0.257-0.395,0.359c0.548,0.549,1.084,1.087,1.627,1.631C11.956,20.951,12.096,20.821,12.222,20.705z
		 M6.428,15.022c-0.532-0.532-1.066-1.065-1.588-1.587c-0.114,0.099-0.247,0.213-0.36,0.312c0.551,0.55,1.085,1.084,1.605,1.603
		C6.195,15.245,6.318,15.128,6.428,15.022z M14.491,15.79c-0.333,0.038-0.664,0.105-0.995,0.106
		c-0.337,0.001-0.674-0.063-0.972-0.095c0.312,0.31,0.647,0.643,0.982,0.976C13.819,16.464,14.152,16.13,14.491,15.79z
		 M17.358,12.889c-0.141,0.062-0.337,0.086-0.393,0.188c-0.11,0.203-0.144,0.448-0.21,0.68
		C17.335,13.804,17.441,13.65,17.358,12.889z M9.914,12.226c0-0.397,0-0.775,0-1.163C9.463,11.352,9.463,11.937,9.914,12.226z
		 M17.032,12.246c0.272-0.188,0.371-0.417,0.335-0.701c-0.026-0.209-0.129-0.375-0.335-0.494
		C17.032,11.459,17.032,11.834,17.032,12.246z"/>
	<path fill-rule="evenodd" clip-rule="evenodd" d="M23.643,1c0.049,0.024,0.098,0.05,0.148,0.072
		c0.412,0.177,0.667,0.483,0.674,0.935c0.016,0.981,0.016,1.962,0.001,2.942c-0.008,0.538-0.397,0.938-0.934,1.008
		c-0.063,0.008-0.13,0.021-0.192,0.012c-0.64-0.095-1.169,0.13-1.692,0.489c-0.784,0.537-1.607,1.018-2.414,1.521
		c-0.054,0.033-0.109,0.063-0.204,0.118c0.122-0.723,0.238-1.409,0.36-2.126c-0.269,0-0.524,0-0.78,0
		c-0.812-0.001-1.233-0.419-1.233-1.227c0-0.802,0.02-1.604-0.006-2.405C17.349,1.677,17.585,1.217,18.229,1
		C20.033,1,21.838,1,23.643,1z M19.998,6.649c0.093-0.051,0.155-0.082,0.214-0.119c0.37-0.231,0.761-0.435,1.104-0.701
		c0.601-0.463,1.25-0.672,2.009-0.581c0.312,0.038,0.442-0.119,0.442-0.435c0.002-0.887,0.002-1.775,0-2.662
		c0-0.308-0.122-0.438-0.425-0.438c-1.61-0.002-3.221-0.002-4.831,0c-0.297,0-0.418,0.125-0.418,0.418
		c-0.002,0.902-0.002,1.804,0,2.705c0,0.295,0.124,0.417,0.417,0.418c0.509,0.002,1.017,0,1.525,0.001
		c0.06,0,0.119,0.008,0.192,0.014C20.151,5.732,20.077,6.174,19.998,6.649z"/>
	<path fill-rule="evenodd" clip-rule="evenodd" d="M4.526,9.789c0.352-0.21,0.646-0.385,0.961-0.574
		C5.608,9.416,5.724,9.608,5.852,9.82c-0.698,0.419-1.381,0.83-2.077,1.248C3.358,10.373,2.95,9.694,2.529,8.993
		c0.2-0.122,0.392-0.238,0.605-0.368C3.353,8.987,3.565,9.34,3.793,9.717c0.955-3.449,3.041-5.854,6.394-7.083
		c2.046-0.75,4.128-0.75,6.231-0.13c-0.07,0.23-0.135,0.44-0.202,0.662C12.955,2.297,10,2.862,7.417,5.057
		C5.958,6.296,5.021,7.876,4.526,9.789z"/>
	<path fill-rule="evenodd" clip-rule="evenodd" d="M22.219,9.005c-0.225,0.372-0.42,0.695-0.63,1.042
		c-0.2-0.117-0.394-0.231-0.609-0.357c0.416-0.695,0.826-1.378,1.246-2.08c0.696,0.418,1.38,0.828,2.077,1.247
		c-0.126,0.211-0.242,0.404-0.363,0.606c-0.345-0.205-0.673-0.399-1.021-0.606c1.015,3.434,0.444,6.549-1.711,9.407
		c-0.196-0.16-0.371-0.301-0.55-0.445C22.664,15.152,23.195,12.241,22.219,9.005z"/>
	<path fill-rule="evenodd" clip-rule="evenodd" d="M18.808,3.117c0-0.232,0-0.45,0-0.683c1.407,0,2.811,0,4.23,0
		c0,0.223,0,0.447,0,0.683C21.627,3.117,20.223,3.117,18.808,3.117z"/>
	<path fill-rule="evenodd" clip-rule="evenodd" d="M18.806,4.536c0-0.234,0-0.452,0-0.685c0.938,0,1.864,0,2.81,0
		c0,0.222,0,0.446,0,0.685C20.682,4.536,19.749,4.536,18.806,4.536z"/>
	<path fill-rule="evenodd" clip-rule="evenodd" d="M22.361,3.848c0.23,0,0.448,0,0.679,0c0,0.233,0,0.457,0,0.691
		c-0.231,0-0.449,0-0.679,0C22.361,4.309,22.361,4.09,22.361,3.848z"/>
</g>
</svg>
