<?xml version="1.0" encoding="utf-8"?>
<!-- Generator: Adobe Illustrator 16.0.0, SVG Export Plug-In . SVG Version: 6.00 Build 0)  -->
<!DOCTYPE svg PUBLIC "-//W3C//DTD SVG 1.1//EN" "http://www.w3.org/Graphics/SVG/1.1/DTD/svg11.dtd">
<svg version="1.1" id="Layer_1" xmlns="http://www.w3.org/2000/svg" xmlns:xlink="http://www.w3.org/1999/xlink" x="0px" y="0px"
	 width="27px" height="24px" viewBox="0 0 27 24" enable-background="new 0 0 27 24" xml:space="preserve">
<rect fill="none" width="27" height="24"/>
<g>
	<path fill-rule="evenodd" clip-rule="evenodd" d="M-179.25,5.257c0.879-3.608,1.573-7.273,2.667-10.815
		c7.635-24.739,29.49-41.181,55.936-42.182c1.123-0.042,2.247-0.056,3.371-0.056c86.668-0.003,173.337-0.074,260.007,0.041
		c26.524,0.035,45.852,12.085,57.031,36.279c2.414,5.223,3.333,11.137,4.94,16.733c0,4.5,0,8.999,0,13.499
		c-0.608,2.646-1.161,5.305-1.835,7.935c-6.695,26.115-29.137,43.919-56.775,45.06c-1.121,0.047-2.246,0.059-3.369,0.059
		c-86.666,0.003-173.332,0.079-259.998-0.044c-26.508-0.038-45.852-12.082-57.034-36.273c-2.415-5.224-3.333-11.139-4.941-16.735
		C-179.25,14.256-179.25,9.756-179.25,5.257z M12.717-39.12c-44.106,0-88.213-0.16-132.319,0.051
		c-35.446,0.169-59.757,34.509-48.323,67.808c7.22,21.023,26.497,34.383,49.833,34.389c87.213,0.023,174.427,0.01,261.641,0.006
		c1.374,0,2.749-0.019,4.122-0.066c30.286-1.061,53.544-30.437,47.667-60.2c-4.924-24.943-25.229-41.897-50.677-41.958
		C100.68-39.198,56.698-39.122,12.717-39.12z"/>
	<path fill-rule="evenodd" clip-rule="evenodd" d="M150.295,31.684c-11.264,7.123-22.303,8.107-33.416,1.596
		C102.785,25.02,98.177,6.884,106.353-7.18c8.286-14.255,26.449-19.151,40.667-10.962c14.158,8.154,19.281,26.106,11.148,40.253
		c-1.768,3.075-1.339,4.644,1.107,6.778c3.285,2.865,6.223,6.129,9.314,9.217c2.012,2.011,2.861,4.348,0.717,6.581
		c-2.306,2.403-4.729,1.529-6.838-0.616C158.451,39.984,154.438,35.898,150.295,31.684z M110.912,7.534
		c-0.054,8.822,4.984,17.013,13.257,19.773c3.95,1.318,8.538,1.379,12.761,1.043c3.969-0.318,7.662-2.137,9.357-6.375
		c0.158-0.395,0.795-0.576,1.148-0.918c1.288-1.25,2.959-2.313,3.756-3.829c4.104-7.809,2.653-17.382-3.388-23.96
		c-5.862-6.383-15.169-8.536-23.3-5.388C116.299-8.945,110.966-1.232,110.912,7.534z"/>
</g>
<g>
	<path fill-rule="evenodd" clip-rule="evenodd" d="M-178.25,6.257c0.879-3.608,1.573-7.273,2.667-10.815
		c7.635-24.739,29.49-41.181,55.936-42.182c1.123-0.042,2.247-0.056,3.371-0.056c86.668-0.003,173.337-0.074,260.007,0.041
		c26.524,0.035,45.852,12.085,57.031,36.279c2.414,5.223,3.333,11.137,4.94,16.733c0,4.5,0,8.999,0,13.499
		c-0.608,2.646-1.161,5.305-1.835,7.935c-6.695,26.115-29.137,43.919-56.775,45.06c-1.121,0.047-2.246,0.059-3.369,0.059
		c-86.666,0.003-173.332,0.079-259.998-0.044c-26.508-0.038-45.852-12.082-57.034-36.273c-2.415-5.224-3.333-11.139-4.941-16.735
		C-178.25,15.256-178.25,10.756-178.25,6.257z M13.717-38.12c-44.106,0-88.213-0.16-132.319,0.051
		c-35.446,0.169-59.757,34.509-48.323,67.808c7.22,21.023,26.497,34.383,49.833,34.389c87.213,0.023,174.427,0.01,261.641,0.006
		c1.374,0,2.749-0.019,4.122-0.066c30.286-1.061,53.544-30.437,47.667-60.2c-4.924-24.943-25.229-41.897-50.677-41.958
		C101.68-38.198,57.698-38.122,13.717-38.12z"/>
	<path fill-rule="evenodd" clip-rule="evenodd" d="M151.295,32.684c-11.264,7.123-22.303,8.107-33.416,1.596
		C103.785,26.02,99.177,7.884,107.353-6.18c8.286-14.255,26.449-19.151,40.667-10.962c14.158,8.154,19.281,26.106,11.148,40.253
		c-1.768,3.075-1.339,4.644,1.107,6.778c3.285,2.865,6.223,6.129,9.314,9.217c2.012,2.011,2.861,4.348,0.717,6.581
		c-2.306,2.403-4.729,1.529-6.838-0.616C159.451,40.984,155.438,36.898,151.295,32.684z M111.912,8.534
		c-0.054,8.822,4.984,17.013,13.257,19.773c3.95,1.318,8.538,1.379,12.761,1.043c3.969-0.318,7.662-2.137,9.357-6.375
		c0.158-0.395,0.795-0.576,1.148-0.918c1.288-1.25,2.959-2.313,3.756-3.829c4.104-7.809,2.653-17.382-3.388-23.96
		c-5.862-6.383-15.169-8.536-23.3-5.388C117.299-7.945,111.966-0.232,111.912,8.534z"/>
</g>
<g>
	<path fill-rule="evenodd" clip-rule="evenodd" d="M2.726,18.408c0-5.5,0-11,0-16.5c0.147-0.454,0.447-0.756,0.902-0.902
		c6.732,0,13.463,0,20.196,0c0.454,0.147,0.753,0.449,0.902,0.902c0,5.5,0,11,0,16.5c-0.303,0.748-0.582,0.935-1.396,0.935
		c-1.932,0-3.863,0-5.796,0c-0.081,0-0.162,0-0.278,0c0.243,0.488,0.462,0.937,0.693,1.378c0.026,0.049,0.125,0.083,0.19,0.085
		c0.372,0.009,0.744-0.001,1.116,0.007c0.492,0.01,0.918,0.35,1.035,0.815c0.124,0.491-0.095,1.001-0.54,1.243
		c-0.099,0.054-0.206,0.091-0.311,0.135c-3.81,0-7.619,0-11.429,0c-0.024-0.013-0.047-0.03-0.073-0.039
		c-0.573-0.191-0.88-0.666-0.794-1.232c0.083-0.555,0.533-0.921,1.138-0.925c0.329-0.002,0.659-0.01,0.987,0.004
		c0.154,0.007,0.229-0.05,0.29-0.185c0.108-0.241,0.233-0.475,0.351-0.711c0.09-0.182,0.181-0.363,0.286-0.575
		c-0.13,0-0.214,0-0.299,0c-1.975,0-3.95,0.001-5.924,0c-0.639,0-1.011-0.271-1.215-0.878C2.751,18.444,2.737,18.428,2.726,18.408z
		 M23.991,17.139c-0.114,0-0.213,0-0.312,0c-5.442,0-10.885,0-16.327-0.001c-0.1,0-0.202,0.003-0.3-0.015
		c-0.176-0.031-0.276-0.148-0.287-0.325c-0.012-0.188,0.078-0.321,0.26-0.369c0.102-0.026,0.212-0.024,0.319-0.024
		c5.45-0.001,10.899-0.001,16.348-0.001c0.097,0,0.192,0,0.301,0c0-0.094,0-0.15,0-0.207c0-4.647,0-9.294,0-13.942
		c0-0.382-0.143-0.516-0.543-0.516c-6.48,0-12.961,0-19.442,0c-0.423,0-0.551,0.127-0.551,0.551c0,4.626,0,9.252,0,13.878
		c0,0.075,0,0.149,0,0.236c0.114,0,0.192,0,0.271,0c0.594,0,1.188-0.001,1.783,0.002c0.092,0,0.19,0.002,0.275,0.032
		c0.177,0.063,0.261,0.205,0.232,0.388c-0.033,0.204-0.171,0.31-0.378,0.311c-0.637,0.003-1.274,0.002-1.912,0.003
		c-0.084,0-0.168,0-0.271,0c0,0.304,0,0.582,0,0.859c0,0.501,0.109,0.611,0.601,0.611c6.445,0,12.889,0,19.334,0
		c0.078,0,0.158,0.005,0.235-0.007c0.209-0.033,0.349-0.159,0.358-0.369C24.003,17.878,23.991,17.521,23.991,17.139z M10.292,20.798
		c2.308,0,4.571,0,6.868,0c-0.221-0.442-0.435-0.859-0.636-1.283c-0.061-0.127-0.131-0.178-0.276-0.175
		c-0.564,0.009-1.13,0.003-1.694,0.003c-1.117,0-2.232-0.001-3.348,0.004c-0.075,0-0.192,0.025-0.219,0.076
		C10.75,19.868,10.529,20.322,10.292,20.798z M13.726,21.542c-1.769,0-3.537,0-5.305,0c-0.071,0-0.144-0.003-0.214,0.003
		c-0.198,0.017-0.335,0.157-0.342,0.347c-0.008,0.188,0.119,0.345,0.312,0.376c0.07,0.011,0.143,0.007,0.214,0.007
		c3.558,0,7.116,0,10.672,0c0.072,0,0.145,0.004,0.215-0.008c0.192-0.031,0.318-0.188,0.311-0.377
		c-0.009-0.188-0.146-0.328-0.344-0.345c-0.071-0.006-0.144-0.003-0.215-0.003C17.261,21.542,15.493,21.542,13.726,21.542z"/>
	<path fill-rule="evenodd" clip-rule="evenodd" d="M19.958,4.31c0.724,0,1.411,0,2.098,0c0.556,0.001,0.833,0.275,0.833,0.83
		c0.001,2.377,0.001,4.754,0,7.131c0,0.561-0.282,0.837-0.852,0.838c-0.608,0.002-1.217,0.001-1.825,0.001c-0.078,0-0.155,0-0.227,0
		c-0.155,0.573-0.368,0.733-0.955,0.733c-3.537,0.001-7.074,0.001-10.61,0c-0.585,0-0.795-0.158-0.955-0.733
		c-0.609,0-1.224-0.021-1.837,0.006c-0.706,0.031-1.085-0.196-1.074-1.062c0.028-2.284,0.02-4.568,0.002-6.852
		C4.551,4.624,4.887,4.277,5.462,4.303C6.126,4.332,6.792,4.31,7.494,4.31c0-0.228-0.001-0.447,0-0.665
		c0.003-0.51,0.287-0.8,0.798-0.8c3.623-0.001,7.246-0.001,10.869,0c0.51,0,0.794,0.291,0.797,0.802
		C19.959,3.859,19.958,4.072,19.958,4.31z M8.239,10.932c0.067-0.079,0.113-0.13,0.156-0.184c1.158-1.447,2.316-2.894,3.475-4.341
		c0.292-0.364,0.495-0.363,0.782,0.003c0.804,1.024,1.608,2.049,2.413,3.072c0.042,0.054,0.09,0.104,0.142,0.163
		c0.498-0.5,0.983-0.986,1.469-1.472c0.271-0.271,0.434-0.271,0.706,0c0.552,0.551,1.104,1.104,1.655,1.655
		c0.052,0.052,0.107,0.099,0.176,0.161c0-2.155,0-4.276,0-6.396c-3.667,0-7.32,0-10.973,0C8.239,6.038,8.239,8.467,8.239,10.932z
		 M15.672,10.246c0.026,0.035,0.058,0.082,0.093,0.126c0.265,0.338,0.532,0.674,0.794,1.014c0.146,0.189,0.129,0.405-0.029,0.537
		c-0.17,0.141-0.379,0.109-0.545-0.084c-0.033-0.038-0.063-0.078-0.094-0.117c-1.167-1.486-2.334-2.972-3.501-4.457
		c-0.042-0.053-0.087-0.102-0.138-0.16c-1.332,1.665-2.646,3.307-3.959,4.951c-0.033,0.042-0.062,0.101-0.063,0.152
		c-0.006,0.292-0.003,0.584-0.003,0.889c3.672,0,7.325,0,10.999,0c0-0.668,0.003-1.325-0.006-1.982
		c-0.001-0.063-0.073-0.134-0.126-0.187c-0.59-0.594-1.185-1.184-1.773-1.779c-0.095-0.096-0.168-0.212-0.242-0.307
		C16.579,9.339,16.129,9.789,15.672,10.246z M7.479,12.36c0-2.444,0-4.875,0-7.302c-0.733,0-1.453,0-2.171,0
		c0,2.441,0,4.866,0,7.302C6.039,12.36,6.758,12.36,7.479,12.36z M19.967,5.051c0,2.445,0,4.87,0,7.309c0.728,0,1.447,0,2.175,0
		c0-2.44,0-4.871,0-7.309C21.415,5.051,20.701,5.051,19.967,5.051z"/>
	<path fill-rule="evenodd" clip-rule="evenodd" d="M11.153,14.947c-0.004,0.202-0.176,0.368-0.375,0.359
		c-0.189-0.008-0.351-0.176-0.354-0.364c-0.002-0.199,0.166-0.364,0.37-0.363C11.003,14.58,11.158,14.739,11.153,14.947z"/>
	<path fill-rule="evenodd" clip-rule="evenodd" d="M17.026,14.937c0.002,0.196-0.173,0.371-0.369,0.37
		c-0.2-0.001-0.361-0.17-0.358-0.374c0.003-0.201,0.151-0.35,0.353-0.354C16.855,14.575,17.024,14.736,17.026,14.937z"/>
	<path fill-rule="evenodd" clip-rule="evenodd" d="M12.266,14.579c0.208,0.004,0.36,0.163,0.354,0.373
		c-0.005,0.195-0.164,0.353-0.356,0.354c-0.197,0.002-0.37-0.17-0.37-0.368C11.894,14.738,12.062,14.576,12.266,14.579z"/>
	<path fill-rule="evenodd" clip-rule="evenodd" d="M15.559,14.935c0.003,0.197-0.168,0.371-0.365,0.372
		c-0.192,0.001-0.353-0.155-0.36-0.35c-0.008-0.211,0.141-0.372,0.349-0.378C15.386,14.574,15.556,14.733,15.559,14.935z"/>
	<path fill-rule="evenodd" clip-rule="evenodd" d="M13.733,14.579c0.205,0.004,0.362,0.168,0.355,0.373
		c-0.008,0.193-0.168,0.353-0.359,0.354c-0.198,0.003-0.367-0.167-0.366-0.368C13.364,14.733,13.526,14.576,13.733,14.579z"/>
	<path fill-rule="evenodd" clip-rule="evenodd" d="M15.924,4.311c0.813,0,1.46,0.642,1.464,1.455
		c0.003,0.821-0.648,1.475-1.47,1.473c-0.804-0.002-1.46-0.664-1.459-1.468C14.46,4.964,15.115,4.311,15.924,4.311z M15.932,5.043
		c-0.406-0.002-0.74,0.326-0.74,0.729c0,0.401,0.337,0.736,0.739,0.733c0.399-0.002,0.719-0.322,0.724-0.722
		C16.659,5.371,16.342,5.045,15.932,5.043z"/>
</g>
</svg>
