<?xml version="1.0" encoding="utf-8"?>
<!-- Generator: Adobe Illustrator 16.0.0, SVG Export Plug-In . SVG Version: 6.00 Build 0)  -->
<!DOCTYPE svg PUBLIC "-//W3C//DTD SVG 1.1//EN" "http://www.w3.org/Graphics/SVG/1.1/DTD/svg11.dtd">
<svg version="1.1" id="Layer_1" xmlns="http://www.w3.org/2000/svg" xmlns:xlink="http://www.w3.org/1999/xlink" x="0px" y="0px"
	 width="27px" height="24px" viewBox="0 0 27 24" enable-background="new 0 0 27 24" xml:space="preserve">
<rect fill="none" width="27" height="24"/>
<g>
	<path fill-rule="evenodd" clip-rule="evenodd" d="M12.339,23.006c-0.345-0.09-0.601-0.309-0.845-0.558
		c-0.621-0.635-1.256-1.255-1.879-1.887c-0.33-0.334-0.41-0.797-0.225-1.209c0.182-0.407,0.602-0.665,1.052-0.641
		c0.259,0.014,0.486,0.109,0.677,0.287c0.067,0.062,0.133,0.124,0.237,0.221c0-0.116,0-0.19,0-0.266c0-2.169-0.001-4.338,0-6.506
		c0-0.553,0.301-0.966,0.787-1.094c0.619-0.163,1.25,0.284,1.273,0.924c0.021,0.543,0.007,1.087,0.008,1.632
		c0,0.076,0,0.152,0,0.231c0.82-0.084,1.102,0.064,1.416,0.743c0.282-0.097,0.567-0.108,0.847,0.026s0.454,0.36,0.538,0.594
		c0.237,0,0.446-0.03,0.643,0.006c0.489,0.089,0.834,0.515,0.835,1.03c0.006,1.896,0.005,3.793,0.002,5.69
		c-0.001,0.404-0.235,0.642-0.596,0.774C15.52,23.006,13.929,23.006,12.339,23.006z M12,16.196c0,1.231-0.001,2.463,0.001,3.694
		c0,0.172-0.009,0.333-0.194,0.414c-0.198,0.087-0.324-0.03-0.449-0.156c-0.222-0.225-0.439-0.453-0.671-0.666
		c-0.266-0.243-0.663-0.115-0.737,0.228c-0.041,0.189,0.048,0.33,0.176,0.458c0.654,0.652,1.31,1.303,1.959,1.96
		c0.162,0.164,0.341,0.237,0.573,0.236c1.375-0.005,2.75-0.002,4.124-0.003c0.275,0,0.279-0.004,0.279-0.273
		c0.001-1.812,0-3.622,0-5.434c0-0.058,0.002-0.116-0.007-0.172c-0.037-0.221-0.214-0.366-0.419-0.35
		c-0.2,0.016-0.341,0.168-0.351,0.39c-0.007,0.136-0.003,0.272-0.003,0.408c0,0.322,0.004,0.645-0.002,0.967
		c-0.005,0.228-0.145,0.375-0.332,0.369c-0.185-0.005-0.302-0.144-0.31-0.365c-0.002-0.058-0.001-0.114-0.001-0.172
		c0-0.587,0.003-1.174-0.003-1.762c-0.001-0.104-0.013-0.22-0.059-0.31c-0.082-0.162-0.231-0.233-0.414-0.19
		c-0.211,0.051-0.306,0.2-0.307,0.41c-0.002,0.623-0.001,1.246-0.002,1.869c0,0.078,0.002,0.158-0.009,0.235
		c-0.026,0.184-0.145,0.284-0.322,0.28c-0.167-0.004-0.28-0.102-0.304-0.277c-0.01-0.07-0.009-0.143-0.009-0.214
		c-0.001-0.823,0-1.646-0.001-2.47c0-0.086,0-0.174-0.018-0.257c-0.041-0.182-0.16-0.284-0.347-0.294
		c-0.195-0.012-0.334,0.079-0.39,0.267c-0.026,0.087-0.027,0.184-0.028,0.275c-0.002,0.874,0,1.747-0.003,2.62
		c-0.001,0.217-0.137,0.356-0.32,0.354c-0.174-0.003-0.303-0.138-0.32-0.34c-0.005-0.063-0.002-0.129-0.002-0.193
		c0-1.726,0-3.451,0-5.177c0-0.078,0.002-0.158-0.005-0.236c-0.018-0.194-0.158-0.341-0.341-0.354
		c-0.195-0.014-0.335,0.077-0.397,0.26c-0.031,0.092-0.035,0.197-0.035,0.296C12,13.747,12,14.972,12,16.196z"/>
	<path fill-rule="evenodd" clip-rule="evenodd" d="M2.5,5.26c0.14-0.438,0.384-0.784,0.852-0.91C3.5,4.31,3.662,4.298,3.817,4.298
		c5.033-0.002,10.067-0.002,15.1-0.001c0.064,0,0.13,0,0.193,0.01c0.172,0.029,0.269,0.139,0.27,0.309
		c0.002,0.17-0.095,0.284-0.266,0.313c-0.091,0.016-0.186,0.012-0.278,0.012c-4.976,0-9.952,0-14.928,0.001
		c-0.121,0-0.246-0.001-0.363,0.022C3.307,5.013,3.147,5.231,3.146,5.507c-0.004,0.573-0.004,1.146,0,1.718
		c0.001,0.18-0.008,0.353-0.202,0.432C2.752,7.735,2.62,7.625,2.5,7.495C2.5,6.75,2.5,6.005,2.5,5.26z"/>
	<path fill-rule="evenodd" clip-rule="evenodd" d="M24.5,5.561c-0.135,0.261-0.355,0.348-0.638,0.332
		c-0.178-0.011-0.356-0.002-0.56-0.002c-0.034,0.368-0.155,0.702-0.49,0.877c-0.188,0.098-0.42,0.162-0.63,0.155
		c-0.504-0.015-0.812-0.368-0.943-1.032c-0.204,0-0.416,0.002-0.628,0c-0.522-0.006-0.729-0.359-0.451-0.799
		c0.177-0.278,0.256-0.564,0.242-0.892c-0.016-0.364-0.004-0.73-0.003-1.095c0.003-0.953,0.5-1.519,1.447-1.647
		c0.021-0.003,0.041-0.01,0.017-0.003c0.104-0.169,0.188-0.308,0.272-0.447c0.086,0,0.173,0,0.259,0
		c0.085,0.138,0.171,0.276,0.275,0.446c-0.006-0.001,0.036,0.006,0.078,0.012c0.814,0.101,1.346,0.666,1.383,1.485
		c0.015,0.328,0.025,0.659,0,0.986c-0.039,0.505,0.059,0.963,0.369,1.369C24.5,5.389,24.5,5.475,24.5,5.561z M20.822,5.226
		c0.983,0,1.916,0,2.84,0C23.606,5.01,23.534,4.808,23.508,4.6c-0.028-0.219-0.015-0.443-0.017-0.665
		c-0.002-0.315,0.007-0.63-0.003-0.945c-0.016-0.519-0.341-0.859-0.856-0.889c-0.264-0.015-0.531-0.016-0.794,0.007
		c-0.46,0.041-0.771,0.375-0.789,0.837c-0.014,0.343-0.005,0.687-0.005,1.031C21.043,4.397,21.079,4.823,20.822,5.226z
		 M21.924,5.896c0.016,0.261,0.162,0.407,0.373,0.393c0.204-0.013,0.328-0.162,0.319-0.393C22.391,5.896,22.165,5.896,21.924,5.896z
		"/>
	<path fill-rule="evenodd" clip-rule="evenodd" d="M2.5,8.612C2.571,8.556,2.634,8.48,2.715,8.449
		c0.231-0.091,0.428,0.083,0.429,0.373c0.001,1.052,0,2.104,0,3.156c0,0.546,0.172,0.718,0.715,0.718c2.018,0,4.036,0,6.054,0
		c0.071,0,0.144-0.004,0.214,0.005c0.183,0.022,0.306,0.161,0.292,0.335c-0.014,0.183-0.119,0.285-0.301,0.303
		c-0.064,0.006-0.129,0.002-0.193,0.002c-1.982,0-3.964-0.017-5.946,0.009c-0.737,0.01-1.242-0.241-1.479-0.956
		C2.5,11.133,2.5,9.872,2.5,8.612z"/>
	<path fill-rule="evenodd" clip-rule="evenodd" d="M18.083,13.34c-1.095,0-2.189,0-3.284,0c-0.064,0-0.13,0.005-0.193-0.004
		c-0.171-0.025-0.272-0.132-0.281-0.302c-0.01-0.171,0.087-0.285,0.252-0.326c0.074-0.019,0.156-0.012,0.234-0.012
		c2.161-0.001,4.322-0.001,6.483-0.001c0.483,0,0.671-0.188,0.671-0.677c0-1.245,0-2.49,0-3.735c0-0.058-0.002-0.115,0.001-0.172
		c0.013-0.202,0.139-0.332,0.32-0.332c0.183-0.001,0.315,0.128,0.321,0.329c0.007,0.243,0.002,0.487,0.002,0.73
		c0,1.081,0.001,2.161,0,3.242c-0.002,0.767-0.495,1.259-1.263,1.26C20.259,13.341,19.171,13.34,18.083,13.34z"/>
	<path fill-rule="evenodd" clip-rule="evenodd" d="M8.36,8.809c0-0.286-0.003-0.572,0.001-0.858
		c0.004-0.283,0.111-0.392,0.391-0.397c0.186-0.003,0.373-0.011,0.557,0.01c0.476,0.055,0.759,0.48,0.656,0.946
		C9.946,8.592,9.966,8.703,10.01,8.776c0.169,0.28,0.201,0.565,0.049,0.855c-0.151,0.289-0.398,0.44-0.728,0.445
		c-0.193,0.003-0.386,0.005-0.579,0.002c-0.278-0.003-0.386-0.11-0.391-0.392C8.356,9.395,8.36,9.102,8.36,8.809z M9.018,9.472
		C9.19,9.426,9.337,9.396,9.474,9.343c0.022-0.009,0.021-0.176-0.003-0.185c-0.137-0.052-0.284-0.08-0.453-0.122
		C9.018,9.194,9.018,9.298,9.018,9.472z M9.147,8.486c0.083-0.082,0.134-0.133,0.186-0.184c-0.06-0.035-0.119-0.097-0.179-0.098
		c-0.049,0-0.099,0.073-0.148,0.114C9.042,8.363,9.08,8.407,9.147,8.486z"/>
	<path fill-rule="evenodd" clip-rule="evenodd" d="M17.757,8.828c0-0.293-0.003-0.587,0.001-0.88
		c0.003-0.274,0.118-0.39,0.395-0.394c0.192-0.003,0.388-0.011,0.578,0.015c0.465,0.062,0.736,0.491,0.628,0.945
		c-0.02,0.08,0.005,0.19,0.048,0.262c0.171,0.28,0.205,0.565,0.052,0.856c-0.147,0.28-0.387,0.436-0.708,0.445
		c-0.215,0.006-0.43,0.008-0.645,0.002c-0.225-0.005-0.342-0.122-0.347-0.349C17.752,9.429,17.757,9.128,17.757,8.828z
		 M18.408,9.475c0.178-0.049,0.327-0.083,0.467-0.139c0.021-0.008,0.015-0.174-0.009-0.182c-0.142-0.049-0.292-0.074-0.458-0.11
		C18.408,9.204,18.408,9.301,18.408,9.475z M18.408,8.466c0.134-0.053,0.228-0.09,0.322-0.127c-0.02-0.041-0.032-0.109-0.06-0.116
		c-0.082-0.02-0.171-0.016-0.263-0.022C18.408,8.286,18.408,8.341,18.408,8.466z"/>
	<path fill-rule="evenodd" clip-rule="evenodd" d="M15.379,9.477c-0.007,0.118-0.01,0.18-0.014,0.243
		c-0.014,0.232-0.122,0.354-0.314,0.358c-0.2,0.003-0.32-0.126-0.328-0.367c-0.006-0.179-0.002-0.358-0.002-0.537
		c0-0.408-0.002-0.816,0.002-1.224c0.004-0.284,0.111-0.39,0.392-0.396c0.165-0.004,0.33-0.008,0.493,0.007
		c0.378,0.034,0.657,0.266,0.751,0.605c0.09,0.328-0.038,0.647-0.35,0.876c-0.023,0.017-0.047,0.033-0.09,0.064
		c0.123,0.141,0.245,0.275,0.361,0.415c0.139,0.167,0.134,0.353-0.005,0.478c-0.137,0.124-0.323,0.105-0.475-0.051
		c-0.069-0.072-0.133-0.15-0.199-0.225C15.54,9.655,15.478,9.587,15.379,9.477z M15.379,8.577c0.14-0.061,0.245-0.097,0.338-0.154
		c0.018-0.011,0.005-0.132-0.021-0.146c-0.091-0.046-0.195-0.066-0.316-0.104C15.379,8.319,15.379,8.41,15.379,8.577z"/>
	<path fill-rule="evenodd" clip-rule="evenodd" d="M6.066,8.569c0-0.215-0.003-0.43,0.001-0.645c0.004-0.229,0.136-0.373,0.33-0.368
		C6.582,7.562,6.707,7.701,6.709,7.92c0.003,0.386,0,0.773,0.001,1.16c0.001,0.233,0.118,0.356,0.331,0.354
		C7.258,9.43,7.373,9.313,7.374,9.079c0.003-0.373-0.001-0.745,0.002-1.117c0.002-0.256,0.119-0.401,0.315-0.405
		C7.895,7.552,8.017,7.701,8.019,7.97c0.003,0.379,0.005,0.759,0,1.138c-0.009,0.579-0.423,0.977-1,0.97
		c-0.559-0.007-0.95-0.415-0.952-0.995C6.065,8.912,6.066,8.741,6.066,8.569z"/>
	<path fill-rule="evenodd" clip-rule="evenodd" d="M10.997,8.31c0.253,0.108,0.479,0.191,0.693,0.298
		c0.291,0.146,0.463,0.38,0.444,0.721c-0.019,0.338-0.214,0.552-0.512,0.679c-0.396,0.168-0.958,0.033-1.243-0.289
		c-0.128-0.145-0.136-0.315-0.022-0.446c0.119-0.136,0.306-0.151,0.458-0.02c0.149,0.128,0.312,0.209,0.508,0.17
		c0.059-0.012,0.106-0.08,0.159-0.122c-0.039-0.045-0.068-0.11-0.118-0.133c-0.167-0.079-0.343-0.142-0.514-0.214
		c-0.323-0.137-0.493-0.391-0.468-0.694c0.026-0.33,0.262-0.6,0.597-0.675c0.342-0.076,0.654,0.004,0.936,0.203
		c0.177,0.125,0.213,0.31,0.105,0.465c-0.103,0.147-0.273,0.175-0.456,0.073C11.283,8.17,11.22,8.165,10.997,8.31z"/>
	<path fill-rule="evenodd" clip-rule="evenodd" d="M5.098,9.266c-0.09-0.054-0.159-0.104-0.234-0.137
		C4.747,9.076,4.625,9.035,4.506,8.986C4.084,8.815,3.893,8.511,3.98,8.151c0.094-0.388,0.475-0.652,0.901-0.582
		c0.211,0.035,0.423,0.122,0.613,0.225C5.68,7.895,5.708,8.101,5.6,8.254C5.495,8.403,5.333,8.426,5.145,8.327
		C5.057,8.28,4.966,8.229,4.871,8.215C4.787,8.202,4.696,8.238,4.608,8.252c0,0.025-0.001,0.049-0.001,0.074
		c0.162,0.066,0.324,0.133,0.486,0.199c0.47,0.19,0.698,0.523,0.617,0.904c-0.087,0.414-0.487,0.678-0.981,0.646
		c-0.281-0.019-0.526-0.126-0.729-0.321C3.836,9.599,3.817,9.399,3.947,9.262c0.125-0.132,0.304-0.128,0.478,0.01
		c0.225,0.18,0.449,0.216,0.604,0.093C5.049,9.349,5.061,9.321,5.098,9.266z"/>
	<path fill-rule="evenodd" clip-rule="evenodd" d="M13.517,10.079c-0.524-0.002-0.992-0.327-1.175-0.815
		c-0.184-0.49-0.046-1.042,0.345-1.389c0.392-0.347,0.96-0.417,1.419-0.176c0.238,0.125,0.322,0.295,0.232,0.479
		c-0.088,0.184-0.268,0.22-0.514,0.101c-0.263-0.127-0.541-0.089-0.733,0.102c-0.187,0.185-0.237,0.453-0.131,0.692
		c0.104,0.233,0.348,0.391,0.604,0.354c0.111-0.016,0.223-0.084,0.316-0.152c0.17-0.125,0.332-0.135,0.463-0.005
		c0.135,0.135,0.129,0.315-0.021,0.476C14.105,9.979,13.833,10.083,13.517,10.079z"/>
	<path fill-rule="evenodd" clip-rule="evenodd" d="M20.474,8.219c0,0.108,0,0.185,0,0.29c0.136,0,0.263-0.006,0.39,0.001
		c0.206,0.013,0.331,0.139,0.328,0.322c-0.002,0.174-0.12,0.298-0.315,0.314c-0.127,0.01-0.255,0.002-0.397,0.002
		c0,0.097,0,0.173,0,0.288c0.118,0,0.242-0.001,0.367,0c0.255,0.004,0.398,0.119,0.401,0.318c0.004,0.206-0.134,0.323-0.389,0.326
		c-0.229,0.002-0.458,0.004-0.687-0.001c-0.227-0.006-0.348-0.121-0.35-0.346c-0.006-0.601-0.006-1.202-0.001-1.804
		c0.002-0.229,0.121-0.347,0.344-0.352c0.25-0.006,0.501-0.006,0.751,0c0.206,0.005,0.33,0.13,0.331,0.316
		c0.001,0.181-0.127,0.312-0.329,0.323C20.776,8.226,20.634,8.219,20.474,8.219z"/>
	<path fill-rule="evenodd" clip-rule="evenodd" d="M16.754,8.806c0-0.293-0.003-0.586,0.001-0.88
		c0.003-0.226,0.118-0.36,0.304-0.368c0.191-0.008,0.335,0.134,0.337,0.362c0.006,0.601,0.006,1.202,0,1.803
		c-0.002,0.224-0.13,0.353-0.319,0.355c-0.2,0.002-0.318-0.129-0.321-0.37C16.751,9.407,16.754,9.106,16.754,8.806z"/>
</g>
</svg>
