<?xml version="1.0" encoding="utf-8"?>
<!-- Generator: Adobe Illustrator 16.0.0, SVG Export Plug-In . SVG Version: 6.00 Build 0)  -->
<!DOCTYPE svg PUBLIC "-//W3C//DTD SVG 1.1//EN" "http://www.w3.org/Graphics/SVG/1.1/DTD/svg11.dtd">
<svg version="1.1" id="Layer_1" xmlns="http://www.w3.org/2000/svg" xmlns:xlink="http://www.w3.org/1999/xlink" x="0px" y="0px"
	 width="27px" height="24px" viewBox="0 0 27 24" enable-background="new 0 0 27 24" xml:space="preserve">
<rect fill="none" width="27" height="24"/>
<g>
	<path fill-rule="evenodd" clip-rule="evenodd" d="M23.512,1c0.232,0.126,0.306,0.32,0.305,0.584
		c-0.007,3.351-0.004,6.702-0.005,10.054c0,0.064,0.004,0.129-0.005,0.193c-0.028,0.22-0.21,0.38-0.424,0.38
		c-0.211,0.001-0.397-0.162-0.425-0.379c-0.01-0.078-0.005-0.158-0.005-0.236c0-3.151,0-6.301,0-9.452c0-0.085,0-0.17,0-0.27
		c-5.414,0-10.816,0-16.243,0c0,0.092,0,0.183,0,0.273c0,6.251,0,12.501,0,18.753c0,0.414,0.04,0.832-0.183,1.24
		c0.112,0,0.189,0,0.266,0c5.091,0,10.183,0,15.273-0.002c0.621,0,0.886-0.266,0.886-0.889c0-1.813,0-3.625,0-5.436
		c0-0.072-0.004-0.145,0.005-0.215c0.028-0.219,0.21-0.377,0.426-0.377c0.215,0,0.396,0.16,0.423,0.379
		c0.01,0.07,0.005,0.143,0.005,0.215c0.001,1.805,0.001,3.609,0.001,5.414c0,0.951-0.39,1.473-1.3,1.742
		C22.5,22.977,22.491,22.99,22.48,23c-5.873,0-11.745,0-17.618,0c-0.011-0.01-0.02-0.023-0.032-0.027
		c-0.908-0.268-1.3-0.791-1.3-1.742c0-5.303,0-10.606,0-15.91c0-0.05-0.001-0.1,0-0.15c0.008-0.308,0.172-0.472,0.485-0.474
		c0.537-0.003,1.074,0,1.61-0.001c0.069,0,0.139-0.006,0.225-0.01c0-0.091,0-0.168,0-0.245c0-0.952,0.007-1.904-0.004-2.856
		C5.843,1.319,5.918,1.125,6.152,1C11.938,1,17.725,1,23.512,1z M4.39,5.56c0,0.1,0,0.184,0,0.268c0,5.142,0,10.284,0,15.426
		c0,0.064-0.002,0.129,0.002,0.193c0.018,0.305,0.215,0.559,0.505,0.654c0.5,0.164,0.954-0.203,0.954-0.777
		c0-5.186,0-10.37,0-15.555c0-0.068,0-0.136,0-0.209C5.355,5.56,4.891,5.56,4.39,5.56z"/>
	<path fill-rule="evenodd" clip-rule="evenodd" d="M7.785,13.719c0-1.332,0-2.663,0-3.994c0-0.424,0.14-0.563,0.569-0.563
		c2.312,0,4.624,0,6.935,0c0.439,0,0.574,0.136,0.574,0.58c0,2.647,0,5.295,0,7.944c0,0.453-0.135,0.586-0.591,0.586
		c-2.305,0-4.609,0-6.914,0c-0.438,0-0.573-0.139-0.574-0.582C7.785,16.365,7.785,15.041,7.785,13.719z M11.144,13.291
		c0.057-0.084,0.092-0.158,0.147-0.213c0.595-0.599,1.193-1.196,1.79-1.793c0.279-0.278,0.489-0.276,0.771,0.004
		c0.254,0.252,0.508,0.504,0.759,0.759c0.118,0.119,0.229,0.244,0.378,0.402c0-0.851,0-1.633,0-2.412c-2.122,0-4.229,0-6.329,0
		c0,1.084,0,2.152,0,3.255c0.313-0.314,0.6-0.602,0.889-0.888c0.252-0.25,0.473-0.251,0.723-0.002
		C10.55,12.68,10.824,12.963,11.144,13.291z M13.972,17.402c-1.36-1.359-2.728-2.729-4.104-4.105
		c-0.353,0.354-0.731,0.725-1.096,1.107c-0.069,0.072-0.121,0.193-0.122,0.293c-0.009,0.838-0.005,1.676-0.005,2.512
		c0,0.063,0.007,0.125,0.012,0.193C10.449,17.402,12.228,17.402,13.972,17.402z M15.004,17.09c0-1.127,0-2.236-0.002-3.344
		c-0.001-0.045-0.015-0.104-0.045-0.135c-0.491-0.498-0.986-0.99-1.448-1.453c-0.59,0.586-1.166,1.156-1.725,1.711
		C12.84,14.926,13.911,15.998,15.004,17.09z"/>
	<path fill-rule="evenodd" clip-rule="evenodd" d="M14.833,19.818c2.146,0,4.294,0,6.44,0.002c0.072,0,0.144-0.006,0.215,0.004
		c0.221,0.023,0.384,0.201,0.389,0.416c0.005,0.221-0.162,0.41-0.391,0.436c-0.071,0.008-0.144,0.002-0.215,0.002
		c-4.294,0-8.588,0-12.882,0c-0.396,0-0.596-0.139-0.603-0.42C7.78,19.971,7.988,19.82,8.392,19.82
		C10.539,19.818,12.686,19.818,14.833,19.818z"/>
	<path fill-rule="evenodd" clip-rule="evenodd" d="M16.407,5.544c-0.157,0.509-0.296,0.971-0.445,1.43
		c-0.034,0.105-0.087,0.218-0.164,0.293c-0.29,0.283-0.737,0.112-0.825-0.314c-0.123-0.603-0.237-1.207-0.354-1.811
		c-0.064-0.33-0.131-0.659-0.191-0.99c-0.047-0.253,0.094-0.47,0.328-0.522c0.229-0.051,0.452,0.094,0.507,0.349
		c0.096,0.447,0.181,0.896,0.279,1.392c0.042-0.109,0.074-0.177,0.096-0.248c0.12-0.39,0.238-0.78,0.357-1.169
		c0.063-0.208,0.202-0.331,0.423-0.329c0.21,0.002,0.348,0.12,0.41,0.318c0.144,0.456,0.282,0.914,0.464,1.376
		c0.052-0.253,0.105-0.506,0.157-0.76c0.033-0.168,0.063-0.337,0.097-0.506c0.061-0.302,0.271-0.471,0.519-0.418
		c0.26,0.056,0.388,0.272,0.327,0.581c-0.159,0.821-0.324,1.642-0.487,2.462c-0.018,0.091-0.036,0.182-0.057,0.273
		c-0.063,0.282-0.227,0.438-0.47,0.449c-0.241,0.011-0.429-0.132-0.514-0.404c-0.123-0.396-0.24-0.793-0.361-1.19
		C16.479,5.734,16.45,5.663,16.407,5.544z"/>
	<path fill-rule="evenodd" clip-rule="evenodd" d="M9.838,5.561c0-0.111,0-0.222,0-0.333c0.001-0.401-0.004-0.802,0.006-1.203
		c0.006-0.228,0.179-0.39,0.397-0.402c0.207-0.011,0.387,0.125,0.437,0.336c0.015,0.062,0.019,0.127,0.019,0.191
		c0.001,0.881,0.002,1.761,0,2.642c-0.001,0.378-0.206,0.62-0.511,0.56C10.043,7.325,9.888,7.21,9.799,7.09
		C9.455,6.624,9.135,6.14,8.805,5.664C8.766,5.608,8.723,5.555,8.646,5.453c0,0.461,0,0.865,0,1.269
		c0,0.086,0.003,0.172-0.002,0.258C8.628,7.225,8.448,7.401,8.216,7.401c-0.23,0-0.415-0.177-0.427-0.423
		C7.78,6.792,7.786,6.606,7.786,6.42c0-0.752,0-1.503,0-2.255c0-0.296,0.098-0.454,0.318-0.52c0.203-0.06,0.363,0.017,0.532,0.262
		c0.346,0.5,0.691,1.001,1.037,1.501c0.039,0.056,0.081,0.109,0.122,0.164C9.81,5.568,9.824,5.564,9.838,5.561z"/>
	<path fill-rule="evenodd" clip-rule="evenodd" d="M20.454,7.4c-0.39-0.016-0.81-0.169-1.154-0.505
		c-0.212-0.205-0.234-0.462-0.063-0.646c0.173-0.187,0.424-0.185,0.645,0.019c0.194,0.178,0.418,0.275,0.68,0.272
		c0.083-0.001,0.181-0.012,0.246-0.057C20.89,6.427,20.995,6.334,21,6.253c0.004-0.077-0.094-0.196-0.176-0.235
		c-0.289-0.139-0.59-0.255-0.888-0.375c-0.39-0.156-0.614-0.437-0.643-0.856c-0.031-0.444,0.168-0.776,0.548-0.994
		c0.522-0.299,1.379-0.176,1.802,0.25c0.159,0.159,0.179,0.394,0.047,0.566c-0.133,0.175-0.354,0.216-0.558,0.111
		c-0.158-0.081-0.315-0.172-0.483-0.219c-0.108-0.03-0.242-0.004-0.354,0.031c-0.059,0.018-0.13,0.106-0.133,0.167
		c-0.003,0.051,0.072,0.13,0.131,0.158c0.208,0.096,0.423,0.174,0.635,0.259c0.033,0.013,0.066,0.027,0.1,0.041
		c0.623,0.263,0.939,0.746,0.83,1.268C21.733,7.013,21.199,7.409,20.454,7.4z"/>
	<path fill-rule="evenodd" clip-rule="evenodd" d="M12.427,4.48c0,0.205,0,0.389,0,0.602c0.213,0,0.425-0.002,0.637,0
		c0.3,0.004,0.482,0.169,0.482,0.43c-0.001,0.261-0.183,0.424-0.483,0.428c-0.2,0.003-0.4,0.004-0.601,0.006
		c-0.006,0-0.012,0.007-0.032,0.019c0,0.179,0,0.367,0,0.577c0.242,0,0.476-0.002,0.711,0c0.314,0.003,0.5,0.168,0.495,0.438
		c-0.004,0.261-0.187,0.419-0.489,0.421c-0.373,0.002-0.745,0.003-1.117,0c-0.305-0.003-0.47-0.16-0.472-0.461
		c-0.004-0.952-0.004-1.904,0-2.856c0.001-0.3,0.167-0.458,0.472-0.462c0.379-0.004,0.759-0.004,1.138,0
		c0.285,0.003,0.465,0.169,0.468,0.421c0.003,0.263-0.178,0.432-0.475,0.436C12.921,4.482,12.679,4.48,12.427,4.48z"/>
	<path fill-rule="evenodd" clip-rule="evenodd" d="M19.533,9.162c0.608,0,1.216-0.001,1.823,0c0.326,0,0.525,0.17,0.521,0.437
		c-0.005,0.259-0.2,0.421-0.515,0.422c-1.229,0.001-2.459,0.001-3.688,0c-0.324,0-0.525-0.172-0.521-0.438
		c0.005-0.259,0.199-0.42,0.515-0.421C18.29,9.161,18.912,9.162,19.533,9.162z"/>
	<path fill-rule="evenodd" clip-rule="evenodd" d="M19.511,12.084c-0.607,0-1.215,0.001-1.823,0c-0.331-0.001-0.53-0.16-0.534-0.424
		c-0.004-0.268,0.193-0.435,0.522-0.435c1.229-0.001,2.459-0.001,3.688,0c0.313,0,0.509,0.164,0.513,0.422
		c0.004,0.267-0.196,0.436-0.522,0.437C20.74,12.085,20.125,12.084,19.511,12.084z"/>
	<path fill-rule="evenodd" clip-rule="evenodd" d="M19.517,13.287c0.614,0,1.229-0.002,1.844,0c0.316,0,0.511,0.16,0.517,0.42
		c0.006,0.266-0.195,0.438-0.519,0.439c-1.229,0-2.459,0-3.688,0c-0.313-0.002-0.511-0.164-0.517-0.422
		c-0.006-0.266,0.193-0.438,0.519-0.438C18.287,13.285,18.901,13.287,19.517,13.287z"/>
	<path fill-rule="evenodd" clip-rule="evenodd" d="M19.514,15.35c0.615,0,1.229-0.002,1.845,0c0.324,0,0.524,0.172,0.519,0.438
		c-0.006,0.26-0.201,0.42-0.516,0.42c-1.229,0.002-2.459,0.002-3.688,0.002c-0.323-0.002-0.525-0.174-0.52-0.439
		c0.006-0.26,0.2-0.42,0.517-0.42C18.284,15.348,18.899,15.35,19.514,15.35z"/>
	<path fill-rule="evenodd" clip-rule="evenodd" d="M19.527,17.412c0.607,0,1.216-0.002,1.823,0c0.33,0,0.527,0.164,0.526,0.43
		c-0.001,0.268-0.198,0.428-0.53,0.43c-1.236,0-2.473,0-3.71-0.002c-0.241,0-0.405-0.107-0.463-0.305
		c-0.058-0.193-0.003-0.363,0.166-0.467c0.09-0.057,0.213-0.082,0.322-0.082C18.284,17.408,18.906,17.412,19.527,17.412z"/>
	<path fill-rule="evenodd" clip-rule="evenodd" d="M23.811,13.715c0.001,0.236-0.201,0.436-0.437,0.43
		c-0.227-0.004-0.418-0.199-0.42-0.426c-0.001-0.238,0.199-0.436,0.437-0.43C23.62,13.293,23.81,13.484,23.811,13.715z"/>
</g>
</svg>
