<?xml version="1.0" encoding="UTF-8" standalone="no"?>
<!-- Created with Inkscape (http://www.inkscape.org/) -->

<svg
   version="1.1"
   id="svg1"
   width="36"
   height="32"
   viewBox="0 0 36 32"
   sodipodi:docname="dd1fc966-d691-4baa-b2c8-f0bfff4015b3.ai"
   xmlns:inkscape="http://www.inkscape.org/namespaces/inkscape"
   xmlns:sodipodi="http://sodipodi.sourceforge.net/DTD/sodipodi-0.dtd"
   xmlns="http://www.w3.org/2000/svg"
   xmlns:svg="http://www.w3.org/2000/svg">
  <defs
     id="defs1">
    <clipPath
       clipPathUnits="userSpaceOnUse"
       id="clipPath2">
      <path
         d="M 0,24 H 27 V 0 H 0 Z"
         transform="translate(-16.0527,-16.571)"
         id="path2" />
    </clipPath>
    <clipPath
       clipPathUnits="userSpaceOnUse"
       id="clipPath4">
      <path
         d="M 0,24 H 27 V 0 H 0 Z"
         transform="translate(-25.2208,-7.9794002)"
         id="path4" />
    </clipPath>
    <clipPath
       clipPathUnits="userSpaceOnUse"
       id="clipPath6">
      <path
         d="M 0,24 H 27 V 0 H 0 Z"
         transform="translate(-7.2733002,-12.915201)"
         id="path6" />
    </clipPath>
  </defs>
  <sodipodi:namedview
     id="namedview1"
     pagecolor="#ffffff"
     bordercolor="#000000"
     borderopacity="0.25"
     inkscape:showpageshadow="2"
     inkscape:pageopacity="0.0"
     inkscape:pagecheckerboard="0"
     inkscape:deskcolor="#d1d1d1">
    <inkscape:page
       x="0"
       y="0"
       inkscape:label="1"
       id="page1"
       width="36"
       height="32"
       margin="0"
       bleed="0" />
  </sodipodi:namedview>
  <g
     id="layer-MC0"
     inkscape:groupmode="layer"
     inkscape:label="Layer 1">
    <path
       id="path1"
       d="m 0,0 h -0.241 c -3.723,0 -7.447,0 -11.171,0 -0.666,0 -1.03,-0.364 -1.03,-1.032 0,-2.353 0,-4.707 0,-7.06 0,-0.694 0.359,-1.048 1.061,-1.048 3.708,0 7.416,0 11.125,0 l 0.256,0 z m -14.273,-0.548 c 0.158,0.39 0.259,0.819 0.486,1.165 0.534,0.812 1.328,1.209 2.306,1.21 3.731,0.003 7.461,0.001 11.192,0.001 0.09,0 0.181,0 0.286,0 v 1.828 c -0.286,0 -0.566,-0.002 -0.846,0 -0.56,0.004 -0.968,0.387 -0.97,0.908 -0.003,0.532 0.407,0.919 0.981,0.919 1.175,0.002 2.35,0.002 3.525,0 0.577,0 0.987,-0.382 0.986,-0.914 0,-0.53 -0.41,-0.91 -0.988,-0.913 -0.273,-0.001 -0.546,0 -0.83,0 v -16.452 c 0.303,0 0.612,0.007 0.921,-0.002 0.625,-0.017 1.044,-0.615 0.849,-1.202 -0.118,-0.354 -0.444,-0.617 -0.824,-0.62 -1.251,-0.007 -2.502,-0.011 -3.753,0.002 -0.49,0.004 -0.87,0.427 -0.867,0.914 0.002,0.487 0.386,0.888 0.878,0.905 0.305,0.011 0.61,0.002 0.934,0.002 v 1.829 h -0.259 c -3.692,0 -7.385,0.02 -11.077,-0.01 -1.561,-0.012 -2.717,1.066 -2.897,2.33 -0.002,0.02 -0.022,0.038 -0.033,0.056 0,2.682 0,5.363 0,8.044"
       style="fill:#000000;fill-opacity:1;fill-rule:nonzero;stroke:none"
       transform="matrix(1.3333333,0,0,-1.3333333,21.4036,9.9053333)"
       clip-path="url(#clipPath2)" />
    <path
       id="path3"
       d="M 0,0 C -0.123,-0.471 -0.268,-0.932 -0.584,-1.319 -1.125,-1.984 -1.821,-2.347 -2.679,-2.372 -3.304,-2.39 -3.93,-2.38 -4.556,-2.375 c -0.537,0.004 -0.939,0.402 -0.937,0.917 0.002,0.514 0.405,0.905 0.945,0.909 0.58,0.004 1.16,-0.001 1.74,0.001 0.591,0.003 0.975,0.383 0.976,0.971 0.002,2.399 0.002,4.798 0,7.197 -10e-4,0.59 -0.385,0.969 -0.977,0.971 -0.572,0.002 -1.144,-0.002 -1.716,0.001 -0.56,0.003 -0.967,0.388 -0.968,0.91 -0.002,0.524 0.405,0.918 0.961,0.916 0.724,-0.003 1.455,0.042 2.171,-0.042 1.202,-0.142 2.083,-1.028 2.317,-2.209 C -0.036,8.125 -0.015,8.085 0,8.043 Z"
       style="fill:#000000;fill-opacity:1;fill-rule:nonzero;stroke:none"
       transform="matrix(1.3333333,0,0,-1.3333333,33.627733,21.3608)"
       clip-path="url(#clipPath4)" />
    <path
       id="path5"
       d="m 0,0 c -0.321,0 -0.61,-0.004 -0.898,0.001 -0.535,0.008 -0.937,0.407 -0.933,0.921 0.004,0.505 0.403,0.902 0.926,0.904 1.212,0.005 2.424,0.005 3.636,0 C 3.266,1.824 3.667,1.419 3.662,0.904 3.657,0.4 3.259,0.01 2.734,0.001 2.445,-0.004 2.156,0 1.831,0 c 0,-0.089 0,-0.169 0,-0.249 0,-0.806 0.002,-1.613 0,-2.42 C 1.829,-3.245 1.449,-3.654 0.918,-3.655 0.387,-3.657 0.002,-3.246 0,-2.673 -0.001,-1.874 0,-1.075 0,-0.276 0,-0.194 0,-0.111 0,0"
       style="fill:#000000;fill-opacity:1;fill-rule:nonzero;stroke:none"
       transform="matrix(1.3333333,0,0,-1.3333333,9.6977333,14.779733)"
       clip-path="url(#clipPath6)" />
  </g>
</svg>
