<?xml version="1.0" encoding="utf-8"?>
<!-- Generator: Adobe Illustrator 16.0.0, SVG Export Plug-In . SVG Version: 6.00 Build 0)  -->
<!DOCTYPE svg PUBLIC "-//W3C//DTD SVG 1.1//EN" "http://www.w3.org/Graphics/SVG/1.1/DTD/svg11.dtd">
<svg version="1.1" id="Layer_1" xmlns="http://www.w3.org/2000/svg" xmlns:xlink="http://www.w3.org/1999/xlink" x="0px" y="0px"
	 width="27px" height="24px" viewBox="0 0 27 24" enable-background="new 0 0 27 24" xml:space="preserve">
<rect fill="none" width="27" height="24"/>
<g>
	<path fill-rule="evenodd" clip-rule="evenodd" d="M24.724,10.492c-0.049,0.148-0.082,0.303-0.149,0.442
		c-0.272,0.568-0.723,0.903-1.356,0.938c-0.472,0.026-0.945,0.011-1.418,0.013c-0.077,0-0.154,0-0.253,0c0,0.89,0,1.759,0,2.666
		c-0.101-0.041-0.171-0.066-0.239-0.098c-1.854-0.826-3.708-1.656-5.564-2.477c-0.126-0.056-0.273-0.085-0.411-0.087
		c-0.802-0.008-1.604-0.004-2.406-0.004c-0.084,0-0.168,0-0.265,0c0-0.218,0-0.416,0-0.649c0.067,0,0.135,0,0.203,0
		c0.881,0,1.761-0.005,2.642,0.005c0.144,0.001,0.294,0.052,0.428,0.111c1.562,0.692,3.121,1.389,4.682,2.086
		c0.083,0.037,0.167,0.068,0.279,0.117c0-0.785,0-1.541,0-2.32c0.099,0,0.175,0,0.252,0c0.637,0,1.274,0.003,1.912-0.001
		c0.619-0.004,1.017-0.405,1.018-1.027c0.003-0.888,0.001-1.776,0.001-2.664c0-0.079,0-0.157,0-0.276c0.223,0,0.435,0,0.646,0
		C24.724,8.343,24.724,9.417,24.724,10.492z"/>
	<path fill-rule="evenodd" clip-rule="evenodd" d="M24.724,6.625c-0.207,0-0.413,0-0.646,0c0-0.086,0-0.163,0-0.238
		c0-1.124,0-2.248,0-3.371c0-0.742-0.378-1.117-1.126-1.117c-3.229,0-6.456,0-9.684,0c-0.085,0-0.17,0-0.274,0
		c0-0.224,0-0.434,0-0.645c3.452,0,6.904,0,10.355,0c0.394,0.101,0.769,0.254,1.001,0.599c0.159,0.236,0.252,0.516,0.375,0.776
		C24.724,3.96,24.724,5.292,24.724,6.625z"/>
	<path fill-rule="evenodd" clip-rule="evenodd" d="M2.723,13.715c0.206,0,0.412,0,0.646,0c0,0.088,0,0.172,0,0.254
		c0,1.625,0,3.25,0,4.873c0,0.711,0.389,1.098,1.105,1.098c0.608,0,1.216,0,1.825,0c0.077,0,0.153,0,0.253,0c0,0.775,0,1.529,0,2.32
		c1.023-0.455,2.012-0.896,3.026-1.348c0.088,0.193,0.171,0.379,0.262,0.58c-0.08,0.037-0.142,0.07-0.205,0.098
		c-1.148,0.514-2.296,1.025-3.444,1.539c-0.084,0.037-0.164,0.082-0.246,0.125c-0.014,0-0.029,0-0.043,0c0-0.885,0-1.77,0-2.67
		c-0.537,0-1.051,0.006-1.564-0.002c-0.764-0.01-1.388-0.512-1.572-1.25c-0.01-0.041-0.028-0.078-0.043-0.117
		C2.723,17.381,2.723,15.547,2.723,13.715z"/>
	<path fill-rule="evenodd" clip-rule="evenodd" d="M12.348,1.253c0,0.206,0,0.411,0,0.645c-0.433,0-0.833,0.023-1.229-0.004
		c-0.945-0.066-1.352,0.458-1.302,1.298C9.85,3.733,9.821,4.279,9.819,4.823c0,0.014-0.008,0.027-0.018,0.057
		c-0.191,0-0.388,0-0.612,0C9.186,4.806,9.179,4.731,9.178,4.656c-0.001-0.544,0-1.088,0-1.632c0-0.938,0.422-1.489,1.332-1.746
		c0.013-0.003,0.022-0.017,0.034-0.025C11.145,1.253,11.747,1.253,12.348,1.253z"/>
	<path fill-rule="evenodd" clip-rule="evenodd" d="M2.723,11.308c0.057-0.152,0.101-0.31,0.171-0.456
		c0.27-0.561,0.888-0.938,1.434-0.876c0,0.195,0,0.392,0,0.597c-0.05,0.013-0.097,0.028-0.145,0.038
		c-0.498,0.098-0.809,0.468-0.813,0.981c-0.004,0.479-0.001,0.957-0.001,1.479c-0.223,0-0.435,0-0.646,0
		C2.723,12.482,2.723,11.896,2.723,11.308z"/>
	<path fill-rule="evenodd" clip-rule="evenodd" d="M8.676,13.047c-2.078-0.006-3.766-1.704-3.758-3.781
		c0.007-2.072,1.713-3.762,3.789-3.753c2.065,0.009,3.746,1.704,3.743,3.773C12.447,11.369,10.759,13.051,8.676,13.047z
		 M11.804,9.277C11.8,7.558,10.406,6.161,8.693,6.158c-1.72-0.002-3.131,1.408-3.129,3.128c0.002,1.712,1.402,3.112,3.116,3.115
		C10.409,12.403,11.808,11.004,11.804,9.277z"/>
	<path fill-rule="evenodd" clip-rule="evenodd" d="M10.435,21.234c-0.087-0.193-0.169-0.375-0.262-0.584
		c0.202-0.092,0.4-0.166,0.583-0.27c0.654-0.373,1.349-0.477,2.099-0.453c1.223,0.041,2.448,0.012,3.673,0.012
		c0.699,0,1.094-0.393,1.095-1.09c0.001-1.619,0.001-3.236,0.001-4.855c0-0.084,0-0.168,0-0.266c0.214,0,0.411,0,0.646,0
		c0,0.07,0,0.146,0,0.221c0,1.633,0.001,3.266-0.001,4.898c-0.001,1.055-0.682,1.736-1.732,1.736c-1.482,0-2.965-0.002-4.447,0.004
		c-0.124,0-0.255,0.031-0.369,0.08C11.292,20.848,10.871,21.041,10.435,21.234z"/>
	<path fill-rule="evenodd" clip-rule="evenodd" d="M19.471,5.993c0,0.57,0,1.141,0,1.728c-0.212,0-0.408,0-0.624,0
		c0-1.071,0-2.145,0-3.241c0.153,0,0.304-0.014,0.449,0.007c0.06,0.008,0.125,0.081,0.162,0.141
		c0.287,0.469,0.567,0.942,0.852,1.414c0.034,0.058,0.074,0.113,0.148,0.224c0-0.633,0-1.2,0-1.784c0.222,0,0.423,0,0.639,0
		c0,1.069,0,2.131,0,3.224c-0.159,0-0.315,0.014-0.467-0.007c-0.061-0.008-0.125-0.083-0.162-0.144
		c-0.287-0.469-0.568-0.942-0.853-1.414c-0.032-0.054-0.067-0.105-0.101-0.158C19.5,5.987,19.485,5.99,19.471,5.993z"/>
	<path fill-rule="evenodd" clip-rule="evenodd" d="M7.585,17.486c0-0.121,0-0.234,0-0.346c0-0.559-0.005-1.115,0.001-1.674
		c0.009-0.691,0.521-1.209,1.185-1.209c0.669,0,1.172,0.51,1.18,1.207c0.007,0.672,0.001,1.342,0.001,2.023
		c-0.218,0-0.416,0-0.635,0c0-0.189,0-0.379,0-0.588c-0.367,0-0.712,0-1.08,0c0,0.191,0,0.381,0,0.586
		C8.013,17.486,7.811,17.486,7.585,17.486z M8.233,16.221c0.37,0,0.714,0,1.073,0c0-0.266,0.005-0.516-0.001-0.764
		c-0.008-0.324-0.211-0.539-0.509-0.551c-0.307-0.012-0.543,0.199-0.561,0.523C8.222,15.686,8.233,15.943,8.233,16.221z"/>
	<path fill-rule="evenodd" clip-rule="evenodd" d="M15.827,4.478c0.215,0,0.411,0,0.633,0c0,0.161,0,0.31,0,0.458
		c0,0.501-0.002,1.002,0.001,1.502c0.002,0.388,0.2,0.618,0.528,0.621c0.334,0.003,0.544-0.235,0.546-0.63
		c0.004-0.565,0.001-1.13,0.001-1.695c0-0.078,0-0.156,0-0.251c0.216,0,0.418,0,0.627,0c0.007,0.031,0.018,0.059,0.018,0.085
		c0.001,0.658,0.013,1.317-0.004,1.975c-0.015,0.61-0.47,1.101-1.035,1.156c-0.606,0.06-1.131-0.293-1.288-0.867
		c-0.012-0.042-0.025-0.084-0.025-0.126C15.827,5.97,15.827,5.234,15.827,4.478z"/>
	<path fill-rule="evenodd" clip-rule="evenodd" d="M12.952,15.426c-0.203,0-0.401,0-0.599,0c-0.01-0.012-0.025-0.02-0.028-0.031
		c-0.093-0.359-0.304-0.523-0.62-0.482c-0.282,0.035-0.453,0.258-0.459,0.604c-0.003,0.215-0.001,0.43,0,0.645
		c0.002,0.396,0.156,0.617,0.465,0.668c0.299,0.047,0.514-0.125,0.636-0.533c0.091,0,0.189,0,0.287,0c0.1,0,0.199,0,0.329,0
		c-0.012,0.113-0.01,0.211-0.034,0.303c-0.141,0.541-0.658,0.92-1.198,0.885c-0.576-0.039-1.052-0.449-1.104-1.016
		c-0.038-0.418-0.04-0.846,0.01-1.262c0.07-0.582,0.638-0.984,1.246-0.943c0.569,0.041,1.046,0.514,1.077,1.068
		C12.96,15.357,12.955,15.387,12.952,15.426z"/>
	<path fill-rule="evenodd" clip-rule="evenodd" d="M13.717,5.771c0.32,0,0.624,0,0.94,0c0,0.217,0,0.415,0,0.64
		c-0.309,0-0.617,0-0.954,0c0,0.453,0,0.879,0,1.314c-0.225,0-0.422,0-0.634,0c0-1.077,0-2.146,0-3.23c0.672,0,1.34,0,2.019,0
		c0,0.202,0,0.399,0,0.625c-0.45,0-0.903,0-1.371,0C13.717,5.344,13.717,5.541,13.717,5.771z"/>
	<path fill-rule="evenodd" clip-rule="evenodd" d="M5.562,16.188c0,0.459,0,0.871,0,1.299c-0.217,0-0.419,0-0.633,0
		c0-1.072,0-2.135,0-3.215c0.675,0,1.343,0,2.025,0c0,0.203,0,0.4,0,0.625c-0.456,0-0.911,0-1.377,0c0,0.225,0,0.422,0,0.646
		c0.311,0,0.623,0,0.947,0c0,0.225,0,0.42,0,0.645C6.21,16.188,5.899,16.188,5.562,16.188z"/>
	<path fill-rule="evenodd" clip-rule="evenodd" d="M16.168,14.273c0,0.209,0,0.402,0,0.617c-0.309,0-0.613,0-0.948,0
		c0,0.877,0,1.73,0,2.598c-0.229,0-0.425,0-0.652,0c0-0.857,0-1.711,0-2.586c-0.336,0-0.643,0-0.96,0c0-0.217,0-0.414,0-0.629
		C14.454,14.273,15.301,14.273,16.168,14.273z"/>
	<path fill-rule="evenodd" clip-rule="evenodd" d="M5.393,5.898C5.267,6.025,5.125,6.166,4.999,6.292
		C4.574,5.867,4.152,5.446,3.72,5.014c0.128-0.118,0.278-0.255,0.41-0.376C4.536,5.042,4.958,5.464,5.393,5.898z"/>
	<path fill-rule="evenodd" clip-rule="evenodd" d="M5.876,5.441c0-0.287,0-0.555,0-0.836c0.208,0,0.406,0,0.618,0
		c0,0.276,0,0.549,0,0.836C6.291,5.441,6.094,5.441,5.876,5.441z"/>
	<path fill-rule="evenodd" clip-rule="evenodd" d="M3.536,7.519c0-0.204,0-0.4,0-0.613c0.272,0,0.539,0,0.828,0
		c0,0.194,0,0.395,0,0.613C4.093,7.519,3.821,7.519,3.536,7.519z"/>
	<path fill-rule="evenodd" clip-rule="evenodd" d="M21.514,2.619c0.209,0,0.4,0,0.61,0c0,0.208,0,0.409,0,0.625
		c-0.199,0-0.396,0-0.61,0C21.514,3.042,21.514,2.84,21.514,2.619z"/>
	<path fill-rule="evenodd" clip-rule="evenodd" d="M23.421,2.624c0,0.216,0,0.413,0,0.622c-0.208,0-0.405,0-0.618,0
		c0-0.207,0-0.408,0-0.622C23.007,2.624,23.204,2.624,23.421,2.624z"/>
	<path fill-rule="evenodd" clip-rule="evenodd" d="M23.414,4.542c-0.208,0-0.399,0-0.609,0c0-0.207,0-0.409,0-0.625
		c0.197,0,0.395,0,0.609,0C23.414,4.117,23.414,4.319,23.414,4.542z"/>
	<path fill-rule="evenodd" clip-rule="evenodd" d="M6.26,19.285c-0.21,0-0.401,0-0.609,0c0-0.209,0-0.41,0-0.625
		c0.201,0,0.397,0,0.609,0C6.26,18.869,6.26,19.076,6.26,19.285z"/>
	<path fill-rule="evenodd" clip-rule="evenodd" d="M14.724,18.656c0.211,0,0.408,0,0.619,0c0,0.207,0,0.408,0,0.625
		c-0.205,0-0.406,0-0.619,0C14.724,19.074,14.724,18.879,14.724,18.656z"/>
	<path fill-rule="evenodd" clip-rule="evenodd" d="M16.019,18.66c0.204,0,0.401,0,0.614,0c0,0.203,0,0.406,0,0.621
		c-0.203,0-0.4,0-0.614,0C16.019,19.076,16.019,18.875,16.019,18.66z"/>
	<path fill-rule="evenodd" clip-rule="evenodd" d="M4.969,19.287c-0.208,0-0.398,0-0.608,0c0-0.209,0-0.41,0-0.625
		c0.197,0,0.393,0,0.608,0C4.969,18.861,4.969,19.063,4.969,19.287z"/>
	<path fill-rule="evenodd" clip-rule="evenodd" d="M10.703,9.399c0.134,0.774-0.229,1.605-0.906,2.024
		c-0.744,0.461-1.51,0.463-2.241-0.018c-0.71-0.467-0.966-1.164-0.908-2.006C8.011,9.399,9.358,9.399,10.703,9.399z M10.017,10.048
		c-0.888,0-1.774,0-2.663,0c0.089,0.599,0.698,1.069,1.354,1.059C9.351,11.097,9.941,10.625,10.017,10.048z"/>
	<path fill-rule="evenodd" clip-rule="evenodd" d="M7.703,7.791c0,0.229,0,0.441,0,0.665c-0.208,0-0.405,0-0.618,0
		c0-0.22,0-0.437,0-0.665C7.29,7.791,7.486,7.791,7.703,7.791z"/>
	<path fill-rule="evenodd" clip-rule="evenodd" d="M9.666,7.789c0.21,0,0.407,0,0.617,0c0,0.225,0,0.441,0,0.667
		c-0.21,0-0.406,0-0.617,0C9.666,8.236,9.666,8.026,9.666,7.789z"/>
</g>
</svg>
