<?xml version="1.0" encoding="utf-8"?>
<!-- Generator: Adobe Illustrator 16.0.0, SVG Export Plug-In . SVG Version: 6.00 Build 0)  -->
<!DOCTYPE svg PUBLIC "-//W3C//DTD SVG 1.1//EN" "http://www.w3.org/Graphics/SVG/1.1/DTD/svg11.dtd">
<svg version="1.1" id="Layer_1" xmlns="http://www.w3.org/2000/svg" xmlns:xlink="http://www.w3.org/1999/xlink" x="0px" y="0px"
	 width="27px" height="24px" viewBox="0 0 27 24" enable-background="new 0 0 27 24" xml:space="preserve">
<rect fill="none" width="27" height="24"/>
<g>
	<path fill-rule="evenodd" clip-rule="evenodd" d="M10.989,17.965c-0.12,0-0.208,0-0.295,0c-1.729,0-3.459,0-5.188-0.002
		c-1.105,0-1.84-0.727-1.84-1.828c-0.001-3.716-0.001-7.434,0-11.152c0-1.086,0.739-1.826,1.823-1.827c1.626-0.002,3.252,0,4.878,0
		c0.087,0,0.174,0,0.245,0c0.021-0.028,0.029-0.035,0.028-0.04c-0.067-0.425,0.198-0.676,0.473-0.933
		c0.302-0.283,0.579-0.592,0.884-0.871c0.093-0.085,0.244-0.151,0.369-0.151c1.619-0.01,3.237-0.007,4.856-0.006
		c0.303,0,0.407,0.109,0.408,0.419c0.002,0.517,0,1.033,0,1.582c0.099,0,0.185,0,0.27,0c1.56,0,3.119,0,4.679,0
		c0.919,0,1.482,0.561,1.483,1.475c0,3.829,0,7.657,0,11.485c-0.001,1.121-0.728,1.848-1.843,1.848
		c-1.752,0.002-3.504,0.002-5.256,0.002c-0.079,0-0.159,0-0.305,0c0.08,0.541,0.133,1.061,0.238,1.568
		c0.079,0.379,0.229,0.746,0.342,1.119c0.037,0.119,0.107,0.152,0.229,0.15c0.34-0.008,0.68-0.008,1.02-0.002
		c0.657,0.012,1.173,0.529,1.175,1.172c0.002,0.637-0.516,1.174-1.17,1.176c-3.082,0.006-6.165,0.006-9.247,0
		c-0.659-0.002-1.174-0.525-1.18-1.166c-0.006-0.646,0.519-1.172,1.187-1.182c0.34-0.006,0.68,0.006,1.02-0.008
		c0.068-0.002,0.17-0.061,0.194-0.117C10.816,19.816,10.961,18.918,10.989,17.965z M18.877,7.748
		c0.05,0.008,0.064,0.013,0.079,0.013c0.192,0.001,0.384,0,0.576,0.002c0.312,0.003,0.432,0.144,0.369,0.448
		c-0.336,1.641-0.676,3.282-1.016,4.922c-0.055,0.264-0.141,0.334-0.41,0.334c-2.89,0.002-5.78,0.002-8.67,0
		c-0.3,0-0.404-0.104-0.405-0.402c-0.001-2.623-0.001-5.247,0-7.871c0-0.293,0.111-0.395,0.408-0.397c0.272-0.002,0.545,0,0.828,0
		c0-0.347,0-0.674,0-1.018c-0.091,0-0.164,0-0.237,0c-1.626,0-3.252,0-4.878,0c-0.784,0-1.234,0.454-1.234,1.242
		c0,3.083,0,6.165,0,9.245c0,0.078,0,0.158,0,0.234c6.399,0,12.767,0,19.151,0c0-0.076,0-0.133,0-0.191c0-3.237,0.001-6.474,0-9.711
		c0-0.525-0.3-0.818-0.832-0.818c-1.582-0.001-3.164,0-4.745,0c-0.072,0-0.144,0.006-0.216,0.009c0,0.156,0,0.293,0,0.445
		c0.288,0,0.562-0.003,0.834,0c0.297,0.004,0.396,0.106,0.396,0.405c0.001,0.843,0.001,1.685,0.001,2.528
		C18.877,7.357,18.877,7.548,18.877,7.748z M4.291,15.156c0,0.404-0.01,0.779,0.003,1.156c0.01,0.266,0.121,0.502,0.309,0.693
		c0.254,0.258,0.57,0.34,0.927,0.34c5.556-0.004,11.112-0.002,16.668-0.002c0.06,0,0.119,0,0.178-0.004
		c0.501-0.021,0.955-0.363,1.017-0.857c0.055-0.432,0.012-0.877,0.012-1.326C17.045,15.156,10.679,15.156,4.291,15.156z
		 M11.016,8.393c-0.306,1.484-0.609,2.954-0.915,4.432c0.064,0.01,0.1,0.018,0.136,0.018c2.637,0,5.275,0,7.913,0.002
		c0.13,0.002,0.176-0.045,0.2-0.172c0.088-0.462,0.189-0.924,0.285-1.386c0.198-0.96,0.396-1.92,0.596-2.893
		C16.491,8.393,13.767,8.393,11.016,8.393z M11.905,7.75c0-0.604,0.005-1.192-0.003-1.781c-0.002-0.177,0.055-0.307,0.18-0.43
		c0.375-0.365,0.747-0.735,1.111-1.113c0.133-0.138,0.277-0.197,0.469-0.196c1.019,0.006,2.038,0.002,3.058,0.002
		c0.087,0,0.174,0,0.271,0c0-0.831,0-1.638,0-2.442c-1.476,0-2.935,0-4.411,0c0,0.301,0.001,0.588,0,0.875
		c-0.001,0.323-0.098,0.421-0.424,0.424c-0.285,0.003-0.57,0-0.867,0c0,1.569,0,3.108,0,4.66C11.49,7.75,11.679,7.75,11.905,7.75z
		 M18.243,7.754c0-0.969,0-1.919,0-2.881c-1.47,0-2.928,0-4.414,0c0,0.306,0.002,0.599,0,0.893
		c-0.002,0.296-0.104,0.398-0.399,0.399c-0.293,0.002-0.587,0-0.887,0c0,0.542,0,1.062,0,1.589
		C14.445,7.754,16.334,7.754,18.243,7.754z M16.621,20.793c-0.347-0.924-0.514-1.861-0.556-2.811c-1.5,0-2.972,0-4.455,0
		c-0.016,0.971-0.194,1.896-0.504,2.811C12.954,20.793,14.77,20.793,16.621,20.793z M13.862,21.422c-1.478,0-2.955,0-4.432,0
		c-0.074,0-0.148-0.004-0.222,0.004c-0.292,0.025-0.511,0.256-0.517,0.539c-0.005,0.273,0.195,0.51,0.476,0.555
		c0.08,0.014,0.162,0.01,0.243,0.01c2.969,0,5.938,0,8.908,0c0.074,0,0.148,0.002,0.222-0.008c0.268-0.035,0.46-0.23,0.49-0.494
		c0.039-0.344-0.227-0.604-0.626-0.605C16.891,21.42,15.377,21.422,13.862,21.422z M10.655,5.428c-0.224,0-0.413,0-0.616,0
		c0,1.492,0,2.973,0,4.455c0.154-0.592,0.277-1.188,0.405-1.784c0.016-0.077,0.034-0.177,0.088-0.219
		c0.127-0.097,0.125-0.22,0.123-0.354c-0.003-0.266-0.001-0.531-0.001-0.796C10.655,6.303,10.655,5.877,10.655,5.428z"/>
	<path fill-rule="evenodd" clip-rule="evenodd" d="M13.862,16.551c-0.25,0-0.501,0.004-0.751-0.002
		c-0.204-0.004-0.335-0.127-0.338-0.301c-0.002-0.176,0.127-0.314,0.329-0.316c0.508-0.008,1.017-0.008,1.526,0
		c0.199,0.002,0.33,0.143,0.327,0.316c-0.004,0.174-0.137,0.297-0.341,0.301C14.363,16.555,14.113,16.551,13.862,16.551z"/>
</g>
</svg>
